# Blender v2.80 (sub 75) OBJ File: 'naboo.blend'
# www.blender.org
v 16.418228 -39.587635 50.036469
v 17.981781 -43.693092 55.929348
v 10.910883 -44.200951 51.589680
v 23.851154 -40.812073 38.069031
v 20.121639 -38.202572 43.840336
v 16.602306 -41.527328 37.083965
v 12.233381 -40.807621 44.118305
v 22.348856 -46.085152 33.173695
v 23.999733 -63.563797 40.489105
v 22.436211 -59.458328 34.596222
v 16.743710 -63.165474 39.385643
v 14.514629 -56.955254 34.330887
v 8.768167 -52.397480 38.241146
v 10.522805 -59.305347 40.037643
v 7.445673 -55.790775 45.712471
v 10.998223 -57.574097 53.012146
v 16.566807 -62.339363 52.456539
v 12.374760 -62.445751 46.419868
v 27.278063 -52.740208 33.881050
v 20.207386 -52.998276 31.889378
v 14.460579 -48.690243 33.451725
v 10.430826 -45.244087 38.541965
v 13.139931 -50.411217 56.644516
v 8.180834 -51.017136 51.253029
v 18.069094 -57.066261 57.351883
v 23.815655 -61.624107 53.441605
v 28.184586 -62.343784 46.407253
v 20.296329 -64.948837 46.685253
v 33.026352 -55.625664 45.692207
v 32.237129 -52.134304 39.272541
v 29.507080 -58.950489 38.935890
v 32.972313 -47.360680 44.813110
v 29.419769 -45.577328 37.513424
v 28.043201 -40.705685 44.105701
v 23.674259 -39.985939 51.139946
v 25.903349 -46.196175 56.194702
v 25.957390 -54.461166 57.073864
v 20.210585 -50.153133 58.636215
v 31.649826 -50.753944 52.284424
v 29.987167 -57.907341 51.983604
v 16.943413 -57.121590 50.130329
v 13.551858 -55.024017 48.247063
v 16.204823 -53.230526 52.070282
v 12.148778 -51.896381 45.472359
v 13.174278 -47.628963 45.040112
v 13.386574 -50.159218 49.332413
v 20.552452 -55.669739 52.207912
v 16.662273 -48.845135 51.976830
v 15.827250 -45.835499 48.863327
v 20.153856 -46.234604 51.311195
v 24.158016 -44.579800 44.503712
v 26.866102 -48.127422 42.278511
v 26.976204 -47.651085 47.241608
v 28.269188 -51.255024 45.053200
v 27.209576 -52.221443 49.223652
v 24.058914 -52.994972 52.210979
v 24.501493 -48.673786 51.448811
v 23.661913 -45.219440 48.838932
v 19.941551 -43.704369 47.018944
v 27.031406 -52.992218 41.193172
v 24.768969 -56.545212 49.692741
v 20.387203 -50.804947 53.293224
v 19.865519 -47.481670 38.317677
v 23.474541 -46.029823 40.395248
v 19.831415 -44.180660 42.055832
v 27.243706 -55.522488 45.485474
v 24.590712 -57.315937 41.662243
v 20.586554 -58.970749 48.469757
v 13.208402 -50.929989 41.301933
v 16.359060 -50.156456 38.314575
v 15.649008 -46.606220 40.832844
v 24.213150 -49.920883 38.455307
v 20.030758 -52.346493 37.232346
v 23.755707 -54.306267 38.548744
v 13.441755 -55.500351 43.283962
v 20.264095 -56.916805 39.214378
v 15.916481 -54.477638 39.076744
v 16.756046 -57.931999 41.686638
v 24.445129 -57.796253 50.918480
v 27.315926 -57.591026 46.653702
v 22.332283 -60.556274 47.125027
v 28.063965 -55.589001 41.973423
v 29.585018 -52.328102 45.651062
v 28.130783 -50.743256 40.244930
v 19.976141 -49.717716 54.488865
v 16.767334 -53.674984 53.770138
v 15.455057 -48.124657 52.619228
v 20.441860 -53.433731 36.036705
v 23.650650 -49.476421 36.755440
v 17.855902 -49.011459 36.515533
v 12.112427 -54.308945 41.312851
v 15.586823 -54.274368 37.518127
v 12.960028 -49.525894 39.616734
v 20.832745 -42.517551 47.750290
v 15.958586 -43.892529 48.658348
v 18.085684 -42.595135 43.400532
v 23.880398 -43.060089 43.640472
v 13.102041 -45.560432 43.871864
v 15.972845 -45.355171 39.607075
v 10.832935 -50.823311 44.874512
v 21.023819 -44.727989 38.854061
v 25.334702 -44.644871 49.046658
v 20.438768 -45.159355 52.147858
v 24.962902 -55.026779 37.906342
v 12.287177 -52.408180 50.280640
v 12.354014 -47.562431 48.552166
v 12.145176 -56.373634 46.025490
v 16.537556 -60.091328 46.885101
v 15.083278 -58.506561 41.478928
v 19.585215 -60.633881 42.775280
v 28.272778 -46.777779 44.500084
v 25.831390 -46.146244 40.015289
v 28.305557 -48.842510 49.212734
v 22.562075 -54.139973 54.010056
v 19.394167 -58.423416 51.671513
v 14.586588 -57.005192 50.510300
v 27.457932 -53.625538 50.908840
v 24.459373 -59.258907 41.867222
v 29.305410 -53.444386 50.696072
v 25.059540 -53.080795 54.747757
v 27.898525 -47.841942 51.796356
v 11.279543 -56.193531 49.096634
v 12.617618 -59.122131 44.176285
v 9.613585 -53.191620 44.322666
v 19.364840 -52.267643 55.966331
v 14.464216 -54.696697 53.807648
v 15.507242 -48.148975 54.313126
v 30.804407 -49.959805 46.202904
v 16.223194 -59.796593 39.580509
v 18.362364 -56.001156 35.631424
v 12.519444 -55.309467 38.729233
v 21.053135 -50.883785 34.559223
v 25.953756 -48.454727 36.717907
v 20.050144 -45.406727 36.449379
v 24.194769 -43.354839 50.945065
v 18.346279 -42.910168 51.361649
v 21.896744 -40.981361 46.080677
v 15.348459 -41.980049 45.499619
v 19.094587 -41.772400 40.972008
v 14.207235 -44.715080 39.547146
v 10.656702 -46.643906 44.828087
v 11.112560 -49.707024 39.829517
v 15.358438 -50.070637 35.777832
v 24.802526 -43.099186 40.487255
v 22.055616 -47.150291 54.894127
v 24.910736 -55.002457 36.212460
v 27.800352 -44.029327 46.349281
v 29.138437 -46.957920 41.428917
v 10.754838 -50.456562 50.275173
v 13.054094 -45.053890 49.956520
v 22.071722 -60.241280 39.163918
v 27.363882 -58.097542 40.569069
v 25.069517 -61.171379 45.025967
v 26.210726 -58.436356 50.978424
v 21.323374 -61.379040 49.553566
v 20.367834 -57.744705 54.076210
v 10.473591 -54.754333 38.811115
v 14.655682 -51.959347 34.514801
v 10.280664 -48.155983 39.242882
v 20.496490 -49.049786 33.428822
v 26.682995 -50.719780 35.071594
v 23.605389 -44.036800 36.423370
v 14.718222 -61.875668 48.467251
v 10.676561 -57.001114 50.381706
v 16.812601 -59.114620 54.102200
v 29.944393 -48.397125 51.714470
v 25.762295 -51.192081 56.010750
v 25.157444 -44.182281 53.469841
v 25.699738 -41.275768 42.058319
v 29.158695 -43.653236 47.171448
v 22.662525 -39.996487 47.794136
v 19.230371 -40.233524 41.151512
v 19.266171 -47.535313 56.633457
v 18.892481 -42.175861 52.773815
v 13.130156 -45.421833 52.913013
v 15.229177 -40.762577 47.449944
v 9.697973 -45.658882 46.270416
v 13.053350 -42.579166 41.472740
v 29.741432 -46.150311 40.143860
v 32.236420 -50.336136 45.819603
v 30.137297 -54.995457 51.282684
v 16.171951 -44.802937 36.079250
v 21.151806 -55.616119 33.892128
v 25.188772 -62.388832 43.075630
v 27.364624 -60.572258 49.052814
v 30.719986 -57.492554 44.255150
vn -0.4130 0.6922 0.5918
vn -0.0309 0.9031 -0.4283
vn -0.5794 0.7758 0.2498
vn 0.0336 0.6748 -0.7372
vn 0.0433 -0.8143 -0.5788
vn -0.6985 -0.3410 -0.6291
vn -0.9033 -0.3073 -0.2995
vn -0.5697 -0.7133 0.4082
vn 0.2692 -0.2917 -0.9178
vn -0.1045 0.2129 -0.9715
vn -0.1914 0.4888 -0.8511
vn -0.4752 0.5068 -0.7193
vn -0.7227 -0.1283 0.6792
vn -0.4887 -0.2739 0.8283
vn -0.4048 -0.5575 0.7248
vn 0.3096 -0.9071 0.2851
vn 0.2667 0.0956 -0.9590
vn -0.4933 0.4357 0.7528
vn 0.8917 -0.3425 -0.2959
vn 0.8876 0.2841 -0.3626
vn 0.3004 0.9269 -0.2250
vn -0.0433 0.8143 0.5788
vn 0.9920 -0.0069 -0.1257
vn 0.3314 0.1019 0.9380
vn 0.6071 0.0880 0.7897
vn 0.7020 -0.1920 0.6858
vn -0.6283 -0.4394 0.6421
vn -0.9494 0.2477 0.1930
vn -0.2904 -0.4705 0.8332
vn -0.3376 0.6299 0.6994
vn 0.7682 0.6354 -0.0780
vn 0.9285 0.3670 -0.0558
vn 0.6791 0.0595 0.7316
vn 0.3247 0.6191 0.7150
vn 0.1046 0.8590 0.5012
vn -0.2080 0.8381 0.5043
vn 0.9312 0.1092 -0.3478
vn 0.6920 -0.3204 0.6469
vn -0.1540 -0.2201 0.9632
vn 0.0789 0.7476 -0.6595
vn 0.9494 -0.2477 -0.1930
vn 0.8065 -0.4910 -0.3293
vn -0.0789 -0.7476 0.6595
vn -0.9312 -0.1092 0.3478
vn -0.6920 0.3204 -0.6469
vn 0.2904 0.4705 -0.8332
vn 0.1540 0.2201 -0.9632
vn 0.3081 -0.0524 -0.9499
vn -0.9285 -0.3670 0.0558
vn 0.1175 -0.3901 -0.9133
vn -0.1953 -0.3986 -0.8961
vn -0.3247 -0.6191 -0.7150
vn 0.5083 -0.8060 0.3033
vn 0.9500 -0.1164 -0.2897
vn -0.3460 0.1114 0.9316
vn 0.0520 0.1375 -0.9891
vn -0.7327 -0.1084 -0.6719
vn -0.2451 0.9597 0.1377
vn 0.0827 0.9941 -0.0699
vn -0.7203 0.5193 -0.4599
vn -0.8995 0.3342 -0.2814
vn -0.9294 0.0344 -0.3675
vn -0.1900 0.5750 -0.7958
vn 0.3826 0.9093 0.1636
vn -0.1477 0.8536 0.4996
vn 0.3460 -0.1114 -0.9316
vn -0.7588 0.2281 0.6101
vn -0.6109 0.0197 0.7915
vn -0.6391 -0.7673 -0.0530
vn -0.3826 -0.9093 -0.1636
vn 0.8291 0.3949 -0.3957
vn 0.9613 0.1849 -0.2044
vn 0.9631 0.2489 0.1024
vn -0.0520 -0.1375 0.9891
vn -0.0721 -0.4363 0.8969
vn -0.3439 -0.5322 0.7737
vn -0.0827 -0.9941 0.0699
vn 0.7203 -0.5193 0.4599
vn 0.5109 -0.8596 -0.0054
vn 0.6914 0.0319 0.7217
vn -0.8915 -0.4522 0.0267
vn -0.4002 -0.0070 0.9164
vn 0.8994 0.1449 0.4124
vn -0.4493 -0.5100 -0.7335
vn 0.2242 0.3544 -0.9078
vn 0.0977 0.9118 0.3987
vn -0.1439 0.9868 -0.0738
vn -0.1670 0.9570 0.2372
vn -0.4223 0.8517 -0.3104
vn -0.8005 0.4757 -0.3645
vn -0.1593 0.2959 -0.9419
vn 0.3376 0.5892 -0.7341
vn 0.1035 0.6885 0.7178
vn -0.9668 0.1688 -0.1916
vn 0.4002 0.0070 -0.9164
vn 0.8915 0.4522 -0.0267
vn 0.8582 0.4277 0.2839
vn -0.6992 0.3348 0.6316
vn -0.6600 0.0473 0.7498
vn -0.8994 -0.1449 -0.4124
vn -0.8582 -0.4277 -0.2839
vn -0.6572 -0.6230 -0.4242
vn 0.4244 -0.6080 -0.6709
vn 0.4302 -0.8313 -0.3519
vn 0.2521 -0.7276 0.6380
vn -0.7241 0.0239 -0.6893
vn 0.3243 0.3287 -0.8870
vn -0.5434 -0.6562 0.5235
vn 0.5639 0.3240 0.7597
vn 0.4944 0.8666 0.0685
vn 0.1749 0.9766 -0.1252
vn 0.0983 0.5861 0.8043
vn 0.2818 0.3484 0.8940
vn -0.2887 0.5462 0.7864
vn -0.4186 0.7641 0.4909
vn -0.6654 0.6746 0.3197
vn -0.6645 0.7471 0.0148
vn 0.2052 0.8466 -0.4911
vn 0.7221 0.6685 -0.1777
vn -0.8238 0.5092 -0.2492
vn 0.5434 0.6562 -0.5235
vn 0.5720 0.4074 -0.7119
vn 0.9324 0.0036 0.3614
vn -0.6154 0.5368 -0.5772
vn -0.5754 0.2892 -0.7650
vn 0.2453 -0.0438 -0.9684
vn 0.6645 -0.7471 -0.0148
s 1
f 1//1 3//1 2//1
f 4//2 6//2 5//2
f 1//3 7//3 3//3
f 4//4 8//4 6//4
f 9//5 11//5 10//5
f 12//6 14//6 13//6
f 13//7 14//7 15//7
f 16//8 18//8 17//8
f 19//9 10//9 20//9
f 8//10 20//10 21//10
f 8//11 21//11 6//11
f 6//12 21//12 22//12
f 23//13 24//13 16//13
f 23//14 16//14 25//14
f 25//15 16//15 17//15
f 26//16 28//16 27//16
f 19//17 20//17 8//17
f 3//18 23//18 2//18
f 29//19 31//19 30//19
f 32//20 30//20 33//20
f 34//21 4//21 5//21
f 35//22 1//22 2//22
f 29//23 30//23 32//23
f 36//24 38//24 37//24
f 36//25 37//25 39//25
f 39//26 37//26 40//26
f 41//27 43//27 42//27
f 44//28 46//28 45//28
f 41//29 47//29 43//29
f 48//30 50//30 49//30
f 51//31 53//31 52//31
f 52//32 53//32 54//32
f 55//33 57//33 56//33
f 57//34 58//34 50//34
f 50//35 58//35 59//35
f 50//36 59//36 49//36
f 60//37 52//37 54//37
f 61//38 55//38 56//38
f 47//39 62//39 43//39
f 63//40 65//40 64//40
f 60//41 54//41 66//41
f 60//42 66//42 67//42
f 68//43 47//43 41//43
f 42//44 46//44 44//44
f 69//45 71//45 70//45
f 63//46 64//46 72//46
f 63//47 72//47 73//47
f 73//48 72//48 74//48
f 75//49 42//49 44//49
f 73//50 74//50 76//50
f 73//51 76//51 77//51
f 77//52 76//52 78//52
f 79//53 81//53 80//53
f 82//54 84//54 83//54
f 85//55 87//55 86//55
f 88//56 90//56 89//56
f 91//57 93//57 92//57
f 94//58 96//58 95//58
f 97//59 96//59 94//59
f 98//60 99//60 93//60
f 98//61 93//61 100//61
f 100//62 93//62 91//62
f 90//63 99//63 101//63
f 102//64 97//64 94//64
f 103//65 94//65 95//65
f 104//66 88//66 89//66
f 87//67 106//67 105//67
f 87//68 105//68 86//68
f 107//69 109//69 108//69
f 108//70 109//70 110//70
f 84//71 112//71 111//71
f 84//72 111//72 83//72
f 83//73 111//73 113//73
f 114//74 85//74 86//74
f 114//75 86//75 115//75
f 115//76 86//76 116//76
f 81//77 108//77 110//77
f 80//78 117//78 79//78
f 81//79 118//79 80//79
f 119//80 121//80 120//80
f 122//81 124//81 123//81
f 125//82 127//82 126//82
f 119//83 128//83 121//83
f 129//84 131//84 130//84
f 132//85 134//85 133//85
f 135//86 137//86 136//86
f 137//87 139//87 138//87
f 137//88 138//88 136//88
f 138//89 139//89 140//89
f 141//90 140//90 142//90
f 143//91 134//91 132//91
f 134//92 144//92 133//92
f 145//93 135//93 136//93
f 124//94 141//94 142//94
f 146//95 132//95 133//95
f 128//96 148//96 147//96
f 128//97 147//97 121//97
f 127//98 150//98 149//98
f 127//99 149//99 126//99
f 124//100 142//100 131//100
f 124//101 131//101 123//101
f 123//102 131//102 129//102
f 151//103 146//103 152//103
f 153//104 151//104 152//104
f 154//105 156//105 155//105
f 157//106 159//106 158//106
f 160//107 162//107 161//107
f 163//108 165//108 164//108
f 166//109 168//109 167//109
f 169//110 171//110 170//110
f 172//111 171//111 169//111
f 168//112 174//112 173//112
f 168//113 173//113 167//113
f 173//114 174//114 175//114
f 175//115 174//115 176//115
f 175//116 176//116 177//116
f 177//117 176//117 178//117
f 162//118 172//118 169//118
f 179//119 169//119 170//119
f 159//120 177//120 178//120
f 162//121 169//121 179//121
f 162//122 179//122 161//122
f 180//123 166//123 181//123
f 159//124 178//124 182//124
f 159//125 182//125 158//125
f 183//126 160//126 161//126
f 184//127 186//127 185//127
