# Blender v2.80 (sub 75) OBJ File: 'kessler_syndrome.blend'
# www.blender.org
v 6.041814 0.866918 -14.053339
v 3.749031 0.100503 -13.424749
v 5.647480 -1.522776 -13.442368
v 7.130702 -0.954949 -15.370341
v 3.420887 -2.195095 -14.353277
v 5.510856 -2.847394 -15.555708
v 5.820775 -1.276360 -17.472790
v 3.527992 -2.042774 -16.844200
v 4.265246 0.400499 -13.351963
v 4.914833 0.671858 -13.438873
v 5.552833 0.830902 -13.704970
v 5.639854 1.272031 -14.243266
v 5.096997 1.595282 -14.565698
v 3.882515 1.508693 -14.790360
v 3.749330 1.144801 -14.196225
v 3.708470 0.626428 -13.713759
v 5.730072 1.400342 -16.341555
v 5.159945 1.684811 -16.029825
v 6.226694 1.088873 -14.580895
v 5.864446 -0.966911 -13.366802
v 6.030706 -0.282280 -13.449224
v 6.085897 0.375100 -13.709914
v 4.154518 -0.270511 -13.180403
v 4.683048 -0.732773 -13.079746
v 5.220656 -1.182117 -13.190300
v 7.113871 -0.488585 -14.990875
v 6.902514 0.051484 -14.582455
v 6.170194 -1.478477 -13.736602
v 7.003149 -1.159596 -14.819319
v 7.143948 -0.445818 -15.690309
v 6.965475 0.141010 -16.046585
v 3.854448 0.834001 -17.108889
v 3.851187 1.289641 -16.565252
v 3.931172 1.577887 -15.922073
v 5.691709 1.028407 -16.934971
v 5.079636 0.906230 -17.272022
v 3.253627 0.095046 -13.765805
v 2.979364 0.955890 -15.432012
v 2.605012 0.355684 -15.484809
v 3.878098 -2.204263 -13.962569
v 4.490170 -2.082087 -13.625517
v 5.128517 -1.826698 -13.451019
v 3.529302 -0.459290 -13.436173
v 3.374277 -1.127950 -13.615156
v 3.345021 -1.748463 -13.957621
v 6.055112 -2.594309 -15.516829
v 6.590442 -2.131746 -15.465528
v 6.964794 -1.531540 -15.412730
v 5.715359 -2.009857 -13.788651
v 5.638634 -2.753744 -14.975466
v 6.040504 -0.716567 -17.461365
v 7.051813 -1.090404 -15.951033
v 6.772603 -1.208309 -16.592361
v 3.399612 0.302621 -17.160938
v 2.899070 0.177292 -16.674208
v 2.566657 -0.016260 -16.078220
v 2.425858 -0.730038 -15.207231
v 2.604331 -1.316867 -14.850954
v 3.839735 -2.576198 -14.555984
v 5.013422 -2.942518 -15.231247
v 5.687291 -2.684550 -16.107180
v 5.820477 -2.320657 -16.701313
v 5.415288 -0.905345 -17.717136
v 4.886758 -0.443084 -17.817793
v 3.483909 -1.550957 -17.187626
v 3.343112 -2.264729 -16.316643
v 3.282962 -2.350272 -14.917785
v 3.929952 -2.447888 -16.654274
v 4.472809 -2.771139 -16.331842
v 5.043493 -2.899750 -15.930679
v 4.016973 -2.006758 -17.192568
v 4.654973 -1.847715 -17.458666
v 5.304560 -1.576355 -17.545576
v 4.061637 -1.410926 -17.556658
v 4.770145 -1.174092 -17.750904
v 4.552517 -2.398017 -16.969692
v 5.261026 -2.161185 -17.163937
v 5.165256 -2.646659 -16.571529
v 3.810918 -2.681918 -16.005716
v 4.423654 -2.930559 -15.607551
v 3.777822 -2.728988 -15.235981
v 2.525215 -1.307312 -15.589931
v 3.016652 -1.084776 -16.955441
v 2.680166 -0.521789 -16.548466
v 3.138505 -0.346320 -17.144241
v 4.993402 0.273747 -17.652782
v 5.681461 0.481506 -17.371300
v 5.580059 -0.227873 -17.658230
v 6.779128 -1.725713 -16.058802
v 5.120834 -2.360548 -13.903261
v 4.432780 -2.568305 -14.184751
v 2.896897 -1.255061 -14.170491
v 2.998298 -0.545680 -13.883559
v 2.593510 -0.645002 -14.533255
v 2.844232 0.626006 -16.084211
v 3.344793 1.210806 -16.026928
v 3.302577 0.801473 -16.679989
v 6.571509 -0.630175 -17.013979
v 6.672910 0.079205 -16.727047
v 6.976296 -0.530854 -16.364283
v 6.225016 -2.386659 -14.870609
v 6.725577 -1.801860 -14.813330
v 6.267233 -1.977326 -14.217551
v 3.888342 -1.657361 -13.526240
v 4.576400 -1.449600 -13.244757
v 3.989743 -0.947980 -13.239310
v 2.790679 0.549858 -14.838737
v 3.291242 1.134656 -14.781456
v 5.137025 1.392448 -16.712790
v 7.044592 0.131452 -15.307611
v 5.386312 -0.503389 -13.152079
v 5.508165 0.235067 -13.340880
v 4.799659 -0.001769 -13.146634
v 5.791983 1.553132 -15.661559
v 5.146149 1.754703 -15.289990
v 5.758885 1.506063 -14.891824
v 5.017285 1.222163 -13.927850
vn 0.3918 0.6796 0.6202
vn 0.4638 0.5348 0.7063
vn -0.5279 0.3774 0.7608
vn 0.2149 -0.3925 0.8943
vn 0.9523 -0.2825 0.1155
vn 0.2948 -0.5261 0.7977
vn 0.9601 -0.2713 -0.0671
vn 0.1536 -0.9867 -0.0537
vn -0.4638 -0.5348 -0.7063
vn -0.3977 -0.4565 -0.7959
vn -0.2263 -0.4955 -0.8386
vn -0.1257 -0.3767 -0.9178
vn 0.0467 -0.4043 -0.9135
vn 0.0891 -0.7774 -0.6227
vn 0.2654 -0.7663 -0.5851
vn 0.3293 -0.8363 -0.4384
vn -0.3017 -0.8778 -0.3721
vn -0.0656 -0.9736 -0.2187
vn -0.4658 -0.8016 -0.3748
vn -0.2378 -0.9451 -0.2242
vn -0.3346 -0.9396 -0.0718
vn 0.0182 -0.9980 -0.0602
vn -0.5359 -0.7714 0.3430
vn -0.9672 -0.2331 0.1005
vn -0.7884 -0.0270 -0.6145
vn 0.2945 0.5926 -0.7497
vn 0.2018 0.4848 -0.8510
vn 0.2714 0.3273 -0.9051
vn 0.1608 0.1986 -0.9668
vn 0.2145 0.0327 -0.9762
vn 0.3818 -0.0125 -0.9241
vn 0.4115 -0.1431 -0.9001
vn 0.8874 -0.3255 -0.3265
vn 0.9172 -0.3677 -0.1531
vn 0.2497 -0.9631 0.1005
vn -0.0422 -0.7518 0.6580
vn -0.2148 -0.7260 0.6533
vn -0.3141 -0.7952 0.5187
vn -0.4399 -0.7479 0.4972
vn -0.8380 -0.0974 0.5370
vn -0.8924 -0.2046 0.4023
vn -0.9572 -0.1361 0.2553
vn -0.8579 0.3674 -0.3592
vn -0.4628 0.8290 -0.3140
vn -0.5544 0.7208 -0.4160
vn -0.4791 0.6713 -0.5655
vn -0.5407 0.5270 -0.6557
vn 0.8380 0.0974 -0.5370
vn 0.8924 0.2046 -0.4023
vn 0.9572 0.1361 -0.2553
vn 0.4178 -0.9069 0.0544
vn 0.7393 -0.6500 0.1756
vn 0.6947 -0.6288 0.3492
vn 0.4629 -0.4699 0.7516
vn -0.5316 -0.3899 0.7519
vn -0.1609 -0.1986 0.9668
vn -0.2145 -0.0327 0.9762
vn -0.3818 0.0125 0.9241
vn -0.8487 0.5217 0.0871
vn -0.7550 0.6277 0.1895
vn -0.4923 0.7871 0.3717
vn 0.2319 0.8914 -0.3894
vn 0.9672 0.2331 -0.1005
vn 0.9539 0.2141 0.2105
vn 0.9893 0.1365 0.0509
vn 0.4164 0.0083 0.9092
vn 0.3015 -0.1268 0.9450
vn 0.3624 0.1743 0.9156
vn 0.1913 0.2134 0.9581
vn 0.1257 0.3767 0.9178
vn -0.0467 0.4043 0.9135
vn 0.3346 0.9396 0.0718
vn 0.5006 0.7212 0.4788
vn -0.3647 0.4267 0.8276
vn 0.2644 0.7245 0.6365
vn 0.1931 0.8362 0.5133
s off
f 1//1 12//1 11//1
f 1//2 11//2 22//2
f 2//3 16//3 37//3
f 3//4 25//4 42//4
f 4//5 29//5 48//5
f 3//6 42//6 49//6
f 4//7 48//7 52//7
f 6//8 60//8 70//8
f 65//9 71//9 8//9
f 65//10 74//10 71//10
f 74//11 72//11 71//11
f 74//12 75//12 72//12
f 75//13 73//13 72//13
f 77//14 78//14 76//14
f 77//15 62//15 78//15
f 62//16 61//16 78//16
f 69//17 79//17 68//17
f 70//18 80//18 69//18
f 68//19 79//19 66//19
f 69//20 80//20 79//20
f 80//21 81//21 79//21
f 70//22 60//22 80//22
f 59//23 5//23 67//23
f 58//24 57//24 82//24
f 84//25 85//25 83//25
f 35//26 87//26 36//26
f 36//27 87//27 86//27
f 87//28 88//28 86//28
f 86//29 88//29 64//29
f 88//30 63//30 64//30
f 88//31 51//31 63//31
f 51//32 7//32 63//32
f 52//33 89//33 53//33
f 52//34 48//34 89//34
f 50//35 60//35 6//35
f 90//36 41//36 91//36
f 41//37 40//37 91//37
f 91//38 40//38 59//38
f 40//39 5//39 59//39
f 93//40 94//40 92//40
f 92//41 94//41 58//41
f 94//42 57//42 58//42
f 95//43 55//43 56//43
f 34//44 33//44 96//44
f 96//45 33//45 97//45
f 33//46 32//46 97//46
f 97//47 32//47 54//47
f 99//48 100//48 98//48
f 99//49 31//49 100//49
f 31//50 30//50 100//50
f 46//51 50//51 6//51
f 47//52 102//52 101//52
f 102//53 103//53 101//53
f 28//54 3//54 49//54
f 104//55 44//55 45//55
f 105//56 24//56 106//56
f 24//57 23//57 106//57
f 106//58 23//58 43//58
f 107//59 38//59 39//59
f 107//60 108//60 38//60
f 15//61 14//61 108//61
f 18//62 17//62 109//62
f 110//63 30//63 31//63
f 27//64 26//64 110//64
f 110//65 26//65 30//65
f 21//66 111//66 20//66
f 20//67 111//67 25//67
f 21//68 112//68 111//68
f 112//69 113//69 111//69
f 112//70 10//70 113//70
f 10//71 9//71 113//71
f 115//72 116//72 114//72
f 12//73 1//73 19//73
f 9//74 16//74 2//74
f 11//75 12//75 117//75
f 12//76 13//76 117//76
