# Blender v2.80 (sub 75) OBJ File: 'kessler_syndrome.blend'
# www.blender.org
v 4.784903 -0.587928 -17.032524
v 5.930920 -1.420548 -16.157055
v 3.368351 -0.587928 -16.157049
v 5.930920 0.244692 -16.157055
v 3.638886 -1.420548 -14.740483
v 6.201455 -0.587928 -14.740490
v 4.784903 -0.587928 -13.865015
v 4.416171 -1.722788 -16.490118
v 4.527613 -1.379798 -16.795998
v 4.661993 -0.966212 -16.981764
v 5.458510 -1.077326 -16.795998
v 5.750276 -1.289304 -16.490118
v 5.627367 -1.667593 -16.244293
v 6.072067 -0.120344 -16.244291
v 6.132121 -0.587928 -16.281406
v 6.072067 -1.055512 -16.244291
v 5.106692 -0.354138 -16.981764
v 5.750276 0.113447 -16.490118
v 3.591636 -0.587928 -16.490112
v 3.952276 -0.587928 -16.795994
v 4.387148 -0.587928 -16.981764
v 4.018411 -1.722791 -16.244291
v 3.694980 -1.379801 -16.281406
v 3.468723 -0.966214 -16.244287
v 4.416171 0.546932 -16.490118
v 4.527613 0.203942 -16.795998
v 4.661993 -0.209644 -16.981764
v 3.694980 0.203944 -16.281406
v 4.018411 0.546934 -16.244293
v 4.737962 0.780728 -16.244293
v 5.201223 0.693348 -16.281408
v 5.627367 0.491737 -16.244293
v 6.299963 -0.821720 -15.051010
v 6.291145 -1.077329 -15.448770
v 6.148037 -1.289306 -15.846531
v 6.148037 0.113449 -15.846531
v 6.291145 -0.098528 -15.448770
v 6.299963 -0.354137 -15.051010
v 5.030725 -2.101082 -15.051007
v 4.784903 -2.171683 -15.448770
v 4.539081 -2.101082 -15.846532
v 5.873194 -1.667598 -15.846533
v 3.421769 -1.289306 -15.051008
v 3.278661 -1.077328 -15.448770
v 3.269843 -0.821720 -15.846529
v 3.853995 -1.869212 -15.448770
v 3.696612 -1.667598 -15.051006
v 3.853995 0.693356 -15.448770
v 4.094375 0.780733 -15.846533
v 3.269843 -0.354137 -15.846529
v 3.278661 -0.098528 -15.448770
v 5.715811 0.693356 -15.448770
v 5.873194 0.491742 -15.846533
v 4.539081 0.925226 -15.846532
v 4.784903 0.995826 -15.448770
v 6.101083 -0.966214 -14.653252
v 4.368583 -1.869204 -14.616130
v 3.942439 -1.667593 -14.653247
v 3.497739 -1.055512 -14.653249
v 3.437685 -0.587928 -14.616133
v 3.497739 -0.120344 -14.653249
v 4.368583 0.693348 -14.616130
v 5.551395 0.546934 -14.653247
v 5.874826 0.203944 -14.616133
v 6.101083 -0.209643 -14.653252
v 4.907813 -0.966212 -13.915774
v 5.978170 -0.587928 -14.407428
v 5.617530 -0.587928 -14.101546
v 5.182658 -0.587928 -13.915776
v 4.111296 -1.077326 -14.101542
v 3.819531 -1.289304 -14.407421
v 4.463114 -0.354138 -13.915774
v 4.111296 -0.098530 -14.101542
v 4.907813 -0.209644 -13.915774
v 5.042193 0.203941 -14.101542
v 5.357906 -0.171618 -14.032213
v 5.795645 -0.171616 -14.302749
v 5.493173 0.244696 -14.302746
v 4.566032 0.085673 -14.032212
v 4.211895 0.342968 -14.302746
v 4.076632 -0.587928 -14.032213
v 3.722494 -0.330636 -14.302748
v 3.722494 -0.845220 -14.302748
v 4.566032 -1.261530 -14.032212
v 4.211895 -1.518825 -14.302746
v 4.701297 -1.677844 -14.302745
v 5.357906 -1.004239 -14.032213
v 6.149790 0.085677 -15.011025
v 5.847318 0.501994 -15.011024
v 4.566031 0.918310 -15.011024
v 4.295497 0.918312 -15.448771
v 4.076624 0.759291 -15.011024
v 3.284750 -0.330635 -15.011026
v 3.201149 -0.587929 -15.448769
v 3.284750 -0.845222 -15.011025
v 4.076623 -1.935147 -15.011024
v 4.295496 -2.094168 -15.448771
v 4.566030 -2.094166 -15.011024
v 5.847318 -1.677852 -15.011026
v 6.066190 -1.518832 -15.448772
v 6.149789 -1.261536 -15.011028
v 5.274311 0.918312 -15.448770
v 5.493183 0.759290 -15.886516
v 5.003777 0.918309 -15.886516
v 3.503616 0.342976 -15.448770
v 3.722490 0.501997 -15.886515
v 3.420018 0.085681 -15.886514
v 3.503616 -1.518833 -15.448770
v 3.420018 -1.261537 -15.886514
v 3.722490 -1.677853 -15.886515
v 5.274311 -2.094168 -15.448770
v 5.003777 -2.094166 -15.886516
v 6.368658 -0.587928 -15.448770
v 6.285056 -0.845221 -15.886513
v 6.285056 -0.330635 -15.886513
v 5.357911 0.342970 -16.594793
v 5.003773 0.085676 -16.865326
v 4.868508 0.501990 -16.594791
v 4.076631 0.244694 -16.594793
v 4.211899 -0.171618 -16.865326
v 3.774159 -0.171618 -16.594790
v 3.774159 -1.004240 -16.594790
v 4.211899 -1.004241 -16.865324
v 4.076632 -1.420553 -16.594791
v 5.847312 -0.330637 -16.594791
v 5.847313 -0.845221 -16.594790
v 5.493176 -0.587929 -16.865324
v 4.868510 -1.677845 -16.594793
v 5.003776 -1.261532 -16.865326
v 5.357913 -1.518826 -16.594791
vn -0.1261 0.0916 -0.9878
vn 0.0482 0.1482 -0.9878
vn 0.6451 0.6518 -0.3987
vn -0.9532 0.0000 -0.3024
vn 0.7711 0.5603 -0.3024
vn 0.8271 0.0916 0.5545
vn 0.1261 0.0916 0.9878
vn 0.3912 0.0915 0.9158
vn 0.5168 0.1830 0.8363
vn 0.4911 0.3568 0.7947
vn 0.3338 0.4350 0.8363
vn -0.0481 0.1482 0.9878
vn -0.0891 0.2744 0.9575
vn -0.2627 0.3039 0.9158
vn -0.3105 0.4519 0.8363
vn -0.3702 0.1559 0.9158
vn -0.6071 0.0000 0.7947
vn -0.4674 -0.4526 0.7594
vn -0.3105 -0.4519 0.8363
vn -0.1876 -0.5773 0.7947
vn 0.1261 -0.0916 0.9878
vn 0.2334 -0.1696 0.9575
vn 0.3912 -0.0915 0.9158
vn 0.9050 0.1482 0.3987
vn 0.8963 0.2743 0.3485
vn 0.6291 0.6409 0.4399
vn -0.1560 0.9846 -0.0784
vn -0.1557 0.9831 0.0962
vn -0.3035 0.9342 0.1876
vn -0.2882 0.8869 0.3611
vn -0.8857 0.1487 0.4399
vn -0.9854 0.0000 -0.1702
vn -0.9846 -0.1559 -0.0784
vn -0.8864 -0.3049 0.3485
vn -0.6451 -0.6519 0.3987
vn -0.5791 -0.7964 0.1745
vn -0.5638 -0.7488 0.3485
vn -0.4151 -0.7964 0.4399
vn -0.1560 -0.9846 -0.0784
vn -0.1557 -0.9831 0.0962
vn 0.0004 -0.9846 0.1745
vn 0.7947 -0.5773 0.1876
vn 0.8883 -0.4526 -0.0784
vn 0.8869 -0.4519 0.0962
vn 0.9366 -0.3039 0.1745
vn 0.8963 -0.2743 0.3485
vn 0.4519 0.8869 -0.0962
vn 0.3035 0.9342 -0.1876
vn 0.1557 0.9831 -0.0962
vn -0.0004 0.9846 -0.1745
vn -0.5785 0.7968 -0.1745
vn -0.7038 0.7038 -0.0962
vn -0.9366 0.3039 -0.1745
vn -0.5379 0.7676 -0.3485
vn -0.6291 0.6409 -0.4399
vn -0.7947 -0.5773 -0.1876
vn -0.8039 -0.4003 -0.4399
vn -0.7544 -0.5481 -0.3611
vn -0.6291 -0.6409 -0.4399
vn 0.1560 -0.9846 0.0784
vn -0.0004 -0.9846 -0.1745
vn 0.1557 -0.9831 -0.0962
vn 0.6451 -0.6519 -0.3987
vn 0.9846 -0.1560 0.0784
vn 0.9363 -0.3046 -0.1745
vn 0.9831 -0.1557 -0.0962
vn 0.9822 0.0000 -0.1876
vn 0.9831 0.1557 -0.0962
vn 0.8193 0.4121 -0.3987
vn 0.6153 0.5603 -0.5545
vn 0.5087 0.5792 -0.6369
vn 0.3854 0.7049 -0.5955
vn 0.1876 0.5773 -0.7947
vn 0.2287 0.7038 -0.6726
vn 0.1026 0.7968 -0.5955
vn 0.0144 0.5481 -0.8363
vn -0.1121 0.6409 -0.7594
vn -0.0711 0.7676 -0.6369
vn -0.4911 0.3568 -0.7947
vn -0.2334 0.1696 -0.9575
vn -0.3912 0.0915 -0.9158
vn -0.5168 0.1830 -0.8363
vn -0.6441 0.0915 -0.7594
vn -0.6441 -0.0915 -0.7594
vn -0.5513 -0.5843 -0.5955
vn -0.2079 -0.3438 -0.9158
vn -0.3338 -0.4350 -0.8363
vn -0.2860 -0.5843 -0.7594
vn -0.3936 -0.6628 -0.6369
vn 0.7230 0.4121 -0.5545
vn 0.7895 0.1487 -0.5955
vn 0.7895 -0.1487 -0.5955
vn 0.7400 -0.0000 -0.6726
vn 0.6071 -0.0000 -0.7947
vn 0.1876 -0.5773 -0.7947
vn 0.3106 -0.4519 -0.8363
vn 0.4674 -0.4526 -0.7594
s off
f 1//1 21//1 27//1
f 1//2 27//2 17//2
f 4//3 32//3 53//3
f 3//4 45//4 50//4
f 4//5 53//5 36//5
f 6//6 65//6 67//6
f 69//7 74//7 7//7
f 68//8 76//8 69//8
f 68//9 77//9 76//9
f 77//10 78//10 76//10
f 76//11 78//11 75//11
f 74//12 72//12 7//12
f 74//13 79//13 72//13
f 79//14 73//14 72//14
f 79//15 80//15 73//15
f 73//16 81//16 72//16
f 82//17 83//17 81//17
f 71//18 85//18 70//18
f 70//19 85//19 84//19
f 85//20 86//20 84//20
f 66//21 69//21 7//21
f 66//22 87//22 69//22
f 87//23 68//23 69//23
f 38//24 65//24 6//24
f 38//25 88//25 65//25
f 89//26 63//26 64//26
f 54//27 91//27 55//27
f 55//28 91//28 90//28
f 91//29 92//29 90//29
f 90//30 92//30 62//30
f 93//31 60//31 61//31
f 50//32 45//32 94//32
f 45//33 44//33 94//33
f 95//34 43//34 59//34
f 47//35 58//35 5//35
f 46//36 96//36 47//36
f 47//37 96//37 58//37
f 96//38 57//38 58//38
f 41//39 40//39 97//39
f 97//40 40//40 98//40
f 40//41 39//41 98//41
f 100//42 101//42 99//42
f 35//43 34//43 100//43
f 100//44 34//44 101//44
f 34//45 33//45 101//45
f 101//46 33//46 56//46
f 52//47 103//47 102//47
f 103//48 104//48 102//48
f 102//49 104//49 55//49
f 104//50 54//50 55//50
f 49//51 106//51 48//51
f 48//52 106//52 105//52
f 107//53 50//53 51//53
f 49//54 29//54 106//54
f 29//55 28//55 106//55
f 109//56 110//56 108//56
f 24//57 23//57 109//57
f 109//58 23//58 110//58
f 23//59 22//59 110//59
f 40//60 111//60 39//60
f 41//61 112//61 40//61
f 40//62 112//62 111//62
f 13//63 2//63 42//63
f 34//64 113//64 33//64
f 35//65 114//65 34//65
f 34//66 114//66 113//66
f 114//67 115//67 113//67
f 113//68 115//68 37//68
f 14//69 4//69 36//69
f 18//70 32//70 4//70
f 18//71 116//71 32//71
f 116//72 31//72 32//72
f 117//73 118//73 116//73
f 116//74 118//74 31//74
f 118//75 30//75 31//75
f 117//76 26//76 118//76
f 26//77 25//77 118//77
f 118//78 25//78 30//78
f 120//79 121//79 119//79
f 27//80 21//80 120//80
f 21//81 20//81 120//81
f 120//82 20//82 121//82
f 20//83 19//83 121//83
f 20//84 122//84 19//84
f 124//85 22//85 23//85
f 10//86 9//86 123//86
f 123//87 9//87 124//87
f 9//88 8//88 124//88
f 124//89 8//89 22//89
f 14//90 18//90 4//90
f 15//91 125//91 14//91
f 16//92 126//92 15//92
f 15//93 126//93 125//93
f 126//94 127//94 125//94
f 129//95 130//95 128//95
f 129//96 11//96 130//96
f 11//97 12//97 130//97
