# Blender v2.80 (sub 75) OBJ File: 'pond.blend'
# www.blender.org
v -6.726181 10.206690 11.619396
v -6.475955 10.553009 9.822512
v -6.930328 10.587704 11.514775
v -7.603116 10.213286 12.010030
v -7.102817 10.235516 11.854142
v -6.523381 10.384408 11.265731
v -6.390170 10.524966 10.778296
v -6.382856 10.578896 10.256631
v -7.220129 8.869307 11.903955
v -6.974393 9.332067 11.927751
v -6.802470 9.814548 11.814837
v -8.040268 9.223941 12.103313
v -7.729309 8.817652 11.987823
v -6.075532 9.242608 10.308431
v -6.077670 9.728251 10.110316
v -6.233571 10.198298 9.937527
v -6.444362 9.906569 11.451181
v -6.224758 9.524693 11.166504
v -6.145798 9.145368 10.812984
v -7.274555 9.447010 8.722315
v -6.477997 10.263615 9.484810
v -6.589329 9.864984 9.162636
v -6.808803 9.438564 8.950277
v -6.439945 9.355147 9.303341
v -6.257914 9.809140 9.597471
v -6.170952 9.283262 9.801566
v -6.373398 9.003093 11.255273
v -6.537683 9.421950 11.606449
v -6.767506 8.901822 11.655483
v -8.234544 8.753001 11.897123
v -8.565085 9.216288 11.940382
v -8.747114 8.762296 11.646248
v -7.039478 9.890319 8.848370
v -6.857450 10.344311 9.142505
v -6.066245 9.630239 10.650969
v -6.153208 10.156116 10.446874
v -6.230535 10.049097 11.002144
v -7.492151 9.263836 12.098961
v -7.262330 9.783966 12.049921
v -7.822693 9.727123 12.142218
v -6.765357 10.798699 11.072134
v -6.681863 10.413762 11.715437
v -6.418467 10.778308 9.823979
v -7.464723 8.642004 11.882477
v -6.122239 8.986970 10.519199
v -7.038529 9.231836 8.822053
v -6.896754 10.814829 11.605309
v -7.078321 10.444105 11.962538
v -6.468389 10.600834 11.343158
v -6.328167 10.748790 10.830069
v -6.320468 10.805558 10.280947
v -7.201807 9.005991 12.014973
v -6.943138 9.493107 12.040020
v -6.762166 10.000981 11.921164
v -8.065112 9.379290 12.224823
v -7.737786 8.951617 12.103254
v -5.996969 9.398939 10.335473
v -5.999219 9.910143 10.126931
v -6.163325 10.404928 9.945048
v -6.385210 10.097844 11.538369
v -6.154048 9.695871 11.238708
v -6.070933 9.296581 10.866582
v -7.259098 9.614100 8.665876
v -6.420616 10.473683 9.468504
v -6.537808 10.054071 9.129373
v -6.768833 9.605209 8.905838
v -8.892425 8.535165 11.342002
v -8.429573 8.470300 11.635895
v -7.911895 8.517385 11.821916
v -7.044674 8.605360 11.679073
v -6.614208 8.654459 11.336884
v -6.290760 8.799087 10.913481
v -6.171084 8.964705 10.054142
v -6.363694 9.001150 9.538016
v -6.685657 9.102217 9.101053
v -7.478924 9.116604 8.712786
v -8.024249 9.031267 8.725253
v -6.380562 9.517402 9.277484
v -6.188949 9.995289 9.587095
v -6.097411 9.441733 9.801930
v -6.310512 9.146818 11.332149
v -6.483444 9.587721 11.701807
v -6.725362 9.040217 11.753424
v -8.269612 8.883563 12.007780
v -8.809160 8.893348 11.743701
v -7.011649 10.080740 8.798567
v -5.987193 9.806971 10.696039
v -6.078733 10.360526 10.481202
v -6.160130 10.247875 11.065697
v -7.488147 9.421285 12.220242
v -7.246230 9.968790 12.168621
v -7.836086 9.908956 12.265776
v -6.216547 8.890925 10.080584
v -6.218582 8.867728 10.147587
v -6.184849 8.883104 10.468759
v -6.189322 8.872558 10.487806
v -6.190570 8.875187 10.509842
v -6.323834 8.742451 10.850967
v -6.306952 8.745433 10.782136
v -6.614924 8.611526 11.259038
v -6.357689 8.726547 10.922312
v -6.350344 8.722213 10.898611
v -6.615183 8.611309 11.259192
v -6.678916 8.594933 11.323912
v -6.679106 8.595034 11.324215
v -7.021450 8.555986 11.596354
v -7.042999 8.544228 11.601995
v -7.092867 8.544839 11.631913
v -7.159472 8.526369 11.647861
v -7.449561 8.551676 11.788334
v -7.870317 8.465971 11.759970
v -7.799841 8.461407 11.753339
v -7.491021 8.547469 11.795163
v -7.925969 8.454655 11.747432
v -7.950056 8.461784 11.749308
v -7.470199 8.543423 11.788523
v -6.426530 8.944580 9.510538
v -6.426421 8.944365 9.510824
v -6.382922 8.932740 9.591393
v -6.382722 8.932873 9.591679
v -8.361758 8.424338 11.601368
v -8.445234 8.425853 11.560511
v -8.444901 8.425695 11.560567
v -8.362011 8.424192 11.601137
v -6.229544 8.903889 10.002145
v -6.228496 8.890839 10.023666
v -6.682583 9.024958 9.163029
v -6.701257 9.017178 9.148020
v -6.741440 9.031196 9.108380
v -6.800456 9.023226 9.069843
v -7.044152 9.112741 8.877163
v -8.813333 8.477439 11.326782
v -8.870512 8.484108 11.270431
v -8.908615 8.481512 11.210656
v -8.826827 8.470990 11.306514
v -7.082076 9.113430 8.858601
v -7.063562 9.106187 8.868543
v -7.532001 9.040362 8.747278
v -7.508929 9.031825 8.752702
v -7.452590 9.044093 8.760305
v -7.386216 9.033850 8.783140
v -7.965688 8.972495 8.757194
v -7.965986 8.972287 8.757279
v -8.056604 8.963094 8.772206
v -8.056947 8.963236 8.772225
v -7.940729 9.216188 8.674973
v -8.074016 9.093962 8.719428
v -8.153349 9.025531 8.765479
v -7.710953 9.431506 8.619235
v -8.126922 9.051390 8.764035
v -8.238469 8.955171 8.828786
v -7.568267 9.572947 8.619695
v -7.448806 9.709015 8.700137
v -7.285395 9.886732 8.772024
v -7.368239 9.778205 8.651986
v -7.091124 10.079581 8.773893
v -7.148157 10.042644 8.862593
v -7.046772 10.129969 8.803164
v -7.790875 9.359552 8.651953
v -7.776864 9.372683 8.648554
v -7.768163 9.381308 8.648582
v -6.900444 10.345091 9.121462
v -6.939297 10.261190 8.915478
v -6.880954 10.370507 9.149180
v -6.771086 10.471110 9.111858
v -6.722459 10.537875 9.196210
v -6.599696 10.724680 9.491941
v -6.723435 10.607618 9.516932
v -6.836090 10.436196 9.245553
v -6.539627 10.831027 9.704421
v -6.699372 10.650220 9.602050
v -6.510260 10.901316 9.891288
v -6.645219 10.779831 9.946627
v -6.500750 10.966482 10.144137
v -6.640925 10.809255 10.060791
v -6.517784 11.016869 10.449206
v -6.665308 10.881382 10.497490
v -6.709571 10.875910 10.671531
v -6.819135 10.846704 11.031323
v -6.856957 10.827874 11.115849
v -6.547420 11.029057 10.637634
v -6.670743 10.883617 10.532043
v -6.677041 11.003325 11.103299
v -6.698343 10.994544 11.159179
v -9.112469 8.570211 11.009500
v -9.032702 8.711432 11.291656
v -9.091010 8.621572 11.146043
v -8.968357 8.809345 11.446664
v -9.030504 8.728695 11.360073
v -8.908425 8.914457 11.654154
v -8.858107 8.960720 11.637914
v -8.858959 8.982374 11.739962
v -8.649509 9.221039 11.881442
v -8.687845 9.195916 11.939731
v -8.583427 9.323406 12.048850
v -8.598362 9.281457 11.925681
v -8.297781 9.611137 12.070539
v -8.434622 9.462317 12.010341
v -8.540337 9.372360 12.077288
v -8.261897 9.675177 12.199778
v -7.314272 10.516772 11.759445
v -7.187134 10.613311 11.626100
v -6.804097 10.933336 11.356698
v -6.932102 10.855972 11.580912
v -7.041069 10.716601 11.438341
v -6.978725 10.823003 11.640843
v -7.223468 10.637165 11.897535
v -8.238716 9.671747 12.080074
v -8.063586 9.878674 12.231792
v -7.478544 10.426323 12.087242
v -7.556223 10.359318 12.132334
v -7.686731 10.239639 12.175862
v -7.974714 9.933444 12.080925
v -7.690708 10.199579 12.012033
v -7.919218 10.021781 12.232258
v -7.552558 10.319808 11.936665
v -7.637303 10.247895 11.991237
vn -0.5213 -0.2973 -0.7999
vn -0.8376 -0.5044 0.2097
vn -0.6650 -0.2255 -0.7120
vn -0.8169 -0.4356 0.3782
vn -0.2878 0.2152 0.9332
vn -0.5540 0.2200 0.8029
vn -0.6919 -0.0035 0.7220
vn -0.7867 -0.2400 0.5688
vn -0.6600 0.1745 0.7307
vn -0.7394 0.2839 0.6105
vn -0.7977 -0.0684 0.5992
vn -0.8767 0.0410 0.4793
vn -0.8451 0.2186 0.4878
vn -0.8795 0.3214 0.3509
vn -0.8544 -0.3105 0.4165
vn -0.9337 -0.2007 0.2965
vn -0.9445 -0.0291 0.3273
vn -0.9790 0.0733 0.1902
vn -0.9474 0.2513 0.1985
vn -0.9424 0.3238 0.0835
vn -0.9023 0.3794 -0.2049
vn -0.8967 0.1872 -0.4012
vn -0.8111 -0.0310 -0.5841
vn -0.8730 0.3541 -0.3353
vn -0.7711 0.4715 -0.4280
vn -0.8220 0.1403 -0.5519
vn -0.7203 0.2575 -0.6441
vn -0.6966 0.4241 -0.5787
vn -0.5657 0.5242 -0.6365
vn -0.6975 -0.0933 -0.7105
vn -0.5957 0.0244 -0.8028
vn -0.6070 0.1956 -0.7703
vn -0.4760 0.2953 -0.8284
vn -0.4520 0.4623 -0.7629
vn -0.3332 0.5256 -0.7828
vn -0.0422 0.5551 -0.8307
vn 0.1208 0.3559 -0.9267
vn 0.0867 0.5170 -0.8516
vn 0.2203 0.6040 -0.7659
vn 0.2803 0.2856 -0.9164
vn 0.4134 0.3725 -0.8308
vn 0.3797 0.5333 -0.7559
vn 0.4873 0.5991 -0.6352
vn 0.5600 0.2805 -0.7796
vn 0.6343 0.5070 -0.5836
vn -0.4351 0.1139 0.8931
vn -0.4398 -0.0221 0.8978
vn -0.5731 -0.1095 0.8121
vn -0.5600 -0.2805 0.7795
vn -0.6680 -0.3460 0.6589
vn -0.6343 -0.5070 0.5836
vn -0.9632 0.2550 -0.0850
vn -0.9997 0.0046 0.0220
vn -0.9544 -0.2694 0.1283
vn -0.9858 0.1238 -0.1134
vn -0.9575 0.0630 -0.2815
vn -0.9860 -0.1667 -0.0094
vn -0.9576 -0.2271 -0.1771
vn -0.9438 -0.1083 -0.3124
vn -0.8719 -0.1552 -0.4644
vn -0.8929 -0.4379 0.1046
vn -0.8647 -0.4983 -0.0636
vn -0.8963 -0.3952 -0.2010
vn -0.8244 -0.4426 -0.3529
vn -0.8103 -0.3236 -0.4886
vn -0.7260 -0.3498 -0.5921
vn -0.1896 0.4540 -0.8706
vn -0.3324 0.2236 -0.9162
vn -0.4522 -0.0473 -0.8907
vn -0.1859 0.3294 -0.9257
vn -0.0262 0.2547 -0.9667
vn -0.3197 0.0521 -0.9461
vn -0.1603 -0.0222 -0.9868
vn -0.0140 0.0831 -0.9964
vn 0.1460 0.0134 -0.9892
vn -0.4314 -0.2263 -0.8733
vn -0.2715 -0.3005 -0.9143
vn -0.1394 -0.2007 -0.9697
vn 0.0204 -0.2709 -0.9624
vn 0.1672 -0.1655 -0.9719
vn -0.7184 -0.5910 -0.3668
vn -0.6139 -0.5989 -0.5143
vn -0.6199 -0.4985 -0.6060
vn -0.4934 -0.4660 -0.7344
vn -0.3797 -0.5387 -0.7521
vn 0.5213 0.2973 0.7999
vn 0.8376 0.5044 -0.2097
vn 0.6650 0.2255 0.7120
vn 0.8169 0.4356 -0.3782
vn 0.0949 -0.6896 0.7180
vn 0.8439 -0.5251 0.1105
vn 0.4803 -0.3869 -0.7872
vn 0.0483 -0.4394 -0.8970
vn 0.3157 -0.3840 -0.8677
vn 0.6657 -0.4506 -0.5948
vn 0.8059 -0.4881 -0.3352
vn 0.8687 -0.4907 -0.0677
vn 0.7127 -0.6170 0.3337
vn 0.5074 -0.6697 0.5422
vn 0.2748 -0.6713 0.6884
vn -0.1676 -0.7382 0.6534
vn -0.4347 -0.7334 0.5227
vn -0.6452 -0.6761 0.3557
vn 0.2878 -0.2152 -0.9332
vn 0.5540 -0.2200 -0.8029
vn 0.6919 0.0035 -0.7220
vn 0.7867 0.2400 -0.5688
vn 0.6600 -0.1745 -0.7307
vn 0.7394 -0.2839 -0.6105
vn 0.7977 0.0684 -0.5992
vn 0.8767 -0.0410 -0.4793
vn 0.8451 -0.2186 -0.4878
vn 0.8795 -0.3214 -0.3509
vn 0.8544 0.3105 -0.4165
vn 0.9337 0.2007 -0.2965
vn 0.9445 0.0291 -0.3273
vn 0.9790 -0.0733 -0.1902
vn 0.9473 -0.2513 -0.1985
vn 0.9424 -0.3238 -0.0835
vn 0.9023 -0.3794 0.2049
vn 0.8967 -0.1872 0.4012
vn 0.8111 0.0310 0.5841
vn 0.8730 -0.3541 0.3353
vn 0.7711 -0.4715 0.4280
vn 0.8220 -0.1403 0.5519
vn 0.7203 -0.2575 0.6441
vn 0.6966 -0.4241 0.5787
vn 0.5657 -0.5242 0.6365
vn 0.6975 0.0933 0.7105
vn 0.5957 -0.0244 0.8028
vn 0.6070 -0.1956 0.7703
vn 0.4760 -0.2953 0.8284
vn 0.4520 -0.4623 0.7629
vn 0.3332 -0.5256 0.7828
vn 0.0422 -0.5551 0.8307
vn -0.1208 -0.3559 0.9267
vn -0.0867 -0.5170 0.8516
vn -0.2203 -0.6040 0.7659
vn -0.2803 -0.2856 0.9164
vn -0.3797 -0.5333 0.7559
vn -0.4873 -0.5991 0.6353
vn 0.4351 -0.1139 -0.8932
vn 0.4398 0.0221 -0.8978
vn 0.5731 0.1095 -0.8121
vn 0.5600 0.2805 -0.7795
vn 0.9632 -0.2550 0.0850
vn 0.9997 -0.0046 -0.0220
vn 0.9544 0.2694 -0.1283
vn 0.9858 -0.1238 0.1134
vn 0.9575 -0.0630 0.2815
vn 0.9860 0.1667 0.0094
vn 0.9576 0.2271 0.1771
vn 0.9438 0.1083 0.3124
vn 0.8719 0.1552 0.4644
vn 0.8929 0.4379 -0.1046
vn 0.8647 0.4983 0.0636
vn 0.8963 0.3952 0.2010
vn 0.8244 0.4426 0.3529
vn 0.8103 0.3236 0.4886
vn 0.7260 0.3498 0.5921
vn 0.1895 -0.4538 0.8707
vn 0.3324 -0.2236 0.9162
vn 0.4522 0.0473 0.8907
vn 0.1859 -0.3294 0.9257
vn 0.0262 -0.2547 0.9667
vn 0.3197 -0.0521 0.9461
vn 0.1603 0.0222 0.9868
vn 0.0140 -0.0831 0.9964
vn -0.1460 -0.0134 0.9892
vn 0.4314 0.2263 0.8733
vn 0.2715 0.3005 0.9143
vn 0.1394 0.2007 0.9697
vn -0.1672 0.1655 0.9719
vn 0.6199 0.4985 0.6060
vn 0.4934 0.4660 0.7344
vn 0.3797 0.5387 0.7521
vn 0.3438 -0.7321 0.5881
vn 0.5798 -0.7153 0.3900
vn 0.8108 -0.5603 -0.1693
vn -0.2743 -0.8020 0.5307
vn 0.0109 -0.7658 0.6429
vn -0.0836 -0.5380 -0.8388
vn 0.5234 -0.4835 -0.7016
vn -0.5367 -0.7559 0.3749
vn 0.6977 -0.5522 -0.4564
vn 0.2189 -0.4780 -0.8507
vn 0.7649 -0.6239 0.1606
vn 0.6979 0.5417 -0.4684
vn 0.6965 0.7132 -0.0789
vn -0.3474 -0.6808 -0.6448
vn 0.1403 0.2009 0.9695
vn -0.6965 -0.7132 0.0789
vn -0.7315 -0.6531 0.1958
vn 0.6452 0.6761 -0.3557
vn 0.3474 0.6808 0.6448
vn -0.6979 -0.5417 0.4684
vn -0.6953 0.7019 -0.1547
vn 0.7185 0.5910 0.3668
vn -0.2437 -0.4690 -0.8489
vn 0.6139 0.5989 0.5143
vn -0.3797 -0.5333 0.7560
vn -0.0204 0.2709 0.9624
vn -0.4737 -0.7133 -0.5166
vn -0.4134 -0.3725 0.8308
vn 0.6680 0.3460 -0.6589
vn -0.4399 -0.8145 -0.3783
vn -0.6843 -0.6924 -0.2287
vn 0.2930 0.1145 -0.9492
vn -0.2930 -0.1145 0.9492
vn 0.4737 0.7133 0.5165
vn 0.2437 0.4690 0.8489
vn 0.7315 0.6531 -0.1958
vn -0.5443 -0.8064 -0.2312
vn -0.2425 -0.4719 -0.8476
vn -0.4134 -0.3725 0.8309
vn -0.7588 -0.6467 -0.0775
vn 0.7587 0.6468 0.0775
vn 0.6843 0.6924 0.2287
vn -0.2879 0.2152 0.9332
vn -0.8475 0.2229 0.4817
vn -0.8449 0.2146 0.4900
vn -0.9473 0.2513 0.1985
vn -0.6936 0.4241 -0.5822
vn -0.6963 0.4307 -0.5742
vn 0.3793 0.5412 -0.7505
vn 0.3779 0.5290 -0.7598
vn 0.6342 0.5070 -0.5837
vn -0.4351 0.1139 0.8932
vn -0.4351 0.1138 0.8932
vn -0.1895 0.4538 -0.8707
vn 0.0949 -0.6895 0.7180
vn 0.8438 -0.5251 0.1105
vn 0.4802 -0.3869 -0.7872
vn 0.0470 -0.4409 -0.8963
vn 0.3158 -0.3840 -0.8677
vn 0.3158 -0.3839 -0.8677
vn 0.6652 -0.4515 -0.5947
vn 0.8059 -0.4880 -0.3352
vn 0.8060 -0.4876 -0.3355
vn 0.7130 -0.6170 0.3330
vn 0.7127 -0.6170 0.3338
vn 0.5091 -0.6689 0.5416
vn 0.2748 -0.6713 0.6883
vn -0.1696 -0.7392 0.6518
vn -0.1677 -0.7382 0.6534
vn -0.4321 -0.7346 0.5231
vn -0.2804 -0.2856 0.9164
vn 0.8108 -0.5603 -0.1694
vn 0.0109 -0.7659 0.6429
vn 0.7648 -0.6239 0.1606
vn 0.1393 0.2007 0.9697
vn 0.1391 0.2046 0.9689
vn -0.6953 0.7019 -0.1548
vn -0.6952 0.7019 -0.1548
vn -0.6952 0.7019 -0.1550
vn -0.6955 0.7017 -0.1548
vn -0.1671 0.1655 0.9719
vn -0.1672 0.1656 0.9719
vn -0.6843 -0.6924 -0.2288
vn -0.7587 -0.6468 -0.0775
s off
f 1//1 11//1 5//1
f 2//2 16//2 8//2
f 1//3 17//3 11//3
f 2//4 21//4 16//4
f 20//5 141//5 136//5
f 23//6 130//6 129//6
f 22//7 23//7 24//7
f 21//8 22//8 25//8
f 129//9 128//9 127//9
f 24//10 127//10 117//10
f 22//11 24//11 25//11
f 25//12 24//12 26//12
f 120//13 26//13 117//13
f 26//14 120//14 125//14
f 21//15 25//15 16//15
f 16//16 25//16 15//16
f 25//17 26//17 15//17
f 15//18 26//18 14//18
f 125//19 93//19 14//19
f 14//20 94//20 95//20
f 19//21 99//21 98//21
f 18//22 19//22 27//22
f 17//23 18//23 28//23
f 98//24 102//24 101//24
f 27//25 101//25 100//25
f 18//26 27//26 28//26
f 28//27 27//27 29//27
f 105//28 29//28 100//28
f 29//29 105//29 106//29
f 17//30 28//30 11//30
f 11//31 28//31 10//31
f 28//32 29//32 10//32
f 10//33 29//33 9//33
f 106//34 108//34 9//34
f 9//35 109//35 110//35
f 13//36 112//36 111//36
f 12//37 13//37 30//37
f 111//38 114//38 115//38
f 30//39 115//39 121//39
f 12//40 30//40 31//40
f 31//41 30//41 32//41
f 122//42 32//42 121//42
f 32//43 122//43 132//43
f 32//44 193//44 31//44
f 186//45 188//45 132//45
f 136//46 131//46 23//46
f 20//47 23//47 33//47
f 33//48 23//48 22//48
f 33//49 22//49 34//49
f 34//50 22//50 21//50
f 21//51 169//51 34//51
f 95//52 97//52 19//52
f 15//53 14//53 35//53
f 16//54 15//54 36//54
f 14//55 19//55 35//55
f 35//56 19//56 18//56
f 15//57 35//57 36//57
f 36//58 35//58 37//58
f 35//59 18//59 37//59
f 37//60 18//60 17//60
f 16//61 36//61 8//61
f 8//62 36//62 7//62
f 36//63 37//63 7//63
f 7//64 37//64 6//64
f 37//65 17//65 6//65
f 6//66 17//66 1//66
f 110//67 116//67 113//67
f 10//68 9//68 38//68
f 11//69 10//69 39//69
f 9//70 13//70 38//70
f 38//71 13//71 12//71
f 10//72 38//72 39//72
f 39//73 38//73 40//73
f 38//74 12//74 40//74
f 12//75 208//75 40//75
f 11//76 39//76 5//76
f 5//77 39//77 4//77
f 39//78 40//78 4//78
f 40//79 214//79 4//79
f 40//80 208//80 213//80
f 41//81 7//81 6//81
f 41//82 6//82 3//82
f 3//83 6//83 1//83
f 3//84 1//84 5//84
f 5//85 202//85 3//85
f 42//86 48//86 54//86
f 43//87 51//87 59//87
f 42//88 54//88 60//88
f 43//89 59//89 64//89
f 44//90 112//90 113//90
f 45//91 99//91 97//91
f 46//92 130//92 131//92
f 138//93 142//93 77//93
f 46//94 136//94 141//94
f 75//95 74//95 127//95
f 125//96 120//96 74//96
f 45//97 95//97 94//97
f 72//98 71//98 101//98
f 106//99 105//99 71//99
f 44//100 110//100 109//100
f 69//101 68//101 115//101
f 132//102 122//102 68//102
f 187//103 134//103 67//103
f 63//104 46//104 76//104
f 66//105 75//105 46//105
f 65//106 78//106 66//106
f 64//107 79//107 65//107
f 66//108 78//108 75//108
f 78//109 74//109 75//109
f 65//110 79//110 78//110
f 79//111 80//111 78//111
f 78//112 80//112 74//112
f 80//113 73//113 74//113
f 64//114 59//114 79//114
f 59//115 58//115 79//115
f 79//116 58//116 80//116
f 58//117 57//117 80//117
f 80//118 57//118 73//118
f 57//119 45//119 73//119
f 62//120 72//120 45//120
f 61//121 81//121 62//121
f 60//122 82//122 61//122
f 62//123 81//123 72//123
f 81//124 71//124 72//124
f 61//125 82//125 81//125
f 82//126 83//126 81//126
f 81//127 83//127 71//127
f 83//128 70//128 71//128
f 60//129 54//129 82//129
f 54//130 53//130 82//130
f 82//131 53//131 83//131
f 53//132 52//132 83//132
f 83//133 52//133 70//133
f 52//134 44//134 70//134
f 56//135 69//135 44//135
f 55//136 84//136 56//136
f 56//137 84//137 69//137
f 84//138 68//138 69//138
f 199//139 84//139 55//139
f 84//140 85//140 68//140
f 85//141 67//141 68//141
f 190//51 67//51 85//51
f 63//142 66//142 46//142
f 63//143 86//143 66//143
f 86//144 65//144 66//144
f 163//145 65//145 86//145
f 57//146 62//146 45//146
f 58//147 87//147 57//147
f 59//148 88//148 58//148
f 57//149 87//149 62//149
f 87//150 61//150 62//150
f 58//151 88//151 87//151
f 88//152 89//152 87//152
f 87//153 89//153 61//153
f 89//154 60//154 61//154
f 59//155 51//155 88//155
f 51//156 50//156 88//156
f 88//157 50//157 89//157
f 50//158 49//158 89//158
f 89//159 49//159 60//159
f 49//160 42//160 60//160
f 52//161 56//161 44//161
f 53//162 90//162 52//162
f 54//163 91//163 53//163
f 52//164 90//164 56//164
f 90//165 55//165 56//165
f 53//166 91//166 90//166
f 91//167 92//167 90//167
f 90//168 92//168 55//168
f 209//169 55//169 92//169
f 54//170 48//170 91//170
f 210//171 91//171 48//171
f 91//172 212//172 92//172
f 92//173 215//173 209//173
f 47//174 42//174 49//174
f 47//175 48//175 42//175
f 206//176 48//176 47//176
f 108//177 70//177 109//177
f 104//178 103//178 71//178
f 93//179 73//179 94//179
f 123//180 124//180 68//180
f 111//181 69//181 114//181
f 143//182 144//182 77//182
f 129//183 75//183 128//183
f 133//184 67//184 134//184
f 119//185 118//185 74//185
f 140//186 76//186 141//186
f 98//187 72//187 102//187
f 170//188 64//188 167//188
f 174//189 176//189 51//189
f 202//190 205//190 3//190
f 144//191 143//191 142//191
f 177//192 175//192 8//192
f 173//103 171//103 2//103
f 175//193 2//193 8//193
f 169//141 164//141 34//141
f 214//93 217//93 4//93
f 170//194 172//194 43//194
f 204//195 206//195 47//195
f 189//196 187//196 67//196
f 181//197 182//197 178//197
f 183//198 49//198 50//198
f 216//199 5//199 4//199
f 203//200 49//200 184//200
f 164//201 162//201 34//201
f 159//202 138//202 160//202
f 146//79 76//79 77//79
f 196//143 198//143 31//143
f 180//203 3//203 205//203
f 156//40 158//40 86//40
f 20//173 138//173 140//173
f 162//204 33//204 34//204
f 188//205 191//205 32//205
f 180//206 179//206 41//206
f 152//80 76//80 149//80
f 157//139 154//139 33//139
f 194//49 192//49 85//49
f 178//207 7//207 41//207
f 150//171 151//171 145//171
f 198//208 12//208 31//208
f 166//205 65//205 165//205
f 154//209 20//209 33//209
f 212//202 215//202 92//202
f 203//210 204//210 47//210
f 207//211 210//211 48//211
f 166//45 167//45 64//45
f 174//212 43//212 172//212
f 179//213 178//213 41//213
f 153//169 161//169 20//169
f 193//144 196//144 31//144
f 192//50 190//50 85//50
f 217//182 216//182 4//182
f 77//214 144//214 145//214
f 194//215 84//215 195//215
f 152//75 155//75 63//75
f 200//209 199//209 55//209
f 186//188 134//188 185//188
f 177//216 7//216 182//216
f 176//217 50//217 51//217
f 181//218 183//218 50//218
f 171//196 21//196 2//196
f 147//78 146//78 77//78
f 158//41 163//41 86//41
f 148//77 147//77 77//77
f 156//208 63//208 155//208
f 20//219 140//219 141//219
f 23//6 131//6 130//6
f 24//9 23//9 127//9
f 23//9 129//9 127//9
f 26//13 24//13 117//13
f 117//220 118//220 119//220
f 119//221 120//221 117//221
f 14//222 26//222 125//222
f 125//222 126//222 93//222
f 14//20 93//20 94//20
f 19//21 97//21 99//21
f 27//24 19//24 101//24
f 19//24 98//24 101//24
f 29//28 27//28 100//28
f 100//223 103//223 104//223
f 104//224 105//224 100//224
f 9//34 29//34 106//34
f 106//34 107//34 108//34
f 9//35 108//35 109//35
f 13//36 113//36 112//36
f 30//38 13//38 115//38
f 13//38 111//38 115//38
f 32//42 30//42 121//42
f 121//225 124//225 123//225
f 123//226 122//226 121//226
f 32//145 191//145 193//145
f 188//45 32//45 132//45
f 132//227 135//227 133//227
f 133//45 186//45 132//45
f 23//228 20//228 136//228
f 136//229 137//229 131//229
f 21//51 168//51 169//51
f 19//52 14//52 95//52
f 95//52 96//52 97//52
f 13//230 9//230 113//230
f 9//230 110//230 113//230
f 12//75 197//75 208//75
f 40//79 213//79 214//79
f 5//85 201//85 202//85
f 44//231 69//231 112//231
f 113//90 116//90 44//90
f 45//91 72//91 99//91
f 97//232 96//232 45//232
f 46//92 75//92 130//92
f 131//233 137//233 46//233
f 76//93 139//93 138//93
f 142//234 143//234 77//234
f 76//93 138//93 77//93
f 141//235 76//235 46//235
f 46//236 137//236 136//236
f 74//237 118//237 117//237
f 127//95 128//95 75//95
f 74//95 117//95 127//95
f 73//238 126//238 125//238
f 120//239 119//239 74//239
f 73//238 125//238 74//238
f 94//97 73//97 45//97
f 45//97 96//97 95//97
f 71//240 103//240 100//240
f 101//241 102//241 72//241
f 71//98 100//98 101//98
f 70//99 107//99 106//99
f 105//242 104//242 71//242
f 70//99 106//99 71//99
f 109//100 70//100 44//100
f 44//243 116//243 110//243
f 68//244 124//244 121//244
f 115//101 114//101 69//101
f 68//245 121//245 115//245
f 67//102 135//102 132//102
f 122//246 123//246 68//246
f 67//102 132//102 68//102
f 187//103 185//103 134//103
f 199//247 195//247 84//247
f 190//51 189//51 67//51
f 163//145 165//145 65//145
f 209//169 200//169 55//169
f 210//171 211//171 91//171
f 91//172 211//172 212//172
f 206//176 207//176 48//176
f 108//177 107//177 70//177
f 93//248 126//248 73//248
f 111//249 112//249 69//249
f 129//183 130//183 75//183
f 133//184 135//184 67//184
f 140//186 139//186 76//186
f 98//250 99//250 72//250
f 170//188 43//188 64//188
f 142//172 159//172 150//172
f 150//251 145//251 142//251
f 145//252 144//252 142//252
f 175//193 173//193 2//193
f 165//253 163//253 162//253
f 163//197 158//197 157//197
f 165//253 162//253 164//253
f 158//197 156//197 157//197
f 156//197 155//197 154//197
f 155//197 152//197 153//197
f 152//254 149//254 161//254
f 153//197 152//197 161//197
f 149//254 146//254 159//254
f 146//197 147//197 150//197
f 147//253 148//253 150//253
f 148//253 151//253 150//253
f 156//253 154//253 157//253
f 166//197 165//197 169//197
f 170//197 167//197 171//197
f 167//197 166//197 168//197
f 174//253 172//253 175//253
f 172//197 170//197 173//197
f 175//253 172//253 173//253
f 181//197 176//197 182//197
f 176//197 174//197 177//197
f 184//253 183//253 179//253
f 183//197 181//197 178//197
f 179//197 183//197 178//197
f 204//253 203//253 205//253
f 203//253 184//253 180//253
f 207//197 206//197 202//197
f 206//197 204//197 205//197
f 202//197 206//197 205//197
f 211//197 210//197 216//197
f 210//197 207//197 201//197
f 216//253 210//253 201//253
f 215//253 212//253 214//253
f 212//197 211//197 217//197
f 214//197 212//197 217//197
f 200//197 209//197 208//197
f 209//197 215//197 213//197
f 195//253 199//253 196//253
f 199//197 200//197 198//197
f 192//197 194//197 193//197
f 194//197 195//197 196//197
f 189//254 190//254 188//254
f 190//197 192//197 191//197
f 188//253 190//253 191//253
f 185//253 187//253 186//253
f 187//253 189//253 186//253
f 194//253 196//253 193//253
f 199//253 198//253 196//253
f 209//253 213//253 208//253
f 213//197 215//197 214//197
f 203//197 180//197 205//197
f 180//197 184//197 179//197
f 176//253 177//253 182//253
f 167//253 168//253 171//253
f 165//197 164//197 169//197
f 146//197 150//197 159//197
f 186//197 189//197 188//197
f 149//255 159//255 160//255
f 149//256 160//256 161//256
f 193//253 191//253 192//253
f 155//253 153//253 154//253
f 197//197 198//197 200//197
f 157//197 162//197 163//197
f 208//253 197//253 200//253
f 166//253 169//253 168//253
f 216//197 217//197 211//197
f 170//197 171//197 173//197
f 201//253 207//253 202//253
f 174//197 175//197 177//197
f 183//198 184//198 49//198
f 216//199 201//199 5//199
f 203//200 47//200 49//200
f 159//202 142//202 138//202
f 146//79 149//79 76//79
f 180//203 41//203 3//203
f 20//173 161//173 138//173
f 161//257 160//257 138//257
f 138//258 139//258 140//258
f 162//204 157//204 33//204
f 152//80 63//80 76//80
f 178//259 182//259 7//259
f 198//208 197//208 12//208
f 166//205 64//205 65//205
f 154//209 153//209 20//209
f 174//212 51//212 43//212
f 145//199 151//199 148//199
f 148//199 77//199 145//199
f 194//204 85//204 84//204
f 186//188 133//188 134//188
f 177//260 8//260 7//260
f 176//217 181//217 50//217
f 171//196 168//196 21//196
f 156//208 86//208 63//208
