# Blender v2.80 (sub 75) OBJ File: ''
# www.blender.org
v 0.081734 -0.705628 2.296147
v -0.223787 0.273435 2.064504
v 0.253961 0.929607 2.732913
v 0.854750 0.356069 3.377648
v 0.748300 -0.654558 3.107708
v -0.854750 -0.356069 2.622352
v -0.748300 0.654558 2.892292
v -0.081734 0.705628 3.703853
v 0.223787 -0.273435 3.935496
v -0.253961 -0.929607 3.267087
v -0.766943 -0.088966 3.635519
v 0.319262 0.213013 2.076584
v 0.498841 -0.362462 2.212739
v -0.083496 -0.254037 2.036416
v 0.487880 -0.799494 2.649596
v 0.890636 -0.332444 2.689759
v 0.600072 0.598701 2.469462
v 0.017737 0.707132 2.293141
v 0.953205 0.261584 2.848425
v 0.651682 0.755703 3.064985
v 0.942248 -0.175447 3.285285
v -0.101233 -0.961169 2.743278
v 0.290563 -0.931150 3.220299
v -0.633949 -0.048571 2.228152
v -0.454369 -0.624053 2.364307
v -0.290563 0.931150 2.779701
v -0.571381 0.545463 2.386817
v 0.454369 0.624053 3.635693
v 0.101233 0.961169 3.256722
v 0.571381 -0.545463 3.613183
v 0.633949 0.048571 3.771848
v -0.651682 -0.755703 2.935015
v -0.942248 0.175447 2.714715
v 0.083496 0.254037 3.963584
v -0.017737 -0.707132 3.706859
v -0.953205 -0.261584 3.151575
v -0.600072 -0.598701 3.530538
v -0.890636 0.332444 3.310241
v -0.498841 0.362462 3.787261
v -0.319262 -0.213013 3.923416
vn -0.0349 0.8992 -0.4361
vn 0.6709 0.6374 0.3790
vn -0.0024 0.9981 -0.0608
vn 0.6640 0.3620 0.6543
vn -0.3120 -0.7697 0.5570
vn -0.5341 0.0332 0.8448
vn -0.7566 0.2457 0.6060
vn -0.9783 -0.1336 -0.1582
vn 0.2785 -0.5647 0.7769
vn 0.3423 0.0411 0.9387
vn 0.4181 0.3307 0.8461
vn 0.1865 0.5402 0.8206
vn -0.7997 0.4646 -0.3802
vn -0.7663 0.2399 -0.5960
vn -0.8540 -0.0506 -0.5178
vn -0.4308 -0.8353 -0.3416
vn 0.5323 -0.2703 0.8022
vn -0.3012 0.7792 -0.5496
vn 0.5134 -0.8579 -0.0204
vn 0.9241 -0.3817 0.0205
vn 0.8652 0.4962 0.0724
vn 0.3120 0.7697 -0.5570
vn 0.7471 -0.6247 -0.2271
vn 0.0290 0.0608 -0.9977
vn 0.2621 -0.1440 -0.9542
vn 0.1847 -0.4383 -0.8796
s off
f 3//1 18//1 26//1
f 4//2 20//2 28//2
f 3//3 26//3 29//3
f 4//4 28//4 31//4
f 10//5 35//5 37//5
f 40//6 39//6 11//6
f 39//7 38//7 11//7
f 33//8 6//8 36//8
f 30//9 9//9 35//9
f 31//10 34//10 9//10
f 31//11 28//11 34//11
f 28//12 8//12 34//12
f 27//13 33//13 7//13
f 27//14 24//14 33//14
f 24//15 6//15 33//15
f 25//16 22//16 32//16
f 30//17 31//17 9//17
f 26//18 18//18 27//18
f 15//19 5//19 23//19
f 16//20 21//20 5//20
f 19//21 20//21 4//21
f 17//22 18//22 3//22
f 15//23 16//23 5//23
f 12//24 14//24 2//24
f 12//25 13//25 14//25
f 13//26 1//26 14//26
v -0.404604 -0.264144 3.355701
v 0.011022 0.154271 3.579723
v -0.451333 0.344057 3.194739
v -0.540022 -0.104886 2.760467
v 0.208083 -0.411961 3.383393
v -0.208083 0.411961 2.616607
v -0.011022 -0.154271 2.420277
v 0.451333 -0.344057 2.805261
v 0.540022 0.104886 3.239533
v 0.404604 0.264144 2.644299
v -0.503106 0.046970 3.323540
v -0.231342 -0.064583 3.549827
v -0.258808 0.292910 3.455217
v 0.128786 -0.151466 3.566103
v -0.115514 -0.397403 3.434428
v -0.582704 0.140580 2.973669
v -0.395287 -0.397941 2.786947
v 0.044440 -0.578435 3.153094
v 0.323897 0.152329 3.481546
v 0.439726 -0.180493 3.366147
v -0.187418 0.538524 3.186724
v 0.084348 0.426972 3.413014
v -0.439726 0.180493 2.633853
v -0.387597 0.444378 2.889111
v -0.084348 -0.426972 2.586986
v -0.323897 -0.152329 2.518454
v 0.387597 -0.444378 3.110889
v 0.187418 -0.538524 2.813276
v 0.395287 0.397941 3.213053
v -0.044440 0.578435 2.846906
v -0.128786 0.151466 2.433897
v 0.258808 -0.292910 2.544783
v 0.582704 -0.140580 3.026331
v 0.315689 0.491550 2.863182
v 0.555236 0.216910 2.931718
v 0.115514 0.397403 2.565572
v 0.231342 0.064583 2.450173
v 0.503106 -0.046970 2.676460
vn -0.9165 0.1593 -0.3669
vn -0.5846 0.7991 0.1404
vn -0.7485 -0.0308 -0.6624
vn -0.0513 0.8263 -0.5609
vn 0.9759 0.0175 -0.2174
vn 0.9161 -0.2828 -0.2841
vn 0.3130 -0.2204 -0.9238
vn 0.4146 0.4236 -0.8054
vn 0.4693 0.7007 -0.5373
vn 0.2300 0.8727 -0.4308
vn 0.8412 -0.5408 -0.0021
vn 0.1081 -0.5395 -0.8350
vn -0.5307 0.1068 -0.8408
vn 0.7197 0.4063 0.5630
vn 0.5846 -0.7991 -0.1404
vn 0.3684 -0.9285 0.0459
vn -0.7197 -0.4063 -0.5630
vn -0.8412 0.5408 0.0021
vn -0.1081 0.5395 0.8350
vn 0.7485 0.0308 0.6624
vn 0.5307 -0.1068 0.8408
vn 0.4665 -0.4084 0.7846
vn -0.9161 0.2828 0.2841
vn 0.1060 -0.5492 0.8290
vn -0.1297 -0.3648 0.9220
vn -0.4146 -0.4236 0.8054
s off
f 44//27 56//27 63//27
f 43//28 61//28 64//28
f 44//29 63//29 66//29
f 46//30 70//30 76//30
f 75//31 73//31 78//31
f 73//32 48//32 78//32
f 72//33 47//33 77//33
f 77//34 76//34 50//34
f 76//35 74//35 50//35
f 76//36 70//36 74//36
f 67//37 48//37 73//37
f 65//38 47//38 72//38
f 66//39 63//39 71//39
f 59//40 49//40 69//40
f 67//41 68//41 48//41
f 67//42 58//42 68//42
f 57//43 44//43 66//43
f 56//44 43//44 64//44
f 53//45 42//45 62//45
f 59//46 60//46 49//46
f 59//47 54//47 60//47
f 54//48 45//48 60//48
f 51//49 43//49 56//49
f 54//50 55//50 45//50
f 54//51 52//51 55//51
f 52//52 41//52 55//52
v -0.186827 -0.467220 2.513378
v 0.304514 -0.629214 3.036892
v -0.403057 -0.530784 3.214041
v -0.669083 0.012414 2.794639
v -0.125920 0.249690 2.358284
v 0.475792 -0.146858 2.508010
v 0.125920 -0.249690 3.641716
v -0.475792 0.146858 3.491990
v -0.304514 0.629214 2.963108
v 0.403057 0.530784 2.785959
v 0.669083 -0.012414 3.205361
v 0.186827 0.467220 3.486622
v -0.346723 -0.586611 2.839779
v 0.069173 -0.644466 2.735654
v -0.057922 -0.681829 3.147495
v 0.458651 -0.456162 2.732501
v 0.169847 -0.360947 2.424788
v -0.503091 -0.267329 2.593263
v -0.630189 -0.304689 3.005101
v -0.183828 -0.127863 2.336782
v -0.467293 0.154060 2.502102
v 0.572268 -0.377138 3.142393
v 0.672942 -0.093617 2.831525
v 0.253005 -0.516609 3.398877
v -0.672942 0.093617 3.168475
v -0.516577 -0.225667 3.414997
v -0.253005 0.516609 2.601123
v -0.572268 0.377138 2.857607
v 0.516577 0.225667 2.585003
v 0.162897 0.458752 2.496998
v 0.467293 -0.154060 3.497898
v -0.205649 -0.060443 3.666374
v -0.458651 0.456162 3.267499
v 0.057922 0.681829 2.852505
v 0.630189 0.304689 2.994899
v 0.183828 0.127863 3.663218
v 0.503091 0.267329 3.406737
v -0.169847 0.360947 3.575212
v -0.069173 0.644466 3.264346
v 0.346723 0.586611 3.160221
vn -0.2294 -0.8725 -0.4315
vn 0.6958 -0.7161 -0.0548
vn -0.4513 0.4734 -0.7565
vn 0.4128 -0.1148 0.9036
vn -0.3999 0.2261 0.8882
vn 0.3869 0.9188 -0.0788
vn 0.7053 0.7089 0.0004
vn -0.0580 0.7469 0.6624
vn -0.3556 0.7450 0.5643
vn -0.5406 0.5136 0.6663
vn 0.4572 0.4074 0.7906
vn 0.7998 0.5081 -0.3196
vn 0.2846 0.8476 -0.4478
vn 0.4513 -0.4734 0.7565
vn -0.5814 0.7498 -0.3160
vn -0.6589 0.5341 -0.5297
vn -0.9276 -0.2226 0.3000
vn -0.7998 -0.5081 0.3196
vn 0.9613 -0.2669 0.0679
vn 0.8685 -0.4725 -0.1497
vn 0.8205 -0.3648 -0.4400
vn -0.4128 0.1148 -0.9036
vn -0.5884 -0.1229 -0.7992
vn -0.8084 -0.0580 -0.5857
vn -0.7053 -0.7089 -0.0004
vn 0.0580 -0.7469 -0.6624
vn -0.1710 -0.9751 -0.1412
s off
f 79//53 92//53 91//53
f 80//54 94//54 100//54
f 83//55 99//55 105//55
f 85//56 109//56 114//56
f 86//57 110//57 116//57
f 88//58 112//58 118//58
f 113//59 88//59 118//59
f 117//60 116//60 90//60
f 117//61 111//61 116//61
f 111//62 86//62 116//62
f 114//63 115//63 90//63
f 107//64 88//64 113//64
f 108//65 112//65 88//65
f 102//66 109//66 85//66
f 105//67 106//67 87//67
f 105//68 99//68 106//68
f 103//69 97//69 104//69
f 97//70 81//70 104//70
f 100//71 101//71 89//71
f 100//72 94//72 101//72
f 94//73 84//73 101//73
f 98//74 99//74 83//74
f 98//75 96//75 99//75
f 96//76 82//76 99//76
f 91//77 81//77 97//77
f 92//78 79//78 95//78
f 91//79 92//79 93//79
v -0.491987 -0.554357 2.698940
v 0.281910 -0.435950 2.391335
v 0.180180 -0.762921 3.159646
v -0.474622 -0.378172 3.521266
v -0.777581 0.186582 2.976438
v -0.310014 0.150870 2.278108
v 0.777581 -0.186582 3.023562
v 0.310014 -0.150870 3.721892
v -0.281910 0.435950 3.608665
v -0.180180 0.762921 2.840354
v 0.474622 0.378172 2.478734
v 0.491987 0.554357 3.301060
v -0.183277 -0.774274 2.916877
v -0.123482 -0.582087 2.465279
v -0.016519 -0.167565 2.217921
v -0.471404 -0.237165 2.398726
v -0.173071 -0.670717 3.400231
v -0.736026 -0.112616 3.292545
v -0.639271 0.198349 2.561833
v 0.444680 -0.033959 2.335843
v 0.096757 0.310964 2.269290
v 0.622756 -0.365917 2.656083
v -0.096757 -0.310964 3.730710
v 0.288130 -0.537115 3.518158
v -0.622756 0.365917 3.343917
v -0.444680 0.033959 3.664157
v -0.288130 0.537115 2.481842
v -0.562959 0.558105 2.892313
v 0.736026 0.112616 2.707455
v 0.639271 -0.198349 3.438167
v 0.016519 0.167565 3.782079
v -0.271610 0.704678 3.263927
v 0.173071 0.670717 2.599769
v 0.746231 0.216175 3.190809
v 0.568159 0.548126 2.870567
v 0.471404 0.237165 3.601274
v 0.123482 0.582087 3.534721
v 0.183277 0.774274 3.083123
vn 0.3074 -0.2512 -0.9178
vn -0.9346 0.1888 0.3016
vn -0.5604 0.4110 -0.7191
vn 0.6187 -0.3478 -0.7045
vn -0.4303 -0.2676 0.8621
vn 0.6496 -0.0341 0.7595
vn 0.5275 0.7262 -0.4409
vn 0.5386 0.8385 0.0832
vn 0.4124 0.8890 -0.1992
vn 0.3221 0.8550 0.4065
vn -0.1711 0.7795 0.6025
vn 0.3464 0.1441 0.9270
vn 0.8282 0.1137 0.5487
vn 0.2980 0.6107 -0.7336
vn -0.5344 0.6743 0.5096
vn 0.5604 -0.4110 0.7191
vn 0.9346 -0.1888 -0.3016
vn 0.8044 -0.1281 -0.5801
vn -0.4776 0.8011 -0.3607
vn -0.6647 0.5770 -0.4746
vn -0.6187 0.3478 0.7045
vn -0.8044 0.1281 0.5801
vn -0.7415 -0.1711 0.6488
vn 0.1193 -0.8559 0.5032
vn -0.1102 -0.9714 0.2104
vn -0.4624 -0.5935 -0.6588
s off
f 120//80 133//80 138//80
f 123//81 136//81 143//81
f 124//82 137//82 145//82
f 120//83 138//83 140//83
f 122//84 141//84 144//84
f 126//85 148//85 154//85
f 129//86 151//86 153//86
f 153//87 156//87 130//87
f 153//88 151//88 156//88
f 156//89 155//89 130//89
f 150//90 127//90 155//90
f 149//91 126//91 154//91
f 154//92 148//92 152//92
f 139//93 151//93 129//93
f 143//94 127//94 150//94
f 142//95 148//95 126//95
f 140//96 147//96 125//96
f 140//97 138//97 147//97
f 145//98 146//98 128//98
f 145//99 137//99 146//99
f 143//100 144//100 127//100
f 143//101 136//101 144//101
f 136//102 122//102 144//102
f 135//103 121//103 142//103
f 131//104 121//104 135//104
f 132//105 119//105 134//105
v -0.530090 0.158453 3.709856
v -0.845462 -0.303913 2.946795
v -0.119752 -0.784445 2.575380
v 0.390519 -0.036318 3.810045
v 0.530090 -0.158453 2.290144
v 0.845462 0.303913 3.053205
v 0.119752 0.784445 3.424620
v 0.206010 0.708956 2.485275
v -0.082037 0.071789 3.893372
v 0.108450 -0.438062 3.778678
v -0.191478 -0.877798 3.052963
v 0.308218 -0.824962 2.814427
v 0.608149 -0.385222 3.540146
v -0.241189 0.554224 3.666828
v 0.299930 0.439741 3.725718
v -0.875560 0.185241 2.904713
v -0.726495 -0.157289 2.492591
v 0.690191 -0.457015 2.646769
v 0.241189 -0.554224 2.333172
v 0.726495 0.157289 3.507409
v 0.875560 -0.185241 3.095287
v -0.308218 0.824962 3.185573
v 0.082037 -0.071789 2.106628
v 0.808528 0.085499 2.614031
v 0.567337 0.639723 3.280859
v -0.257516 0.780588 2.633438
v 0.191478 0.877798 2.947037
v -0.108450 0.438062 2.221322
v 0.432667 0.323579 2.280211
v 0.618036 0.595349 2.728724
vn -0.3053 0.3204 0.8967
vn 0.6995 -0.1100 0.7062
vn -0.9572 -0.0828 -0.2774
vn 0.3882 0.0595 -0.9197
vn 0.8812 0.3895 -0.2678
vn 0.7769 0.6293 0.0208
vn 0.2046 0.5509 -0.8091
vn 0.1611 0.2735 -0.9483
vn -0.0941 0.7486 -0.6563
vn 0.0357 0.9389 -0.3422
vn -0.1484 0.9846 -0.0928
vn -0.0131 0.9817 0.1899
vn 0.8238 0.4398 0.3577
vn 0.9927 0.0517 -0.1092
vn -0.2004 0.8417 0.5014
vn 0.9572 0.0828 0.2774
vn 0.8763 -0.1638 0.4531
vn 0.5685 -0.4871 -0.6630
vn 0.0628 0.6750 0.7352
vn -0.0092 0.4225 0.9063
vn 0.4320 -0.3676 0.8236
vn 0.0131 -0.9817 -0.1899
s off
f 157//106 165//106 170//106
f 160//107 169//107 176//107
f 158//108 172//108 173//108
f 161//109 179//109 185//109
f 162//110 180//110 186//110
f 181//111 162//111 186//111
f 185//112 184//112 164//112
f 185//113 179//113 184//113
f 184//114 182//114 164//114
f 182//115 183//115 164//115
f 182//116 178//116 183//116
f 178//117 163//117 183//117
f 176//118 162//118 181//118
f 177//119 180//119 162//119
f 170//120 163//120 178//120
f 176//121 177//121 162//121
f 176//122 169//122 177//122
f 174//123 175//123 161//123
f 170//124 171//124 163//124
f 170//125 165//125 171//125
f 166//126 169//126 160//126
f 167//127 159//127 168//127
