# Blender v2.80 (sub 75) OBJ File: 'pond.blend'
# www.blender.org
v 1.256164 -1.347376 1.155335
v 1.399650 -1.545408 0.963353
v 1.351407 -1.601479 1.307069
v 1.488019 -0.809281 1.275653
v 1.294645 -1.043789 1.210257
v 1.422791 -0.975178 1.530387
v 1.286510 -1.291463 1.459663
v 1.708193 -0.773439 1.492223
v 2.370234 -1.202747 1.335300
v 2.226748 -1.004714 1.527281
v 2.261827 -1.349385 1.587110
v 2.020542 -1.164049 1.763293
v 1.735143 -1.365786 1.801455
v 2.019418 -1.473821 1.736827
v 1.800039 -1.675800 1.648862
v 1.869961 -1.832752 1.342129
v 2.138379 -1.740842 1.214982
v 2.125546 -1.665667 1.516390
v 2.033705 -0.763303 1.359749
v 1.959733 -0.887432 1.635042
v 1.700059 -1.021116 1.741628
v 1.474180 -1.230651 1.699968
v 1.592693 -1.786819 1.130885
v 1.584588 -1.758082 1.440360
v 1.918204 -1.776684 0.998412
v 2.203607 -1.574945 0.960248
v 2.339887 -1.258659 1.030972
v 2.331752 -1.506334 1.280377
v 2.146842 -1.017254 0.863439
v 2.041810 -0.792041 1.050275
v 2.274991 -0.948644 1.183566
v 1.826360 -0.874323 0.841772
v 1.756437 -0.717370 1.148505
v 1.500852 -0.884456 0.974245
v 1.364570 -1.200738 0.903524
v 1.605856 -1.386074 0.727341
v 1.926338 -1.529007 0.749006
v 1.666664 -1.662691 0.855592
v 1.891255 -1.184336 0.689179
v 2.152218 -1.319471 0.790666
v 1.953712 -1.586059 1.239206
v 1.836976 -1.585716 1.384708
v 1.777058 -1.608838 1.183771
v 1.713136 -1.492579 1.488575
v 1.562060 -1.392444 1.444443
v 1.635650 -1.553893 1.330347
v 1.932269 -1.536293 1.060706
v 1.611198 -1.531917 1.146720
v 1.502143 -1.415566 1.243506
v 1.561039 -1.385019 1.043264
v 1.597180 -1.051243 1.104810
v 1.789422 -0.964407 1.105927
v 1.738586 -1.106190 0.958235
v 1.913261 -1.057543 1.002060
v 1.908492 -1.225639 0.921315
v 1.875259 -1.408496 0.937349
v 1.716249 -1.312473 0.920199
v 1.586199 -1.205277 1.000160
v 1.487449 -1.223572 1.157359
v 1.990748 -0.996230 1.160287
v 2.042002 -1.363965 1.008154
v 1.730944 -1.504468 1.006345
v 1.694128 -1.013830 1.429928
v 1.672685 -0.964064 1.251429
v 1.538283 -1.081789 1.305052
v 2.064339 -1.157679 1.046191
v 2.124255 -1.134557 1.247129
v 2.088114 -1.468334 1.185582
v 1.717906 -1.324484 1.569319
v 1.751139 -1.141626 1.553286
v 1.584396 -1.186158 1.482480
v 1.849339 -0.941285 1.306863
v 1.895454 -1.045655 1.484290
v 2.015199 -1.018205 1.343914
v 1.887812 -1.443933 1.532400
v 2.065358 -1.165104 1.447371
v 1.910149 -1.237649 1.570436
v 2.040199 -1.344846 1.490475
v 2.078534 -1.427436 0.990465
v 2.138942 -1.220868 1.022774
v 2.183794 -1.405121 1.179637
v 2.102051 -1.030484 1.121555
v 1.969667 -1.057312 0.950914
v 1.923722 -0.907160 1.140420
v 1.674335 -1.536013 0.978500
v 1.790835 -1.652587 1.120639
v 1.561793 -1.572206 1.161231
v 1.952064 -1.014109 1.512134
v 1.835562 -0.897535 1.369995
v 1.738860 -1.032115 1.551946
v 1.835850 -1.400943 1.622426
v 1.908135 -1.195669 1.623807
v 1.670552 -1.259488 1.616774
v 1.448037 -1.206166 1.102206
v 1.428780 -1.378325 1.233944
v 1.442603 -1.145001 1.310998
v 1.539304 -1.010423 1.129047
v 1.487457 -1.329255 1.467861
v 1.547864 -1.122686 1.500170
v 1.656730 -1.492811 1.539721
v 1.597980 -0.961356 1.362963
v 1.585247 -1.160574 0.939537
v 1.516940 -1.387949 1.004367
v 2.064605 -0.977917 1.329404
v 1.702676 -1.642963 1.350215
v 1.524347 -1.519639 1.369079
v 1.885771 -1.573195 1.499128
v 2.087093 -1.539700 1.361588
v 2.041151 -1.389549 1.551097
v 2.178361 -1.343957 1.388429
v 1.740626 -0.976928 0.991507
v 1.712383 -0.893729 1.190617
v 1.790549 -1.149180 0.868208
v 1.887538 -1.518008 0.938688
v 2.028417 -1.588766 1.127671
v 1.914015 -1.656394 1.300017
v 1.955846 -1.290635 0.873861
v 2.197618 -1.171798 1.256691
v 1.975654 -1.234223 0.822171
v 1.875289 -1.461445 0.834807
v 1.728018 -1.224188 0.801168
v 1.845940 -1.686490 1.437064
v 2.013113 -1.543761 1.553453
v 1.736954 -1.540899 1.606744
v 1.756378 -1.632995 0.970060
v 1.799045 -1.727281 1.196231
v 1.552009 -1.622879 1.111470
v 1.889444 -1.009223 0.883890
v 2.120570 -1.320773 1.577802
v 2.027267 -1.091542 1.602540
v 1.898379 -1.325935 1.689466
v 1.870020 -0.917127 1.520575
v 1.827353 -0.822841 1.294404
v 1.627556 -0.922615 1.465388
v 1.505828 -1.229350 0.912833
v 1.404741 -1.385619 1.077832
v 1.413491 -1.106134 1.108168
v 1.366370 -1.270429 1.331542
v 1.440546 -1.033377 1.344469
v 1.498670 -1.157007 1.552315
v 1.489920 -1.436493 1.521982
v 1.650743 -1.315900 1.668463
v 1.751109 -1.088678 1.655827
v 1.574914 -0.891172 1.190892
v 1.599132 -1.458580 0.888095
v 2.074389 -0.927244 1.379164
v 1.613286 -1.006362 0.937182
v 1.780459 -0.863632 1.053571
v 1.604653 -1.654321 1.385969
v 1.425659 -1.508867 1.292861
v 2.221658 -1.164503 1.412802
v 2.200739 -1.041256 1.197773
v 2.260028 -1.279694 1.159092
v 2.127728 -1.393116 0.938320
v 2.185852 -1.516746 1.146166
v 1.998842 -1.627508 1.025246
v 1.847704 -1.372971 1.746665
v 1.824379 -1.095017 1.724468
v 1.582108 -1.297276 1.701639
v 1.797715 -0.870841 1.559153
v 1.937817 -0.786141 1.332232
v 1.622834 -0.811232 1.349003
v 2.121581 -1.659950 1.382753
v 1.860742 -1.752620 1.423653
v 2.003564 -1.738890 1.141631
v 1.778695 -1.177152 0.743969
v 1.802019 -1.455105 0.766167
v 1.534639 -1.293449 0.816140
v 1.504817 -0.890173 1.107882
v 1.611656 -0.991280 0.869850
v 1.373659 -1.124768 1.030041
v 1.380566 -1.013494 1.326173
v 1.564022 -1.588592 0.926356
v 1.373790 -1.404253 1.016502
v 1.421201 -1.602323 1.208376
v 1.303550 -1.315663 1.272460
v 1.428108 -1.491051 1.504508
v 1.385542 -1.214944 1.520311
v 1.765656 -0.797502 1.066981
v 1.926638 -0.966183 0.853077
v 2.044290 -1.252847 0.788996
v 1.552725 -1.002132 1.591423
v 2.062376 -0.961531 1.564278
v 2.322847 -1.234460 1.218175
v 2.240856 -1.335178 0.970324
v 2.198290 -1.059072 0.986127
vn -0.8744 -0.4443 -0.1952
vn -0.7829 0.5937 0.1862
vn -0.9518 -0.2704 0.1446
vn -0.4998 0.7788 0.3792
vn 0.8653 0.1699 0.4715
vn 0.1903 -0.0843 0.9781
vn 0.0394 -0.4346 0.8997
vn 0.4133 -0.8793 0.2369
vn 0.5065 0.7269 0.4638
vn -0.0770 0.7087 0.7013
vn -0.3817 0.6620 0.6450
vn -0.5122 0.4011 0.7595
vn -0.2250 -0.9707 0.0842
vn -0.0368 -0.9855 -0.1659
vn 0.2713 -0.9553 -0.1177
vn 0.9005 -0.3229 -0.2913
vn 0.1514 0.8852 0.4398
vn -0.6874 -0.6953 -0.2099
vn 0.6575 0.6385 -0.4000
vn 0.0830 0.8947 -0.4389
vn -0.7294 0.6558 -0.1946
vn -0.8653 -0.1699 -0.4715
vn 0.3503 0.6894 -0.6340
vn -0.1369 -0.4413 -0.8869
vn -0.0101 -0.1720 -0.9850
vn 0.2983 -0.1337 -0.9451
vn 0.1015 -0.9913 0.0838
vn -0.5715 -0.6311 0.5244
vn 0.2103 -0.9349 -0.2859
vn -0.8089 -0.4972 -0.3138
vn -0.3287 0.7353 -0.5927
vn -0.0299 0.7262 -0.6868
vn 0.0492 -0.0961 -0.9942
vn -0.5852 -0.1107 -0.8033
vn -0.8463 -0.0093 -0.5327
vn -0.9293 -0.2080 -0.3051
vn 0.2578 0.8517 -0.4563
vn 0.4209 -0.1549 -0.8938
vn 0.0007 -0.8619 -0.5072
vn -0.5652 0.7746 0.2839
vn 0.5715 0.6311 -0.5244
vn 0.7733 0.5611 -0.2952
vn 0.5652 -0.7746 -0.2839
vn -0.2578 -0.8517 0.4563
vn -0.4209 0.1549 0.8938
vn -0.2103 0.9349 0.2859
vn -0.0007 0.8619 0.5072
vn 0.3013 0.8540 0.4241
vn 0.0299 -0.7262 0.6868
vn 0.5478 0.5986 0.5844
vn 0.4510 0.3939 0.8009
vn 0.5852 0.1107 0.8033
vn 0.8682 -0.1817 -0.4617
vn 0.4649 0.7453 -0.4778
vn -0.3657 -0.8440 -0.3924
vn 0.0471 0.7909 0.6101
vn -0.0307 0.0041 0.9995
vn -0.9960 0.0748 -0.0478
vn -0.8879 0.4346 -0.1504
vn -0.6453 0.0697 0.7608
vn -0.5599 -0.2297 0.7961
vn -0.2766 -0.2865 0.9173
vn -0.4704 0.6519 0.5947
vn -0.7484 0.4194 -0.5137
vn -0.9233 -0.1628 -0.3477
vn 0.3657 0.8440 0.3924
vn -0.5578 -0.8230 0.1077
vn -0.3443 -0.9342 -0.0931
vn 0.5147 -0.6069 0.6056
vn 0.7484 -0.4194 0.5137
vn -0.0340 0.9204 -0.3894
vn 0.1742 0.7919 -0.5852
vn 0.0661 0.5934 -0.8022
vn -0.0471 -0.7909 -0.6101
vn 0.2394 -0.8371 -0.4919
vn 0.2597 -0.9451 -0.1984
vn 0.8879 -0.4346 0.1504
vn 0.6453 -0.0697 -0.7607
vn 0.9684 0.0245 -0.2481
vn 0.0805 -0.0908 -0.9926
vn 0.1260 -0.7114 0.6914
vn -0.2707 -0.9056 -0.3265
vn 0.0926 0.2963 -0.9506
vn 0.4458 0.0853 0.8910
vn -0.1117 0.9096 0.4003
vn -0.8814 0.0782 -0.4659
vn -0.9545 0.2977 0.0176
vn -0.9840 0.0494 -0.1712
vn -0.8816 0.2542 0.3977
vn -0.6461 -0.0623 0.7607
vn -0.1769 0.6821 0.7096
vn -0.3213 0.9319 0.1684
vn -0.7225 -0.2235 -0.6543
vn -0.4422 -0.3909 0.8073
vn 0.2707 0.9056 0.3265
vn -0.1260 0.7114 -0.6914
vn -0.1638 0.4590 -0.8732
vn -0.6412 -0.7666 0.0352
vn -0.3794 -0.9246 -0.0332
vn -0.0926 -0.2963 0.9506
vn 0.1638 -0.4590 0.8732
vn 0.4337 -0.3017 0.8490
vn 0.8123 0.5366 0.2285
vn 0.9712 0.2350 0.0402
vn 0.6581 -0.5518 -0.5123
vn -0.1484 0.0663 0.9867
vn -0.0585 0.9466 0.3172
vn 0.3502 -0.9273 0.1322
vn -0.2393 -0.0972 -0.9661
vn -0.6569 0.5414 -0.5248
vn -0.8327 0.5245 -0.1777
vn -0.6425 -0.3234 -0.6947
vn -0.3756 -0.3568 -0.8553
vn -0.7288 -0.5583 -0.3963
vn -0.9270 -0.3507 -0.1330
vn -0.8968 -0.4069 0.1738
vn -0.9153 -0.1622 0.3687
vn -0.6431 0.7630 0.0650
vn -0.3587 0.7903 -0.4967
vn -0.7034 -0.1482 0.6952
vn -0.3502 0.9273 -0.1322
vn -0.0790 0.9968 0.0085
vn 0.2432 0.3056 -0.9206
vn -0.6086 0.2237 0.7613
vn -0.3348 0.3002 0.8932
vn 0.2759 0.8322 0.4809
vn 0.9153 0.1622 -0.3687
s 1
f 1//1 2//1 3//1
f 4//2 5//2 6//2
f 1//3 3//3 7//3
f 4//4 6//4 8//4
f 9//5 10//5 11//5
f 12//6 13//6 14//6
f 13//7 15//7 14//7
f 16//8 17//8 18//8
f 19//9 20//9 10//9
f 8//10 21//10 20//10
f 8//11 6//11 21//11
f 6//12 22//12 21//12
f 23//13 16//13 24//13
f 23//14 25//14 16//14
f 25//15 17//15 16//15
f 26//16 27//16 28//16
f 19//17 8//17 20//17
f 3//18 2//18 23//18
f 29//19 30//19 31//19
f 32//20 33//20 30//20
f 34//21 5//21 4//21
f 35//22 2//22 1//22
f 29//23 32//23 30//23
f 36//24 37//24 38//24
f 36//25 39//25 37//25
f 39//26 40//26 37//26
f 41//27 42//27 43//27
f 44//28 45//28 46//28
f 41//29 43//29 47//29
f 48//30 49//30 50//30
f 51//31 52//31 53//31
f 52//32 54//32 53//32
f 55//33 56//33 57//33
f 57//34 50//34 58//34
f 50//35 59//35 58//35
f 50//36 49//36 59//36
f 60//37 54//37 52//37
f 61//38 56//38 55//38
f 47//39 43//39 62//39
f 63//40 64//40 65//40
f 60//41 66//41 54//41
f 60//42 67//42 66//42
f 68//43 41//43 47//43
f 42//44 44//44 46//44
f 69//45 70//45 71//45
f 63//46 72//46 64//46
f 63//47 73//47 72//47
f 73//48 74//48 72//48
f 75//49 44//49 42//49
f 73//50 76//50 74//50
f 73//51 77//51 76//51
f 77//52 78//52 76//52
f 79//53 80//53 81//53
f 82//54 83//54 84//54
f 85//55 86//55 87//55
f 88//56 89//56 90//56
f 91//57 92//57 93//57
f 94//58 95//58 96//58
f 97//59 94//59 96//59
f 98//60 93//60 99//60
f 98//61 100//61 93//61
f 100//62 91//62 93//62
f 90//63 101//63 99//63
f 102//64 94//64 97//64
f 103//65 95//65 94//65
f 104//66 89//66 88//66
f 87//67 105//67 106//67
f 87//68 86//68 105//68
f 107//69 108//69 109//69
f 108//70 110//70 109//70
f 84//71 111//71 112//71
f 84//72 83//72 111//72
f 83//73 113//73 111//73
f 114//74 86//74 85//74
f 114//75 115//75 86//75
f 115//76 116//76 86//76
f 81//77 110//77 108//77
f 80//78 79//78 117//78
f 81//79 80//79 118//79
f 119//80 120//80 121//80
f 122//81 123//81 124//81
f 125//82 126//82 127//82
f 119//83 121//83 128//83
f 129//84 130//84 131//84
f 132//85 133//85 134//85
f 135//86 136//86 137//86
f 137//87 138//87 139//87
f 137//88 136//88 138//88
f 138//89 140//89 139//89
f 141//90 142//90 140//90
f 143//91 132//91 134//91
f 134//92 133//92 144//92
f 145//93 136//93 135//93
f 124//94 142//94 141//94
f 146//95 133//95 132//95
f 128//96 147//96 148//96
f 128//97 121//97 147//97
f 127//98 149//98 150//98
f 127//99 126//99 149//99
f 124//100 131//100 142//100
f 124//101 123//101 131//101
f 123//102 129//102 131//102
f 151//103 152//103 146//103
f 153//104 152//104 151//104
f 154//105 155//105 156//105
f 157//106 158//106 159//106
f 160//107 161//107 162//107
f 163//108 164//108 165//108
f 166//109 167//109 168//109
f 169//110 170//110 171//110
f 172//111 169//111 171//111
f 168//112 173//112 174//112
f 168//113 167//113 173//113
f 173//114 175//114 174//114
f 175//115 176//115 174//115
f 175//116 177//116 176//116
f 177//117 178//117 176//117
f 162//118 169//118 172//118
f 179//119 170//119 169//119
f 159//120 178//120 177//120
f 162//121 179//121 169//121
f 162//122 161//122 179//122
f 180//123 181//123 166//123
f 159//124 182//124 178//124
f 159//125 158//125 182//125
f 183//126 161//126 160//126
f 184//127 185//127 186//127
