# Blender v2.80 (sub 75) OBJ File: ''
# www.blender.org
v -4.440114 5.513654 6.934639
v -5.293653 4.910320 7.048771
v -6.015259 5.464602 7.575679
v -5.607688 6.410503 7.787182
v -4.634197 6.440809 7.390998
v -4.464441 4.772940 7.680530
v -5.437932 4.742634 8.076715
v -5.632016 5.669789 8.533073
v -4.778477 6.273123 8.418941
v -4.056870 5.718841 7.892034
v -4.673559 5.242328 8.597866
v -5.400546 5.396576 6.823322
v -4.898852 5.751204 6.756238
v -4.837180 5.145318 6.861406
v -4.449564 6.044914 7.062564
v -5.012930 6.296168 7.024477
v -5.824695 5.722372 7.133029
v -5.763029 5.116487 7.238200
v -5.585130 6.278355 7.257346
v -5.947614 5.998268 7.672225
v -5.135844 6.572069 7.563673
v -4.110216 5.620554 7.357065
v -4.224294 6.165521 7.625305
v -4.851479 4.709935 7.299829
v -4.349778 5.064565 7.232741
v -5.847835 5.017922 7.842408
v -5.423685 4.692118 7.532700
v -5.722351 6.118878 8.234971
v -5.961914 5.562889 8.110648
v -4.648444 6.491325 7.935013
v -5.220651 6.473508 8.167884
v -4.124516 5.185175 7.795487
v -4.936285 4.611374 7.904039
v -5.234950 6.038125 8.606306
v -4.309100 6.066957 8.229512
v -4.486999 4.905088 8.210366
v -4.247434 5.461071 8.334682
v -5.059199 4.887275 8.443235
v -5.173277 5.432239 8.711474
v -4.671583 5.786867 8.644390
vn -0.8744 -0.4443 -0.1952
vn -0.7829 0.5937 0.1862
vn -0.9518 -0.2704 0.1446
vn -0.4998 0.7788 0.3792
vn 0.8653 0.1699 0.4715
vn 0.1903 -0.0843 0.9781
vn 0.0394 -0.4346 0.8997
vn 0.4133 -0.8792 0.2369
vn 0.5065 0.7269 0.4638
vn -0.0770 0.7087 0.7013
vn -0.3817 0.6620 0.6450
vn -0.5122 0.4011 0.7595
vn -0.2250 -0.9707 0.0842
vn -0.0368 -0.9855 -0.1659
vn 0.2713 -0.9553 -0.1177
vn 0.9005 -0.3229 -0.2913
vn 0.1514 0.8852 0.4398
vn -0.6874 -0.6953 -0.2099
vn 0.6575 0.6385 -0.4000
vn 0.0830 0.8947 -0.4389
vn -0.7294 0.6558 -0.1946
vn -0.8653 -0.1699 -0.4715
vn 0.3503 0.6894 -0.6340
vn -0.1369 -0.4413 -0.8869
vn -0.0101 -0.1720 -0.9850
vn 0.2983 -0.1337 -0.9451
s off
f 3//1 18//1 26//1
f 4//2 20//2 28//2
f 3//3 26//3 29//3
f 4//4 28//4 31//4
f 10//5 35//5 37//5
f 40//6 39//6 11//6
f 39//7 38//7 11//7
f 33//8 6//8 36//8
f 30//9 9//9 35//9
f 31//10 34//10 9//10
f 31//11 28//11 34//11
f 28//12 8//12 34//12
f 27//13 33//13 7//13
f 27//14 24//14 33//14
f 24//15 6//15 33//15
f 25//16 22//16 32//16
f 30//17 31//17 9//17
f 26//18 18//18 27//18
f 15//19 5//19 23//19
f 16//20 21//20 5//20
f 19//21 20//21 4//21
f 17//22 18//22 3//22
f 15//23 16//23 5//23
f 12//24 14//24 2//24
f 12//25 13//25 14//25
f 13//26 1//26 14//26
v -4.637028 5.469050 8.164811
v -5.145158 5.826283 8.275225
v -5.211962 5.209353 8.161471
v -4.789060 5.045028 7.723113
v -4.680974 6.043242 7.907177
v -5.391156 5.140202 7.560535
v -4.926971 5.357161 7.192488
v -4.860168 5.974090 7.306241
v -5.283070 6.138415 7.744600
v -5.435101 5.714393 7.302902
v -4.904905 5.294868 8.238510
v -4.865639 5.657487 8.305372
v -5.203578 5.504843 8.303410
v -4.891471 5.994988 8.153938
v -4.592801 5.785012 8.089041
v -4.994267 5.045632 7.978886
v -4.552799 5.251974 7.628850
v -4.489268 5.838710 7.737041
v -5.245375 6.050932 8.058378
v -4.972535 6.178457 7.842046
v -5.477535 5.385379 8.083894
v -5.438270 5.748002 8.150758
v -5.099595 5.004986 7.625666
v -5.348173 5.101572 7.883327
v -4.633859 5.435441 7.316954
v -4.826755 5.132511 7.409334
v -4.723956 6.081871 7.584385
v -4.594594 5.798064 7.383819
v -5.519330 5.931469 7.838862
v -5.582861 5.344733 7.730672
v -5.180658 5.188455 7.313774
v -4.868552 5.678600 7.164302
v -5.077862 6.137811 7.488826
v -5.608690 5.682234 7.579237
v -5.415798 5.985164 7.486862
v -5.479329 5.398431 7.378672
v -5.206490 5.525956 7.162341
v -5.167224 5.888575 7.229203
vn 0.1015 -0.9913 0.0838
vn -0.5715 -0.6311 0.5244
vn 0.2103 -0.9349 -0.2859
vn -0.8089 -0.4972 -0.3138
vn -0.3287 0.7353 -0.5927
vn -0.0299 0.7262 -0.6868
vn 0.0492 -0.0961 -0.9942
vn -0.5852 -0.1107 -0.8033
vn -0.8463 -0.0093 -0.5327
vn -0.9293 -0.2080 -0.3051
vn 0.2578 0.8517 -0.4563
vn 0.4209 -0.1549 -0.8938
vn 0.0007 -0.8619 -0.5072
vn -0.5652 0.7746 0.2839
vn 0.5715 0.6311 -0.5244
vn 0.7733 0.5611 -0.2952
vn 0.5652 -0.7746 -0.2839
vn -0.2578 -0.8517 0.4563
vn -0.4209 0.1549 0.8938
vn -0.2103 0.9349 0.2859
vn -0.0007 0.8619 0.5072
vn 0.3013 0.8540 0.4241
vn 0.0299 -0.7262 0.6868
vn 0.5478 0.5986 0.5844
vn 0.4509 0.3939 0.8009
vn 0.5852 0.1107 0.8033
s off
f 44//27 56//27 63//27
f 43//28 61//28 64//28
f 44//29 63//29 66//29
f 46//30 70//30 76//30
f 75//31 73//31 78//31
f 73//32 48//32 78//32
f 72//33 47//33 77//33
f 77//34 76//34 50//34
f 76//35 74//35 50//35
f 76//36 70//36 74//36
f 67//37 48//37 73//37
f 65//38 47//38 72//38
f 66//39 63//39 71//39
f 59//40 49//40 69//40
f 67//41 68//41 48//41
f 67//42 58//42 68//42
f 57//43 44//43 66//43
f 56//44 43//44 64//44
f 53//45 42//45 62//45
f 59//46 60//46 49//46
f 59//47 54//47 60//47
f 54//48 45//48 60//48
f 51//49 43//49 56//49
f 54//50 55//50 45//50
f 54//51 52//51 55//51
f 52//52 41//52 55//52
v -4.569640 5.323866 7.285859
v -4.528301 6.021657 7.516299
v -4.394158 5.470612 7.985428
v -4.858843 4.921389 7.830012
v -5.280170 5.133002 7.264827
v -5.075881 5.813005 7.070948
v -4.791959 6.050441 8.202886
v -4.996248 5.370438 8.396765
v -5.543828 5.161786 7.951413
v -5.677971 5.712831 7.482285
v -5.213286 6.262054 7.637701
v -5.502489 5.859577 8.181853
v -4.384606 5.363093 7.618398
v -4.463452 5.686987 7.342654
v -4.360306 5.773245 7.753850
v -4.761014 5.974497 7.216334
v -4.785310 5.564345 7.080884
v -4.657739 5.040269 7.527049
v -4.554594 5.126522 7.938245
v -4.905387 5.164653 7.194843
v -5.075377 4.928081 7.514688
v -4.841779 6.238444 7.549461
v -5.163638 6.115802 7.287690
v -4.594125 6.114063 7.881669
v -4.908492 5.067641 8.180022
v -4.635355 5.390467 8.271377
v -5.478004 5.069380 7.586043
v -5.230350 4.944999 7.918252
v -5.436774 5.792976 7.196335
v -5.556850 5.393279 7.310297
v -4.996753 6.255363 7.953024
v -4.869179 5.731283 8.399192
v -5.311116 5.208946 8.251379
v -5.711823 5.410198 7.713863
v -5.517535 6.056921 7.529468
v -5.166742 6.018790 8.272870
v -5.414391 6.143174 7.940663
v -5.286819 5.619098 8.386828
v -5.608677 5.496456 8.125059
v -5.687523 5.820350 7.849314
vn 0.8682 -0.1817 -0.4617
vn 0.4649 0.7453 -0.4778
vn -0.3657 -0.8440 -0.3924
vn 0.0471 0.7909 0.6101
vn -0.0307 0.0041 0.9995
vn -0.9960 0.0748 -0.0478
vn -0.8879 0.4346 -0.1504
vn -0.6453 0.0697 0.7608
vn -0.5599 -0.2297 0.7961
vn -0.2766 -0.2865 0.9173
vn -0.4704 0.6519 0.5947
vn -0.7484 0.4194 -0.5138
vn -0.9233 -0.1628 -0.3477
vn 0.3657 0.8440 0.3924
vn -0.5578 -0.8230 0.1077
vn -0.3444 -0.9342 -0.0931
vn 0.5147 -0.6069 0.6056
vn 0.7484 -0.4194 0.5138
vn -0.0340 0.9204 -0.3894
vn 0.1742 0.7919 -0.5852
vn 0.0661 0.5934 -0.8022
vn -0.0471 -0.7909 -0.6101
vn 0.2394 -0.8371 -0.4919
vn 0.2597 -0.9451 -0.1984
vn 0.8879 -0.4346 0.1504
vn 0.6453 -0.0697 -0.7607
vn 0.9684 0.0246 -0.2481
s off
f 79//53 92//53 91//53
f 80//54 94//54 100//54
f 83//55 99//55 105//55
f 85//56 109//56 114//56
f 86//57 110//57 116//57
f 88//58 112//58 118//58
f 113//59 88//59 118//59
f 117//60 116//60 90//60
f 117//61 111//61 116//61
f 111//62 86//62 116//62
f 114//63 115//63 90//63
f 107//64 88//64 113//64
f 108//65 112//65 88//65
f 102//66 109//66 85//66
f 105//67 106//67 87//67
f 105//68 99//68 106//68
f 103//69 97//69 104//69
f 97//70 81//70 104//70
f 100//71 101//71 89//71
f 100//72 94//72 101//72
f 94//73 84//73 101//73
f 98//74 99//74 83//74
f 98//75 96//75 99//75
f 96//76 82//76 99//76
f 91//77 81//77 97//77
f 92//78 79//78 95//78
f 91//79 92//79 93//79
v -4.380989 5.166872 7.559561
v -4.750489 5.663511 6.990020
v -4.354820 6.002721 7.650280
v -4.495747 5.511367 8.318320
v -4.978511 4.868483 8.070922
v -5.135948 4.962520 7.249989
v -5.093618 6.314960 7.396791
v -4.936181 6.220923 8.217724
v -5.321640 5.519932 8.477692
v -5.717309 5.180722 7.817432
v -5.576382 5.672076 7.149392
v -5.691140 6.016571 7.908152
v -4.250597 5.583578 7.582283
v -4.483164 5.384197 7.194195
v -4.926918 5.264084 7.012233
v -4.709729 4.972167 7.347000
v -4.318048 5.786068 8.028273
v -4.684643 5.119383 8.275518
v -5.060946 4.796778 7.647568
v -5.185801 5.681150 6.953100
v -5.412367 5.269119 7.105906
v -4.902036 6.059030 7.098515
v -4.659762 5.914324 8.361807
v -4.576927 6.203139 7.969142
v -5.170093 5.124413 8.369198
v -4.886329 5.502293 8.514612
v -5.495203 4.980304 7.498570
v -5.402662 4.925032 7.981104
v -5.387486 6.064060 7.192194
v -5.011184 6.386665 7.820144
v -5.145211 5.919359 8.455479
v -5.604346 5.307946 8.220197
v -5.754081 5.397375 7.439440
v -5.454938 6.266549 7.638184
v -5.738698 5.888673 7.492765
v -5.362400 6.211276 8.120712
v -5.588965 5.799246 8.273518
v -5.821532 5.599865 7.885429
vn 0.0805 -0.0908 -0.9926
vn 0.1260 -0.7114 0.6914
vn -0.2707 -0.9056 -0.3265
vn 0.0926 0.2963 -0.9506
vn 0.4458 0.0853 0.8910
vn -0.1117 0.9096 0.4003
vn -0.8814 0.0782 -0.4659
vn -0.9545 0.2977 0.0176
vn -0.9840 0.0494 -0.1712
vn -0.8816 0.2542 0.3977
vn -0.6461 -0.0623 0.7607
vn -0.1769 0.6821 0.7096
vn -0.3213 0.9319 0.1684
vn -0.7225 -0.2235 -0.6543
vn -0.4422 -0.3909 0.8073
vn 0.2707 0.9056 0.3265
vn -0.1260 0.7114 -0.6914
vn -0.1638 0.4590 -0.8732
vn -0.6412 -0.7666 0.0352
vn -0.3794 -0.9246 -0.0332
vn -0.0926 -0.2963 0.9506
vn 0.1638 -0.4590 0.8732
vn 0.4337 -0.3017 0.8490
vn 0.8123 0.5366 0.2285
vn 0.9712 0.2350 0.0402
vn 0.6581 -0.5518 -0.5123
s off
f 120//80 133//80 138//80
f 123//81 136//81 143//81
f 124//82 137//82 145//82
f 120//83 138//83 140//83
f 122//84 141//84 144//84
f 126//85 148//85 154//85
f 129//86 151//86 153//86
f 153//87 156//87 130//87
f 153//88 151//88 156//88
f 156//89 155//89 130//89
f 150//90 127//90 155//90
f 149//91 126//91 154//91
f 154//92 148//92 152//92
f 139//93 151//93 129//93
f 143//94 127//94 150//94
f 142//95 148//95 126//95
f 140//96 147//96 125//96
f 140//97 138//97 147//97
f 145//98 146//98 128//98
f 145//99 137//99 146//99
f 143//100 144//100 127//100
f 143//101 136//101 144//101
f 136//102 122//102 144//102
f 135//103 121//103 142//103
f 131//104 121//104 135//104
f 132//105 119//105 134//105
v -4.975410 5.419609 8.615160
v -4.493970 4.915138 7.975450
v -4.284299 5.486044 7.250454
v -5.063284 6.302288 8.285539
v -5.096719 5.763834 6.852552
v -5.578159 6.268305 7.492263
v -5.787830 5.697399 8.217258
v -5.808488 5.364619 7.331629
v -5.016412 5.908215 8.576140
v -4.598043 6.142867 8.294548
v -4.140169 5.663094 7.686143
v -4.359125 5.971403 7.278233
v -4.817003 6.451180 7.886640
v -5.442292 5.552672 8.536010
v -5.493943 6.071496 8.342264
v -4.952491 4.752235 8.047348
v -4.701428 4.776371 7.551589
v -4.836654 6.134689 7.044349
v -4.629837 5.630771 6.931703
v -5.370701 6.407072 7.916123
v -5.119638 6.431208 7.420364
v -5.713004 5.212040 8.189480
v -5.055717 5.275228 6.891572
v -5.390351 6.090572 7.073834
v -5.796577 6.051522 7.875990
v -5.725145 5.016438 7.668918
v -5.931960 5.520350 7.781569
v -5.474086 5.040576 7.173164
v -5.525737 5.559398 6.979419
v -5.808718 5.855917 7.355428
vn -0.1484 0.0663 0.9867
vn -0.0585 0.9466 0.3172
vn 0.3502 -0.9273 0.1322
vn -0.2393 -0.0972 -0.9661
vn -0.6569 0.5414 -0.5248
vn -0.8327 0.5245 -0.1777
vn -0.6425 -0.3234 -0.6947
vn -0.3756 -0.3568 -0.8553
vn -0.7288 -0.5583 -0.3963
vn -0.9270 -0.3507 -0.1330
vn -0.8968 -0.4069 0.1738
vn -0.9153 -0.1622 0.3687
vn -0.6431 0.7630 0.0650
vn -0.3587 0.7903 -0.4967
vn -0.7034 -0.1482 0.6952
vn -0.3502 0.9273 -0.1322
vn -0.0790 0.9968 0.0085
vn 0.2432 0.3056 -0.9206
vn -0.6086 0.2237 0.7613
vn -0.3348 0.3002 0.8932
vn 0.2759 0.8322 0.4809
vn 0.9153 0.1622 -0.3687
s off
f 157//106 165//106 170//106
f 160//107 169//107 176//107
f 158//108 172//108 173//108
f 161//109 179//109 185//109
f 162//110 180//110 186//110
f 181//111 162//111 186//111
f 185//112 184//112 164//112
f 185//113 179//113 184//113
f 184//114 182//114 164//114
f 182//115 183//115 164//115
f 182//116 178//116 183//116
f 178//117 163//117 183//117
f 176//118 162//118 181//118
f 177//119 180//119 162//119
f 170//120 163//120 178//120
f 176//121 177//121 162//121
f 176//122 169//122 177//122
f 174//123 175//123 161//123
f 170//124 171//124 163//124
f 170//125 165//125 171//125
f 166//126 169//126 160//126
f 167//127 159//127 168//127
