# Blender v2.80 (sub 75) OBJ File: ''
# www.blender.org
v -5.404230 6.469888 3.526275
v -5.613284 6.303804 3.619260
v -6.161389 6.586514 4.274475
v -5.252796 5.784337 4.179761
v -6.090262 7.237401 1.928295
v -7.023648 6.115447 4.331347
v -6.153352 6.448989 4.276975
v -5.559250 5.993078 4.991356
v -5.779102 5.869754 4.907458
v -4.963846 5.311932 5.050926
v -4.943724 5.377508 4.913767
v -5.330623 5.807143 5.384505
v -6.218701 5.961994 4.401199
v -5.390545 5.886079 5.574659
v -5.313364 5.578238 5.287350
v -5.359539 5.619973 5.390470
v -5.389014 5.592931 4.867338
v -6.183238 6.200143 3.067959
v -7.757089 6.675976 3.275489
v -7.395759 6.762645 3.973758
v -8.631279 7.590158 2.613751
v -7.777279 6.535539 4.453296
v -8.031819 6.699385 3.785613
v -8.220658 6.443441 4.476036
v -8.063278 6.372766 5.275072
v -5.097427 6.273650 5.856669
v -5.064195 6.001173 5.711750
v -4.749249 6.014360 6.020803
v -4.869841 6.092434 6.139627
v -5.263296 6.320847 5.949099
v -5.206942 6.093595 5.852390
v -5.051076 6.386302 6.083138
v -5.375674 6.031361 5.728541
v -5.666537 5.853304 5.733522
v -5.373110 5.881930 5.723341
v -5.158387 5.793948 5.917827
v -5.084083 5.888599 5.975527
v -5.982203 5.937327 3.459747
v -7.926745 6.370628 3.610859
v -7.666599 6.318738 3.380120
v -6.598104 6.056812 3.308614
v -4.808165 6.192320 6.021163
v -4.659922 6.080432 6.415419
v -5.402587 5.918344 5.327638
v -5.201337 6.117004 5.551650
v -5.268480 5.940919 5.557058
v -5.014928 5.760095 6.159562
v -5.020255 5.847272 5.912641
v -5.206445 6.439022 6.056932
v -4.983577 6.558349 6.198597
v -5.073446 6.468249 5.946514
v -5.638596 5.228512 3.499928
v -6.339739 5.452641 4.176283
v -5.773458 5.455401 3.601253
v -6.496110 5.158018 1.793519
v -6.282156 5.577552 4.184353
v -5.811225 5.633254 5.024154
v -5.029858 5.254507 4.924979
v -5.524965 5.529617 5.409801
v -5.603244 5.582341 5.602344
v -6.262155 5.782139 3.059087
v -7.875971 6.010523 3.291108
v -7.562086 5.831608 3.995612
v -9.000139 5.700288 2.491259
v -7.836746 6.202669 4.461109
v -8.137674 6.106857 3.799520
v -5.598415 5.238297 5.781286
v -5.852189 5.195839 5.954914
v -5.722133 5.357889 5.919449
v -5.580087 5.078193 6.232077
v -5.922154 5.142388 6.196523
v -5.945742 5.346300 6.037930
v -5.732837 5.521325 5.775031
v -5.592752 5.568278 5.751931
v -5.477621 5.326629 6.026755
v -5.662204 4.972735 6.132328
v -5.472834 4.919582 6.521233
v -5.475569 4.977160 6.115345
v -5.658600 5.552754 5.360962
v -5.755619 5.325481 5.623799
v -5.613810 5.447785 5.602008
v -5.419757 5.420707 5.951848
v -5.317954 5.327372 6.199004
v -5.422293 5.273152 5.964972
v -6.027344 5.266761 6.163786
v -6.018102 5.119265 6.069476
v -6.049770 5.035806 6.337377
vn -0.6155 0.3918 -0.6839
vn 0.5987 0.6180 0.5096
vn -0.4557 0.8612 0.2251
vn 0.6438 0.7321 0.2226
vn 0.0542 0.0213 0.9983
vn 0.1258 0.0254 0.9917
vn 0.5950 0.8035 0.0180
vn -0.5266 0.4469 0.7232
vn 0.6736 0.6235 0.3969
vn 0.7520 0.6458 -0.1319
vn -0.7043 0.2627 0.6595
vn -0.0360 0.2515 0.9672
vn -0.5515 0.7776 0.3021
vn 0.3289 -0.3479 0.8780
vn 0.8863 -0.1227 0.4465
vn 0.9283 -0.1323 0.3475
vn 0.2806 0.3910 -0.8766
vn 0.9139 0.3063 0.2663
vn -0.7097 -0.4913 -0.5050
vn 0.3110 0.9118 0.2680
vn 0.7843 0.4186 -0.4578
vn 0.0696 0.8790 0.4717
vn 0.4122 -0.9055 -0.1009
vn 0.4975 0.8603 0.1111
vn -0.9261 -0.2345 0.2955
vn -0.1794 0.9374 0.2984
vn -0.1957 0.9727 0.1246
vn -0.5846 -0.7616 -0.2799
vn 0.6039 -0.6134 -0.5090
vn -0.4831 0.8032 0.3485
vn 0.5610 -0.5029 -0.6576
vn 0.2880 0.4768 -0.8305
vn -0.2742 -0.9075 0.3181
vn -0.2741 -0.9076 0.3181
vn -0.2742 -0.9076 0.3181
vn -0.3784 -0.4403 0.8142
vn 0.0333 0.5714 -0.8200
vn -0.2049 0.6725 -0.7112
vn -0.5607 0.6284 -0.5391
vn -0.4254 0.6782 -0.5992
vn 0.0837 -0.5658 0.8203
vn -0.6571 0.0577 0.7516
vn -0.0989 0.9945 0.0333
vn 0.5171 -0.5641 -0.6437
vn -0.8806 -0.0301 -0.4729
vn -0.6582 -0.3603 -0.6610
vn -0.0281 -0.8367 -0.5469
vn -0.1391 -0.3106 -0.9403
vn -0.2700 -0.5478 -0.7918
vn -0.4845 0.7766 0.4026
vn -0.6064 0.3519 0.7131
vn 0.5234 0.1750 -0.8339
vn -0.3569 -0.9048 0.2323
vn 0.9169 0.3041 -0.2585
vn 0.2131 0.9701 0.1163
vn 0.8623 0.3978 -0.3133
vn -0.7620 0.6363 0.1203
vn 0.1554 -0.0289 0.9874
vn 0.6997 0.0904 -0.7087
vn 0.4185 -0.7846 0.4576
vn 0.9322 -0.3572 -0.0587
vn 0.3085 -0.7413 0.5960
vn 0.0976 -0.7802 0.6179
vn -0.7976 0.3110 0.5169
vn 0.2614 -0.7378 -0.6224
vn 0.7162 0.6208 0.3189
vn 0.6790 0.6967 0.2313
vn 0.3306 -0.8877 -0.3205
vn -0.3630 0.9109 -0.1962
vn -0.1787 0.7087 -0.6825
vn 0.9825 -0.0367 -0.1828
vn 0.9443 -0.1902 -0.2687
vn -0.2949 -0.4500 0.8429
vn -0.4194 -0.4415 0.7932
vn -0.4998 0.8240 0.2669
vn -0.7080 -0.1092 -0.6977
vn 0.2468 -0.8142 0.5256
vn -0.6738 -0.7266 0.1341
vn 0.1206 -0.9861 0.1140
vn 0.1120 -0.1154 0.9870
vn 0.0192 -0.0733 0.9971
vn 0.1966 -0.9794 -0.0453
vn -0.8319 0.3323 0.4444
vn -0.3161 -0.7897 0.5257
vn -0.3549 -0.9348 0.0122
vn -0.7558 -0.2226 0.6158
vn -0.1640 -0.4640 0.8705
vn -0.8915 0.2920 0.3464
vn 0.5135 -0.0842 0.8539
vn 0.4590 -0.7329 0.5022
vn 0.4741 -0.7810 0.4066
vn -0.3431 -0.4996 -0.7954
vn -0.2003 -0.9329 -0.2994
vn -0.2609 0.8841 -0.3878
vn -0.1109 -0.9757 0.1892
vn 0.5052 -0.7556 -0.4170
vn -0.3764 -0.8199 0.4314
vn 0.7055 0.6951 -0.1378
vn -0.0793 -0.9832 0.1641
vn -0.6210 0.7648 0.1717
vn -0.4903 -0.8028 0.3393
vn -0.5303 -0.8473 0.0295
vn -0.0999 0.9669 -0.2346
vn 0.7704 0.5037 -0.3908
vn -0.7453 -0.5855 0.3190
vn 0.7108 0.2903 -0.6407
vn -0.4305 -0.5000 -0.7514
vn 0.7805 0.5985 0.1808
vn 0.3501 0.6000 0.7194
vn -0.6017 -0.2909 -0.7438
vn -0.7519 -0.1088 -0.6502
vn -0.8157 0.1550 -0.5573
vn -0.8116 0.0899 -0.5773
vn 0.6275 0.2109 0.7495
vn -0.2170 0.6862 0.6943
vn -0.2169 0.6862 0.6943
vn -0.9513 -0.2822 0.1240
vn 0.6921 0.3627 -0.6241
vn -0.8196 0.3114 -0.4809
vn -0.4982 0.5354 -0.6821
vn 0.2830 0.8111 -0.5119
vn 0.0032 0.2755 -0.9613
vn -0.0138 0.6631 -0.7484
vn -0.8589 0.2419 0.4513
vn -0.4776 0.5357 0.6963
vn -0.2366 -0.8058 -0.5429
vn 0.7420 0.6644 0.0893
vn 0.0107 -0.9900 -0.1405
vn -0.8230 -0.5095 0.2512
vn -0.1004 -0.9770 -0.1880
vn -0.8477 0.5139 0.1314
vn 0.1648 -0.0154 0.9862
vn 0.0970 -0.7703 -0.6303
vn 0.9168 -0.0730 0.3927
vn 0.6510 -0.7588 -0.0221
vn 0.8376 0.0341 0.5453
vn 0.7991 0.2424 0.5502
vn -0.5222 0.7042 0.4810
vn 0.7268 -0.0732 -0.6830
vn -0.3055 -0.8381 0.4519
vn -0.3967 -0.8395 0.3714
vn 0.9165 -0.0511 -0.3968
vn -0.9934 0.0107 -0.1141
vn -0.7822 -0.1531 -0.6039
vn 0.7863 -0.6108 0.0926
vn 0.4812 -0.8515 -0.2084
vn 0.3904 0.5286 0.7537
vn 0.3353 0.6361 0.6950
vn -0.9200 0.2239 0.3216
vn 0.8021 -0.5760 -0.1577
vn 0.0446 -0.1216 -0.9916
vn -0.8383 0.4402 -0.3218
vn 0.9416 -0.1613 0.2957
vn 0.1571 -0.0049 0.9876
vn -0.3172 -0.5514 0.7716
vn -0.6571 0.0576 0.7516
vn -0.1207 0.7890 0.6024
vn 0.6250 0.4246 -0.6550
vn -0.6380 0.3862 -0.6662
vn 0.8504 -0.5193 0.0842
vn 0.4714 0.5748 0.6689
vn -0.7277 -0.0779 0.6814
vn -0.0537 -0.6491 -0.7588
vn -0.6381 0.3860 -0.6662
vn 0.3582 -0.9281 -0.1016
vn -0.9414 -0.1370 -0.3083
s 1
f 1//1 2//1 3//1
f 3//2 4//2 1//2
f 3//3 5//3 6//3
f 3//4 2//4 5//4
f 6//5 7//5 3//5
f 4//6 3//6 7//6
f 7//7 8//7 4//7
f 9//8 8//8 7//8
f 10//9 11//9 8//9
f 8//10 12//10 10//10
f 9//11 7//11 13//11
f 6//12 13//12 7//12
f 8//13 9//13 14//13
f 15//14 10//14 12//14
f 16//15 15//15 12//15
f 12//16 14//16 16//16
f 8//17 11//17 17//17
f 8//18 17//18 4//18
f 18//19 6//19 5//19
f 18//20 19//20 6//20
f 20//21 19//21 21//21
f 21//22 22//22 20//22
f 20//23 22//23 19//23
f 6//24 19//24 22//24
f 23//25 22//25 21//25
f 24//26 22//26 23//26
f 22//27 24//27 25//27
f 21//28 19//28 23//28
f 5//29 2//29 18//29
f 2//30 1//30 18//30
f 4//31 18//31 1//31
f 16//32 26//32 27//32
f 27//33 28//34 29//35
f 30//36 31//36 32//36
f 16//37 14//37 26//37
f 26//38 14//38 30//38
f 14//39 33//39 30//39
f 14//40 34//40 33//40
f 35//41 31//41 34//41
f 35//42 36//42 37//42
f 14//43 9//43 34//43
f 18//44 4//44 38//44
f 23//45 19//45 39//45
f 40//46 39//46 19//46
f 18//47 38//47 41//47
f 40//48 19//48 41//48
f 19//49 18//49 41//49
f 42//50 29//50 43//50
f 26//51 31//51 29//51
f 26//52 42//52 28//52
f 29//53 28//53 43//53
f 42//54 43//54 28//54
f 14//55 44//55 8//55
f 12//56 8//56 44//56
f 14//57 45//57 44//57
f 45//58 14//58 46//58
f 45//59 12//59 44//59
f 14//60 12//60 46//60
f 45//61 46//61 12//61
f 27//62 35//62 16//62
f 34//63 16//63 35//63
f 36//64 47//64 37//64
f 35//65 27//65 48//65
f 31//66 37//66 48//66
f 37//67 47//67 48//67
f 36//68 48//68 47//68
f 49//69 50//69 51//69
f 26//70 30//70 49//70
f 26//71 51//71 32//71
f 51//72 50//72 32//72
f 32//73 50//73 49//73
f 31//74 30//74 33//74
f 34//75 31//75 33//75
f 52//76 53//76 54//76
f 53//77 52//77 4//77
f 53//78 6//78 55//78
f 53//79 55//79 54//79
f 6//80 53//80 56//80
f 4//81 56//81 53//81
f 56//82 4//82 57//82
f 9//83 56//83 57//83
f 10//84 57//84 58//84
f 57//85 10//85 59//85
f 9//86 13//86 56//86
f 6//87 56//87 13//87
f 57//88 60//88 9//88
f 15//89 59//89 10//89
f 16//90 59//90 15//90
f 59//91 16//91 60//91
f 57//92 17//92 58//92
f 57//93 4//93 17//93
f 61//94 55//94 6//94
f 61//95 6//95 62//95
f 63//96 64//96 62//96
f 64//97 63//97 65//97
f 63//98 62//98 65//98
f 6//99 65//99 62//99
f 66//100 64//100 65//100
f 24//101 66//101 65//101
f 65//102 25//102 24//102
f 64//103 66//103 62//103
f 55//104 61//104 54//104
f 54//105 61//105 52//105
f 4//106 52//106 61//106
f 16//107 67//107 68//107
f 67//108 69//108 70//108
f 71//109 69//109 72//109
f 16//110 68//110 60//110
f 68//111 72//111 60//111
f 60//112 72//112 73//112
f 60//113 73//113 34//113
f 74//114 34//114 69//114
f 74//115 69//115 75//116
f 60//117 34//117 9//117
f 61//118 38//118 4//118
f 66//119 39//119 62//119
f 40//120 62//120 39//120
f 61//121 41//121 38//121
f 40//122 41//122 62//122
f 62//123 41//123 61//123
f 76//124 77//124 70//124
f 70//125 69//125 68//125
f 68//126 67//126 78//126
f 70//127 77//127 78//127
f 76//128 78//128 77//128
f 60//129 57//129 79//129
f 59//130 79//130 57//130
f 60//131 79//131 80//131
f 80//132 81//132 60//132
f 80//133 79//133 59//133
f 60//134 81//134 59//134
f 80//135 59//135 81//135
f 67//136 16//136 74//136
f 34//137 74//137 16//137
f 82//138 75//138 83//138
f 84//139 67//139 74//139
f 69//140 67//140 84//140
f 75//141 84//141 83//141
f 82//142 83//142 84//142
f 85//143 86//143 87//143
f 85//144 72//144 68//144
f 68//145 69//145 71//145
f 86//146 71//146 87//146
f 71//147 85//147 87//147
f 69//148 73//148 72//148
f 34//149 73//149 69//149
f 11//150 10//150 58//150
f 58//151 17//151 11//151
f 39//152 66//152 24//152
f 22//153 25//153 65//153
f 22//154 65//154 6//154
f 27//33 29//35 31//33
f 30//155 32//155 49//155
f 35//42 37//42 31//156
f 26//157 29//157 42//157
f 26//158 28//158 27//158
f 35//65 48//65 36//65
f 31//66 48//66 27//66
f 26//159 49//159 51//159
f 26//160 32//160 31//160
f 67//108 70//108 78//108
f 71//161 72//161 85//161
f 74//115 75//116 82//116
f 70//162 68//162 76//162
f 68//163 78//163 76//163
f 84//139 74//139 82//139
f 69//140 84//140 75//140
f 85//164 68//164 86//164
f 68//165 71//165 86//165
f 39//166 24//166 23//166
