# Blender v2.80 (sub 75) OBJ File: 'kessler_syndrome.blend'
# www.blender.org
v 0.113360 0.838989 0.105837
v 0.114661 0.842758 0.105698
v 0.115888 0.840651 0.105740
v 0.115744 0.837343 0.105379
v 0.117783 0.835498 0.105301
v 0.116742 0.844524 0.105694
v 0.118553 0.841662 0.105314
v 0.122043 0.842085 0.105177
v 0.121311 0.835055 0.104974
v 0.123917 0.838455 0.104848
v 0.111759 0.837288 0.105665
v 0.109853 0.836240 0.105582
v 0.113947 0.834670 0.105324
v 0.113285 0.845558 0.105905
v 0.118703 0.836089 0.104837
v 0.118194 0.829971 0.104595
v 0.120285 0.832253 0.104721
v 0.120454 0.838664 0.104981
v 0.121692 0.845707 0.105077
v 0.125999 0.835312 0.104221
v 0.113966 0.845245 0.106562
v 0.120562 0.846613 0.106023
v 0.109590 0.838721 0.106641
v 0.116646 0.829847 0.105453
v 0.112005 0.832362 0.105404
v 0.123957 0.832555 0.105019
v 0.126358 0.840700 0.105250
v 0.115939 0.835985 0.107458
v 0.111938 0.835681 0.104338
v 0.122277 0.839037 0.106810
v 0.123887 0.838948 0.103523
v 0.123892 0.841069 0.103680
v 0.114284 0.837272 0.103991
v 0.118385 0.838102 0.105727
v 0.121419 0.839781 0.103561
v 0.111658 0.837325 0.104490
v 0.118591 0.839910 0.107431
v 0.115962 0.840445 0.108220
v 0.115331 0.844503 0.104600
v 0.119464 0.833868 0.107520
v 0.117607 0.835381 0.106262
v 0.117970 0.832949 0.103552
v 0.116763 0.842007 0.104008
v 0.117520 0.840071 0.106383
v 0.119017 0.834774 0.103434
v 0.118567 0.841441 0.108603
v 0.117830 0.843818 0.104156
v 0.120279 0.836435 0.107121
v 0.120504 0.832241 0.103520
v -0.137020 0.853359 0.115228
v -0.137112 0.849966 0.117873
v -0.134661 0.854526 0.114039
v -0.134152 0.848879 0.118443
v -0.130698 0.849523 0.117669
v -0.127208 0.851634 0.115957
v -0.132057 0.846383 0.120414
v -0.136530 0.846121 0.120499
v -0.126779 0.848675 0.118137
v -0.140460 0.852029 0.116108
v -0.135327 0.852521 0.115097
v -0.140420 0.856022 0.112946
v -0.140460 0.849367 0.117667
v -0.131562 0.856258 0.112553
v -0.129863 0.853991 0.114140
v -0.132253 0.847855 0.118673
v -0.135906 0.843681 0.122100
v -0.125798 0.853225 0.114005
v -0.142822 0.851327 0.117788
v -0.134712 0.858635 0.111654
v -0.133915 0.843998 0.122754
v -0.124577 0.846557 0.119362
v -0.127958 0.857294 0.112556
v -0.139867 0.846227 0.121591
v -0.124151 0.853048 0.115097
v -0.125908 0.846427 0.120971
v -0.137565 0.853210 0.117713
v -0.140458 0.850565 0.115572
v -0.134471 0.851071 0.119613
v -0.129824 0.852852 0.118092
v -0.126710 0.847938 0.117077
v -0.126103 0.849273 0.115970
v -0.137417 0.850283 0.115322
v -0.133441 0.851380 0.117096
v -0.129227 0.848984 0.115980
v -0.139325 0.852134 0.114261
v -0.132261 0.856265 0.116395
v -0.132490 0.855718 0.111350
v -0.134233 0.854444 0.117029
v -0.135172 0.850551 0.121541
v -0.136120 0.845697 0.118918
v -0.134068 0.846382 0.118232
v -0.132289 0.853093 0.112972
v -0.130356 0.854832 0.111905
v -0.132012 0.849969 0.120570
v -0.134065 0.844191 0.120278
vn 0.0183 0.0304 0.9994
vn 0.0184 0.0307 0.9994
vn 0.3758 -0.2261 0.8987
vn 0.3757 -0.2258 0.8988
vn 0.0121 -0.0288 0.9995
vn 0.0121 -0.0291 0.9995
vn -0.0240 -0.0075 0.9997
vn 0.0948 0.0207 0.9953
vn 0.0559 -0.0237 -0.9982
vn 0.0563 -0.0237 -0.9981
vn -0.0195 0.1135 -0.9933
vn -0.0193 0.1133 -0.9934
vn -0.0865 0.0414 -0.9954
vn -0.1336 0.1102 -0.9849
vn -0.1333 0.1104 -0.9849
vn -0.0457 0.0512 -0.9976
vn -0.0463 0.0512 -0.9976
vn -0.1161 0.0489 -0.9920
vn -0.1162 0.0493 -0.9920
vn -0.1083 0.0565 -0.9925
vn -0.1080 0.0563 -0.9926
vn -0.1400 -0.4675 -0.8728
vn -0.1391 -0.4675 -0.8730
vn -0.1396 -0.4683 -0.8725
vn 0.2612 -0.4418 -0.8583
vn 0.2618 -0.4418 -0.8581
vn 0.2611 -0.4424 -0.8580
vn 0.4867 -0.0738 0.8704
vn 0.4859 -0.0755 0.8707
vn 0.4877 -0.0747 0.8698
vn -0.0578 0.0138 -0.9982
vn -0.0581 0.0137 -0.9982
vn 0.1633 -0.4373 0.8844
vn 0.1629 -0.4362 0.8850
vn 0.1624 -0.4374 0.8845
vn -0.0953 -0.1163 -0.9886
vn -0.0953 -0.1167 -0.9886
vn 0.1497 -0.0128 -0.9887
vn -0.3270 -0.0578 -0.9433
vn -0.3270 -0.0573 -0.9433
vn -0.0836 -0.2097 0.9742
vn -0.0834 -0.2093 0.9743
vn -0.0837 -0.2094 0.9742
vn -0.0768 -0.0619 0.9951
vn -0.0756 -0.0621 0.9952
vn -0.1094 0.4351 0.8937
vn -0.1083 0.4355 0.8937
vn -0.1074 0.4359 0.8936
vn 0.1319 0.1003 0.9862
vn 0.4736 0.2874 0.8325
vn 0.2971 -0.1880 0.9362
vn 0.2969 -0.1884 0.9362
vn -0.0848 0.6671 -0.7402
vn -0.0854 0.6672 -0.7400
vn 0.2171 0.1691 -0.9614
vn 0.2173 0.1687 -0.9614
vn -0.5476 0.3769 0.7471
vn -0.5478 0.3766 0.7471
vn -0.5476 0.3763 0.7473
vn 0.3300 -0.8143 0.4775
vn 0.3623 -0.8040 -0.4714
vn 0.3626 -0.8041 -0.4711
vn -0.2149 -0.6027 -0.7685
vn -0.2147 -0.6029 -0.7684
vn -0.2152 -0.6027 -0.7684
vn 0.1990 -0.9721 0.1238
vn 0.1989 -0.9722 0.1235
vn 0.1993 -0.9721 0.1239
vn -0.6649 0.5511 -0.5041
vn -0.4687 0.3226 0.8224
vn -0.4692 0.3228 0.8220
vn -0.4690 0.3226 0.8222
vn 0.2782 0.7338 0.6198
vn -0.3354 0.5976 0.7283
vn -0.0868 -0.1510 0.9847
vn -0.7212 -0.4409 0.5343
vn -0.2522 -0.9175 0.3074
vn -0.2522 -0.9175 0.3077
vn -0.6096 -0.6984 -0.3749
vn -0.7759 0.4143 -0.4758
vn -0.2558 0.9112 -0.3230
vn -0.2558 0.9113 -0.3227
vn 0.8120 -0.4480 -0.3741
vn 0.6993 0.4125 -0.5839
vn 0.6994 0.4121 -0.5839
vn 0.3079 0.8593 0.4085
vn 0.5638 -0.0508 0.8243
vn 0.5640 -0.0510 0.8242
vn 0.5640 -0.0506 0.8242
vn 0.9123 -0.2373 0.3338
vn 0.9121 -0.2377 0.3339
vn 0.0945 0.6103 0.7865
vn 0.0509 0.6127 0.7887
vn 0.0518 0.6131 0.7883
vn 0.0057 0.6981 0.7160
vn 0.0060 0.6984 0.7157
vn 0.0487 0.6453 0.7624
vn 0.0491 0.6455 0.7622
vn -0.0125 -0.6206 -0.7840
vn -0.1353 -0.4268 -0.8942
vn -0.1355 -0.4272 -0.8940
vn 0.0847 -0.5704 -0.8170
vn -0.0336 -0.6803 -0.7321
vn -0.0341 -0.6805 -0.7320
vn 0.0479 -0.6232 -0.7806
vn 0.0481 -0.6230 -0.7808
vn -0.0304 -0.5867 -0.8092
vn -0.0627 -0.5477 -0.8343
vn -0.4613 -0.5111 -0.7252
vn -0.4617 -0.5113 -0.7248
vn -0.0324 -0.4579 -0.8884
vn -0.0335 -0.4580 -0.8883
vn -0.0323 -0.4575 -0.8886
vn -0.3286 -0.7397 -0.5873
vn -0.3281 -0.7384 -0.5892
vn -0.3270 -0.7397 -0.5882
vn 0.0165 -0.5458 -0.8377
vn 0.0156 -0.5460 -0.8376
vn 0.0166 -0.5452 -0.8381
vn -0.2311 0.7303 0.6428
vn -0.2307 0.7296 0.6438
vn -0.2303 0.7304 0.6430
vn 0.2644 -0.8324 -0.4871
vn 0.2647 -0.8321 -0.4873
vn 0.2636 -0.8329 -0.4866
vn 0.7060 0.3561 0.6122
vn 0.7056 0.3566 0.6124
vn 0.7058 0.3560 0.6125
vn 0.9985 0.0276 0.0472
vn 0.1321 0.4985 0.8567
vn 0.1319 0.4988 0.8566
vn 0.1315 0.4989 0.8566
vn 0.4676 -0.3055 -0.8295
vn -0.2861 -0.6309 -0.7212
vn -0.2859 -0.6315 -0.7208
vn -0.2860 -0.6318 -0.7204
vn -0.0970 0.5514 0.8286
vn -0.0973 0.5512 0.8287
vn 0.5663 0.0614 0.8219
vn 0.5657 0.0618 0.8223
vn 0.4353 -0.5141 -0.7391
vn 0.4354 -0.5143 -0.7388
vn -0.3689 0.6693 0.6450
vn -0.3688 0.6697 0.6446
vn -0.3688 0.6701 0.6442
vn -0.0907 0.7662 0.6362
vn -0.0904 0.7666 0.6357
vn -0.0908 0.7664 0.6359
vn -0.2698 -0.2329 0.9343
vn -0.2704 -0.2328 0.9342
vn -0.0763 0.2628 0.9618
vn -0.0775 0.2628 0.9617
vn -0.0746 0.2621 0.9622
vn 0.2849 0.6740 0.6816
vn 0.2850 0.6732 0.6823
vn 0.2858 0.6729 0.6823
vn -0.5545 -0.0651 0.8297
vn 0.3109 0.0006 0.9504
vn 0.2690 -0.9631 -0.0082
vn 0.2694 -0.9630 -0.0076
vn 0.2687 -0.9632 -0.0080
vn 0.4242 -0.0798 -0.9020
vn 0.3134 0.8495 -0.4245
vn 0.0438 0.4839 -0.8740
vn 0.0437 0.4841 -0.8739
vn -0.6857 0.7264 -0.0476
vn -0.4898 0.7079 0.5089
vn -0.6568 -0.2553 0.7095
vn -0.6568 -0.2550 0.7096
vn -0.9664 -0.0572 -0.2505
vn -0.4195 0.4937 -0.7618
vn -0.8054 -0.5580 -0.2001
vn 0.4067 0.9061 -0.1166
vn 0.3369 0.5295 0.7785
vn 0.2667 -0.1428 0.9531
vn 0.2665 -0.1430 0.9532
vn 0.1119 -0.1127 0.9873
vn -0.0580 -0.1059 0.9927
vn 0.1019 -0.0472 0.9937
vn 0.0513 -0.0982 0.9938
vn 0.0512 -0.0993 0.9937
vn -0.0158 0.4225 0.9062
vn -0.0156 0.4229 0.9061
vn 0.0376 -0.1476 0.9883
vn 0.0401 0.0293 0.9988
vn -0.0721 0.0444 -0.9964
vn -0.0716 0.0445 -0.9964
vn -0.1464 0.0805 -0.9859
vn -0.1464 0.0808 -0.9859
vn -0.0422 0.0841 -0.9956
vn -0.0420 0.0844 -0.9955
vn -0.2175 0.2508 -0.9433
vn -0.2171 0.2512 -0.9433
vn -0.2166 0.2516 -0.9433
vn -0.5814 -0.2290 -0.7807
vn -0.5811 -0.2303 -0.7806
vn -0.5819 -0.2289 -0.7804
vn 0.0233 0.0398 -0.9989
vn 0.0233 0.0403 -0.9989
vn 0.0237 0.0400 -0.9989
vn -0.0269 0.1783 -0.9836
vn -0.0273 0.1782 -0.9836
vn 0.0724 -0.1687 0.9830
vn 0.0736 -0.1680 0.9830
vn 0.0713 -0.1682 0.9832
vn 0.1228 0.0912 0.9882
vn 0.1246 0.0909 0.9880
vn 0.1235 0.0915 0.9881
vn -0.0758 -0.0621 0.9952
vn -0.0765 -0.0601 0.9953
vn -0.0772 -0.0621 0.9951
vn 0.7120 0.6707 0.2081
vn 0.7125 0.6703 0.2077
vn -0.3354 -0.6327 -0.6979
vn -0.3343 -0.6337 -0.6976
vn -0.3362 -0.6329 -0.6974
vn -0.0721 0.1207 -0.9901
vn -0.0728 0.1212 -0.9900
vn -0.0715 0.1222 -0.9899
vn -0.0454 0.0513 -0.9977
vn -0.0453 0.0510 -0.9977
vn -0.0457 0.0516 -0.9976
vn 0.0170 -0.1170 0.9930
vn 0.0170 -0.1167 0.9930
vn 0.5178 -0.1482 0.8425
vn 0.5178 -0.1478 0.8426
vn 0.5175 -0.1481 0.8428
vn 0.2253 -0.2631 0.9381
vn 0.2251 -0.2623 0.9384
vn 0.2240 -0.2631 0.9384
vn -0.1349 0.0460 -0.9898
vn -0.1344 0.0462 -0.9899
vn -0.1341 0.0460 -0.9899
vn 0.0134 -0.1794 0.9837
vn -0.1197 0.0346 -0.9922
vn -0.0547 -0.1181 0.9915
vn -0.0545 -0.1178 0.9915
vn -0.0553 -0.1180 0.9915
vn -0.1109 0.0428 -0.9929
vn -0.1100 0.0431 -0.9930
vn -0.1868 0.0272 0.9820
vn -0.1865 0.0268 0.9821
vn 0.3943 -0.0289 0.9185
vn -0.0401 -0.0551 0.9977
vn -0.0402 -0.0548 0.9977
vn -0.6163 0.2525 -0.7459
vn -0.6162 0.2528 -0.7459
vn -0.6159 0.2529 -0.7461
vn -0.6023 -0.3666 0.7091
vn -0.6019 -0.3669 0.7093
vn -0.6025 -0.3662 0.7092
vn -0.1299 0.8363 0.5327
vn -0.1294 0.8361 0.5331
vn 0.5701 -0.1901 0.7993
vn 0.5696 -0.1902 0.7996
vn 0.5698 -0.1906 0.7994
vn 0.8972 -0.0347 0.4403
vn 0.4388 -0.7537 -0.4892
vn 0.4386 -0.7537 -0.4894
vn 0.3321 -0.7964 -0.5054
vn 0.3319 -0.7966 -0.5053
vn 0.1729 0.6651 -0.7265
vn 0.1732 0.6652 -0.7263
vn -0.0851 0.8392 -0.5371
vn -0.4221 0.8418 -0.3363
vn -0.5973 -0.1743 0.7829
vn -0.5973 -0.1740 0.7829
vn 0.1442 -0.0911 0.9853
vn 0.1445 -0.0909 0.9853
vn -0.7265 -0.5570 0.4025
vn -0.7263 -0.5572 0.4024
vn -0.7266 -0.5567 0.4026
vn -0.8534 -0.4145 -0.3160
vn -0.7623 0.0026 -0.6472
vn 0.2951 0.0300 -0.9550
vn 0.2954 0.0296 -0.9549
vn 0.9222 -0.0980 -0.3741
vn 0.7720 0.4374 -0.4612
vn 0.7721 0.4373 -0.4610
vn 0.0113 0.6186 0.7856
vn 0.0667 0.6000 0.7972
vn 0.0676 0.6205 0.7813
vn -0.0276 0.7113 0.7023
vn -0.0283 0.7116 0.7020
vn -0.0283 0.7113 0.7023
vn 0.0507 0.5683 0.8212
vn 0.0505 0.5686 0.8211
vn 0.0507 0.6451 0.7624
vn 0.0506 0.6447 0.7627
vn -0.2963 -0.6963 -0.6537
vn 0.0396 -0.6691 -0.7421
vn 0.0400 -0.6691 -0.7421
vn -0.0872 -0.2953 -0.9514
vn 0.6659 -0.7255 -0.1737
vn 0.1716 0.1950 0.9657
vn 0.1733 0.1954 0.9653
vn 0.1705 0.1951 0.9659
vn 0.1420 -0.5001 -0.8542
vn 0.1417 -0.5001 -0.8543
vn 0.1422 -0.4995 -0.8546
vn -0.1769 0.7777 0.6032
vn -0.1759 0.7782 0.6029
vn -0.1768 0.7783 0.6025
vn -0.3404 -0.5712 -0.7469
vn -0.3410 -0.5735 -0.7449
vn -0.3418 -0.5726 -0.7452
vn 0.5529 -0.0040 -0.8332
vn 0.5516 -0.0032 -0.8341
vn 0.5522 -0.0029 -0.8337
vn 0.0668 -0.3033 -0.9506
vn 0.0662 -0.3026 -0.9508
vn 0.0673 -0.3031 -0.9506
vn 0.2777 -0.9484 0.1527
vn -0.5834 -0.6749 -0.4518
vn -0.4085 -0.7419 -0.5317
vn -0.4088 -0.7417 -0.5318
vn -0.0056 0.5630 0.8264
vn -0.0061 0.5627 0.8267
vn -0.0063 0.5624 0.8268
vn -0.1277 -0.8564 -0.5002
vn 0.1832 0.4949 0.8494
vn 0.1832 0.4952 0.8493
vn 0.0849 0.5568 0.8263
vn -0.1453 -0.6380 -0.7562
vn -0.1458 -0.6379 -0.7562
vn -0.0498 0.5472 0.8355
vn -0.0404 0.5813 0.8127
vn -0.1398 -0.5999 -0.7878
vn -0.1394 -0.6000 -0.7878
vn -0.1394 -0.6003 -0.7875
vn -0.0446 0.5884 0.8073
vn -0.0451 0.5883 0.8074
vn 0.1906 -0.5042 -0.8423
vn -0.1231 0.4260 0.8963
vn 0.1180 0.6884 0.7157
vn 0.1186 0.6884 0.7156
vn -0.0135 -0.4182 -0.9082
vn -0.0140 -0.4185 -0.9081
vn -0.0142 -0.4181 -0.9083
vn -0.2016 0.7513 0.6284
vn -0.2021 0.7509 0.6287
vn 0.2303 -0.9413 -0.2467
vn 0.2311 -0.9413 -0.2460
vn 0.2307 -0.9414 -0.2460
vn -0.0064 0.6591 0.7520
vn 0.6625 0.2762 0.6963
vn 0.6625 0.2759 0.6964
vn 0.6627 0.2757 0.6963
vn -0.0712 -0.9712 0.2272
vn -0.5307 -0.7874 -0.3136
vn -0.5304 -0.7876 -0.3136
vn -0.3784 -0.9255 -0.0145
vn -0.3788 -0.9254 -0.0145
vn 0.0640 0.4459 -0.8928
vn 0.0643 0.4461 -0.8927
vn 0.0646 0.4459 -0.8927
vn -0.0468 0.4731 -0.8798
vn -0.7292 0.6641 0.1650
vn -0.7290 0.6643 0.1652
vn -0.8991 -0.2777 -0.3383
vn -0.8992 -0.2778 -0.3381
vn 0.8013 -0.0721 -0.5938
vn 0.5175 -0.7846 -0.3415
vn 0.8963 -0.3021 -0.3246
vn 0.9184 0.2432 0.3120
s off
f 2//1 1//2 3//1
f 5//3 18//4 8//3
f 5//5 4//6 13//5
f 26//7 18//7 9//7
f 18//8 5//8 9//8
f 11//9 12//10 2//10
f 13//11 12//12 11//12
f 4//13 2//13 7//13
f 15//14 13//15 4//14
f 14//16 6//17 2//16
f 13//18 15//18 16//19
f 16//20 25//21 13//21
f 9//22 5//23 15//24
f 26//25 16//26 20//27
f 16//28 15//29 5//30
f 12//31 13//32 25//31
f 21//33 6//34 22//35
f 6//36 14//37 19//37
f 19//38 8//38 18//38
f 19//39 20//39 8//40
f 22//41 8//42 27//43
f 26//44 9//45 17//45
f 26//46 17//47 24//48
f 24//49 17//49 13//49
f 24//50 13//50 11//50
f 11//51 21//52 23//51
f 14//53 22//53 19//54
f 27//55 20//55 19//56
f 23//57 21//58 14//59
f 26//60 24//60 16//60
f 28//61 33//62 34//61
f 34//63 35//64 31//65
f 31//66 30//67 34//68
f 37//69 35//69 34//69
f 36//70 28//71 37//72
f 30//73 32//73 37//73
f 46//74 39//74 38//74
f 40//75 46//75 38//75
f 38//76 41//76 40//76
f 40//77 42//78 49//77
f 38//79 43//79 44//79
f 41//80 45//80 42//80
f 48//81 45//82 41//81
f 46//83 43//83 47//83
f 48//84 44//85 46//85
f 46//86 47//86 39//86
f 48//87 46//88 40//89
f 40//90 49//91 48//91
f 51//92 52//92 50//92
f 64//93 52//94 54//94
f 56//95 70//96 58//95
f 58//97 54//97 56//98
f 61//99 52//99 59//99
f 59//100 52//101 60//100
f 60//102 54//102 65//102
f 60//103 67//104 54//103
f 62//105 53//105 57//106
f 66//107 54//107 58//107
f 58//108 71//108 66//108
f 68//109 61//110 62//110
f 52//111 64//112 60//113
f 65//114 56//115 53//116
f 57//117 56//118 66//119
f 56//120 65//121 66//122
f 55//123 54//124 67//125
f 75//126 71//127 74//128
f 61//129 59//129 62//129
f 69//130 52//131 63//132
f 57//133 59//133 70//133
f 71//134 55//135 67//136
f 59//137 57//137 51//138
f 69//139 68//139 59//140
f 74//141 71//141 67//142
f 74//143 58//144 75//145
f 58//146 70//147 75//148
f 66//149 70//150 73//149
f 63//151 72//152 69//153
f 73//154 59//155 68//156
f 76//157 77//157 78//157
f 80//158 79//158 78//158
f 78//159 82//160 83//161
f 83//162 82//162 85//162
f 85//163 76//163 83//163
f 79//164 84//165 83//164
f 86//166 87//166 88//166
f 88//167 89//167 86//167
f 89//168 90//168 95//169
f 88//170 91//170 89//170
f 89//171 91//171 90//171
f 88//172 92//172 94//172
f 87//173 86//173 93//173
f 86//174 89//174 94//174
f 89//175 95//175 94//176
f 1//177 4//177 3//177
f 5//178 3//178 4//178
f 5//179 8//179 3//179
f 7//180 8//181 6//181
f 7//182 3//183 8//183
f 13//184 17//184 5//184
f 26//185 10//185 18//185
f 4//186 11//187 2//186
f 7//188 15//189 4//188
f 7//190 18//190 15//191
f 17//192 20//193 16//194
f 10//195 8//196 20//197
f 18//198 17//199 15//200
f 18//201 10//202 20//201
f 1//203 11//204 4//205
f 7//206 2//207 3//208
f 15//209 17//210 9//211
f 27//212 19//212 22//213
f 24//214 25//215 16//216
f 5//217 17//218 16//219
f 12//220 14//221 2//222
f 21//223 11//224 1//224
f 21//225 1//226 2//227
f 21//228 2//229 6//230
f 19//231 7//232 6//233
f 6//234 8//234 22//234
f 19//235 18//235 7//235
f 8//236 10//237 27//238
f 20//239 17//240 18//240
f 27//241 10//242 26//241
f 11//243 23//243 25//243
f 11//244 25//245 24//245
f 14//246 12//247 23//248
f 23//249 12//250 25//251
f 22//252 14//253 21//252
f 26//254 20//255 27//256
f 31//257 32//257 30//257
f 28//258 29//259 33//258
f 28//260 34//261 30//261
f 37//262 34//262 33//263
f 33//264 36//264 37//264
f 37//265 32//265 35//265
f 36//266 29//267 28//267
f 30//268 37//269 28//269
f 40//270 41//271 42//272
f 38//273 39//273 43//273
f 38//274 44//274 41//274
f 41//275 44//276 48//275
f 46//277 44//277 43//277
f 48//278 49//278 45//279
f 55//280 64//280 54//280
f 51//281 53//281 54//281
f 54//282 52//282 51//282
f 57//283 70//284 56//285
f 51//286 57//287 53//287
f 56//288 54//289 53//289
f 60//290 65//290 53//290
f 60//291 53//291 62//292
f 67//293 60//293 64//293
f 66//294 65//294 54//294
f 50//295 59//296 60//297
f 59//298 51//299 62//300
f 60//301 62//302 51//303
f 51//304 50//305 60//306
f 72//307 74//308 67//309
f 72//310 67//311 69//312
f 66//313 71//313 75//313
f 73//314 68//314 62//314
f 73//315 62//315 66//316
f 59//317 50//318 69//319
f 61//320 67//320 52//320
f 69//321 50//322 52//322
f 63//323 52//323 67//323
f 64//324 63//324 67//325
f 63//326 64//326 74//326
f 74//327 64//327 55//327
f 71//328 58//329 55//330
f 55//331 58//332 74//332
f 62//333 57//333 66//333
f 72//334 63//334 74//334
f 70//335 59//335 73//336
f 61//337 69//338 67//339
f 68//340 69//341 61//340
f 70//342 66//343 75//344
f 76//345 78//345 79//345
f 80//346 81//347 79//348
f 78//349 77//349 82//349
f 78//350 83//351 84//350
f 84//352 80//353 78//352
f 79//354 83//355 76//356
f 79//357 81//357 84//357
f 85//358 77//359 76//358
f 88//360 87//361 92//360
f 94//362 91//362 88//362
f 93//363 94//363 92//363
f 94//364 95//364 91//364
f 86//365 94//365 93//365
