# Blender v2.80 (sub 75) OBJ File: 'kessler_syndrome.blend'
# www.blender.org
v 0.084095 1.760943 -0.129709
v -0.104605 1.523483 -0.003989
v -0.006051 1.548429 0.067399
v -0.115916 1.538958 -0.013782
v -0.091751 1.559755 -0.141041
v -0.013092 1.570610 -0.178450
v -0.084195 1.740196 -0.150639
v -0.061737 1.783422 -0.127988
v 0.065179 1.742272 -0.165477
v -0.124180 1.552803 -0.065633
v -0.001696 1.715601 0.074134
v -0.097805 1.689718 -0.145885
v -0.083773 1.575189 -0.149807
v -0.123550 1.666824 -0.048105
v -0.007419 1.797052 -0.137679
v -0.004018 1.764013 -0.178589
v -0.007828 1.812081 -0.074843
v 0.051567 1.801578 -0.087603
v -0.108793 1.734589 -0.040580
v 0.106532 1.744544 -0.049427
v 0.108567 1.702487 -0.124805
v -0.116368 1.718554 -0.100861
v -0.079907 1.775208 -0.039191
v -0.085637 1.770649 -0.107955
v 0.062972 1.682265 -0.179120
v 0.004077 1.685655 -0.204160
v -0.046506 1.695162 -0.187259
v -0.114918 1.680612 -0.010405
v -0.076522 1.523234 0.035519
v -0.024119 1.521362 0.060827
v 0.072359 1.567989 -0.157994
v 0.125146 1.651778 -0.046556
v -0.119726 1.589449 -0.035892
v 0.078705 1.776027 -0.040724
v -0.044886 1.801562 -0.046427
v 0.092448 1.519060 0.013587
v -0.115846 1.563325 -0.104634
v -0.039598 1.752009 0.042692
v 0.037081 1.573871 0.075152
v 0.040594 1.787872 -0.136604
v 0.069494 1.587563 -0.157230
v -0.110610 1.606574 0.005367
v 0.098997 1.532230 0.014664
v 0.044373 1.521619 0.055330
v -0.120540 1.545941 -0.088287
v -0.077477 1.755770 0.012874
v 0.063659 1.763042 0.018550
v 0.112023 1.565988 -0.110967
v 0.111608 1.586567 -0.099396
v 0.117145 1.579471 -0.033416
v 0.014457 1.760632 0.043531
v 0.045726 1.802814 -0.058130
v 0.112835 1.549463 -0.104284
v 0.018918 1.584890 -0.180077
v -0.001903 1.799418 -0.006740
v -0.115068 1.637459 -0.009760
v -0.104130 1.707041 0.014051
v 0.069137 1.714456 0.047013
v 0.105465 1.703988 0.008893
v 0.115180 1.680677 -0.010344
v 0.114718 1.628096 -0.007612
v 0.123370 1.543487 -0.040930
v -0.004722 1.508398 0.052891
v -0.056372 1.590621 -0.164231
v 0.105839 1.600266 0.014080
v -0.059530 1.577246 0.065351
v 0.093818 1.567382 0.019331
v -0.067410 1.559040 0.046548
v 0.054434 1.554302 0.053134
v -0.118435 1.588287 -0.086326
v -0.090453 1.590193 -0.138027
v -0.099463 1.567097 0.011148
v 0.012230 1.548019 -0.099968
v 0.047256 1.533662 -0.044974
v 0.038012 1.543058 -0.080815
v -0.012331 1.548409 -0.101628
v -0.049070 1.528640 -0.025818
v -0.029336 1.524102 -0.008509
v -0.057315 1.536722 -0.056647
v 0.032104 1.526376 -0.017184
v -0.044228 1.544505 -0.086324
v 0.001653 1.522420 -0.002093
vn -0.8056 -0.5924 -0.0055
vn -0.8238 0.1101 -0.5560
vn -0.9892 0.1435 -0.0286
vn -0.6052 -0.1070 -0.7889
vn -0.3747 -0.3039 -0.8760
vn -0.6814 0.5847 -0.4402
vn 0.0778 -0.2840 0.9557
vn -0.9910 0.0007 -0.1342
vn -0.5218 0.8492 -0.0811
vn -0.3622 0.8234 0.4368
vn 0.1213 0.9656 -0.2302
vn 0.9126 0.3670 -0.1801
vn -0.6310 0.0977 -0.7696
vn 0.4057 0.0948 -0.9091
vn -0.7941 0.5563 0.2448
vn -0.8626 0.5053 -0.0260
vn 0.9777 0.1937 -0.0816
vn -0.8287 0.4421 -0.3434
vn -0.8601 0.1872 -0.4745
vn -0.9753 0.0067 0.2209
vn 0.4897 0.6394 -0.5928
vn -0.9296 -0.2191 0.2963
vn -0.9786 0.0906 -0.1847
vn 0.6005 0.7950 0.0857
vn 0.7392 0.6706 -0.0624
vn 0.1855 0.9348 -0.3030
vn 0.7410 -0.2202 -0.6344
vn 0.4135 -0.1536 -0.8974
vn 0.5336 0.7759 -0.3365
vn -0.9300 -0.0262 -0.3667
vn 0.2368 0.8050 0.5440
vn 0.4986 0.8116 0.3044
vn -0.3254 0.7940 0.5135
vn 0.7790 -0.0898 -0.6205
vn -0.9788 -0.0162 0.2042
vn -0.9764 0.2051 0.0681
vn 0.8028 -0.1075 -0.5865
vn 0.1617 0.7743 -0.6118
vn 0.1157 0.9783 0.1718
vn -0.5643 0.3270 0.7581
vn -0.5083 0.1952 0.8388
vn -0.1057 0.5846 0.8044
vn 0.3259 0.4486 0.8322
vn 0.9520 0.2430 0.1863
vn 0.9739 0.1988 0.1094
vn -0.3998 0.3532 -0.8458
vn -0.2576 0.2756 -0.9261
vn -0.8162 -0.2633 -0.5143
vn 0.7415 0.6671 -0.0710
vn -0.2934 0.7317 -0.6153
vn -0.4164 0.5823 -0.6983
vn 0.4291 -0.8898 -0.1553
vn -0.3704 -0.1496 -0.9168
vn 0.9009 -0.2758 0.3352
vn 0.9582 -0.0954 0.2699
vn -0.3488 -0.5960 0.7233
vn 0.6755 -0.1996 0.7098
vn 0.7668 0.3263 -0.5528
vn -0.5782 0.3288 -0.7467
vn -0.3238 -0.0136 0.9460
vn -0.8877 0.1269 0.4427
vn 0.0019 -0.9608 -0.2772
vn -0.0068 -0.9692 -0.2463
vn 0.0088 -0.9686 -0.2483
vn -0.0089 -0.9679 -0.2514
vn 0.0073 -0.9695 -0.2449
vn -0.0077 -0.9650 -0.2623
vn 0.0035 -0.9607 -0.2777
vn -0.0115 -0.9660 -0.2584
vn -0.8719 -0.4896 0.0082
vn -0.9878 -0.0063 0.1557
vn 0.7806 0.2799 -0.5589
vn -0.6017 0.7987 -0.0028
vn -0.1316 0.7637 0.6320
vn -0.9693 0.1943 0.1509
vn 0.2312 -0.9179 0.3225
vn 0.7601 0.1361 -0.6353
vn -0.8151 0.5786 0.0296
vn 0.7879 0.4987 0.3612
vn 0.6014 -0.3575 0.7145
vn -0.8224 0.0765 -0.5638
vn 0.1853 -0.5109 -0.8394
vn 0.3305 0.6256 -0.7067
vn 0.8496 -0.4456 0.2822
vn 0.3934 0.1900 -0.8995
vn 0.2734 0.3238 -0.9058
vn -0.2948 -0.7794 0.5528
vn 0.0735 -0.4383 0.8958
vn -0.7950 -0.2244 0.5636
vn -0.7858 -0.1334 0.6039
vn -0.9734 -0.0292 0.2272
vn 0.9749 -0.0230 -0.2214
vn 0.9860 -0.0186 -0.1657
vn 0.9950 0.0632 -0.0767
vn 0.3375 0.8656 0.3700
vn 0.7368 0.1240 -0.6647
vn 0.7524 0.5772 0.3174
vn 0.3756 -0.1841 -0.9083
vn 0.6522 -0.0046 0.7581
vn -0.2748 0.9347 -0.2254
vn 0.1727 0.9850 -0.0071
vn -0.8326 0.4627 0.3044
vn -0.9579 0.2150 0.1902
vn 0.3725 0.5000 0.7818
vn 0.7134 0.4124 0.5666
vn -0.9983 -0.0532 -0.0243
vn -0.1289 0.9729 0.1921
vn -0.3621 0.9230 -0.1305
vn 0.9051 0.0778 0.4181
vn -0.7906 -0.0760 0.6075
vn -0.5270 0.7878 0.3187
vn 0.0588 -0.9292 -0.3648
vn -0.2372 -0.9577 0.1626
vn -0.3410 -0.1714 -0.9243
vn 0.9652 0.0051 0.2616
vn -0.8733 -0.1021 -0.4764
vn 0.0510 -0.2251 -0.9730
vn 0.6867 -0.1370 0.7139
vn -0.7400 -0.3010 0.6015
vn 0.9872 -0.1268 -0.0965
vn 0.9733 -0.0678 0.2194
vn -0.1044 -0.1237 0.9868
vn -0.3795 -0.1753 -0.9084
vn -0.9793 0.0434 -0.1976
vn -0.4338 -0.1626 0.8862
vn 0.2300 -0.0054 0.9732
vn 0.9771 0.1894 -0.0975
vn 0.2360 -0.6265 0.7428
vn -0.8565 0.2445 -0.4545
vn 0.0030 -0.9671 -0.2543
vn -0.0115 -0.9658 -0.2592
vn -0.0133 -0.9668 -0.2550
vn 0.0037 -0.9691 -0.2467
vn 0.0030 -0.9671 -0.2545
vn 0.0094 -0.9685 -0.2488
vn -0.0068 -0.9694 -0.2452
vn 0.0005 -0.9607 -0.2776
vn -0.0014 -0.9689 -0.2473
vn -0.6164 -0.1135 -0.7792
vn 0.6084 -0.1347 0.7821
vn 0.9082 0.0709 0.4125
vn -0.7431 -0.0170 0.6690
s off
f 4//1 45//1 2//1
f 5//2 37//2 13//2
f 33//3 70//3 10//3
f 12//4 64//4 71//4
f 13//5 6//5 5//5
f 7//6 24//6 8//6
f 30//7 44//7 3//7
f 14//8 22//8 70//8
f 8//9 24//9 35//9
f 35//10 46//10 55//10
f 15//11 17//11 18//11
f 20//12 21//12 1//12
f 27//13 12//13 7//13
f 54//14 41//14 31//14
f 46//15 23//15 19//15
f 22//16 19//16 24//16
f 21//17 20//17 32//17
f 7//18 22//18 24//18
f 7//19 12//19 22//19
f 56//20 28//20 14//20
f 1//21 9//21 40//21
f 42//22 33//22 72//22
f 45//23 10//23 37//23
f 52//24 34//24 18//24
f 18//25 34//25 20//25
f 40//26 15//26 18//26
f 31//27 48//27 53//27
f 41//28 54//28 26//28
f 40//29 18//29 1//29
f 70//30 22//30 12//30
f 51//31 47//31 55//31
f 34//32 52//32 47//32
f 46//33 38//33 55//33
f 25//34 21//34 41//34
f 33//35 56//35 14//35
f 14//36 19//36 22//36
f 41//37 21//37 49//37
f 40//38 16//38 15//38
f 52//39 17//39 55//39
f 57//40 38//40 46//40
f 57//41 11//41 38//41
f 11//42 51//42 38//42
f 58//43 51//43 11//43
f 59//44 60//44 20//44
f 60//45 32//45 20//45
f 27//46 7//46 16//46
f 16//47 26//47 27//47
f 45//48 37//48 5//48
f 1//49 18//49 20//49
f 15//50 16//50 8//50
f 7//51 8//51 16//51
f 53//52 62//52 36//52
f 6//53 64//53 26//53
f 67//54 50//54 65//54
f 61//55 65//55 50//55
f 68//56 3//56 66//56
f 67//57 39//57 69//57
f 49//58 48//58 41//58
f 13//59 71//59 64//59
f 68//60 30//60 3//60
f 4//61 72//61 33//61
f 53//62 73//62 6//62
f 2//63 77//63 78//63
f 36//64 74//64 53//64
f 2//65 79//65 77//65
f 63//66 80//66 36//66
f 5//67 76//67 81//67
f 6//68 73//68 76//68
f 45//69 81//69 79//69
f 45//70 4//70 10//70
f 10//71 4//71 33//71
f 21//72 9//72 1//72
f 35//73 24//73 23//73
f 55//74 38//74 51//74
f 28//75 19//75 14//75
f 44//76 63//76 36//76
f 31//77 41//77 48//77
f 23//78 24//78 19//78
f 59//79 20//79 47//79
f 43//80 44//80 36//80
f 13//81 37//81 71//81
f 6//82 54//82 31//82
f 40//83 9//83 16//83
f 62//84 43//84 36//84
f 9//85 25//85 26//85
f 26//86 16//86 9//86
f 63//87 30//87 29//87
f 63//88 44//88 30//88
f 2//89 29//89 4//89
f 66//90 42//90 72//90
f 33//91 42//91 56//91
f 49//92 21//92 32//92
f 53//93 48//93 62//93
f 48//94 49//94 50//94
f 47//95 52//95 55//95
f 25//96 9//96 21//96
f 20//97 34//97 47//97
f 25//98 41//98 26//98
f 69//99 43//99 67//99
f 17//100 15//100 8//100
f 18//101 17//101 52//101
f 57//102 46//102 19//102
f 19//103 28//103 57//103
f 58//104 47//104 51//104
f 58//105 59//105 47//105
f 33//106 14//106 70//106
f 35//107 55//107 17//107
f 17//108 8//108 35//108
f 43//109 50//109 67//109
f 29//110 72//110 4//110
f 35//111 23//111 46//111
f 31//112 53//112 6//112
f 63//113 29//113 2//113
f 26//114 64//114 27//114
f 60//115 61//115 32//115
f 70//116 12//116 71//116
f 6//117 26//117 54//117
f 67//118 65//118 39//118
f 68//119 66//119 72//119
f 32//120 50//120 49//120
f 32//121 61//121 50//121
f 3//122 39//122 66//122
f 64//123 6//123 13//123
f 10//124 70//124 37//124
f 68//125 29//125 30//125
f 69//126 3//126 44//126
f 48//127 50//127 62//127
f 69//128 39//128 3//128
f 70//129 71//129 37//129
f 53//130 74//130 75//130
f 45//131 5//131 81//131
f 2//132 45//132 79//132
f 63//133 82//133 80//133
f 53//134 75//134 73//134
f 36//135 80//135 74//135
f 63//136 2//136 78//136
f 5//137 6//137 76//137
f 63//138 78//138 82//138
f 12//139 27//139 64//139
f 69//140 44//140 43//140
f 43//141 62//141 50//141
f 29//142 68//142 72//142
