# Blender v2.80 (sub 75) OBJ File: 'naboo.blend'
# www.blender.org
v 13.390590 8.791248 23.047050
v 13.124647 8.850388 23.038198
v 13.338841 9.052177 23.235167
v 13.335313 8.847531 22.913393
v 13.474908 8.989526 23.078701
v 13.474483 8.988752 23.034180
v 13.418575 9.089402 23.120569
v 13.344402 8.770819 23.121916
v 13.442511 8.836736 23.085295
v 13.302397 8.766191 23.035248
v 13.309847 9.108355 23.199829
v 13.368270 8.905682 23.251671
v 13.338489 8.804482 22.958982
v 13.473109 8.931026 23.123022
v 13.247857 9.024126 23.258890
v 13.271194 8.883178 23.260538
v 13.215319 8.815085 22.952484
v 13.447735 8.867300 23.146635
v 13.421401 8.830643 23.151360
v 13.434632 8.828417 23.181940
v 13.459845 8.843620 23.152704
v 13.431847 9.025565 23.183435
v 13.456697 9.009556 23.147959
v 13.165093 8.958619 23.231138
v 13.139250 8.900122 23.189217
v 13.474804 8.941251 23.034637
v 13.489513 8.946801 23.049450
v 13.424706 8.866835 23.191547
v 13.226376 8.946909 23.262772
v 13.339883 8.807011 23.203323
v 13.337027 8.954003 23.267925
v 13.216151 9.081299 23.220976
v 13.129350 8.998240 23.190012
v 13.096993 8.925932 23.127796
v 13.366689 9.110141 23.169275
v 13.234337 8.768059 23.083328
v 13.428744 8.861298 22.981586
v 13.253499 8.790129 23.178274
v 13.463758 9.024916 23.027449
v 13.426558 8.919989 22.937336
v 13.220699 8.851154 23.229969
v 13.417072 8.988278 23.216089
v 13.453120 9.040979 23.140753
v 13.453811 8.863603 23.185799
v 13.158731 8.815842 23.118061
vn -0.8563 -0.4936 0.1519
vn 0.8163 -0.0128 0.5775
vn -0.0631 -0.6352 0.7698
vn -0.3587 -0.2834 0.8894
vn -0.5602 0.2972 0.7732
vn 0.4561 0.4771 0.7512
vn -0.5652 -0.3008 0.7682
vn 0.9561 0.1577 0.2470
vn 0.8863 0.0778 -0.4565
vn -0.0423 -0.0647 0.9970
vn 0.2935 -0.1818 -0.9385
vn 0.8817 0.4588 0.1101
vn 0.1245 0.9895 0.0741
vn -0.0265 -0.7277 -0.6854
vn 0.7098 -0.0020 -0.7044
vn 0.3554 0.6222 0.6975
vn 0.9430 0.3324 -0.0148
vn 0.8070 -0.5531 0.2068
vn -0.4153 -0.8640 0.2847
vn -0.8788 -0.3164 0.3572
vn 0.5619 0.4887 0.6674
vn 0.0076 -0.9987 0.0496
vn 0.0596 -0.9109 0.4083
vn -0.5088 -0.6991 0.5024
vn -0.0513 -0.8826 -0.4674
vn 0.6920 -0.1010 0.7148
vn -0.4816 -0.2583 0.8374
vn 0.2829 -0.9553 -0.0861
vn 0.3194 -0.9251 -0.2055
vn 0.1009 -0.1982 -0.9749
vn 0.5335 -0.6499 0.5414
vn -0.4276 0.1637 0.8890
vn -0.6158 -0.5865 0.5261
vn 0.9010 -0.3799 -0.2096
vn 0.5262 0.0547 0.8486
vn 0.8926 0.4377 0.1081
vn 0.9673 0.1336 0.2157
vn 0.8960 0.4330 -0.0981
vn -0.0831 -0.6698 0.7379
vn -0.8034 -0.4815 0.3504
vn -0.8376 -0.0889 0.5389
vn 0.1417 -0.2321 0.9623
vn 0.0396 0.5674 0.8225
vn 0.4726 -0.7953 0.3798
vn 0.9363 -0.3396 0.0895
vn 0.8756 -0.1830 0.4471
vn -0.4935 0.2738 0.8255
vn 0.6475 0.6366 0.4189
vn 0.5827 -0.8050 0.1119
vn 0.5888 -0.7950 0.1463
vn 0.9593 0.2820 -0.0141
vn 0.1688 -0.1979 0.9656
vn 0.6313 0.5737 0.5218
vn 0.7351 -0.6313 -0.2471
vn 0.8871 -0.2563 -0.3839
vn 0.1887 -0.4754 0.8593
vn 0.8739 0.0745 0.4804
vn 0.5552 -0.7089 -0.4350
vn 0.4516 -0.4940 0.7430
vn 0.5611 -0.4849 -0.6709
vn 0.8428 0.2096 0.4957
vn -0.0505 0.0642 0.9967
vn -0.2360 -0.9249 -0.2981
vn 0.4340 -0.8958 -0.0953
vn 0.0321 0.5440 0.8385
vn -0.7910 -0.0847 0.6059
vn 0.1491 0.3105 0.9388
vn 0.8396 -0.0564 0.5402
vn 0.5278 -0.5989 -0.6023
vn -0.5266 -0.8215 -0.2187
vn 0.5200 -0.0047 -0.8542
vn -0.0589 -0.9697 0.2373
vn 0.7747 -0.4688 0.4243
vn -0.5669 -0.8162 -0.1111
vn 0.4356 0.2777 0.8563
vn 0.2981 -0.9021 -0.3119
vn 0.9530 -0.3026 -0.0167
s off
f 45//1 34//1 2//1
f 22//2 14//2 23//2
f 16//3 41//3 30//3
f 41//4 16//4 29//4
f 24//5 32//5 33//5
f 35//6 42//6 22//6
f 24//7 25//7 41//7
f 27//8 5//8 14//8
f 39//9 26//9 40//9
f 29//10 16//10 31//10
f 43//11 23//11 7//11
f 23//12 39//12 7//12
f 28//13 44//13 18//13
f 13//14 17//14 4//14
f 27//15 26//15 6//15
f 3//16 35//16 11//16
f 6//17 5//17 27//17
f 9//18 18//18 19//18
f 36//19 38//19 45//19
f 28//20 19//20 20//20
f 35//21 3//21 42//21
f 36//22 10//22 8//22
f 38//23 8//23 30//23
f 41//24 45//24 38//24
f 10//25 17//25 13//25
f 28//26 42//26 12//26
f 24//27 41//27 29//27
f 10//28 1//28 8//28
f 21//29 20//29 19//29
f 21//30 19//30 18//30
f 30//31 19//31 28//31
f 24//32 29//32 15//32
f 41//33 25//33 45//33
f 26//34 9//34 37//34
f 12//35 42//35 31//35
f 39//36 23//36 5//36
f 14//37 5//37 23//37
f 44//38 21//38 18//38
f 30//39 41//39 38//39
f 45//40 25//40 34//40
f 34//41 25//41 33//41
f 31//42 16//42 12//42
f 15//43 3//43 32//43
f 8//44 19//44 30//44
f 9//45 14//45 18//45
f 14//46 28//46 18//46
f 32//47 24//47 15//47
f 35//48 43//48 7//48
f 8//49 9//49 19//49
f 1//50 9//50 8//50
f 39//51 5//51 6//51
f 44//52 28//52 20//52
f 35//53 22//53 43//53
f 37//54 9//54 1//54
f 40//55 26//55 37//55
f 16//56 30//56 12//56
f 22//57 42//57 14//57
f 13//58 37//58 1//58
f 28//59 12//59 30//59
f 40//60 37//60 4//60
f 22//61 23//61 43//61
f 29//62 31//62 15//62
f 36//63 17//63 10//63
f 26//64 27//64 14//64
f 32//65 3//65 11//65
f 33//66 25//66 24//66
f 31//67 3//67 15//67
f 14//68 42//68 28//68
f 37//69 13//69 4//69
f 17//70 36//70 2//70
f 39//71 6//71 26//71
f 38//72 36//72 8//72
f 21//73 44//73 20//73
f 36//74 45//74 2//74
f 3//75 31//75 42//75
f 1//76 10//76 13//76
f 26//77 14//77 9//77
