# Blender v2.80 (sub 75) OBJ File: 'naboo.blend'
# www.blender.org
v 14.859530 -1.453096 17.847847
v 14.531315 -1.486652 17.958820
v 14.736109 -1.085440 17.998508
v 14.719717 -1.477003 17.709425
v 14.861384 -1.185268 17.772997
v 14.844862 -1.208621 17.723850
v 14.762600 -1.072742 17.816355
v 14.846729 -1.454928 17.962444
v 14.907442 -1.364441 17.848013
v 14.770640 -1.518630 17.889549
v 14.661759 -1.050726 17.955835
v 14.850949 -1.230456 18.049847
v 14.762466 -1.501138 17.772812
v 14.906198 -1.229101 17.842709
v 14.658816 -1.137498 18.082272
v 14.758543 -1.285946 18.118431
v 14.618299 -1.536658 17.827089
v 14.919996 -1.297614 17.903513
v 14.911676 -1.345672 17.934814
v 14.938771 -1.328081 17.962650
v 14.947950 -1.316713 17.911722
v 14.833714 -1.107843 17.900549
v 14.856419 -1.134643 17.853182
v 14.591074 -1.254327 18.116713
v 14.577415 -1.350037 18.102987
v 14.870090 -1.261401 17.739910
v 14.888950 -1.242494 17.746819
v 14.911360 -1.283851 17.965889
v 14.676645 -1.229604 18.123493
v 14.852994 -1.375231 18.043596
v 14.797264 -1.179451 18.068468
v 14.579999 -1.103935 18.037830
v 14.515731 -1.243451 18.076632
v 14.494549 -1.367121 18.048292
v 14.712418 -1.043697 17.891178
v 14.712149 -1.516797 17.978456
v 14.841113 -1.393930 17.731554
v 14.756958 -1.437618 18.066870
v 14.811705 -1.175395 17.710043
v 14.791819 -1.351275 17.663961
v 14.708042 -1.355183 18.121613
v 14.848828 -1.138453 17.957085
v 14.833456 -1.104398 17.836639
v 14.943114 -1.279924 17.945185
v 14.616500 -1.473012 18.041279
vn -0.4968 -0.6128 0.6146
vn 0.8794 0.4446 0.1700
vn 0.4267 -0.2716 0.8626
vn 0.0621 0.0006 0.9981
vn -0.3825 0.4069 0.8295
vn 0.4182 0.8409 0.3435
vn -0.1448 -0.1202 0.9821
vn 0.8355 0.5033 -0.2206
vn 0.6040 0.1374 -0.7851
vn 0.2783 0.3232 0.9045
vn 0.0567 -0.4457 -0.8934
vn 0.6088 0.6923 -0.3873
vn -0.2736 0.9306 -0.2432
vn 0.0751 -0.9140 -0.3987
vn 0.4120 -0.0793 -0.9077
vn 0.2563 0.9186 0.3007
vn 0.6771 0.5499 -0.4890
vn 0.9842 -0.1768 -0.0098
vn 0.0745 -0.7613 0.6441
vn -0.5290 -0.3833 0.7572
vn 0.4809 0.8478 0.2236
vn 0.4277 -0.8530 0.2990
vn 0.5408 -0.6206 0.5678
vn -0.0107 -0.5576 0.8301
vn 0.1797 -0.9709 -0.1581
vn 0.8474 0.3865 0.3640
vn -0.0697 -0.0323 0.9970
vn 0.6092 -0.7911 0.0554
vn 0.5940 -0.8013 -0.0718
vn -0.1139 -0.5283 -0.8414
vn 0.8835 -0.2068 0.4204
vn -0.1798 0.3726 0.9104
vn -0.1423 -0.4797 0.8658
vn 0.8745 -0.1624 -0.4570
vn 0.6791 0.5289 0.5090
vn 0.6262 0.6762 -0.3881
vn 0.8459 0.4731 -0.2463
vn 0.5714 0.5921 -0.5683
vn 0.4143 -0.3199 0.8520
vn -0.3984 -0.5094 0.7627
vn -0.5334 -0.1011 0.8398
vn 0.4957 0.2146 0.8416
vn 0.0412 0.8311 0.5546
vn 0.8432 -0.4147 0.3422
vn 0.9753 0.0003 -0.2210
vn 0.9624 0.2610 0.0757
vn -0.3001 0.4256 0.8537
vn 0.4229 0.9037 -0.0671
vn 0.8649 -0.4976 0.0654
vn 0.8761 -0.4736 0.0903
vn 0.7122 0.5104 -0.4819
vn 0.5061 0.2534 0.8244
vn 0.4642 0.8845 0.0458
vn 0.8224 -0.4438 -0.3560
vn 0.7618 -0.1265 -0.6354
vn 0.6057 -0.0258 0.7953
vn 0.8657 0.4990 0.0387
vn 0.6438 -0.6360 -0.4255
vn 0.8074 -0.0141 0.5899
vn 0.4894 -0.5308 -0.6919
vn 0.7882 0.6147 0.0300
vn 0.2185 0.4336 0.8742
vn 0.0860 -0.9933 0.0770
vn 0.7132 -0.7003 -0.0305
vn 0.0489 0.8149 0.5776
vn -0.4754 -0.0581 0.8779
vn 0.2744 0.6826 0.6774
vn 0.9066 0.3983 0.1391
vn 0.5268 -0.6131 -0.5887
vn -0.1849 -0.9531 0.2397
vn 0.2054 -0.1938 -0.9593
vn 0.4126 -0.7725 0.4827
vn 0.9848 -0.0266 0.1716
vn -0.1908 -0.9175 0.3489
vn 0.5121 0.7017 0.4953
vn 0.5353 -0.8290 -0.1617
vn 0.9439 -0.0042 -0.3302
s off
f 45//1 34//1 2//1
f 22//2 14//2 23//2
f 16//3 41//3 30//3
f 41//4 16//4 29//4
f 24//5 32//5 33//5
f 35//6 42//6 22//6
f 24//7 25//7 41//7
f 27//8 5//8 14//8
f 39//9 26//9 40//9
f 29//10 16//10 31//10
f 43//11 23//11 7//11
f 23//12 39//12 7//12
f 28//13 44//13 18//13
f 13//14 17//14 4//14
f 27//15 26//15 6//15
f 3//16 35//16 11//16
f 6//17 5//17 27//17
f 9//18 18//18 19//18
f 36//19 38//19 45//19
f 28//20 19//20 20//20
f 35//21 3//21 42//21
f 36//22 10//22 8//22
f 38//23 8//23 30//23
f 41//24 45//24 38//24
f 10//25 17//25 13//25
f 28//26 42//26 12//26
f 24//27 41//27 29//27
f 10//28 1//28 8//28
f 21//29 20//29 19//29
f 21//30 19//30 18//30
f 30//31 19//31 28//31
f 24//32 29//32 15//32
f 41//33 25//33 45//33
f 26//34 9//34 37//34
f 12//35 42//35 31//35
f 39//36 23//36 5//36
f 14//37 5//37 23//37
f 44//38 21//38 18//38
f 30//39 41//39 38//39
f 45//40 25//40 34//40
f 34//41 25//41 33//41
f 31//42 16//42 12//42
f 15//43 3//43 32//43
f 8//44 19//44 30//44
f 9//45 14//45 18//45
f 14//46 28//46 18//46
f 32//47 24//47 15//47
f 35//48 43//48 7//48
f 8//49 9//49 19//49
f 1//50 9//50 8//50
f 39//51 5//51 6//51
f 44//52 28//52 20//52
f 35//53 22//53 43//53
f 37//54 9//54 1//54
f 40//55 26//55 37//55
f 16//56 30//56 12//56
f 22//57 42//57 14//57
f 13//58 37//58 1//58
f 28//59 12//59 30//59
f 40//60 37//60 4//60
f 22//61 23//61 43//61
f 29//62 31//62 15//62
f 36//63 17//63 10//63
f 26//64 27//64 14//64
f 32//65 3//65 11//65
f 33//66 25//66 24//66
f 31//67 3//67 15//67
f 14//68 42//68 28//68
f 37//69 13//69 4//69
f 17//70 36//70 2//70
f 39//71 6//71 26//71
f 38//72 36//72 8//72
f 21//73 44//73 20//73
f 36//74 45//74 2//74
f 3//75 31//75 42//75
f 1//76 10//76 13//76
f 26//77 14//77 9//77
