# Blender v2.80 (sub 75) OBJ File: 'naboo.blend'
# www.blender.org
v 18.779478 16.945421 26.017576
v 18.511707 16.990614 26.041201
v 18.735617 17.177179 26.242329
v 18.708952 17.015097 25.898165
v 18.858086 17.142385 26.067081
v 18.853298 17.147242 26.023075
v 18.802008 17.232925 26.126740
v 18.741810 16.913176 26.093054
v 18.832958 16.988455 26.056501
v 18.691683 16.917290 26.010788
v 18.700935 17.235718 26.217514
v 18.772673 17.031599 26.236643
v 18.718424 16.966852 25.937210
v 18.863136 17.078728 26.103304
v 18.648682 17.141428 26.270470
v 18.677980 17.002892 26.251413
v 18.594877 16.971460 25.943577
v 18.842924 17.011234 26.120579
v 18.818752 16.972893 26.122858
v 18.835020 16.967533 26.151525
v 18.856560 16.987673 26.122337
v 18.824099 17.162453 26.179173
v 18.845976 17.152451 26.139755
v 18.566414 17.075552 26.242119
v 18.539043 17.021521 26.195444
v 18.855663 17.100153 26.017254
v 18.871517 17.104576 26.031244
v 18.824480 17.003824 26.166975
v 18.630959 17.063286 26.266136
v 18.743830 16.938454 26.178577
v 18.741180 17.075693 26.261925
v 18.611008 17.201130 26.243494
v 18.525148 17.118059 26.210041
v 18.489880 17.052567 26.142120
v 18.754356 17.244461 26.182339
v 18.628685 16.909332 26.064781
v 18.807997 17.025181 25.958643
v 18.656183 16.920198 26.159622
v 18.840448 17.183327 26.022177
v 18.798985 17.088800 25.922884
v 18.626108 16.972298 26.221699
v 18.814203 17.120579 26.207867
v 18.840384 17.184292 26.137104
v 18.852987 17.002939 26.158188
v 18.554934 16.948132 26.112335
vn -0.8156 -0.5549 0.1642
vn 0.8692 -0.0414 0.4928
vn 0.0399 -0.7302 0.6821
vn -0.2569 -0.4130 0.8737
vn -0.4931 0.1657 0.8540
vn 0.5076 0.4022 0.7620
vn -0.4734 -0.4261 0.7709
vn 0.9683 0.1771 0.1761
vn 0.8329 0.1832 -0.5223
vn 0.0591 -0.1927 0.9795
vn 0.2070 -0.0450 -0.9773
vn 0.8682 0.4885 0.0875
vn 0.0894 0.9774 0.1917
vn -0.0634 -0.6353 -0.7696
vn 0.6365 0.1260 -0.7609
vn 0.3960 0.5472 0.7374
vn 0.9221 0.3826 -0.0581
vn 0.8461 -0.5300 0.0568
vn -0.3484 -0.9145 0.2058
vn -0.8252 -0.4065 0.3922
vn 0.6040 0.4300 0.6710
vn 0.0545 -0.9951 -0.0830
vn 0.1380 -0.9507 0.2777
vn -0.4269 -0.7838 0.4510
vn -0.0600 -0.8176 -0.5726
vn 0.7629 -0.1529 0.6282
vn -0.3853 -0.3883 0.8371
vn 0.3130 -0.9198 -0.2367
vn 0.3364 -0.8727 -0.3539
vn 0.0124 -0.0672 -0.9977
vn 0.6112 -0.6832 0.3996
vn -0.3443 0.0260 0.9385
vn -0.5356 -0.6811 0.4991
vn 0.8910 -0.3006 -0.3401
vn 0.6045 -0.0247 0.7962
vn 0.8796 0.4686 0.0817
vn 0.9774 0.1578 0.1410
vn 0.8629 0.4903 -0.1228
vn 0.0185 -0.7614 0.6480
vn -0.7438 -0.5651 0.3568
vn -0.7759 -0.2020 0.5976
vn 0.2457 -0.3442 0.9062
vn 0.0966 0.4598 0.8827
vn 0.5409 -0.8100 0.2266
vn 0.9540 -0.2967 -0.0429
vn 0.9224 -0.1901 0.3363
vn -0.4207 0.1396 0.8964
vn 0.6584 0.6127 0.4372
vn 0.6242 -0.7797 -0.0492
vn 0.6332 -0.7738 -0.0146
vn 0.9405 0.3333 -0.0656
vn 0.2713 -0.3093 0.9114
vn 0.6550 0.5365 0.5321
vn 0.7331 -0.5538 -0.3948
vn 0.8549 -0.1569 -0.4946
vn 0.2925 -0.5695 0.7682
vn 0.9131 0.0604 0.4032
vn 0.5389 -0.6167 -0.5739
vn 0.5431 -0.5588 0.6267
vn 0.5120 -0.3646 -0.7778
vn 0.8781 0.1907 0.4389
vn 0.0455 -0.0656 0.9968
vn -0.2251 -0.8911 -0.3940
vn 0.4598 -0.8515 -0.2519
vn 0.0919 0.4343 0.8961
vn -0.7231 -0.2039 0.6600
vn 0.2279 0.1966 0.9536
vn 0.8905 -0.0786 0.4482
vn 0.4906 -0.4880 -0.7219
vn -0.5105 -0.8146 -0.2751
vn 0.4331 0.1319 -0.8916
vn 0.0057 -0.9937 0.1122
vn 0.8319 -0.4759 0.2855
vn -0.5403 -0.8252 -0.1646
vn 0.5059 0.1902 0.8413
vn 0.3035 -0.8377 -0.4540
vn 0.9586 -0.2456 -0.1444
s off
f 45//1 34//1 2//1
f 22//2 14//2 23//2
f 16//3 41//3 30//3
f 41//4 16//4 29//4
f 24//5 32//5 33//5
f 35//6 42//6 22//6
f 24//7 25//7 41//7
f 27//8 5//8 14//8
f 39//9 26//9 40//9
f 29//10 16//10 31//10
f 43//11 23//11 7//11
f 23//12 39//12 7//12
f 28//13 44//13 18//13
f 13//14 17//14 4//14
f 27//15 26//15 6//15
f 3//16 35//16 11//16
f 6//17 5//17 27//17
f 9//18 18//18 19//18
f 36//19 38//19 45//19
f 28//20 19//20 20//20
f 35//21 3//21 42//21
f 36//22 10//22 8//22
f 38//23 8//23 30//23
f 41//24 45//24 38//24
f 10//25 17//25 13//25
f 28//26 42//26 12//26
f 24//27 41//27 29//27
f 10//28 1//28 8//28
f 21//29 20//29 19//29
f 21//30 19//30 18//30
f 30//31 19//31 28//31
f 24//32 29//32 15//32
f 41//33 25//33 45//33
f 26//34 9//34 37//34
f 12//35 42//35 31//35
f 39//36 23//36 5//36
f 14//37 5//37 23//37
f 44//38 21//38 18//38
f 30//39 41//39 38//39
f 45//40 25//40 34//40
f 34//41 25//41 33//41
f 31//42 16//42 12//42
f 15//43 3//43 32//43
f 8//44 19//44 30//44
f 9//45 14//45 18//45
f 14//46 28//46 18//46
f 32//47 24//47 15//47
f 35//48 43//48 7//48
f 8//49 9//49 19//49
f 1//50 9//50 8//50
f 39//51 5//51 6//51
f 44//52 28//52 20//52
f 35//53 22//53 43//53
f 37//54 9//54 1//54
f 40//55 26//55 37//55
f 16//56 30//56 12//56
f 22//57 42//57 14//57
f 13//58 37//58 1//58
f 28//59 12//59 30//59
f 40//60 37//60 4//60
f 22//61 23//61 43//61
f 29//62 31//62 15//62
f 36//63 17//63 10//63
f 26//64 27//64 14//64
f 32//65 3//65 11//65
f 33//66 25//66 24//66
f 31//67 3//67 15//67
f 14//68 42//68 28//68
f 37//69 13//69 4//69
f 17//70 36//70 2//70
f 39//71 6//71 26//71
f 38//72 36//72 8//72
f 21//73 44//73 20//73
f 36//74 45//74 2//74
f 3//75 31//75 42//75
f 1//76 10//76 13//76
f 26//77 14//77 9//77
