# Blender v2.80 (sub 75) OBJ File: 'field.blend'
# www.blender.org
v -8.172317 18.231750 2.687766
v -8.144163 18.257277 2.707827
v -8.177273 18.213303 2.712191
v -8.208970 18.199348 2.687161
v -8.195450 18.234699 2.667328
v -8.155396 18.270502 2.680101
v -8.173981 18.219866 2.701120
v -8.154519 18.245714 2.698555
v -8.157432 18.234871 2.712912
v -8.144573 18.268492 2.694050
v -8.161121 18.253487 2.682258
v -8.192612 18.211664 2.686408
v -8.195525 18.200821 2.700765
v -8.184664 18.232443 2.674751
v -8.206209 18.213398 2.674395
v -8.174719 18.255220 2.670245
v -8.141340 18.271725 2.705622
v -8.147943 18.279499 2.689325
v -8.168749 18.225098 2.719845
v -8.149287 18.250946 2.717280
v -8.210923 18.195852 2.697625
v -8.192292 18.204054 2.712337
v -8.209579 18.224405 2.669670
v -8.217526 18.203625 2.681328
v -8.166574 18.271297 2.674613
v -8.190117 18.250254 2.667105
v -8.143680 18.302792 2.649737
v -8.130068 18.292244 2.689109
v -8.129986 18.330610 2.649396
v -8.154265 18.335060 2.614516
v -8.169353 18.299442 2.632673
v -8.154397 18.272982 2.678774
v -8.134381 18.318104 2.648535
v -8.134429 18.295551 2.671877
v -8.126380 18.311903 2.671677
v -8.140729 18.278030 2.688944
v -8.148729 18.284229 2.665802
v -8.148652 18.320719 2.628032
v -8.140603 18.337070 2.627832
v -8.157520 18.299784 2.638705
v -8.163742 18.318748 2.618002
v -8.163819 18.282261 2.655771
v -8.136574 18.283550 2.699292
v -8.150874 18.272228 2.693217
v -8.127657 18.327038 2.665277
v -8.127706 18.304487 2.688620
v -8.150719 18.345207 2.617677
v -8.136448 18.342592 2.638179
v -8.173887 18.312948 2.622274
v -8.165019 18.333883 2.611602
v -8.165145 18.274843 2.672714
v -8.173935 18.290396 2.645617
v -8.099294 18.281597 2.739721
v -8.118263 18.266077 2.718564
v -8.110821 18.274965 2.710200
v -8.115573 18.288242 2.712533
v -8.125952 18.287561 2.722338
v -8.127614 18.273861 2.726066
v -8.146267 18.263130 2.678298
v -8.144604 18.276829 2.674572
v -8.153955 18.284615 2.682073
v -8.161397 18.275726 2.690437
v -8.156646 18.262449 2.688104
v -8.172925 18.269094 2.660916
v -8.099606 18.278797 2.729287
v -8.103980 18.273573 2.734203
v -8.110756 18.269674 2.716851
v -8.120626 18.269026 2.726177
v -8.109476 18.278149 2.738612
v -8.102399 18.286602 2.730658
v -8.109174 18.282703 2.713306
v -8.108500 18.286200 2.736422
v -8.118068 18.290108 2.720441
v -8.125146 18.281654 2.728395
v -8.137691 18.262316 2.703863
v -8.143188 18.266893 2.708273
v -8.127215 18.267941 2.693184
v -8.131590 18.262716 2.698100
v -8.129031 18.283798 2.692364
v -8.126238 18.275993 2.690993
v -8.140629 18.287973 2.702537
v -8.134528 18.288374 2.696774
v -8.145980 18.274698 2.709644
v -8.145002 18.282749 2.707453
v -8.154151 18.260584 2.680196
v -8.147073 18.269037 2.672242
v -8.151592 18.281666 2.674461
v -8.161463 18.281017 2.683786
v -8.163044 18.267988 2.687331
v -8.163719 18.264490 2.664215
v -8.169820 18.264090 2.669979
v -8.162742 18.272543 2.662025
v -8.168239 18.277119 2.666434
v -8.172613 18.271894 2.671350
v -8.130754 18.240719 2.766994
v -8.146511 18.252800 2.713038
v -8.146620 18.201992 2.765627
v -8.114469 18.196102 2.811816
v -8.094490 18.243267 2.787773
v -8.114294 18.278309 2.726724
v -8.142454 18.219934 2.768095
v -8.142390 18.249796 2.737185
v -8.151716 18.227034 2.736381
v -8.132716 18.271891 2.713515
v -8.123454 18.264790 2.745229
v -8.123556 18.216471 2.795245
v -8.132882 18.193708 2.794441
v -8.111814 18.244194 2.781112
v -8.102242 18.217970 2.807458
v -8.102139 18.266289 2.757443
v -8.136062 18.262783 2.698082
v -8.117125 18.277777 2.706127
v -8.147868 18.205196 2.743125
v -8.147805 18.235060 2.712214
v -8.117330 18.181137 2.806158
v -8.136229 18.184601 2.779009
v -8.086650 18.223856 2.800071
v -8.098393 18.196133 2.814203
v -8.098227 18.274315 2.733276
v -8.086586 18.253719 2.769160
v -8.092833 18.334795 2.716636
v -8.127846 18.299103 2.688251
v -8.084001 18.357336 2.682473
v -8.042027 18.375814 2.715617
v -8.059932 18.329000 2.741881
v -8.112970 18.281591 2.724967
v -8.090016 18.350021 2.698461
v -8.115788 18.315794 2.701857
v -8.110597 18.329042 2.681776
v -8.127625 18.284521 2.706754
v -8.107044 18.305500 2.723438
v -8.065345 18.360882 2.717943
v -8.060153 18.374132 2.697862
v -8.075869 18.333366 2.733380
v -8.046005 18.357477 2.732781
v -8.087706 18.302094 2.738276
v -8.129749 18.278444 2.689699
v -8.121005 18.268150 2.711280
v -8.093453 18.340189 2.670866
v -8.119226 18.305960 2.674262
v -8.037606 18.378916 2.700289
v -8.062278 18.368055 2.680807
v -8.039386 18.341106 2.737307
v -8.028862 18.368624 2.721870
v -8.096334 18.279011 2.730762
v -8.065158 18.306877 2.740704
vn 0.7040 -0.5719 -0.4212
vn 0.8195 -0.4323 -0.3763
vn 0.6380 -0.6131 -0.4660
vn 0.5885 -0.5549 -0.5880
vn 0.6244 -0.4780 -0.6178
vn 0.9541 -0.2178 -0.2057
vn 0.7127 -0.6633 0.2283
vn 0.3421 -0.9085 -0.2399
vn 0.1111 -0.3630 -0.9251
vn 0.4417 0.0199 -0.8969
vn 0.9034 -0.1133 0.4137
vn 0.4300 -0.6891 0.5832
vn -0.2201 -0.9121 -0.3458
vn -0.2025 0.0554 -0.9777
vn 0.4179 0.4583 -0.7844
vn 0.1350 0.1954 -0.9714
vn 0.2274 -0.0919 -0.9695
vn -0.1694 -0.4320 -0.8858
vn 0.1487 -0.6808 -0.7172
vn 0.2663 -0.9451 0.1896
vn 0.5228 -0.8476 0.0910
vn 0.7230 -0.4968 0.4801
vn 0.8653 -0.4788 0.1483
vn 0.9391 0.1563 -0.3061
vn 0.7882 -0.0225 -0.6150
vn 0.6102 -0.2983 -0.7339
vn 0.5798 -0.3942 -0.7130
vn 0.4744 -0.3655 -0.8008
vn 0.4304 -0.4725 -0.7691
vn 0.5068 -0.5611 -0.6545
vn 0.4577 -0.6454 -0.6115
vn 0.5265 -0.7264 -0.4417
vn 0.6125 -0.6856 -0.3935
vn 0.6455 -0.7258 -0.2380
vn 0.7252 -0.3212 -0.6090
vn 0.7486 -0.4271 -0.5071
vn 0.6999 -0.4918 -0.5180
vn 0.7273 -0.6631 -0.1768
vn 0.7487 -0.5931 -0.2961
vn 0.8107 -0.5344 -0.2390
vn -0.7388 0.4854 0.4674
vn -0.7642 0.5696 0.3027
vn -0.6972 0.4661 0.5447
vn -0.5901 0.5508 0.5902
vn -0.5663 0.6220 0.5408
vn -0.8000 0.6000 0.0011
vn -0.9899 -0.0244 0.1396
vn -0.6994 0.0219 0.7144
vn -0.0127 0.6072 0.7944
vn -0.0646 0.9160 0.3960
vn -0.8870 0.1538 -0.4353
vn -0.8907 -0.4536 0.0286
vn -0.2336 -0.2138 0.9485
vn 0.4790 0.6309 0.6104
vn 0.1644 0.9863 0.0114
vn 0.2932 0.8672 0.4024
vn 0.0612 0.8079 0.5862
vn 0.1548 0.3958 0.9052
vn -0.2805 0.3537 0.8923
vn -0.7889 -0.3515 0.5041
vn -0.9041 -0.0986 0.4157
vn -0.9802 -0.1413 -0.1385
vn -0.9818 0.1896 0.0062
vn -0.5505 0.8081 -0.2097
vn -0.4410 0.8843 0.1534
vn -0.4209 0.7683 0.4823
vn -0.4566 0.6995 0.5497
vn -0.3331 0.7166 0.6128
vn -0.3678 0.6281 0.6857
vn -0.5104 0.5523 0.6592
vn -0.5322 0.4609 0.7102
vn -0.6810 0.3432 0.6470
vn -0.7394 0.3708 0.5619
vn -0.8334 0.2593 0.4880
vn -0.5599 0.7313 0.3896
vn -0.6673 0.6288 0.3991
vn -0.6622 0.5852 0.4681
vn -0.8804 0.2832 0.3803
vn -0.8226 0.4098 0.3942
vn -0.8550 0.4246 0.2978
vn 0.8159 -0.5641 0.1268
vn 0.0694 -0.9228 0.3791
vn 0.9273 0.3536 -0.1225
vn 0.3011 0.8747 0.3798
vn -0.1970 0.2796 0.9397
vn -0.0755 -0.9374 0.3400
vn 0.7019 -0.5539 -0.4479
vn 0.5911 0.6091 -0.5288
vn -0.2548 0.9443 0.2084
vn -0.6669 -0.0116 0.7450
vn 0.1351 -0.9880 0.0743
vn 0.7469 -0.2576 -0.6130
vn 0.3562 0.8340 -0.4214
vn -0.4970 0.7779 0.3845
vn -0.6337 -0.3480 0.6909
vn 0.2107 -0.9130 -0.3493
vn 0.5562 0.0716 -0.8279
vn -0.0694 0.9228 -0.3791
vn -0.8012 0.4646 0.3772
vn -0.6280 -0.6700 0.3958
vn -0.9273 -0.3536 0.1226
vn -0.8340 -0.3705 0.4089
vn -0.8600 -0.0217 0.5098
vn -0.8159 0.5641 -0.1270
vn -0.7041 0.7003 0.1177
vn -0.4376 0.8986 -0.0313
vn -0.1212 0.6096 -0.7834
vn 0.1069 0.7535 -0.6487
vn 0.3873 0.5425 -0.7454
vn 0.1970 -0.2795 -0.9397
vn 0.4784 -0.2840 -0.8310
vn 0.4746 -0.5976 -0.6462
vn -0.3014 -0.8747 -0.3796
vn -0.1033 -0.9787 -0.1774
vn -0.2963 -0.9462 0.1297
vn -0.5912 -0.6092 0.5285
vn -0.6871 -0.3570 0.6328
vn -0.7795 -0.0833 0.6209
vn -0.7018 0.5541 0.4477
vn -0.5506 0.7683 0.3265
vn -0.4074 0.9058 0.1164
vn 0.0756 0.9374 -0.3400
vn 0.3021 0.8244 -0.4787
vn 0.4457 0.6294 -0.6366
vn 0.6667 0.0115 -0.7452
vn 0.6925 -0.2664 -0.6704
vn 0.6008 -0.5307 -0.5978
vn 0.2548 -0.9442 -0.2088
vn 0.0811 -0.9966 0.0166
vn -0.1563 -0.9712 0.1799
vn -0.7467 0.2573 0.6134
vn -0.6924 0.2665 0.6705
vn -0.6008 0.5308 0.5977
vn -0.1350 0.9881 -0.0739
vn -0.0811 0.9966 -0.0164
vn 0.1562 0.9712 -0.1799
vn 0.6335 0.3482 -0.6909
vn 0.6871 0.3570 -0.6328
vn 0.7793 0.0834 -0.6211
vn 0.4969 -0.7780 -0.3843
vn 0.5506 -0.7683 -0.3265
vn 0.4074 -0.9058 -0.1167
vn -0.3563 -0.8339 0.4215
vn -0.3022 -0.8243 0.4788
vn -0.4456 -0.6294 0.6367
vn -0.5560 -0.0715 0.8281
vn -0.4781 0.2841 0.8311
vn -0.4748 0.5979 0.6459
vn -0.2107 0.9129 0.3495
vn 0.1032 0.9787 0.1774
vn 0.2963 0.9463 -0.1295
vn 0.6279 0.6702 -0.3958
vn 0.8341 0.3703 -0.4089
vn 0.8602 0.0214 -0.5095
vn -0.3872 -0.5426 0.7455
vn -0.1069 -0.7537 0.6485
vn 0.1211 -0.6093 0.7836
vn 0.8010 -0.4646 -0.3777
vn 0.7042 -0.7002 -0.1176
vn 0.4376 -0.8986 0.0310
vn -0.7720 0.4580 0.4408
vn -0.7955 0.5697 0.2066
vn -0.7138 0.4311 0.5520
vn -0.5611 0.5521 0.6168
vn -0.5262 0.6526 0.5452
vn -0.7968 0.5800 -0.1695
vn -0.9859 -0.1641 0.0313
vn -0.6685 -0.1477 0.7289
vn 0.1633 0.5742 0.8022
vn 0.0997 0.9393 0.3282
vn -0.8427 0.0861 -0.5314
vn -0.8484 -0.5287 -0.0282
vn -0.1382 -0.3270 0.9349
vn 0.5668 0.5919 0.5731
vn 0.2642 0.9625 -0.0610
vn 0.4177 0.8399 0.3465
vn 0.2340 0.8019 0.5497
vn 0.2998 0.3294 0.8953
vn -0.1420 0.2692 0.9526
vn -0.7414 -0.4950 0.4530
vn -0.8977 -0.2659 0.3514
vn -0.9433 -0.2378 -0.2316
vn -0.9879 0.0783 -0.1339
vn -0.4760 0.7987 -0.3681
vn -0.3436 0.9388 0.0228
vn -0.3175 0.8336 0.4519
vn -0.3677 0.7500 0.5498
vn -0.1994 0.7557 0.6239
vn -0.2453 0.6410 0.7273
vn -0.4443 0.5491 0.7079
vn -0.4734 0.4191 0.7747
vn -0.6809 0.2547 0.6867
vn -0.7665 0.2940 0.5710
vn -0.8774 0.1406 0.4587
vn -0.5115 0.7945 0.3273
vn -0.6683 0.6601 0.3430
vn -0.6646 0.6019 0.4427
vn -0.9341 0.1740 0.3118
vn -0.8764 0.3473 0.3337
vn -0.9090 0.3653 0.2006
vn 0.7224 -0.5811 -0.3749
vn 0.8725 -0.3786 -0.3088
vn 0.6292 -0.6410 -0.4395
vn 0.5587 -0.5580 -0.6136
vn 0.6088 -0.4474 -0.6551
vn 0.9913 -0.0976 -0.0887
vn 0.6642 -0.6341 0.3958
vn 0.2193 -0.9667 -0.1323
vn -0.0462 -0.2835 -0.9579
vn 0.3475 0.1702 -0.9221
vn 0.8599 -0.0435 0.5086
vn 0.3725 -0.6523 0.6601
vn -0.3531 -0.8920 -0.2822
vn -0.2810 0.1171 -0.9525
vn 0.3489 0.5582 -0.7528
vn 0.0400 0.2957 -0.9544
vn 0.1009 0.0291 -0.9945
vn -0.3160 -0.3694 -0.8739
vn -0.0237 -0.6804 -0.7325
vn 0.1648 -0.9354 0.3128
vn 0.4438 -0.8602 0.2513
vn 0.6684 -0.4441 0.5967
vn 0.8498 -0.4210 0.3172
vn 0.9232 0.3108 -0.2258
vn 0.7821 0.1489 -0.6052
vn 0.5756 -0.1935 -0.7945
vn 0.5388 -0.3256 -0.7769
vn 0.3893 -0.2845 -0.8761
vn 0.3304 -0.4301 -0.8401
vn 0.4392 -0.5614 -0.7014
vn 0.3697 -0.6765 -0.6370
vn 0.4655 -0.7892 -0.4006
vn 0.5881 -0.7366 -0.3340
vn 0.6222 -0.7736 -0.1199
vn 0.7414 -0.2242 -0.6325
vn 0.7836 -0.3742 -0.4960
vn 0.7186 -0.4680 -0.5144
vn 0.7285 -0.6839 -0.0389
vn 0.7737 -0.6021 -0.1971
vn 0.8487 -0.5150 -0.1203
s off
f 1//1 8//1 7//1
f 2//2 8//2 10//2
f 1//3 7//3 12//3
f 1//4 12//4 14//4
f 1//5 14//5 11//5
f 2//6 10//6 17//6
f 3//7 9//7 19//7
f 4//8 13//8 21//8
f 5//9 15//9 23//9
f 6//10 16//10 25//10
f 2//11 17//11 20//11
f 3//12 19//12 22//12
f 4//13 21//13 24//13
f 5//14 23//14 26//14
f 6//15 25//15 18//15
f 25//16 16//16 26//16
f 16//17 5//17 26//17
f 23//18 15//18 24//18
f 15//19 4//19 24//19
f 21//20 13//20 22//20
f 13//21 3//21 22//21
f 19//22 9//22 20//22
f 9//23 2//23 20//23
f 17//24 10//24 18//24
f 10//25 6//25 18//25
f 11//26 16//26 6//26
f 11//27 14//27 16//27
f 14//28 5//28 16//28
f 14//29 15//29 5//29
f 14//30 12//30 15//30
f 12//31 4//31 15//31
f 12//32 13//32 4//32
f 12//33 7//33 13//33
f 7//34 3//34 13//34
f 10//35 11//35 6//35
f 10//36 8//36 11//36
f 8//37 1//37 11//37
f 7//38 9//38 3//38
f 7//39 8//39 9//39
f 8//40 2//40 9//40
f 27//41 34//41 33//41
f 28//42 34//42 36//42
f 27//43 33//43 38//43
f 27//44 38//44 40//44
f 27//45 40//45 37//45
f 28//46 36//46 43//46
f 29//47 35//47 45//47
f 30//48 39//48 47//48
f 31//49 41//49 49//49
f 32//50 42//50 51//50
f 28//51 43//51 46//51
f 29//52 45//52 48//52
f 30//53 47//53 50//53
f 31//54 49//54 52//54
f 32//55 51//55 44//55
f 51//56 42//56 52//56
f 42//57 31//57 52//57
f 49//58 41//58 50//58
f 41//59 30//59 50//59
f 47//60 39//60 48//60
f 39//61 29//61 48//61
f 45//62 35//62 46//62
f 35//63 28//63 46//63
f 43//64 36//64 44//64
f 36//65 32//65 44//65
f 37//66 42//66 32//66
f 37//67 40//67 42//67
f 40//68 31//68 42//68
f 40//69 41//69 31//69
f 40//70 38//70 41//70
f 38//71 30//71 41//71
f 38//72 39//72 30//72
f 38//73 33//73 39//73
f 33//74 29//74 39//74
f 36//75 37//75 32//75
f 36//76 34//76 37//76
f 34//77 27//77 37//77
f 33//78 35//78 29//78
f 33//79 34//79 35//79
f 34//80 28//80 35//80
f 53//81 66//81 65//81
f 54//82 66//82 68//82
f 53//83 65//83 70//83
f 53//84 70//84 72//84
f 53//85 72//85 69//85
f 54//86 68//86 75//86
f 55//87 67//87 77//87
f 56//88 71//88 79//88
f 57//89 73//89 81//89
f 58//90 74//90 83//90
f 54//91 75//91 78//91
f 55//92 77//92 80//92
f 56//93 79//93 82//93
f 57//94 81//94 84//94
f 58//95 83//95 76//95
f 59//96 85//96 90//96
f 60//97 86//97 92//97
f 61//98 87//98 93//98
f 62//99 88//99 94//99
f 63//100 89//100 91//100
f 91//101 94//101 64//101
f 91//102 89//102 94//102
f 89//103 62//103 94//103
f 94//104 93//104 64//104
f 94//105 88//105 93//105
f 88//106 61//106 93//106
f 93//107 92//107 64//107
f 93//108 87//108 92//108
f 87//109 60//109 92//109
f 92//110 90//110 64//110
f 92//111 86//111 90//111
f 86//112 59//112 90//112
f 90//113 91//113 64//113
f 90//114 85//114 91//114
f 85//115 63//115 91//115
f 76//116 89//116 63//116
f 76//117 83//117 89//117
f 83//118 62//118 89//118
f 84//119 88//119 62//119
f 84//120 81//120 88//120
f 81//121 61//121 88//121
f 82//122 87//122 61//122
f 82//123 79//123 87//123
f 79//124 60//124 87//124
f 80//125 86//125 60//125
f 80//126 77//126 86//126
f 77//127 59//127 86//127
f 78//128 85//128 59//128
f 78//129 75//129 85//129
f 75//130 63//130 85//130
f 83//131 84//131 62//131
f 83//132 74//132 84//132
f 74//133 57//133 84//133
f 81//134 82//134 61//134
f 81//135 73//135 82//135
f 73//136 56//136 82//136
f 79//137 80//137 60//137
f 79//138 71//138 80//138
f 71//139 55//139 80//139
f 77//140 78//140 59//140
f 77//141 67//141 78//141
f 67//142 54//142 78//142
f 75//143 76//143 63//143
f 75//144 68//144 76//144
f 68//145 58//145 76//145
f 69//146 74//146 58//146
f 69//147 72//147 74//147
f 72//148 57//148 74//148
f 72//149 73//149 57//149
f 72//150 70//150 73//150
f 70//151 56//151 73//151
f 70//152 71//152 56//152
f 70//153 65//153 71//153
f 65//154 55//154 71//154
f 68//155 69//155 58//155
f 68//156 66//156 69//156
f 66//157 53//157 69//157
f 65//158 67//158 55//158
f 65//159 66//159 67//159
f 66//160 54//160 67//160
f 95//161 102//161 101//161
f 96//162 102//162 104//162
f 95//163 101//163 106//163
f 95//164 106//164 108//164
f 95//165 108//165 105//165
f 96//166 104//166 111//166
f 97//167 103//167 113//167
f 98//168 107//168 115//168
f 99//169 109//169 117//169
f 100//170 110//170 119//170
f 96//171 111//171 114//171
f 97//172 113//172 116//172
f 98//173 115//173 118//173
f 99//174 117//174 120//174
f 100//175 119//175 112//175
f 119//176 110//176 120//176
f 110//177 99//177 120//177
f 117//178 109//178 118//178
f 109//179 98//179 118//179
f 115//180 107//180 116//180
f 107//181 97//181 116//181
f 113//182 103//182 114//182
f 103//183 96//183 114//183
f 111//184 104//184 112//184
f 104//185 100//185 112//185
f 105//186 110//186 100//186
f 105//187 108//187 110//187
f 108//188 99//188 110//188
f 108//189 109//189 99//189
f 108//190 106//190 109//190
f 106//191 98//191 109//191
f 106//192 107//192 98//192
f 106//193 101//193 107//193
f 101//194 97//194 107//194
f 104//195 105//195 100//195
f 104//196 102//196 105//196
f 102//197 95//197 105//197
f 101//198 103//198 97//198
f 101//199 102//199 103//199
f 102//200 96//200 103//200
f 121//201 128//201 127//201
f 122//202 128//202 130//202
f 121//203 127//203 132//203
f 121//204 132//204 134//204
f 121//205 134//205 131//205
f 122//206 130//206 137//206
f 123//207 129//207 139//207
f 124//208 133//208 141//208
f 125//209 135//209 143//209
f 126//210 136//210 145//210
f 122//211 137//211 140//211
f 123//212 139//212 142//212
f 124//213 141//213 144//213
f 125//214 143//214 146//214
f 126//215 145//215 138//215
f 145//216 136//216 146//216
f 136//217 125//217 146//217
f 143//218 135//218 144//218
f 135//219 124//219 144//219
f 141//220 133//220 142//220
f 133//221 123//221 142//221
f 139//222 129//222 140//222
f 129//223 122//223 140//223
f 137//224 130//224 138//224
f 130//225 126//225 138//225
f 131//226 136//226 126//226
f 131//227 134//227 136//227
f 134//228 125//228 136//228
f 134//229 135//229 125//229
f 134//230 132//230 135//230
f 132//231 124//231 135//231
f 132//232 133//232 124//232
f 132//233 127//233 133//233
f 127//234 123//234 133//234
f 130//235 131//235 126//235
f 130//236 128//236 131//236
f 128//237 121//237 131//237
f 127//238 129//238 123//238
f 127//239 128//239 129//239
f 128//240 122//240 129//240
