# Blender v2.80 (sub 75) OBJ File: 'field.blend'
# www.blender.org
v -0.465598 6.180439 -3.227575
v 22.806963 -6.641429 2.311621
v 15.239662 10.367552 6.978326
v 7.101703 -10.828541 -7.894280
v 14.780240 -14.484278 17.881109
v -0.925020 -18.671389 7.675209
v 7.212939 2.524703 22.547815
v -8.492321 -1.662409 12.341915
vn 0.4182 0.4086 -0.8112
vn 0.3943 -0.8862 -0.2432
vn -0.4182 -0.4086 0.8112
vn -0.3943 0.8862 0.2432
vn 0.8183 0.2182 0.5318
vn -0.8183 -0.2182 -0.5318
s 1
f 1//1 3//1 2//1
f 4//2 2//2 5//2
f 6//3 5//3 7//3
f 8//4 7//4 3//4
f 5//5 2//5 3//5
f 4//6 6//6 8//6
f 1//1 2//1 4//1
f 4//2 5//2 6//2
f 6//3 7//3 8//3
f 8//4 3//4 1//4
f 5//5 3//5 7//5
f 4//6 8//6 1//6
