# Blender v2.80 (sub 75) OBJ File: 'field.blend'
# www.blender.org
v -21.365805 -21.156385 6.085845
v -21.865643 -21.156385 6.073139
v -21.365805 -21.356384 6.085845
v -21.865643 -21.356384 6.073139
v -21.238754 -21.156385 1.087459
v -21.738592 -21.156385 1.074753
v -21.238754 -21.356384 1.087459
v -21.738592 -21.356384 1.074753
v -21.621328 -21.156385 6.299954
v -21.621328 -21.356384 6.299954
v -21.488672 -21.356384 1.081106
v -21.488672 -21.156385 1.081106
v -26.419659 -21.156385 6.271573
v -26.919497 -21.156385 6.258867
v -26.419659 -21.356384 6.271573
v -26.919497 -21.356386 6.258867
v -26.292608 -21.156385 1.273187
v -26.792446 -21.156385 1.260481
v -26.292608 -21.356384 1.273187
v -26.792446 -21.356386 1.260481
v -26.675182 -21.156385 6.485683
v -26.675182 -21.356384 6.485683
v -26.542526 -21.356384 1.266834
v -26.542526 -21.156385 1.266834
v -16.284546 -21.156384 6.453388
v -16.784384 -21.156384 6.440682
v -16.284546 -21.356384 6.453388
v -16.784384 -21.356384 6.440682
v -16.157495 -21.156384 1.455002
v -16.657333 -21.156384 1.442296
v -16.157495 -21.356384 1.455002
v -16.657333 -21.356384 1.442296
v -16.540070 -21.156384 6.667498
v -16.540070 -21.356384 6.667498
v -16.407413 -21.356384 1.448649
v -16.407413 -21.156384 1.448649
v -11.117027 -21.156384 6.636910
v -11.616867 -21.156384 6.624205
v -11.117027 -21.356384 6.636910
v -11.616867 -21.356384 6.624205
v -10.989975 -21.156384 1.638524
v -11.489815 -21.156384 1.625819
v -10.989975 -21.356384 1.638524
v -11.489815 -21.356384 1.625819
v -11.372551 -21.156384 6.851021
v -11.372551 -21.356384 6.851021
v -11.239895 -21.356384 1.632172
v -11.239895 -21.156384 1.632172
v -26.624781 -21.374554 3.686966
v -26.630438 -21.374554 3.186998
v -26.624781 -21.574554 3.686966
v -26.630438 -21.574554 3.186998
v -21.625101 -21.374554 3.630395
v -21.630758 -21.374554 3.130427
v -21.625101 -21.574554 3.630395
v -21.630758 -21.574554 3.130427
v -21.551125 -21.374554 3.597713
v -21.513203 -21.374554 3.099153
v -21.551125 -21.574554 3.597713
v -21.513203 -21.574554 3.099153
v -16.565525 -21.374554 3.976920
v -16.527603 -21.374554 3.478359
v -16.565525 -21.574553 3.976920
v -16.527603 -21.574553 3.478359
v -21.549736 -21.374554 5.588065
v -21.542854 -21.374554 5.088113
v -21.549736 -21.574554 5.588065
v -21.542854 -21.574554 5.088113
v -16.550209 -21.374554 5.656893
v -16.543327 -21.374554 5.156940
v -16.550209 -21.574553 5.656893
v -16.543327 -21.574553 5.156940
v -26.687931 -21.374554 5.154550
v -26.644245 -21.374554 4.656461
v -26.687931 -21.574554 5.154550
v -26.644245 -21.574554 4.656461
v -21.707050 -21.374554 5.591393
v -21.663364 -21.374554 5.093305
v -21.707050 -21.574554 5.591393
v -21.663364 -21.574554 5.093305
v -16.437252 -21.374554 5.622769
v -16.410448 -21.374554 5.123488
v -16.437252 -21.574553 5.622769
v -16.410448 -21.574553 5.123488
v -11.444443 -21.374554 5.890804
v -11.417637 -21.374554 5.391523
v -11.444443 -21.574553 5.890804
v -11.417637 -21.574553 5.391523
v -11.247036 -21.374554 3.885059
v -11.223866 -21.374554 3.385596
v -11.247036 -21.574553 3.885059
v -11.223866 -21.574553 3.385596
v -6.252407 -21.374552 4.116752
v -6.229237 -21.374552 3.617289
v -6.252407 -21.574553 4.116752
v -6.229237 -21.574553 3.617289
v -16.398636 -21.374554 3.935108
v -16.398636 -21.374554 3.435108
v -16.398636 -21.574553 3.935108
v -16.398636 -21.574553 3.435108
v -11.398636 -21.374554 3.935109
v -11.398636 -21.374554 3.435109
v -11.398636 -21.574553 3.935109
v -11.398636 -21.574553 3.435109
v -0.950962 -21.374554 3.473051
v -0.950962 -21.374554 2.973051
v -0.950962 -21.574554 3.473051
v -0.950962 -21.574554 2.973051
v -5.950962 -21.374556 3.473051
v -5.950962 -21.374556 2.973051
v -5.950962 -21.574554 3.473051
v -5.950962 -21.574554 2.973051
v 22.387604 -21.156384 6.470368
v 21.887764 -21.156384 6.457663
v 22.387604 -21.356384 6.470368
v 21.887764 -21.356384 6.457663
v 22.514656 -21.156384 1.471983
v 22.014816 -21.156384 1.459278
v 22.514656 -21.356384 1.471983
v 22.014816 -21.356384 1.459278
v 22.132080 -21.156384 6.684479
v 22.132080 -21.356384 6.684479
v 22.264732 -21.356384 1.465630
v 22.264732 -21.156384 1.465630
v 17.333748 -21.156384 6.656096
v 16.833908 -21.156384 6.643391
v 17.333748 -21.356384 6.656096
v 16.833908 -21.356384 6.643391
v 17.460800 -21.156384 1.657711
v 16.960960 -21.156384 1.645005
v 17.460800 -21.356384 1.657711
v 16.960960 -21.356384 1.645005
v 17.078224 -21.156384 6.870207
v 17.078224 -21.356384 6.870207
v 17.210884 -21.356384 1.651358
v 17.210884 -21.156384 1.651358
v 27.468864 -21.156384 6.837912
v 26.969025 -21.156384 6.825206
v 27.468864 -21.356382 6.837912
v 26.969025 -21.356382 6.825206
v 27.595909 -21.156384 1.839526
v 27.096077 -21.156384 1.826820
v 27.595909 -21.356382 1.839526
v 27.096077 -21.356382 1.826820
v 27.213341 -21.156384 7.052022
v 27.213341 -21.356382 7.052022
v 27.345993 -21.356382 1.833173
v 27.345993 -21.156384 1.833173
v 32.636375 -21.156382 7.021434
v 32.136543 -21.156384 7.008729
v 32.636375 -21.356382 7.021434
v 32.136543 -21.356382 7.008729
v 32.763435 -21.156382 2.023048
v 32.263588 -21.156384 2.010343
v 32.763435 -21.356382 2.023048
v 32.263588 -21.356382 2.010343
v 32.380852 -21.156384 7.235544
v 32.380852 -21.356382 7.235544
v 32.513512 -21.356382 2.016696
v 32.513512 -21.156382 2.016696
v 17.128624 -21.374554 4.071490
v 17.122971 -21.374554 3.571522
v 17.128624 -21.574553 4.071490
v 17.122971 -21.574553 3.571522
v 22.128304 -21.374552 4.014919
v 22.122650 -21.374552 3.514951
v 22.128304 -21.574553 4.014919
v 22.122650 -21.574553 3.514951
v 22.202278 -21.374552 3.982237
v 22.240204 -21.374552 3.483677
v 22.202278 -21.574553 3.982237
v 22.240204 -21.574553 3.483677
v 27.187881 -21.374552 4.361444
v 27.225807 -21.374552 3.862884
v 27.187881 -21.574553 4.361444
v 27.225807 -21.574553 3.862884
v 22.203667 -21.374552 5.972589
v 22.210548 -21.374552 5.472637
v 22.203667 -21.574553 5.972589
v 22.210548 -21.574553 5.472637
v 27.203194 -21.374552 6.041416
v 27.210075 -21.374552 5.541464
v 27.203194 -21.574553 6.041416
v 27.210075 -21.574553 5.541464
v 17.065475 -21.374554 5.539073
v 17.109161 -21.374554 5.040985
v 17.065475 -21.574553 5.539073
v 17.109161 -21.574553 5.040985
v 22.046356 -21.374552 5.975916
v 22.090042 -21.374552 5.477828
v 22.046356 -21.574553 5.975916
v 22.090042 -21.574553 5.477828
v 27.316154 -21.374552 6.007293
v 27.342957 -21.374552 5.508012
v 27.316154 -21.574553 6.007293
v 27.342957 -21.574553 5.508012
v 32.308968 -21.374552 6.275329
v 32.335770 -21.374552 5.776048
v 32.308968 -21.574551 6.275329
v 32.335770 -21.574551 5.776048
v 32.518379 -21.374552 6.250097
v 32.541550 -21.374552 5.750635
v 32.518379 -21.574551 6.250097
v 32.541550 -21.574551 5.750635
v 37.513008 -21.374552 6.481790
v 37.536179 -21.374552 5.982327
v 37.513008 -21.574551 6.481790
v 37.536179 -21.574551 5.982327
v 27.354774 -21.374552 4.319633
v 27.354774 -21.374552 3.819633
v 27.354774 -21.574553 4.319633
v 27.354774 -21.574553 3.819633
v 32.354774 -21.374552 4.319633
v 32.354774 -21.374552 3.819633
v 32.354774 -21.574551 4.319633
v 32.354774 -21.574551 3.819633
v -6.389965 -21.156385 6.463505
v -5.890125 -21.156385 6.476210
v -6.389965 -21.356386 6.463505
v -5.890125 -21.356386 6.476210
v -6.262913 -21.156385 1.465119
v -5.763073 -21.156385 1.477824
v -6.262913 -21.356386 1.465119
v -5.763073 -21.356386 1.477824
v -6.145649 -21.156385 6.690320
v -6.145649 -21.356386 6.690320
v -6.012993 -21.356386 1.471472
v -6.012993 -21.156385 1.471472
v 3.873783 -21.156385 6.425559
v 4.373623 -21.156385 6.438264
v 3.873783 -21.356384 6.425559
v 4.373623 -21.356384 6.438264
v 4.000835 -21.156385 1.427173
v 4.500675 -21.156385 1.439878
v 4.000835 -21.356384 1.427173
v 4.500675 -21.356384 1.439878
v 4.118099 -21.156385 6.652374
v 4.118099 -21.356384 6.652374
v 4.250755 -21.356384 1.433526
v 4.250755 -21.156385 1.433526
v 8.922493 -21.156385 6.442295
v 9.422333 -21.156385 6.455000
v 8.922493 -21.356384 6.442295
v 9.422333 -21.356384 6.455000
v 9.049545 -21.156385 1.443909
v 9.549381 -21.156385 1.456614
v 9.049545 -21.356384 1.443909
v 9.549381 -21.356384 1.456614
v 9.166809 -21.156385 6.669110
v 9.166809 -21.356384 6.669110
v 9.299461 -21.356384 1.450262
v 9.299461 -21.156385 1.450262
v -1.216621 -21.156385 6.417857
v -0.716782 -21.156385 6.430563
v -1.216621 -21.356386 6.417857
v -0.716782 -21.356386 6.430563
v -1.089569 -21.156385 1.419472
v -0.589733 -21.156385 1.432177
v -1.089569 -21.356386 1.419472
v -0.589733 -21.356386 1.432177
v -0.972305 -21.156385 6.644673
v -0.972305 -21.356386 6.644673
v -0.839653 -21.356386 1.425825
v -0.839653 -21.156385 1.425825
v 9.261814 -21.374554 3.851620
v 9.288876 -21.374554 3.352353
v 9.261814 -21.574553 3.851620
v 9.288876 -21.574553 3.352353
v 4.269142 -21.374554 3.581005
v 4.296204 -21.374554 3.081738
v 4.269142 -21.574554 3.581005
v 4.296204 -21.574554 3.081738
v 4.188267 -21.374554 3.609705
v 4.192741 -21.374554 3.109725
v 4.188267 -21.574554 3.609705
v 4.192741 -21.574554 3.109725
v -0.811535 -21.374554 3.564953
v -0.807060 -21.374554 3.064973
v -0.811535 -21.574554 3.564953
v -0.807060 -21.574554 3.064973
v 4.100883 -21.374554 5.454190
v 4.107769 -21.374554 4.954238
v 4.100883 -21.574554 5.454190
v 4.107769 -21.574554 4.954238
v -0.898640 -21.374554 5.385363
v -0.891758 -21.374554 4.885410
v -0.898640 -21.574554 5.385363
v -0.891758 -21.574554 4.885410
v 9.233192 -21.374554 5.490200
v 9.244820 -21.374554 4.990335
v 9.233192 -21.574553 5.490200
v 9.244820 -21.574553 4.990335
v 4.234547 -21.374554 5.373917
v 4.246174 -21.374554 4.874052
v 4.234547 -21.574554 5.373917
v 4.246174 -21.574554 4.874052
v -1.019897 -21.374554 5.341182
v -1.010490 -21.374554 4.841270
v -1.019897 -21.574554 5.341182
v -1.010490 -21.574554 4.841270
v -6.019012 -21.374556 5.247128
v -6.009605 -21.374556 4.747216
v -6.019012 -21.574554 5.247128
v -6.009605 -21.574554 4.747216
v -6.218487 -21.374556 5.134773
v -6.216507 -21.374556 4.634777
v -6.218487 -21.574554 5.134773
v -6.216507 -21.574554 4.634777
v -11.218445 -21.374556 5.114972
v -11.216469 -21.374556 4.614976
v -11.218445 -21.574554 5.114972
v -11.216469 -21.574554 4.614976
vn -0.6804 0.0000 0.7329
vn 0.0000 -1.0000 0.0000
vn 0.0254 0.0000 -0.9997
vn 0.0000 1.0000 0.0000
vn 0.9997 0.0000 0.0254
vn -0.9997 0.0000 -0.0254
vn 0.6423 0.0000 0.7665
vn -0.9999 0.0000 0.0113
vn 0.0113 0.0000 0.9999
vn -0.0113 0.0000 -0.9999
vn 0.9999 0.0000 -0.0113
vn -0.9971 0.0000 -0.0758
vn -0.0758 0.0000 0.9971
vn 0.0758 0.0000 -0.9971
vn 0.9971 0.0000 0.0758
vn -0.9999 0.0000 -0.0138
vn -0.0138 0.0000 0.9999
vn 0.0138 0.0000 -0.9999
vn 0.9999 0.0000 0.0138
vn -0.9962 0.0000 -0.0874
vn -0.0874 0.0000 0.9962
vn 0.0874 0.0000 -0.9962
vn 0.9962 0.0000 0.0874
vn -0.9986 0.0000 -0.0536
vn -0.0536 0.0000 0.9986
vn 0.0536 0.0000 -0.9986
vn 0.9986 0.0000 0.0536
vn -0.9989 0.0000 -0.0463
vn -0.0463 0.0000 0.9989
vn 0.0463 0.0000 -0.9989
vn 0.9989 0.0000 0.0463
vn -1.0000 0.0000 0.0000
vn -0.0000 0.0000 1.0000
vn 0.0000 0.0000 -1.0000
vn 1.0000 0.0000 0.0000
vn -0.9971 0.0000 -0.0759
vn 0.9971 0.0000 0.0759
vn 0.9985 0.0000 0.0541
vn -0.0541 0.0000 0.9985
vn 0.0541 0.0000 -0.9985
vn -0.9985 0.0000 -0.0541
vn 1.0000 0.0000 0.0089
vn -0.0090 0.0000 1.0000
vn 0.0090 0.0000 -1.0000
vn -1.0000 0.0000 -0.0089
vn 0.9997 0.0000 0.0233
vn -0.0233 0.0000 0.9997
vn 0.0233 0.0000 -0.9997
vn -0.9997 0.0000 -0.0233
vn 0.9998 0.0000 0.0188
vn -0.0188 0.0000 0.9998
vn 0.0188 0.0000 -0.9998
vn -0.9998 0.0000 -0.0188
vn 1.0000 0.0000 0.0040
vn -0.0040 0.0000 1.0000
vn 0.0040 0.0000 -1.0000
vn -1.0000 0.0000 -0.0040
s off
f 10//1 9//1 2//1
f 11//2 10//2 4//2
f 12//3 11//3 8//3
f 12//4 6//4 2//4
f 1//5 3//5 7//5
f 6//6 8//6 4//6
f 1//4 5//4 12//4
f 5//3 7//3 11//3
f 3//2 10//2 11//2
f 3//7 1//7 9//7
f 22//1 21//1 14//1
f 23//2 22//2 16//2
f 24//3 23//3 20//3
f 24//4 18//4 14//4
f 13//5 15//5 19//5
f 18//6 20//6 16//6
f 13//4 17//4 24//4
f 17//3 19//3 23//3
f 15//2 22//2 23//2
f 15//7 13//7 21//7
f 34//1 33//1 26//1
f 35//2 34//2 28//2
f 36//3 35//3 32//3
f 36//4 30//4 26//4
f 25//5 27//5 31//5
f 30//6 32//6 28//6
f 25//4 29//4 36//4
f 29//3 31//3 35//3
f 27//2 34//2 35//2
f 27//7 25//7 33//7
f 46//1 45//1 38//1
f 47//2 46//2 40//2
f 48//3 47//3 44//3
f 48//4 42//4 38//4
f 37//5 39//5 43//5
f 42//6 44//6 40//6
f 37//4 41//4 48//4
f 41//3 43//3 47//3
f 39//2 46//2 47//2
f 39//7 37//7 45//7
f 50//4 49//4 53//4
f 52//8 51//8 49//8
f 49//9 51//9 55//9
f 54//10 56//10 52//10
f 54//11 53//11 55//11
f 55//2 51//2 52//2
f 62//4 58//4 57//4
f 60//12 59//12 57//12
f 57//13 59//13 63//13
f 62//14 64//14 60//14
f 62//15 61//15 63//15
f 64//2 63//2 59//2
f 70//4 66//4 65//4
f 68//16 67//16 65//16
f 65//17 67//17 71//17
f 70//18 72//18 68//18
f 70//19 69//19 71//19
f 72//2 71//2 67//2
f 78//4 74//4 73//4
f 76//20 75//20 73//20
f 73//21 75//21 79//21
f 78//22 80//22 76//22
f 78//23 77//23 79//23
f 80//2 79//2 75//2
f 86//4 82//4 81//4
f 84//24 83//24 81//24
f 81//25 83//25 87//25
f 86//26 88//26 84//26
f 86//27 85//27 87//27
f 88//2 87//2 83//2
f 94//4 90//4 89//4
f 92//28 91//28 89//28
f 89//29 91//29 95//29
f 94//30 96//30 92//30
f 94//31 93//31 95//31
f 96//2 95//2 91//2
f 102//4 98//4 97//4
f 100//32 99//32 97//32
f 97//33 99//33 103//33
f 102//34 104//34 100//34
f 102//35 101//35 103//35
f 104//2 103//2 99//2
f 105//4 106//4 110//4
f 105//35 107//35 108//35
f 111//33 107//33 105//33
f 108//34 112//34 110//34
f 111//32 109//32 110//32
f 107//2 111//2 112//2
f 122//1 121//1 114//1
f 123//2 122//2 116//2
f 124//3 123//3 120//3
f 124//4 118//4 114//4
f 113//5 115//5 119//5
f 118//6 120//6 116//6
f 113//4 117//4 124//4
f 117//3 119//3 123//3
f 115//2 122//2 123//2
f 115//7 113//7 121//7
f 134//1 133//1 126//1
f 135//2 134//2 128//2
f 136//3 135//3 132//3
f 136//4 130//4 126//4
f 125//5 127//5 131//5
f 130//6 132//6 128//6
f 125//4 129//4 136//4
f 129//3 131//3 135//3
f 127//2 134//2 135//2
f 127//7 125//7 133//7
f 146//1 145//1 138//1
f 147//2 146//2 140//2
f 148//3 147//3 144//3
f 148//4 142//4 138//4
f 137//5 139//5 143//5
f 142//6 144//6 140//6
f 137//4 141//4 148//4
f 141//3 143//3 147//3
f 139//2 146//2 147//2
f 139//7 137//7 145//7
f 158//1 157//1 150//1
f 159//2 158//2 152//2
f 160//3 159//3 156//3
f 160//4 154//4 150//4
f 149//5 151//5 155//5
f 154//6 156//6 152//6
f 149//4 153//4 160//4
f 153//3 155//3 159//3
f 151//2 158//2 159//2
f 151//7 149//7 157//7
f 162//4 161//4 165//4
f 164//8 163//8 161//8
f 161//9 163//9 167//9
f 166//10 168//10 164//10
f 166//11 165//11 167//11
f 167//2 163//2 164//2
f 174//4 170//4 169//4
f 172//36 171//36 169//36
f 169//13 171//13 175//13
f 174//14 176//14 172//14
f 174//37 173//37 175//37
f 176//2 175//2 171//2
f 182//4 178//4 177//4
f 180//16 179//16 177//16
f 177//17 179//17 183//17
f 182//18 184//18 180//18
f 182//19 181//19 183//19
f 184//2 183//2 179//2
f 190//4 186//4 185//4
f 188//20 187//20 185//20
f 185//21 187//21 191//21
f 190//22 192//22 188//22
f 190//23 189//23 191//23
f 192//2 191//2 187//2
f 198//4 194//4 193//4
f 196//24 195//24 193//24
f 193//25 195//25 199//25
f 198//26 200//26 196//26
f 198//27 197//27 199//27
f 200//2 199//2 195//2
f 206//4 202//4 201//4
f 204//28 203//28 201//28
f 201//29 203//29 207//29
f 206//30 208//30 204//30
f 206//31 205//31 207//31
f 208//2 207//2 203//2
f 214//4 210//4 209//4
f 212//32 211//32 209//32
f 209//33 211//33 215//33
f 214//34 216//34 212//34
f 214//35 213//35 215//35
f 216//2 215//2 211//2
f 218//7 225//7 226//7
f 220//2 226//2 227//2
f 224//3 227//3 228//3
f 228//4 225//4 218//4
f 223//6 219//6 217//6
f 220//5 224//5 222//5
f 228//4 221//4 217//4
f 227//3 223//3 221//3
f 219//2 223//2 227//2
f 225//1 217//1 219//1
f 230//7 237//7 238//7
f 232//2 238//2 239//2
f 236//3 239//3 240//3
f 240//4 237//4 230//4
f 235//6 231//6 229//6
f 232//5 236//5 234//5
f 240//4 233//4 229//4
f 239//3 235//3 233//3
f 231//2 235//2 239//2
f 237//1 229//1 231//1
f 242//7 249//7 250//7
f 244//2 250//2 251//2
f 248//3 251//3 252//3
f 252//4 249//4 242//4
f 247//6 243//6 241//6
f 244//5 248//5 246//5
f 252//4 245//4 241//4
f 251//3 247//3 245//3
f 243//2 247//2 251//2
f 249//1 241//1 243//1
f 254//7 261//7 262//7
f 256//2 262//2 263//2
f 260//3 263//3 264//3
f 264//4 261//4 254//4
f 259//6 255//6 253//6
f 256//5 260//5 258//5
f 264//4 257//4 253//4
f 263//3 259//3 257//3
f 255//2 259//2 263//2
f 261//1 253//1 255//1
f 266//4 270//4 269//4
f 265//38 267//38 268//38
f 271//39 267//39 265//39
f 268//40 272//40 270//40
f 271//41 269//41 270//41
f 271//2 272//2 268//2
f 274//4 278//4 277//4
f 273//42 275//42 276//42
f 279//43 275//43 273//43
f 276//44 280//44 278//44
f 279//45 277//45 278//45
f 279//2 280//2 276//2
f 282//4 286//4 285//4
f 281//19 283//19 284//19
f 287//17 283//17 281//17
f 284//18 288//18 286//18
f 287//16 285//16 286//16
f 287//2 288//2 284//2
f 290//4 294//4 293//4
f 289//46 291//46 292//46
f 295//47 291//47 289//47
f 292//48 296//48 294//48
f 295//49 293//49 294//49
f 295//2 296//2 292//2
f 298//4 302//4 301//4
f 297//50 299//50 300//50
f 303//51 299//51 297//51
f 300//52 304//52 302//52
f 303//53 301//53 302//53
f 303//2 304//2 300//2
f 306//4 310//4 309//4
f 305//54 307//54 308//54
f 311//55 307//55 305//55
f 308//56 312//56 310//56
f 311//57 309//57 310//57
f 311//2 312//2 308//2
f 10//1 2//1 4//1
f 11//2 4//2 8//2
f 12//3 8//3 6//3
f 12//4 2//4 9//4
f 1//5 7//5 5//5
f 6//6 4//6 2//6
f 1//4 12//4 9//4
f 5//3 11//3 12//3
f 3//2 11//2 7//2
f 3//7 9//7 10//7
f 22//1 14//1 16//1
f 23//2 16//2 20//2
f 24//3 20//3 18//3
f 24//4 14//4 21//4
f 13//5 19//5 17//5
f 18//6 16//6 14//6
f 13//4 24//4 21//4
f 17//3 23//3 24//3
f 15//2 23//2 19//2
f 15//7 21//7 22//7
f 34//1 26//1 28//1
f 35//2 28//2 32//2
f 36//3 32//3 30//3
f 36//4 26//4 33//4
f 25//5 31//5 29//5
f 30//6 28//6 26//6
f 25//4 36//4 33//4
f 29//3 35//3 36//3
f 27//2 35//2 31//2
f 27//7 33//7 34//7
f 46//1 38//1 40//1
f 47//2 40//2 44//2
f 48//3 44//3 42//3
f 48//4 38//4 45//4
f 37//5 43//5 41//5
f 42//6 40//6 38//6
f 37//4 48//4 45//4
f 41//3 47//3 48//3
f 39//2 47//2 43//2
f 39//7 45//7 46//7
f 50//4 53//4 54//4
f 52//8 49//8 50//8
f 49//9 55//9 53//9
f 54//10 52//10 50//10
f 54//11 55//11 56//11
f 55//2 52//2 56//2
f 62//4 57//4 61//4
f 60//12 57//12 58//12
f 57//13 63//13 61//13
f 62//14 60//14 58//14
f 62//15 63//15 64//15
f 64//2 59//2 60//2
f 70//4 65//4 69//4
f 68//16 65//16 66//16
f 65//17 71//17 69//17
f 70//18 68//18 66//18
f 70//19 71//19 72//19
f 72//2 67//2 68//2
f 78//4 73//4 77//4
f 76//20 73//20 74//20
f 73//21 79//21 77//21
f 78//22 76//22 74//22
f 78//23 79//23 80//23
f 80//2 75//2 76//2
f 86//4 81//4 85//4
f 84//24 81//24 82//24
f 81//25 87//25 85//25
f 86//26 84//26 82//26
f 86//27 87//27 88//27
f 88//2 83//2 84//2
f 94//4 89//4 93//4
f 92//28 89//28 90//28
f 89//29 95//29 93//29
f 94//30 92//30 90//30
f 94//31 95//31 96//31
f 96//2 91//2 92//2
f 102//4 97//4 101//4
f 100//32 97//32 98//32
f 97//33 103//33 101//33
f 102//34 100//34 98//34
f 102//35 103//35 104//35
f 104//2 99//2 100//2
f 105//4 110//4 109//4
f 105//35 108//35 106//35
f 111//33 105//33 109//33
f 108//34 110//34 106//34
f 111//32 110//32 112//32
f 107//2 112//2 108//2
f 122//1 114//1 116//1
f 123//2 116//2 120//2
f 124//3 120//3 118//3
f 124//4 114//4 121//4
f 113//5 119//5 117//5
f 118//6 116//6 114//6
f 113//4 124//4 121//4
f 117//3 123//3 124//3
f 115//2 123//2 119//2
f 115//7 121//7 122//7
f 134//1 126//1 128//1
f 135//2 128//2 132//2
f 136//3 132//3 130//3
f 136//4 126//4 133//4
f 125//5 131//5 129//5
f 130//6 128//6 126//6
f 125//4 136//4 133//4
f 129//3 135//3 136//3
f 127//2 135//2 131//2
f 127//7 133//7 134//7
f 146//1 138//1 140//1
f 147//2 140//2 144//2
f 148//3 144//3 142//3
f 148//4 138//4 145//4
f 137//5 143//5 141//5
f 142//6 140//6 138//6
f 137//4 148//4 145//4
f 141//3 147//3 148//3
f 139//2 147//2 143//2
f 139//7 145//7 146//7
f 158//1 150//1 152//1
f 159//2 152//2 156//2
f 160//3 156//3 154//3
f 160//4 150//4 157//4
f 149//5 155//5 153//5
f 154//6 152//6 150//6
f 149//4 160//4 157//4
f 153//3 159//3 160//3
f 151//2 159//2 155//2
f 151//7 157//7 158//7
f 162//4 165//4 166//4
f 164//8 161//8 162//8
f 161//9 167//9 165//9
f 166//10 164//10 162//10
f 166//11 167//11 168//11
f 167//2 164//2 168//2
f 174//4 169//4 173//4
f 172//36 169//36 170//36
f 169//13 175//13 173//13
f 174//14 172//14 170//14
f 174//37 175//37 176//37
f 176//2 171//2 172//2
f 182//4 177//4 181//4
f 180//16 177//16 178//16
f 177//17 183//17 181//17
f 182//18 180//18 178//18
f 182//19 183//19 184//19
f 184//2 179//2 180//2
f 190//4 185//4 189//4
f 188//20 185//20 186//20
f 185//21 191//21 189//21
f 190//22 188//22 186//22
f 190//23 191//23 192//23
f 192//2 187//2 188//2
f 198//4 193//4 197//4
f 196//24 193//24 194//24
f 193//25 199//25 197//25
f 198//26 196//26 194//26
f 198//27 199//27 200//27
f 200//2 195//2 196//2
f 206//4 201//4 205//4
f 204//28 201//28 202//28
f 201//29 207//29 205//29
f 206//30 204//30 202//30
f 206//31 207//31 208//31
f 208//2 203//2 204//2
f 214//4 209//4 213//4
f 212//32 209//32 210//32
f 209//33 215//33 213//33
f 214//34 212//34 210//34
f 214//35 215//35 216//35
f 216//2 211//2 212//2
f 218//7 226//7 220//7
f 220//2 227//2 224//2
f 224//3 228//3 222//3
f 228//4 218//4 222//4
f 223//6 217//6 221//6
f 220//5 222//5 218//5
f 228//4 217//4 225//4
f 227//3 221//3 228//3
f 219//2 227//2 226//2
f 225//1 219//1 226//1
f 230//7 238//7 232//7
f 232//2 239//2 236//2
f 236//3 240//3 234//3
f 240//4 230//4 234//4
f 235//6 229//6 233//6
f 232//5 234//5 230//5
f 240//4 229//4 237//4
f 239//3 233//3 240//3
f 231//2 239//2 238//2
f 237//1 231//1 238//1
f 242//7 250//7 244//7
f 244//2 251//2 248//2
f 248//3 252//3 246//3
f 252//4 242//4 246//4
f 247//6 241//6 245//6
f 244//5 246//5 242//5
f 252//4 241//4 249//4
f 251//3 245//3 252//3
f 243//2 251//2 250//2
f 249//1 243//1 250//1
f 254//7 262//7 256//7
f 256//2 263//2 260//2
f 260//3 264//3 258//3
f 264//4 254//4 258//4
f 259//6 253//6 257//6
f 256//5 258//5 254//5
f 264//4 253//4 261//4
f 263//3 257//3 264//3
f 255//2 263//2 262//2
f 261//1 255//1 262//1
f 266//4 269//4 265//4
f 265//38 268//38 266//38
f 271//39 265//39 269//39
f 268//40 270//40 266//40
f 271//41 270//41 272//41
f 271//2 268//2 267//2
f 274//4 277//4 273//4
f 273//42 276//42 274//42
f 279//43 273//43 277//43
f 276//44 278//44 274//44
f 279//45 278//45 280//45
f 279//2 276//2 275//2
f 282//4 285//4 281//4
f 281//19 284//19 282//19
f 287//17 281//17 285//17
f 284//18 286//18 282//18
f 287//16 286//16 288//16
f 287//2 284//2 283//2
f 290//4 293//4 289//4
f 289//46 292//46 290//46
f 295//47 289//47 293//47
f 292//48 294//48 290//48
f 295//49 294//49 296//49
f 295//2 292//2 291//2
f 298//4 301//4 297//4
f 297//50 300//50 298//50
f 303//51 297//51 301//51
f 300//52 302//52 298//52
f 303//53 302//53 304//53
f 303//2 300//2 299//2
f 306//4 309//4 305//4
f 305//54 308//54 306//54
f 311//55 305//55 309//55
f 308//56 310//56 306//56
f 311//57 310//57 312//57
f 311//2 308//2 307//2
