# Blender v2.80 (sub 75) OBJ File: 'field.blend'
# www.blender.org
v -7.748488 17.564831 -0.033751
v -7.897096 17.503979 -0.047273
v -7.863754 17.622135 -0.095773
v -7.979625 17.394552 0.104751
v -8.087736 17.862415 -0.023077
v -8.045740 17.838247 -0.075645
v -8.095423 17.844162 -0.084495
v -7.915839 17.562649 -0.075482
v -7.980626 17.638624 -0.067631
v -7.810754 17.612547 0.030973
v -7.816131 17.537952 0.047401
v -7.762760 17.540554 0.032020
v -7.899483 17.363457 0.021683
v -8.056727 17.372829 -0.030677
v -7.969001 17.445852 -0.040707
v -8.079532 17.747501 -0.129890
v -8.053644 17.724890 -0.131546
v -8.116908 17.715384 -0.052060
v -8.068702 17.502129 -0.033315
v -8.133097 17.558989 -0.059295
v -8.091309 17.597652 -0.051653
v -7.942275 17.314411 0.103684
v -7.891678 17.304344 0.103523
v -7.945204 17.379568 0.100245
v -8.053491 17.316399 -0.000799
v -8.083085 17.656885 0.016966
v -8.039549 17.596004 0.018887
v -8.075871 17.631218 -0.023528
v -8.142038 17.693466 -0.026657
v -8.159095 17.705765 0.066295
v -7.749682 17.522373 0.020245
v -7.800156 17.525948 0.038149
v -7.778881 17.486872 0.042576
v -7.859856 17.544020 0.054522
v -8.097883 17.679939 0.051873
v -7.769025 17.618069 -0.016529
v -7.791059 17.639503 -0.053295
v -7.877414 17.700775 -0.053211
v -8.253363 17.617493 0.100841
v -7.904512 17.415661 0.023706
v -7.952971 17.461140 -0.023851
v -8.043762 17.744167 -0.176303
v -8.056033 17.774109 -0.140700
v -8.027785 17.770094 -0.111237
v -8.043520 17.815695 0.058105
v -8.102015 17.856228 0.054409
v -7.936261 17.413942 0.088024
v -7.901773 17.400093 0.064985
v -7.957334 17.490713 0.043652
v -8.145772 17.743086 -0.017482
v -8.147323 17.793608 0.057804
v -8.158611 17.823959 -0.030335
v -7.934630 17.249752 0.087980
v -7.946771 17.284176 0.107996
v -8.008159 17.294601 0.081614
v -8.081580 17.435486 -0.029510
v -8.091535 17.381065 -0.007672
v -8.062631 17.563776 -0.037375
v -7.860329 17.688862 -0.015265
v -7.943220 17.772581 0.013934
v -8.197629 17.689629 0.118495
v -7.929662 17.526463 -0.051556
v -8.188901 17.693329 -0.049751
v -8.230201 17.664490 -0.048321
v -8.208952 17.711449 0.015669
v -8.160575 17.574879 -0.095439
v -8.217403 17.597820 -0.055294
v -8.158222 17.604782 -0.091474
v -8.148776 17.562078 -0.081878
v -8.176065 17.539566 -0.043771
v -7.859424 17.658144 -0.091184
v -7.931786 17.731087 -0.066900
v -8.029771 17.831497 0.044496
v -7.990938 17.341135 0.102326
v -8.059836 17.364946 0.065984
v -8.109070 17.393360 0.035243
v -7.768905 17.474098 0.028600
v -8.143003 17.614161 -0.090124
v -8.164452 17.676826 -0.056182
v -8.103054 17.635889 -0.051853
v -8.131450 17.575861 -0.109105
v -8.139299 17.588741 -0.116922
v -8.013621 17.618305 -0.044864
v -8.042281 17.613377 0.020486
v -8.204336 17.708427 0.083077
v -7.778287 17.448868 0.011464
v -7.736929 17.469780 0.022951
v -8.036914 17.714809 -0.086713
v -8.063963 17.703405 -0.072069
v -8.033712 17.735514 -0.115057
v -8.002880 17.817596 -0.064553
v -8.041206 17.850481 -0.025710
v -8.247750 17.670246 0.093283
v -7.988371 17.531084 0.004681
v -8.239684 17.693325 0.046020
v -7.910785 17.490839 0.015345
v -8.003241 17.495426 -0.028992
v -8.127037 17.819433 -0.095040
v -7.979622 17.752773 -0.074313
v -8.006829 17.675724 -0.065742
v -8.228350 17.690302 0.105128
v -8.120874 17.592772 -0.077991
v -8.117730 17.566002 -0.143076
v -8.143395 17.561111 -0.114649
v -8.134401 17.577118 -0.152426
v -8.141880 17.549278 -0.143386
v -8.042010 17.717968 -0.191142
v -8.103897 17.661901 0.068592
v -7.770972 17.599522 0.010617
v -7.896535 17.519184 0.055925
v -7.885234 17.265381 0.066423
v -8.164336 17.492561 -0.007306
v -7.791794 17.469269 0.027184
v -7.760721 17.454060 0.025880
v -8.145839 17.775387 -0.078911
v -8.026501 17.740429 -0.165795
v -8.023080 17.715221 -0.189897
v -8.030868 17.738785 -0.201673
v -7.956040 17.538116 0.036080
v -8.221149 17.557465 -0.016834
v -8.249825 17.612164 -0.009272
v -8.166840 17.476398 0.031895
v -8.121141 17.405045 0.020892
v -8.146025 17.838749 0.052000
v -8.133321 17.459602 0.065972
v -8.136518 17.851971 -0.012997
v -7.825153 17.449831 0.014626
v -7.820745 17.644718 0.015895
v -7.726436 17.509930 0.009645
v -7.805009 17.491760 0.042885
v -8.241470 17.638622 -0.042629
v -7.914932 17.284451 0.095606
v -8.227012 17.561853 0.043096
v -7.993754 17.571789 -0.011473
v -8.243604 17.638885 0.088834
v -8.225058 17.573114 0.082367
v -8.016537 17.284405 0.059151
v -8.006062 17.275717 0.033045
v -7.881245 17.263247 0.083438
v -7.867459 17.305233 0.082198
v -7.886577 17.292385 0.085334
v -8.121354 17.507069 -0.035176
v -7.800311 17.623497 -0.077822
v -7.920143 17.736332 0.011393
v -8.194447 17.535143 0.081588
v -8.059386 17.322098 0.039559
v -7.907359 17.247959 0.078138
vn 0.2557 -0.4274 -0.8672
vn 0.2519 -0.4278 -0.8681
vn 0.2555 -0.4266 -0.8676
vn 0.1653 0.9396 -0.2999
vn -0.2475 -0.1125 -0.9623
vn -0.2475 -0.1116 -0.9624
vn 0.2633 0.1866 0.9465
vn 0.2634 0.1893 0.9459
vn 0.2614 0.1906 0.9462
vn 0.2631 -0.4387 -0.8593
vn 0.2633 -0.4335 -0.8618
vn 0.2624 -0.4327 -0.8625
vn -0.5759 -0.6203 -0.5325
vn 0.2818 -0.1187 -0.9521
vn 0.2783 -0.1161 -0.9535
vn 0.2838 -0.1159 -0.9518
vn 0.0079 0.0482 0.9988
vn 0.0138 0.0533 0.9985
vn 0.0103 0.0476 0.9988
vn 0.2616 -0.4378 -0.8602
vn 0.7978 0.5636 -0.2140
vn 0.7955 0.5658 -0.2170
vn 0.7973 0.5643 -0.2144
vn 0.5349 0.8448 -0.0148
vn 0.5343 0.8452 -0.0125
vn 0.5345 0.8450 -0.0137
vn 0.3383 0.2857 0.8966
vn 0.5740 0.8088 0.1275
vn 0.5734 0.8093 0.1274
vn 0.7122 0.0259 -0.7015
vn 0.7125 0.0260 -0.7012
vn -0.7136 0.3952 -0.5784
vn -0.7108 0.3978 -0.5800
vn -0.7120 0.3935 -0.5816
vn 0.5437 0.7252 -0.4225
vn 0.6090 0.5149 0.6033
vn 0.6098 0.5156 0.6019
vn 0.6094 0.5154 0.6025
vn -0.9865 -0.1445 0.0766
vn -0.4053 -0.5621 0.7210
vn -0.5733 -0.2127 -0.7913
vn -0.5741 -0.2127 -0.7906
vn 0.3522 -0.0943 -0.9312
vn 0.3506 -0.0959 -0.9316
vn 0.3495 -0.0983 -0.9318
vn 0.6926 0.7161 -0.0869
vn -0.4952 -0.3396 -0.7997
vn -0.5396 0.7542 -0.3743
vn -0.5285 0.1523 -0.8352
vn 0.2898 -0.9004 -0.3244
vn 0.5117 0.6817 -0.5229
vn 0.2776 0.4767 0.8341
vn 0.1021 -0.0696 0.9923
vn 0.0999 -0.0657 0.9928
vn 0.1002 -0.0669 0.9927
vn 0.7212 -0.1710 0.6713
vn 0.4112 0.5390 -0.7352
vn 0.8868 0.3902 -0.2475
vn -0.6340 -0.6991 -0.3307
vn -0.6328 -0.7001 -0.3309
vn 0.2040 0.9747 -0.0915
vn 0.2031 0.9749 -0.0909
vn 0.2097 0.8793 0.4276
vn 0.2102 0.8795 0.4270
vn 0.2102 0.8798 0.4263
vn 0.2471 -0.4053 -0.8802
vn 0.2443 -0.4068 -0.8802
vn 0.2454 -0.4047 -0.8809
vn 0.1856 0.0953 0.9780
vn 0.1139 0.5032 -0.8566
vn 0.2313 -0.9271 -0.2948
vn 0.2312 -0.9267 -0.2963
vn 0.9858 -0.1677 -0.0112
vn 0.9856 -0.1685 -0.0142
vn 0.6304 0.7755 -0.0345
vn 0.7661 0.6289 -0.1327
vn 0.7645 0.6312 -0.1306
vn 0.7650 0.6308 -0.1297
vn -0.4538 0.8883 0.0709
vn -0.4534 0.8885 0.0705
vn -0.5195 -0.8063 -0.2828
vn -0.2186 -0.4787 -0.8503
vn 0.3956 0.4610 -0.7943
vn 0.1068 -0.4039 -0.9086
vn 0.1044 -0.4044 -0.9086
vn 0.1063 -0.4031 -0.9090
vn -0.5684 -0.4102 -0.7132
vn -0.5682 -0.4111 -0.7129
vn -0.5693 -0.4076 -0.7140
vn -0.4996 0.0858 -0.8620
vn -0.4992 0.0928 -0.8615
vn -0.4978 0.0892 -0.8627
vn 0.0888 -0.1410 -0.9860
vn -0.7576 0.6281 0.1774
vn -0.5105 0.8480 0.1427
vn -0.5104 0.8484 0.1405
vn -0.5105 0.8482 0.1413
vn 0.6602 -0.5319 -0.5303
vn 0.6601 -0.5315 -0.5308
vn 0.6595 -0.5323 -0.5307
vn 0.6109 -0.6594 0.4381
vn 0.6107 0.7736 -0.1690
vn 0.5298 -0.7744 0.3457
vn 0.5311 -0.7733 0.3464
vn 0.5291 -0.7740 0.3477
vn 0.2614 -0.3609 -0.8952
vn -0.7483 0.2883 -0.5975
vn 0.0473 0.1371 0.9894
vn 0.0429 0.1336 0.9901
vn 0.0461 0.1343 0.9899
vn 0.7822 0.5665 0.2593
vn 0.7816 0.5679 0.2578
vn 0.7815 0.5671 0.2600
vn 0.6087 0.7749 0.1700
vn 0.5169 0.3526 0.7801
vn 0.5146 0.3572 0.7795
vn 0.5160 0.3562 0.7790
vn 0.1387 -0.1495 0.9790
vn 0.2421 -0.3724 -0.8959
vn 0.2474 -0.3727 -0.8944
vn 0.2465 -0.3714 -0.8952
vn -0.4194 -0.2710 -0.8664
vn -0.0302 -0.1466 0.9887
vn -0.3361 -0.8657 -0.3710
vn -0.3374 -0.8655 -0.3704
vn -0.3352 -0.8654 -0.3725
vn -0.8149 -0.5133 -0.2690
vn 0.4810 -0.8766 -0.0165
vn 0.9760 -0.1807 0.1212
vn -0.1486 -0.9852 0.0854
vn -0.0063 -0.4487 -0.8936
vn 0.2725 -0.3291 0.9041
vn 0.2763 -0.3284 0.9032
vn 0.2784 -0.3253 0.9037
vn 0.4579 0.5958 -0.6599
vn -0.7436 -0.6626 -0.0898
vn -0.4178 -0.6694 0.6143
vn -0.5309 -0.5583 -0.6375
vn -0.8115 -0.3619 -0.4588
vn -0.8314 -0.4930 -0.2563
vn 0.4434 0.5940 -0.6713
vn 0.4436 0.5937 -0.6713
vn -0.4021 -0.4874 -0.7751
vn -0.4030 -0.4862 -0.7753
vn -0.4016 -0.4863 -0.7760
vn -0.8517 0.2139 -0.4783
vn 0.7993 0.5808 0.1543
vn -0.2514 0.9359 -0.2467
vn -0.5765 0.7076 -0.4086
vn 0.2271 0.9409 -0.2512
vn -0.0157 -0.5235 0.8519
vn 0.0033 -0.9420 0.3356
vn 0.7427 -0.6546 0.1412
vn 0.2867 -0.3696 0.8839
vn 0.2917 -0.3657 0.8838
vn 0.2880 -0.3660 0.8849
vn -0.4107 0.7427 -0.5290
vn -0.4263 0.0128 -0.9045
vn -0.4274 0.0145 -0.9039
vn -0.4235 0.0136 -0.9058
vn 0.8215 -0.0410 0.5688
vn 0.0566 -0.0733 -0.9957
vn 0.0569 -0.0697 -0.9959
vn 0.0602 -0.0691 -0.9958
vn -0.8043 -0.5476 0.2308
vn -0.8036 -0.5492 0.2291
vn -0.8035 -0.5498 0.2282
vn 0.6588 0.6828 -0.3157
vn 0.6571 0.6843 -0.3163
vn 0.6589 0.6830 -0.3153
vn 0.5212 0.4888 0.6996
vn 0.5203 0.4893 0.7000
vn 0.5189 0.4896 0.7008
vn 0.4794 0.1607 0.8628
vn 0.5241 0.0408 0.8507
vn 0.5263 0.0456 0.8491
vn 0.5249 0.0433 0.8501
vn -0.1375 -0.3601 0.9227
vn -0.9819 0.1695 -0.0848
vn 0.7867 0.6171 0.0153
vn 0.7864 0.6177 0.0107
vn 0.7866 0.6173 0.0130
vn 0.0328 -0.2322 0.9721
vn 0.1030 -0.6965 0.7101
vn 0.5874 0.8003 0.1207
vn -0.6185 -0.5499 -0.5613
vn -0.8870 -0.4586 -0.0541
vn -0.8879 -0.4570 -0.0528
vn -0.8874 -0.4578 -0.0533
vn 0.4964 -0.8096 -0.3133
vn -0.3452 0.6567 -0.6706
vn -0.6555 -0.7551 -0.0141
vn -0.6560 -0.7546 -0.0141
vn -0.6564 -0.7543 -0.0155
vn -0.7333 -0.5735 -0.3652
vn -0.7327 -0.5747 -0.3646
vn -0.7331 -0.5747 -0.3638
vn -0.9767 0.1944 -0.0904
vn -0.9509 -0.2814 0.1291
vn -0.9482 -0.2862 0.1381
vn -0.9502 -0.2844 0.1278
vn 0.6193 0.6269 0.4727
vn 0.6187 0.6276 0.4726
vn -0.4243 -0.8964 0.1281
vn 0.1818 -0.0307 0.9829
vn 0.5218 -0.6383 0.5659
vn 0.6118 0.3500 0.7094
vn -0.7669 -0.0103 -0.6417
vn -0.2491 -0.1271 -0.9601
vn -0.1518 0.1429 -0.9780
vn 0.7624 0.6294 0.1503
vn 0.7609 0.6316 0.1488
vn 0.7604 0.6320 0.1498
vn -0.3695 0.9195 0.1338
vn -0.3721 0.9187 0.1324
vn -0.3726 0.9180 0.1360
vn 0.7536 -0.0160 0.6572
vn 0.7523 -0.0139 0.6587
vn 0.7519 -0.0158 0.6591
vn -0.5942 -0.2364 0.7688
vn 0.3414 0.9199 0.1931
vn 0.6123 0.7902 -0.0276
vn 0.6119 0.7904 -0.0286
vn -0.6588 -0.7512 -0.0414
vn 0.4505 -0.4231 -0.7861
vn 0.3453 -0.2233 -0.9115
vn 0.0740 0.9965 0.0400
vn 0.0741 0.9965 0.0392
vn 0.0734 0.9965 0.0396
vn -0.3197 -0.8826 0.3447
vn -0.3181 -0.8818 0.3482
vn -0.3195 -0.8820 0.3463
vn 0.7934 0.5264 -0.3058
vn 0.7936 0.5262 -0.3054
vn -0.1239 -0.4396 -0.8896
vn -0.1210 -0.4394 -0.8901
vn -0.1221 -0.4407 -0.8893
vn -0.0090 -0.4243 -0.9055
vn -0.0081 -0.4208 -0.9071
vn -0.0076 -0.4227 -0.9062
vn -0.9842 -0.1446 0.1018
vn 0.4295 0.5189 -0.7391
vn 0.6379 0.3703 -0.6753
vn 0.6408 0.3688 -0.6733
vn 0.6400 0.3694 -0.6737
vn 0.7163 0.2725 -0.6424
vn 0.2694 0.0898 -0.9588
vn 0.2689 0.0906 -0.9589
vn -0.9049 0.1096 -0.4113
vn -0.9046 0.1081 -0.4123
vn -0.7164 0.6278 -0.3044
vn -0.0009 0.0502 0.9987
vn -0.7072 -0.7043 0.0622
vn -0.7067 -0.7048 0.0617
vn 0.2506 0.2314 -0.9400
vn 0.6828 0.7232 -0.1043
vn 0.1208 -0.0677 0.9904
vn -0.1656 0.5584 -0.8128
vn -0.1659 0.5587 -0.8126
vn 0.6635 -0.6379 -0.3910
vn 0.6656 -0.6356 -0.3910
vn -0.7868 0.6171 0.0077
vn -0.7901 0.6129 0.0084
vn -0.7881 0.6155 0.0099
vn -0.9887 0.0468 0.1427
vn -0.9815 -0.1699 -0.0882
vn -0.7752 -0.5049 -0.3797
vn -0.6844 -0.5949 -0.4216
vn -0.6851 -0.5941 -0.4216
vn -0.1896 -0.5736 -0.7969
vn -0.2584 -0.6319 -0.7307
vn -0.2622 -0.6322 -0.7291
vn -0.2604 -0.6315 -0.7303
vn -0.8194 -0.5719 -0.0387
vn -0.8197 -0.5714 -0.0405
vn -0.8197 -0.5715 -0.0393
vn 0.1558 -0.4556 0.8765
vn -0.6422 -0.5490 -0.5350
vn 0.9339 0.3506 0.0702
vn -0.9136 0.3540 -0.2000
vn -0.4213 -0.2369 0.8754
vn -0.4173 -0.2362 0.8776
vn -0.4197 -0.2342 0.8769
vn 0.4720 0.8454 -0.2499
vn -0.6902 -0.5265 0.4964
vn -0.0626 -0.5954 0.8010
vn -0.0647 -0.5965 0.8000
vn 0.5839 0.7474 0.3171
vn 0.5835 0.7480 0.3163
vn 0.4073 -0.7065 0.5788
vn 0.7257 0.0963 -0.6813
vn 0.7259 0.0939 -0.6814
vn 0.7261 0.0969 -0.6807
vn 0.7141 0.2632 -0.6487
vn 0.7269 -0.6761 0.1204
vn 0.7273 -0.6755 0.1211
vn 0.7276 -0.6754 0.1199
vn 0.2546 0.9641 -0.0752
vn -0.4516 0.0555 0.8905
vn -0.4516 0.0531 0.8906
vn -0.4481 0.0542 0.8923
vn 0.2397 0.2687 0.9329
vn 0.2400 0.2704 0.9324
vn 0.2373 0.2675 0.9339
vn 0.8423 0.4150 0.3440
vn 0.8439 0.4133 0.3420
vn 0.8419 0.4151 0.3448
vn 0.6462 0.3351 -0.6857
vn 0.9168 -0.3085 -0.2536
vn -0.8162 -0.3354 -0.4705
vn -0.8170 -0.3359 -0.4686
vn 0.6009 0.1805 -0.7786
vn 0.1649 -0.0663 0.9841
vn 0.1843 0.1987 0.9626
vn 0.1818 0.1975 0.9633
vn 0.1848 0.1975 0.9627
vn -0.5094 -0.1874 0.8399
vn -0.5085 -0.1906 0.8397
vn -0.5072 -0.1834 0.8421
vn -0.4049 -0.3074 -0.8611
vn 0.4731 0.3714 0.7989
vn 0.4727 0.3721 0.7988
vn 0.4120 0.3613 -0.8365
vn -0.8835 -0.3972 0.2484
vn -0.9510 -0.2809 0.1293
vn -0.4407 -0.3115 -0.8419
vn -0.4397 -0.3134 -0.8417
vn -0.6760 0.6830 -0.2767
vn 0.2547 -0.4268 -0.8677
vn -0.6627 -0.7488 0.0089
vn 0.7551 0.2288 -0.6144
vn -0.3512 -0.7674 0.5365
vn -0.1467 0.1784 -0.9730
vn -0.1950 0.8503 0.4888
vn -0.1938 0.8509 0.4883
vn -0.1947 0.8508 0.4881
vn 0.2058 0.6803 -0.7034
vn 0.2067 0.6804 -0.7031
vn 0.2063 0.6803 -0.7033
vn -0.8045 -0.5469 0.2316
vn -0.0970 -0.0211 -0.9951
vn -0.0978 -0.0192 -0.9950
vn -0.0971 -0.0200 -0.9951
vn 0.5259 -0.8199 -0.2261
vn 0.6815 0.3317 0.6524
vn 0.6079 -0.5427 -0.5796
vn 0.6051 -0.5444 -0.5809
vn 0.6073 -0.5415 -0.5814
vn 0.9168 0.1033 -0.3858
vn 0.9159 0.1030 -0.3879
vn 0.5864 0.3212 0.7436
vn -0.6480 -0.7329 -0.2074
vn -0.6477 -0.7329 -0.2082
vn -0.4334 -0.2622 -0.8622
vn 0.5867 0.1315 0.7991
vn 0.5868 0.1321 0.7989
vn 0.5861 0.1324 0.7993
vn -0.4174 -0.8667 -0.2732
vn -0.6825 -0.7252 -0.0907
vn -0.6620 -0.1138 -0.7408
vn -0.0596 -0.7847 -0.6170
vn -0.0578 -0.7838 -0.6184
vn -0.0573 -0.7824 -0.6202
vn 0.4701 -0.4251 -0.7735
vn 0.4699 -0.4213 -0.7757
vn 0.4704 -0.4217 -0.7751
vn 0.4205 0.2620 -0.8686
vn 0.4238 0.2604 -0.8675
vn 0.4206 0.2608 -0.8689
vn -0.6915 -0.6512 -0.3127
vn 0.5016 0.6249 -0.5983
vn 0.5000 0.6259 -0.5986
vn 0.5017 0.6255 -0.5975
vn -0.7461 -0.6136 -0.2583
vn 0.6608 0.7263 0.1894
vn -0.1537 -0.9555 -0.2518
vn -0.1529 -0.9557 -0.2514
vn -0.2011 0.9787 0.0411
vn 0.0938 0.2910 -0.9521
vn 0.0952 0.2883 -0.9528
vn 0.0925 0.2891 -0.9528
vn 0.2239 -0.6379 0.7368
vn 0.4303 0.7973 -0.4233
vn -0.8582 -0.5105 -0.0533
vn 0.2531 0.9596 0.1232
vn 0.4867 0.2871 0.8250
vn -0.6465 -0.7629 -0.0050
vn -0.6488 -0.7610 -0.0062
vn -0.6483 -0.7614 -0.0068
vn 0.8130 0.5807 -0.0421
vn 0.8115 0.5828 -0.0430
vn 0.8116 0.5826 -0.0428
vn -0.6412 -0.4077 0.6501
vn -0.6416 -0.4074 0.6500
vn -0.6976 -0.3838 0.6050
vn -0.7016 -0.3793 0.6032
vn -0.7002 -0.3801 0.6044
vn 0.8274 0.5409 0.1514
vn 0.8268 0.5422 0.1496
vn 0.8267 0.5425 0.1495
vn 0.4968 0.6550 0.5693
vn -0.3361 -0.7126 0.6158
vn 0.6117 0.6259 -0.4839
vn 0.4226 -0.3846 -0.8207
vn 0.4218 -0.3827 -0.8220
vn 0.4219 -0.3805 -0.8230
vn 0.1418 -0.6729 -0.7260
vn 0.1435 -0.6712 -0.7273
vn 0.1443 -0.6713 -0.7270
vn -0.0585 -0.3093 0.9492
vn -0.8195 -0.5717 -0.0402
vn -0.7978 -0.5679 0.2026
vn -0.7986 -0.5667 0.2027
vn -0.7982 -0.5678 0.2012
vn -0.1753 -0.7876 -0.5908
vn 0.9315 0.3636 -0.0133
vn 0.9316 0.3632 -0.0123
vn 0.9324 0.3610 -0.0146
vn -0.7786 -0.6274 -0.0127
vn -0.7803 -0.6253 -0.0125
vn -0.7768 -0.6296 -0.0143
vn -0.7813 -0.6203 -0.0685
vn -0.5197 0.7964 -0.3093
vn -0.5200 0.7961 -0.3096
vn -0.4809 -0.7168 0.5048
vn -0.0582 -0.3350 -0.9404
vn -0.0954 -0.0384 -0.9947
vn -0.0934 -0.0374 -0.9949
vn 0.9589 0.2529 -0.1283
vn 0.0294 -0.0626 -0.9976
vn 0.0315 -0.0627 -0.9975
vn 0.0308 -0.0643 -0.9975
vn 0.4859 0.6866 -0.5409
vn 0.4866 0.6865 -0.5403
vn -0.2540 0.3185 -0.9133
vn 0.8135 -0.1370 -0.5652
vn 0.8135 -0.1394 -0.5646
vn 0.8130 -0.1371 -0.5659
vn -0.4612 0.0056 -0.8873
vn -0.4595 0.0047 -0.8882
vn -0.4571 0.0030 -0.8894
vn 0.8050 -0.3493 0.4796
vn 0.1121 0.9660 -0.2332
vn -0.8725 0.2112 -0.4406
vn 0.4402 0.5021 -0.7444
vn 0.4403 0.5018 -0.7446
vn 0.8850 0.1591 -0.4377
vn 0.8851 0.1609 -0.4368
vn 0.8854 0.1589 -0.4368
vn 0.8162 0.4371 -0.3779
vn -0.6467 -0.5630 -0.5146
vn -0.6475 -0.5614 -0.5154
vn 0.3107 0.7076 -0.6347
vn 0.1918 -0.4835 -0.8541
vn 0.1943 -0.4827 -0.8540
vn 0.1968 -0.4846 -0.8523
vn -0.6160 -0.0254 -0.7873
vn 0.0965 -0.0470 0.9942
vn 0.4100 -0.4117 0.8139
vn -0.7482 0.1447 -0.6476
s 1
f 1//1 2//2 3//3
f 5//4 6//4 7//4
f 3//5 8//6 9//6
f 10//7 11//8 12//9
f 13//10 14//11 15//12
f 16//13 17//13 18//13
f 19//14 20//15 21//16
f 22//17 23//18 24//19
f 25//20 14//11 13//10
f 26//21 27//22 28//23
f 26//24 29//25 30//26
f 31//27 32//27 33//27
f 36//28 37//29 38//28
f 40//30 15//31 41//31
f 42//32 16//33 43//34
f 42//35 43//35 44//35
f 47//36 48//37 49//38
f 50//39 51//39 52//39
f 53//40 54//40 55//40
f 56//41 14//42 57//41
f 21//43 58//44 19//45
f 59//46 38//46 60//46
f 9//47 8//47 62//47
f 63//48 64//48 65//48
f 66//49 67//49 68//49
f 69//50 20//50 70//50
f 71//51 72//51 38//51
f 45//52 73//52 46//52
f 74//53 24//54 4//55
f 77//56 31//56 33//56
f 78//57 79//57 80//57
f 78//58 81//58 82//58
f 83//59 84//59 18//60
f 30//61 29//62 65//61
f 85//63 61//64 30//65
f 1//66 86//67 2//68
f 31//69 77//69 87//69
f 79//70 78//70 63//70
f 17//71 88//71 89//72
f 44//73 88//73 90//74
f 60//75 91//75 92//75
f 27//76 94//77 28//78
f 95//79 85//80 65//79
f 2//81 96//81 62//81
f 8//82 2//82 62//82
f 97//83 41//83 15//83
f 3//84 2//85 8//86
f 57//87 14//88 25//89
f 43//90 16//91 98//92
f 99//93 72//93 100//93
f 93//94 101//94 95//94
f 101//95 85//96 95//97
f 69//98 102//99 20//100
f 103//101 81//101 104//101
f 82//102 103//102 105//102
f 106//103 103//104 104//105
f 103//106 106//106 105//106
f 42//107 107//107 16//107
f 22//108 74//109 54//110
f 108//111 27//112 26//113
f 30//114 108//114 26//114
f 10//115 12//116 109//117
f 34//118 110//118 11//118
f 111//119 25//120 13//121
f 56//122 57//122 112//122
f 77//123 113//123 114//123
f 17//124 89//125 18//126
f 50//127 115//127 18//127
f 17//128 116//128 90//128
f 116//129 44//129 90//129
f 17//130 107//130 117//130
f 117//131 107//131 118//131
f 12//132 11//133 32//134
f 91//135 43//135 6//135
f 35//136 50//136 18//136
f 110//137 119//137 96//137
f 67//138 112//138 120//138
f 121//139 67//139 120//139
f 122//140 112//140 123//140
f 80//141 79//141 29//142
f 89//143 83//144 18//145
f 118//146 107//146 42//146
f 81//147 103//147 82//147
f 5//148 7//148 126//148
f 7//149 52//149 126//149
f 6//150 5//150 92//150
f 113//151 110//151 127//151
f 127//152 86//152 114//152
f 104//153 81//153 69//153
f 12//154 32//155 31//156
f 78//157 68//157 67//157
f 78//158 67//159 64//160
f 22//161 54//161 53//161
f 97//162 19//163 58//164
f 123//165 76//166 122//167
f 26//168 28//169 29//170
f 10//171 109//172 128//173
f 87//174 129//174 31//174
f 130//175 32//176 11//177
f 113//178 127//178 114//178
f 93//179 95//179 131//179
f 27//180 49//181 94//182
f 22//183 53//183 132//183
f 33//184 113//184 77//184
f 73//185 60//185 92//185
f 67//186 66//186 70//186
f 120//187 133//188 121//189
f 87//190 114//190 86//190
f 78//191 82//191 68//191
f 134//192 119//193 84//194
f 84//195 83//196 134//197
f 93//198 131//198 121//198
f 135//199 121//200 133//201
f 128//202 109//202 36//203
f 137//204 138//204 53//204
f 139//205 140//205 141//205
f 141//206 140//206 23//206
f 23//207 140//207 48//207
f 135//208 39//208 93//208
f 3//209 9//209 100//209
f 71//210 3//210 100//210
f 108//211 49//212 27//213
f 124//214 46//215 126//216
f 113//217 32//218 130//219
f 33//220 32//220 113//220
f 46//221 73//221 92//221
f 59//222 36//223 38//222
f 16//224 107//224 17//224
f 44//225 99//225 88//225
f 100//226 88//226 99//226
f 85//227 30//228 65//229
f 106//230 104//231 66//232
f 40//233 41//234 94//234
f 142//235 70//236 20//237
f 19//238 142//239 20//240
f 135//241 93//241 121//241
f 41//242 97//242 94//242
f 97//243 28//244 94//245
f 28//246 58//246 80//246
f 143//247 3//248 71//247
f 105//249 106//250 66//249
f 105//251 66//251 82//251
f 24//19 74//252 22//17
f 96//253 119//253 134//254
f 99//255 91//255 72//255
f 60//256 38//256 91//256
f 110//257 130//257 11//257
f 7//258 43//259 98//259
f 17//260 90//261 88//260
f 124//262 126//263 52//264
f 124//265 52//265 51//265
f 50//266 52//266 115//266
f 123//267 112//267 57//267
f 83//268 62//268 134//269
f 89//270 88//270 100//270
f 70//271 142//272 112//273
f 122//274 133//275 120//276
f 12//277 31//277 129//277
f 115//278 16//278 18//278
f 48//279 140//279 40//279
f 131//280 95//280 64//280
f 55//281 54//282 74//283
f 92//284 91//284 6//284
f 55//285 146//285 137//285
f 130//286 110//287 113//287
f 59//288 128//288 36//289
f 132//290 141//290 23//290
f 40//291 13//292 15//293
f 44//294 43//294 91//294
f 81//295 102//296 69//297
f 116//298 118//298 42//298
f 4//299 75//300 74//301
f 4//302 24//303 47//304
f 109//305 129//306 36//307
f 99//308 44//308 91//308
f 140//309 139//309 111//309
f 131//310 67//311 121//310
f 80//312 58//312 21//312
f 114//313 87//313 77//313
f 11//314 10//315 34//316
f 75//317 55//318 74//319
f 9//320 62//320 83//320
f 24//321 23//321 48//322
f 91//323 38//323 72//323
f 35//324 51//324 50//324
f 136//325 135//199 133//201
f 112//326 142//327 56//326
f 65//328 64//328 95//328
f 1//1 3//3 143//329
f 137//330 146//330 25//330
f 80//331 21//331 81//331
f 102//332 81//332 21//332
f 71//333 100//333 72//333
f 101//334 61//335 85//336
f 43//337 7//338 6//339
f 146//340 76//166 123//165
f 15//341 14//342 56//343
f 139//344 147//344 111//344
f 109//345 12//345 129//345
f 21//346 20//347 102//348
f 40//349 140//349 13//350
f 144//351 59//351 60//351
f 62//352 96//352 134//353
f 100//354 9//354 83//354
f 24//355 48//356 47//357
f 2//358 127//358 96//358
f 104//359 69//359 66//359
f 135//360 136//360 39//360
f 86//361 127//362 2//363
f 129//364 86//365 1//366
f 58//367 28//368 97//369
f 120//370 112//370 122//370
f 37//371 143//372 71//373
f 57//374 146//374 123//374
f 128//375 59//375 144//375
f 147//376 53//376 138//377
f 46//378 5//378 126//378
f 19//379 97//380 15//381
f 53//382 147//382 139//382
f 116//383 42//383 44//383
f 146//384 57//384 25//384
f 5//385 46//385 92//385
f 73//386 45//386 60//386
f 25//387 138//388 137//389
f 49//390 40//391 94//392
f 146//393 75//394 76//393
f 55//395 75//396 146//397
f 49//398 48//399 40//400
f 61//401 108//401 30//401
f 127//402 110//402 96//402
f 28//403 80//403 29//403
f 129//404 87//405 86//406
f 111//407 147//408 138//409
f 23//410 22//410 132//410
f 76//411 133//275 122//274
f 76//412 136//413 133//414
f 69//415 70//415 66//415
f 1//416 36//417 129//418
f 125//419 145//420 136//421
f 84//422 35//422 18//422
f 98//423 52//423 7//424
f 53//425 55//425 137//425
f 100//426 83//426 89//426
f 15//427 56//427 19//428
f 118//429 116//429 117//429
f 56//430 142//431 19//432
f 37//433 71//434 38//434
f 78//435 64//435 63//435
f 13//436 140//437 111//438
f 67//439 131//440 64//441
f 17//442 117//442 116//442
f 65//443 29//443 63//443
f 52//444 98//444 115//444
f 81//445 78//446 80//446
f 36//447 143//448 37//449
f 36//450 1//450 143//450
f 70//451 112//452 67//452
f 79//453 63//453 29//453
f 111//454 138//455 25//456
f 16//457 115//457 98//457
f 139//458 141//458 53//458
f 132//459 53//459 141//459
f 82//460 66//460 68//460
