# Blender v2.80 (sub 75) OBJ File: 'field.blend'
# www.blender.org
v 26.504387 -32.440201 21.171644
v 28.942533 -29.566294 16.179657
v 31.497707 -29.020987 22.752748
v 15.513788 -29.669609 25.214092
v 20.687670 -32.713043 23.455349
v 19.935833 -29.337269 29.625496
v 26.395948 -30.965790 27.249348
v 14.584997 -24.757507 28.973501
v 19.175451 -10.781261 22.223885
v 16.737284 -13.655174 27.215858
v 23.418242 -11.373411 26.781555
v 21.623459 -16.148659 31.681160
v 26.974234 -20.728378 32.333115
v 27.488241 -15.023392 29.820704
v 32.075962 -18.783600 27.836552
v 33.649963 -17.918674 20.995157
v 30.166050 -13.551848 18.181437
v 29.878313 -13.001929 24.405495
v 12.387258 -18.975758 25.542406
v 16.121952 -18.905445 30.559635
v 20.293327 -23.010223 32.767467
v 25.225325 -26.696978 31.668823
v 33.292557 -24.245710 17.853107
v 33.904968 -23.388306 24.018766
v 31.094847 -18.463974 14.422031
v 25.744005 -13.884189 13.770033
v 19.283876 -12.255695 16.146191
v 24.992170 -10.508441 19.940166
v 14.933973 -17.576296 14.472701
v 11.774870 -19.833153 19.376760
v 14.182132 -14.200471 20.642778
v 13.603868 -24.437843 15.558958
v 12.029850 -25.302794 22.400358
v 15.801527 -30.219532 18.990032
v 22.261599 -31.848072 16.613956
v 24.056377 -27.072807 11.714352
v 25.386513 -20.211258 10.628047
v 29.557886 -24.316036 12.835876
v 18.705582 -22.493090 11.062399
v 20.454491 -16.524488 11.726690
v 28.140835 -17.662340 19.836575
v 29.209393 -19.394032 22.989981
v 29.202028 -21.195536 19.147320
v 28.375372 -21.787893 25.757431
v 26.995020 -25.277779 25.752552
v 29.339914 -23.620485 22.627520
v 26.634075 -18.929192 16.641346
v 28.362850 -24.852779 19.219891
v 26.987652 -27.079260 21.909887
v 25.395981 -26.791941 17.986265
v 19.033878 -27.207134 20.536699
v 16.470446 -23.827425 20.405548
v 18.896044 -24.782211 17.056515
v 17.304453 -21.433590 17.638107
v 20.264608 -21.145889 15.349119
v 23.993980 -20.997040 14.956468
v 22.828012 -24.525620 15.480297
v 21.665623 -27.183498 17.861238
v 23.051121 -28.449226 21.111269
v 16.339920 -19.600975 20.767990
v 22.616833 -17.687069 16.066708
v 26.764553 -23.155632 16.278893
v 19.045765 -24.292290 26.754166
v 17.539009 -25.559139 23.558956
v 20.625536 -27.494480 24.460331
v 18.684811 -17.943668 17.642954
v 18.692188 -16.142200 21.485641
v 25.054304 -15.727003 18.935184
v 25.415226 -22.075575 28.046392
v 21.685841 -22.224421 28.439066
v 23.063004 -25.534395 27.328804
v 16.477812 -22.025948 24.248194
v 18.915285 -20.065825 27.116638
v 17.316973 -18.368710 24.175629
v 26.783794 -18.439249 26.339016
v 20.283863 -16.429541 25.409269
v 22.851809 -18.695845 27.915237
v 24.014215 -16.037958 25.534292
v 23.602119 -16.789101 15.345432
v 19.465994 -16.330200 16.706364
v 23.370369 -14.148908 18.830553
v 16.337582 -17.448608 19.558207
v 16.850283 -20.528498 16.488712
v 14.868101 -21.329576 20.954638
v 27.534063 -24.227312 15.756409
v 29.748913 -20.983469 17.691078
v 29.421085 -25.595163 19.463100
v 18.145748 -18.994135 27.639103
v 15.930909 -22.238018 25.704439
v 19.632769 -22.906851 28.923788
v 26.527805 -19.289835 28.420412
v 22.248447 -18.708559 29.141466
v 24.559570 -23.080652 29.383036
v 22.699684 -29.483971 20.223402
v 26.579468 -28.684925 22.088747
v 22.309456 -29.072575 24.564981
v 18.607635 -28.403751 21.345629
v 26.213840 -26.891239 26.689165
v 22.077700 -26.432365 28.050102
v 28.829561 -22.692982 26.906822
v 18.242069 -26.610079 25.946014
v 20.589792 -27.602730 16.879633
v 25.516634 -27.776495 17.338909
v 16.258755 -17.626297 23.932428
v 30.811737 -21.891882 22.440891
v 29.342253 -25.772856 23.837303
v 29.157448 -18.081299 25.134769
v 27.072206 -14.817724 22.049904
v 25.090042 -15.618732 26.515877
v 22.980156 -13.737489 23.172129
v 16.522396 -25.140181 18.260763
v 15.779800 -25.294462 22.573011
v 19.152027 -23.931608 14.975096
v 26.047066 -20.314613 14.471723
v 27.437752 -16.611404 17.449501
v 29.900034 -17.926998 20.822498
v 21.120270 -20.140808 14.012494
v 19.100372 -14.536535 21.306784
v 19.754879 -20.172256 13.198247
v 24.638432 -21.158232 12.731758
v 20.642105 -25.086607 13.517515
v 31.295759 -18.624659 23.544533
v 28.194584 -15.534183 25.967625
v 29.623520 -20.701084 27.779184
v 28.984772 -22.279366 14.943363
v 31.421989 -20.248581 18.813131
v 30.259840 -25.762928 18.301804
v 16.056297 -22.520384 15.616331
v 23.494007 -14.258800 27.115307
v 19.612526 -16.896330 28.852264
v 25.037735 -18.134876 29.877998
v 16.695049 -20.942095 28.452171
v 14.257832 -22.972885 24.582403
v 17.732080 -25.818727 28.024805
v 22.185831 -28.962662 16.280220
v 26.263447 -29.691254 19.087584
v 20.959461 -30.533062 20.870348
v 25.151920 -29.970856 24.628880
v 20.294790 -29.438375 25.707613
v 23.157263 -27.057234 29.050558
v 28.461281 -26.215412 27.267847
v 25.924959 -23.049227 30.197266
v 21.041405 -22.063232 30.663754
v 16.373730 -27.966877 22.969200
v 26.067289 -26.325115 14.543266
v 15.419996 -17.458536 25.093706
v 17.485250 -27.687258 17.427902
v 14.384057 -24.596785 19.850998
v 31.618172 -23.614733 23.357468
v 29.318518 -28.006207 22.674641
v 19.416365 -13.530192 24.307928
v 16.361319 -15.215260 20.720869
v 20.527916 -13.250611 18.766632
v 22.522575 -16.164227 14.344971
v 25.385050 -13.783082 17.687914
v 27.947756 -17.402737 15.370705
v 26.387091 -18.718935 30.925461
v 21.071035 -20.367758 31.768581
v 26.008286 -24.332531 31.113092
v 16.283337 -22.387835 29.603636
v 13.174019 -20.842138 25.172710
v 15.188738 -26.782265 26.259605
v 29.300220 -13.589557 21.842600
v 32.449245 -18.121367 22.954893
v 30.491079 -16.439207 17.135908
v 19.292742 -24.502508 12.470048
v 24.608782 -22.853706 11.626953
v 22.931534 -28.500166 14.041204
v 16.379618 -29.631901 21.552931
v 16.957672 -28.025194 16.188721
v 21.219250 -31.515121 19.379948
v 20.126026 -30.746971 25.604076
v 28.870337 -26.343647 14.818145
v 26.542927 -30.439945 17.899292
v 30.828514 -28.025793 20.637085
v 26.099873 -31.221935 23.456499
v 29.735327 -27.257637 26.861206
v 24.683048 -29.133066 28.488386
v 13.230569 -25.100101 20.440622
v 14.942833 -22.085117 15.101816
v 19.671555 -18.888927 12.282438
v 20.069466 -26.489056 30.336157
v 16.809500 -16.877815 28.577366
v 19.579971 -11.999543 19.939035
v 20.996771 -14.088398 14.907146
v 15.944511 -15.963821 16.534325
vn 0.5923 -0.7887 -0.1648
vn -0.3519 -0.8386 0.4159
vn 0.5056 -0.8363 0.2119
vn -0.5596 -0.5678 0.6037
vn -0.2779 0.8849 0.3737
vn 0.2134 0.3776 0.9011
vn 0.5691 0.2879 0.7702
vn 0.7872 0.6164 -0.0181
vn -0.7283 0.4268 0.5361
vn -0.5325 -0.0883 0.8418
vn -0.4273 -0.3826 0.8191
vn -0.1269 -0.4354 0.8912
vn 0.9952 -0.0077 -0.0978
vn 0.9203 0.1311 -0.3686
vn 0.8286 0.4305 -0.3578
vn 0.0468 0.8787 -0.4751
vn -0.8015 0.0490 0.5959
vn 0.7861 -0.5612 -0.2590
vn -0.8353 0.4331 -0.3387
vn -0.9538 -0.1782 -0.2420
vn -0.4926 -0.8686 0.0540
vn 0.2779 -0.8849 -0.3737
vn -0.8549 0.0847 -0.5118
vn 0.2929 -0.2047 -0.9340
vn -0.0116 -0.1542 -0.9880
vn -0.1126 0.1424 -0.9834
vn 0.9390 0.3108 -0.1475
vn 0.8308 -0.3292 0.4488
vn 0.7929 0.3372 -0.5076
vn 0.6062 -0.7367 -0.2998
vn -0.7337 -0.5708 -0.3687
vn -0.8114 -0.2984 -0.5026
vn -0.0995 -0.1139 -0.9885
vn 0.0963 -0.6872 -0.7201
vn 0.1089 -0.9097 -0.4007
vn 0.3593 -0.9087 -0.2123
vn -0.9564 -0.0045 -0.2921
vn -0.1115 0.2740 -0.9552
vn 0.7317 0.0806 -0.6769
vn -0.5576 -0.6473 0.5196
vn -0.8308 0.3292 -0.4488
vn -0.7692 0.5792 -0.2700
vn 0.5576 0.6473 -0.5196
vn 0.9564 0.0045 0.2921
vn 0.1115 -0.2740 0.9552
vn -0.7929 -0.3372 0.5076
vn -0.7317 -0.0806 0.6769
vn -0.8094 0.1967 0.5534
vn 0.8114 0.2984 0.5026
vn -0.5935 0.5141 0.6192
vn -0.3361 0.5010 0.7975
vn -0.0963 0.6872 0.7201
vn -0.1115 0.7885 -0.6048
vn -0.9067 0.2122 -0.3644
vn 0.8204 -0.2550 -0.5118
vn -0.6564 -0.0018 0.7544
vn 0.1842 0.1510 0.9712
vn 0.1511 -0.9827 0.1067
vn -0.2365 -0.9691 0.0706
vn 0.2209 -0.4972 0.8390
vn 0.4936 -0.3489 0.7966
vn 0.5041 -0.0427 0.8626
vn -0.4062 -0.4751 0.7806
vn -0.3201 -0.8976 -0.3031
vn 0.3070 -0.9197 -0.2446
vn -0.8204 0.2550 0.5118
vn 0.9355 -0.3533 0.0025
vn 0.9559 -0.1620 -0.2449
vn 0.5701 0.7266 0.3834
vn 0.3201 0.8976 0.3031
vn -0.9422 -0.2871 -0.1725
vn -0.9032 -0.0965 -0.4182
vn -0.7276 -0.2004 -0.6561
vn 0.6564 0.0018 -0.7544
vn 0.6554 0.3083 -0.6895
vn 0.8070 0.4027 -0.4320
vn 0.2365 0.9691 -0.0706
vn -0.2209 0.4972 -0.8390
vn -0.2932 0.8826 -0.3674
vn -0.1116 -0.0845 -0.9902
vn 0.7758 0.3888 0.4970
vn 0.8692 -0.1392 -0.4744
vn -0.4767 -0.1424 -0.8674
vn -0.0237 0.5740 0.8185
vn -0.7709 -0.2164 0.5991
vn 0.0456 -0.9488 -0.3124
vn -0.0597 -0.9753 0.2125
vn 0.1502 -0.9885 -0.0197
vn 0.0338 -0.8275 0.5605
vn 0.3473 -0.4717 0.8105
vn -0.4823 -0.1777 0.8578
vn -0.7855 -0.4648 0.4085
vn 0.2629 -0.7698 -0.5816
vn 0.6223 -0.2013 0.7564
vn -0.8692 0.1392 0.4744
vn -0.7758 -0.3888 -0.4970
vn -0.5587 -0.4077 -0.7222
vn 0.8878 -0.4581 -0.0439
vn 0.9657 -0.1868 -0.1801
vn 0.4767 0.1424 0.8674
vn 0.5587 0.4077 0.7222
vn 0.3413 0.6319 0.6958
vn -0.6600 0.7166 0.2255
vn -0.4428 0.8956 -0.0436
vn 0.2819 0.6508 -0.7049
vn 0.1497 0.0229 0.9885
vn -0.8336 -0.1877 0.5195
vn 0.8288 0.5462 -0.1210
vn -0.0264 -0.3864 -0.9220
vn -0.4599 -0.8358 -0.2999
vn -0.3401 -0.9387 0.0561
vn 0.3325 -0.6803 -0.6532
vn 0.2734 -0.4457 -0.8524
vn 0.6311 -0.6623 -0.4038
vn 0.5263 -0.8468 -0.0772
vn 0.6285 -0.7508 0.2031
vn 0.4343 -0.7821 0.4469
vn -0.5681 -0.7598 0.3163
vn -0.7620 -0.5932 -0.2598
vn 0.4308 -0.5216 0.7365
vn -0.8288 -0.5462 0.1210
vn -0.9328 -0.2734 0.2349
vn -0.5151 0.0061 -0.8571
vn 0.0653 -0.4925 0.8678
vn -0.0475 -0.2202 0.9743
vn -0.7723 0.1868 0.6071
vn -0.4343 0.7821 -0.4469
s 1
f 1//1 2//1 3//1
f 4//2 5//2 6//2
f 1//3 3//3 7//3
f 4//4 6//4 8//4
f 9//5 10//5 11//5
f 12//6 13//6 14//6
f 13//7 15//7 14//7
f 16//8 17//8 18//8
f 19//9 20//9 10//9
f 8//10 21//10 20//10
f 8//11 6//11 21//11
f 6//12 22//12 21//12
f 23//13 16//13 24//13
f 23//14 25//14 16//14
f 25//15 17//15 16//15
f 26//16 27//16 28//16
f 19//17 8//17 20//17
f 3//18 2//18 23//18
f 29//19 30//19 31//19
f 32//20 33//20 30//20
f 34//21 5//21 4//21
f 35//22 2//22 1//22
f 29//23 32//23 30//23
f 36//24 37//24 38//24
f 36//25 39//25 37//25
f 39//26 40//26 37//26
f 41//27 42//27 43//27
f 44//28 45//28 46//28
f 41//29 43//29 47//29
f 48//30 49//30 50//30
f 51//31 52//31 53//31
f 52//32 54//32 53//32
f 55//33 56//33 57//33
f 57//34 50//34 58//34
f 50//35 59//35 58//35
f 50//36 49//36 59//36
f 60//37 54//37 52//37
f 61//38 56//38 55//38
f 47//39 43//39 62//39
f 63//40 64//40 65//40
f 60//41 66//41 54//41
f 60//42 67//42 66//42
f 68//43 41//43 47//43
f 42//44 44//44 46//44
f 69//45 70//45 71//45
f 63//46 72//46 64//46
f 63//47 73//47 72//47
f 73//48 74//48 72//48
f 75//49 44//49 42//49
f 73//50 76//50 74//50
f 73//51 77//51 76//51
f 77//52 78//52 76//52
f 79//53 80//53 81//53
f 82//54 83//54 84//54
f 85//55 86//55 87//55
f 88//56 89//56 90//56
f 91//57 92//57 93//57
f 94//58 95//58 96//58
f 97//59 94//59 96//59
f 98//60 93//60 99//60
f 98//61 100//61 93//61
f 100//62 91//62 93//62
f 90//63 101//63 99//63
f 102//64 94//64 97//64
f 103//65 95//65 94//65
f 104//66 89//66 88//66
f 87//67 105//67 106//67
f 87//68 86//68 105//68
f 107//69 108//69 109//69
f 108//70 110//70 109//70
f 84//71 111//71 112//71
f 84//72 83//72 111//72
f 83//73 113//73 111//73
f 114//74 86//74 85//74
f 114//75 115//75 86//75
f 115//76 116//76 86//76
f 81//77 110//77 108//77
f 80//78 79//78 117//78
f 81//79 80//79 118//79
f 119//80 120//80 121//80
f 122//81 123//81 124//81
f 125//82 126//82 127//82
f 119//83 121//83 128//83
f 129//84 130//84 131//84
f 132//85 133//85 134//85
f 135//86 136//86 137//86
f 137//87 138//87 139//87
f 137//88 136//88 138//88
f 138//89 140//89 139//89
f 141//90 142//90 140//90
f 143//91 132//91 134//91
f 134//92 133//92 144//92
f 145//93 136//93 135//93
f 124//94 142//94 141//94
f 146//95 133//95 132//95
f 128//96 147//96 148//96
f 128//97 121//97 147//97
f 127//98 149//98 150//98
f 127//99 126//99 149//99
f 124//100 131//100 142//100
f 124//101 123//101 131//101
f 123//102 129//102 131//102
f 151//103 152//103 146//103
f 153//104 152//104 151//104
f 154//105 155//105 156//105
f 157//106 158//106 159//106
f 160//107 161//107 162//107
f 163//108 164//108 165//108
f 166//109 167//109 168//109
f 169//110 170//110 171//110
f 172//111 169//111 171//111
f 168//112 173//112 174//112
f 168//113 167//113 173//113
f 173//114 175//114 174//114
f 175//115 176//115 174//115
f 175//116 177//116 176//116
f 177//117 178//117 176//117
f 162//118 169//118 172//118
f 179//119 170//119 169//119
f 159//120 178//120 177//120
f 162//121 179//121 169//121
f 162//122 161//122 179//122
f 180//123 181//123 166//123
f 159//124 182//124 178//124
f 159//125 158//125 182//125
f 183//126 161//126 160//126
f 184//127 185//127 186//127
