# Blender v2.80 (sub 75) OBJ File: 'field.blend'
# www.blender.org
v -8.728243 19.100199 -0.151614
v -8.747258 18.892792 0.683110
v -8.599149 18.682587 -0.144744
v -8.717626 18.683987 0.682911
v -8.741610 18.546957 -0.152326
v -8.728458 18.531750 0.682911
v -8.724846 18.330492 -0.151434
v -9.025735 18.182352 -0.167540
v -8.819594 18.412760 0.683387
v -9.106529 18.314913 0.682911
v -9.255446 18.244741 -0.179674
v -9.461982 18.354816 -0.190667
v -9.411097 18.438492 0.682900
v -9.562937 18.536034 -0.196040
v -9.589154 18.720692 -0.197435
v -9.455630 18.742016 0.682897
v -9.498076 18.881866 -0.192588
v -9.485527 19.063276 -0.191920
v -9.403041 18.872522 0.682906
v -9.272429 19.209970 -0.180578
v -9.048100 19.221840 -0.168638
v -9.100964 19.082378 0.683313
v -8.883432 19.112177 -0.159874
v -8.905995 19.040667 0.682911
v -8.762165 19.028770 0.293035
v -8.599422 18.887455 -0.144647
v -8.658134 18.683287 0.293035
v -8.734853 18.539352 0.293035
v -8.790609 18.399673 0.293035
v -9.016596 18.332203 0.331768
v -9.263605 18.344763 0.293035
v -9.395822 18.427650 0.285260
v -9.492644 18.771942 0.293035
v -9.385102 18.831369 0.293035
v -9.349323 18.973703 0.293035
v -9.205654 19.077776 0.293035
v -9.000612 19.124966 0.293035
v -8.937549 19.016478 0.293035
vn 0.8441 0.5155 0.1474
vn 0.9803 0.0921 0.1745
vn 0.8745 -0.4661 0.1343
vn 0.9257 -0.3695 0.0811
vn 0.2941 -0.9542 0.0538
vn -0.0414 -0.9974 -0.0597
vn -0.5313 -0.8472 0.0027
vn -0.9599 -0.2715 0.0703
vn -0.4806 0.8697 0.1124
vn -0.9674 0.2432 -0.0702
vn -0.5818 0.8032 0.1283
vn -0.2240 0.9734 0.0486
vn 0.0004 0.0016 1.0000
vn 0.8602 0.5000 -0.1006
vn -0.0698 0.9960 -0.0561
vn 0.0531 -0.0000 -0.9986
vn 0.0673 0.9843 0.1633
vn 0.5461 0.8294 0.1179
vn -0.0655 0.9587 0.2768
vn -0.5519 0.7786 0.2988
vn -0.9575 0.0652 0.2810
vn -0.8659 0.4857 0.1196
vn -0.9452 -0.1319 0.2985
vn -0.8597 -0.4733 0.1919
vn -0.4703 -0.8650 0.1749
vn -0.2653 -0.9221 0.2816
vn 0.4241 -0.8832 0.2002
vn 0.9880 0.0771 0.1342
vn 0.6839 -0.7236 0.0933
vn 0.8439 0.5158 0.1473
vn 0.9790 0.1388 0.1491
vn 0.9973 -0.0710 -0.0177
vn 0.7936 -0.6079 -0.0249
vn 0.3225 -0.9459 0.0360
vn -0.3748 -0.9236 0.0803
vn -0.9888 -0.1451 -0.0340
vn -0.9244 0.3725 -0.0819
vn -0.5649 0.8129 0.1419
vn -0.0003 -0.0010 1.0000
vn -0.0003 -0.0016 1.0000
vn -0.0007 0.0002 1.0000
vn -0.0009 -0.0022 1.0000
vn -0.0008 -0.0001 1.0000
vn 0.0031 0.0046 1.0000
vn 0.0058 -0.0004 1.0000
vn 0.2069 0.9654 0.1585
vn 0.6643 0.7134 0.2233
vn 0.0531 -0.0005 -0.9986
vn 0.0526 0.0005 -0.9986
vn 0.0534 0.0000 -0.9986
vn 0.0536 0.0001 -0.9986
vn 0.0529 0.0005 -0.9986
vn -0.0685 0.9777 0.1984
vn 0.8462 0.4919 0.2050
vn -0.2187 0.9502 0.2219
vn -0.5605 0.7738 0.2950
vn -0.9407 0.2365 0.2434
vn -0.4739 0.8577 0.1994
vn -0.9393 -0.2690 0.2129
vn -0.5289 -0.8249 0.1998
vn -0.0817 -0.9754 0.2050
vn 0.3174 -0.9098 0.2672
vn 0.9285 -0.3706 -0.0204
vn 0.8823 -0.4703 -0.0214
vn 0.9910 0.0013 0.1335
s off
f 2//1 26//1 25//1
f 2//2 27//2 26//2
f 4//3 28//3 27//3
f 28//4 9//4 29//4
f 9//5 30//5 29//5
f 10//6 31//6 30//6
f 13//7 32//7 31//7
f 32//8 16//8 33//8
f 16//9 34//9 33//9
f 19//10 35//10 34//10
f 19//11 36//11 35//11
f 36//12 22//12 37//12
f 9//13 4//13 19//13
f 37//14 24//14 38//14
f 24//15 25//15 38//15
f 5//16 11//16 17//16
f 23//17 25//17 1//17
f 37//18 23//18 21//18
f 36//19 21//19 20//19
f 35//20 20//20 18//20
f 17//21 35//21 18//21
f 33//22 17//22 15//22
f 32//23 15//23 14//23
f 32//24 14//24 12//24
f 31//25 12//25 11//25
f 30//26 11//26 8//26
f 29//27 8//27 7//27
f 5//28 29//28 7//28
f 27//29 5//29 3//29
f 25//30 26//30 1//30
f 2//31 4//31 27//31
f 4//32 6//32 28//32
f 28//33 6//33 9//33
f 9//34 10//34 30//34
f 10//35 13//35 31//35
f 13//36 16//36 32//36
f 16//37 19//37 34//37
f 19//38 22//38 36//38
f 4//39 2//39 19//39
f 19//40 2//40 22//40
f 19//41 16//41 9//41
f 13//42 10//42 9//42
f 13//43 9//43 16//43
f 24//44 22//44 2//44
f 6//45 4//45 9//45
f 37//46 22//46 24//46
f 24//47 2//47 25//47
f 23//48 1//48 26//48
f 26//49 3//49 5//49
f 5//50 7//50 8//50
f 11//16 12//16 14//16
f 14//16 15//16 17//16
f 17//16 18//16 20//16
f 20//16 21//16 23//16
f 23//51 26//51 5//51
f 5//52 8//52 11//52
f 11//16 14//16 17//16
f 17//16 20//16 23//16
f 23//16 5//16 17//16
f 23//53 38//53 25//53
f 37//54 38//54 23//54
f 36//55 37//55 21//55
f 35//56 36//56 20//56
f 17//57 34//57 35//57
f 33//58 34//58 17//58
f 32//59 33//59 15//59
f 31//60 32//60 12//60
f 30//61 31//61 11//61
f 29//62 30//62 8//62
f 5//63 28//63 29//63
f 27//64 28//64 5//64
f 26//65 27//65 3//65
