# Blender v2.80 (sub 75) OBJ File: 'field.blend'
# www.blender.org
v -8.728243 19.100199 0.004593
v -8.747258 18.892792 0.711866
v -8.599149 18.682587 0.010415
v -8.717626 18.683987 0.711697
v -8.741610 18.546957 0.003990
v -8.728458 18.531750 0.711697
v -8.724846 18.330492 0.004746
v -9.025735 18.182352 -0.008901
v -8.819594 18.412760 0.712101
v -9.106529 18.314913 0.711697
v -9.255446 18.244741 -0.019182
v -9.461983 18.354816 -0.028497
v -9.411097 18.438492 0.711688
v -9.562937 18.536034 -0.033049
v -9.589154 18.720692 -0.034232
v -9.455630 18.742016 0.711685
v -9.498076 18.881866 -0.030124
v -9.485527 19.063276 -0.029558
v -9.403041 18.872522 0.711693
v -9.272429 19.209970 -0.019948
v -9.048100 19.221840 -0.009832
v -9.100964 19.082378 0.712038
v -8.883432 19.112177 -0.002406
v -8.905995 19.040667 0.711697
v -8.762165 19.028770 0.381350
v -8.599422 18.887455 0.010497
v -8.658134 18.683287 0.381350
v -8.734853 18.539352 0.381350
v -8.790609 18.399673 0.381350
v -9.016596 18.332203 0.414169
v -9.263605 18.344763 0.381350
v -9.395822 18.427650 0.374763
v -9.492644 18.771942 0.381350
v -9.385102 18.831369 0.381350
v -9.349323 18.973703 0.381350
v -9.205654 19.077776 0.381350
v -9.000612 19.124966 0.381350
v -8.937549 19.016478 0.381350
vn 0.8405 0.5133 0.1733
vn 0.9745 0.0916 0.2047
vn 0.8714 -0.4645 0.1579
vn 0.9245 -0.3690 0.0956
vn 0.2940 -0.9537 0.0635
vn -0.0413 -0.9967 -0.0704
vn -0.5313 -0.8472 0.0032
vn -0.9589 -0.2713 0.0829
vn -0.4794 0.8676 0.1323
vn -0.9665 0.2429 -0.0827
vn -0.5799 0.8006 0.1509
vn -0.2239 0.9729 0.0574
vn 0.0004 0.0014 1.0000
vn 0.8584 0.4990 -0.1185
vn -0.0698 0.9954 -0.0662
vn 0.0451 -0.0000 -0.9990
vn 0.0669 0.9792 0.1917
vn 0.5446 0.8271 0.1387
vn -0.0645 0.9446 0.3219
vn -0.5424 0.7653 0.3466
vn -0.9430 0.0642 0.3266
vn -0.8635 0.4843 0.1408
vn -0.9291 -0.1297 0.3463
vn -0.8536 -0.4699 0.2249
vn -0.4675 -0.8598 0.2052
vn -0.2613 -0.9081 0.3273
vn 0.4208 -0.8763 0.2345
vn 0.9845 0.0768 0.1578
vn 0.6827 -0.7223 0.1099
vn 0.8404 0.5137 0.1731
vn 0.9748 0.1382 0.1753
vn 0.9973 -0.0710 -0.0209
vn 0.7935 -0.6079 -0.0293
vn 0.3224 -0.9456 0.0425
vn -0.3743 -0.9225 0.0946
vn -0.9886 -0.1450 -0.0402
vn -0.9232 0.3720 -0.0965
vn -0.5627 0.8097 0.1669
vn -0.0002 -0.0008 1.0000
vn -0.0002 -0.0013 1.0000
vn -0.0006 0.0002 1.0000
vn -0.0008 -0.0018 1.0000
vn -0.0007 -0.0001 1.0000
vn 0.0026 0.0039 1.0000
vn 0.0049 -0.0003 1.0000
vn 0.2059 0.9607 0.1862
vn 0.6579 0.7065 0.2610
vn 0.0450 -0.0005 -0.9990
vn 0.0446 0.0005 -0.9990
vn 0.0453 0.0000 -0.9990
vn 0.0450 -0.0000 -0.9990
vn 0.0455 0.0001 -0.9990
vn 0.0448 0.0004 -0.9990
vn -0.0680 0.9702 0.2324
vn 0.8393 0.4879 0.2400
vn -0.2166 0.9412 0.2594
vn -0.5512 0.7609 0.3424
vn -0.9299 0.2337 0.2840
vn -0.4703 0.8510 0.2336
vn -0.9311 -0.2666 0.2491
vn -0.5248 -0.8185 0.2339
vn -0.0811 -0.9674 0.2399
vn 0.3131 -0.8973 0.3111
vn 0.9285 -0.3706 -0.0241
vn 0.8822 -0.4702 -0.0253
vn 0.9876 0.0013 0.1570
s off
f 2//1 26//1 25//1
f 2//2 27//2 26//2
f 4//3 28//3 27//3
f 28//4 9//4 29//4
f 9//5 30//5 29//5
f 10//6 31//6 30//6
f 13//7 32//7 31//7
f 32//8 16//8 33//8
f 16//9 34//9 33//9
f 19//10 35//10 34//10
f 19//11 36//11 35//11
f 36//12 22//12 37//12
f 9//13 4//13 19//13
f 37//14 24//14 38//14
f 24//15 25//15 38//15
f 5//16 11//16 17//16
f 23//17 25//17 1//17
f 37//18 23//18 21//18
f 36//19 21//19 20//19
f 35//20 20//20 18//20
f 17//21 35//21 18//21
f 33//22 17//22 15//22
f 32//23 15//23 14//23
f 32//24 14//24 12//24
f 31//25 12//25 11//25
f 30//26 11//26 8//26
f 29//27 8//27 7//27
f 5//28 29//28 7//28
f 27//29 5//29 3//29
f 25//30 26//30 1//30
f 2//31 4//31 27//31
f 4//32 6//32 28//32
f 28//33 6//33 9//33
f 9//34 10//34 30//34
f 10//35 13//35 31//35
f 13//36 16//36 32//36
f 16//37 19//37 34//37
f 19//38 22//38 36//38
f 4//39 2//39 19//39
f 19//40 2//40 22//40
f 19//41 16//41 9//41
f 13//42 10//42 9//42
f 13//43 9//43 16//43
f 24//44 22//44 2//44
f 6//45 4//45 9//45
f 37//46 22//46 24//46
f 24//47 2//47 25//47
f 23//48 1//48 26//48
f 26//49 3//49 5//49
f 5//50 7//50 8//50
f 11//51 12//51 14//51
f 14//16 15//16 17//16
f 17//16 18//16 20//16
f 20//16 21//16 23//16
f 23//52 26//52 5//52
f 5//53 8//53 11//53
f 11//16 14//16 17//16
f 17//16 20//16 23//16
f 23//16 5//16 17//16
f 23//54 38//54 25//54
f 37//55 38//55 23//55
f 36//56 37//56 21//56
f 35//57 36//57 20//57
f 17//58 34//58 35//58
f 33//59 34//59 17//59
f 32//60 33//60 15//60
f 31//61 32//61 12//61
f 30//62 31//62 11//62
f 29//63 30//63 8//63
f 5//64 28//64 29//64
f 27//65 28//65 5//65
f 26//66 27//66 3//66
