# Blender v2.80 (sub 75) OBJ File: 'field.blend'
# www.blender.org
v 9.068212 -24.893183 2.915993
v 13.094675 -24.878275 3.020111
v 16.859638 -24.829435 3.276339
v 4.108731 -24.047705 2.960352
v 11.721338 -24.044012 3.005975
v 9.487944 -23.253660 2.965075
v 15.219241 -23.550192 3.179147
v 10.030383 -22.458349 2.851915
v 14.906905 -22.386841 3.007895
v 9.912646 -21.680714 2.680523
v 14.875628 -21.210646 2.724639
v 9.600072 -20.906933 2.446107
v 9.232791 -20.143541 2.117238
v 14.642704 -20.100624 2.233860
v 8.685556 -19.374479 1.702096
v 14.144753 -19.364225 1.837063
v 8.522492 -18.659363 1.173008
v 13.851032 -18.632349 1.248999
v 8.630866 -17.950821 0.524091
v 14.006464 -17.919117 0.689056
v 9.314670 -16.203962 -1.260757
v 14.286871 -17.095060 -0.161456
v 9.698118 -15.344405 -2.504224
v 15.114472 -15.732326 -1.747135
v 15.405107 -15.119724 -2.413517
v 9.982129 -14.521928 -3.311270
v 15.468719 -14.448805 -3.037026
v 9.928496 -13.817426 -3.854431
v 15.211878 -13.740141 -3.594902
v 9.310134 -12.952453 -4.404056
v 12.086483 -11.263497 -5.215158
v 14.523714 -12.776097 -4.245525
v 7.005096 -10.904755 -5.561563
v 5.845222 -9.689960 -6.136809
v 11.454901 -9.653074 -5.997204
v 3.861559 -8.166503 -6.630551
v 11.855680 -8.077924 -6.484338
v 1.001788 -6.556303 -6.892635
v -2.675044 -4.135221 -7.129399
v 4.625522 -6.505523 -6.966464
v 12.538839 -6.486384 -6.808002
v -0.483627 -3.548697 -7.370589
v -5.744201 -3.174128 -7.119421
v 2.740115 -1.336673 -7.770138
v 20.600285 -1.285987 -7.425706
v -10.124308 -1.274900 -7.464553
v -3.662686 -1.322004 -7.705678
vn -0.0059 -0.0870 0.9962
vn -0.0678 -0.0111 0.9976
vn -0.0299 0.1377 0.9900
vn -0.0229 0.3862 0.9221
vn -0.0145 0.5926 0.8054
vn -0.0277 0.6210 0.7833
vn -0.0235 0.7219 0.6916
vn -0.0271 0.4686 0.8830
vn -0.0254 0.4079 0.9127
vn 0.0173 0.1905 0.9815
vn 0.0178 0.1655 0.9861
vn 0.0492 0.2170 0.9749
vn 0.0103 0.1632 0.9865
vn -0.0257 -0.0255 0.9993
vn -0.0420 -0.0523 0.9977
vn -0.0307 0.2332 0.9719
vn -0.0060 0.0347 0.9994
vn -0.0405 -0.0628 0.9972
vn -0.0339 0.1634 0.9860
vn -0.0348 0.2769 0.9603
vn -0.0254 0.3998 0.9163
vn -0.0228 0.4623 0.8865
vn -0.0205 0.6212 0.7834
vn -0.0139 0.6765 0.7363
vn -0.0255 0.7193 0.6942
vn -0.0074 0.7603 0.6495
vn -0.0399 0.7442 0.6668
vn -0.0456 0.6824 0.7296
vn -0.0477 0.6071 0.7932
vn -0.0493 0.5343 0.8438
vn -0.0430 0.4891 0.8712
vn -0.0315 0.4266 0.9039
vn -0.0257 0.3013 0.9532
vn -0.0201 0.2075 0.9780
vn -0.0195 0.1477 0.9888
vn 0.0585 0.1848 0.9810
vn 0.0136 0.1585 0.9873
vn 0.0736 0.2249 0.9716
vn 0.0379 0.2626 0.9642
vn -0.0343 0.2101 0.9771
vn -0.0228 0.4623 0.8864
vn -0.0198 0.8253 0.5644
vn -0.0390 0.7067 0.7065
vn -0.0478 0.6076 0.7928
vn -0.0434 0.5135 0.8570
vn -0.0207 0.2838 0.9587
vn -0.0202 0.2071 0.9781
vn -0.0202 0.1464 0.9890
s off
f 1//1 5//1 4//1
f 3//2 7//2 2//2
f 7//3 9//3 6//3
f 12//4 14//4 13//4
f 15//5 18//5 17//5
f 18//6 20//6 19//6
f 20//7 22//7 21//7
f 30//8 31//8 33//8
f 33//9 35//9 34//9
f 36//10 40//10 38//10
f 38//11 40//11 42//11
f 39//12 42//12 47//12
f 42//13 44//13 47//13
f 1//14 2//14 5//14
f 2//15 7//15 5//15
f 10//16 9//16 11//16
f 4//17 5//17 6//17
f 5//18 7//18 6//18
f 6//19 9//19 8//19
f 10//20 11//20 12//20
f 12//21 11//21 14//21
f 16//22 13//22 14//22
f 15//23 16//23 18//23
f 17//24 18//24 19//24
f 19//25 20//25 21//25
f 24//26 21//26 22//26
f 23//27 24//27 25//27
f 26//28 25//28 27//28
f 29//29 26//29 27//29
f 32//30 28//30 29//30
f 30//31 32//31 31//31
f 33//32 31//32 35//32
f 37//33 34//33 35//33
f 40//34 37//34 41//34
f 44//35 41//35 45//35
f 39//36 38//36 42//36
f 42//37 40//37 44//37
f 43//38 39//38 47//38
f 43//39 47//39 46//39
f 10//40 8//40 9//40
f 16//41 15//41 13//41
f 24//42 23//42 21//42
f 26//43 23//43 25//43
f 29//44 28//44 26//44
f 32//45 30//45 28//45
f 37//46 36//46 34//46
f 40//47 36//47 37//47
f 44//48 40//48 41//48
