# Blender v2.80 (sub 75) OBJ File: 'field.blend'
# www.blender.org
v -13.179598 -2.588022 -7.290453
v 5.393745 -2.576607 -7.445479
v 11.550913 -2.585252 -7.327513
v 33.180412 -2.692859 -5.934404
v -19.319649 -2.589980 -7.277577
v -7.529729 -2.579406 -7.363172
v 22.245449 -2.669468 -6.318672
v 28.382448 -2.694726 -5.998854
v 5.119433 3.071764 -6.960270
v 15.987170 -2.611959 -6.976075
v 26.893635 -0.236888 -5.342849
v -13.853662 1.257284 -6.615943
v 9.299078 4.177518 -6.763482
v -3.882518 1.412063 -6.895419
v 22.633232 1.027214 -5.389521
v -19.319658 1.356386 -6.595483
v 18.319897 -0.617393 -6.342144
v 30.341347 3.328455 -4.319583
v 33.180344 3.347559 -4.326310
v -7.353911 2.388233 -6.541480
v 13.861355 5.270629 -6.165428
v 19.781010 5.052375 -5.061417
v -15.173109 3.474765 -5.965369
v 0.069563 4.522376 -6.496874
v 27.170786 4.017837 -4.306212
v -6.346985 4.008801 -6.112196
v 5.017581 4.521706 -6.728753
v 22.661873 6.654159 -4.230680
v -13.743393 4.732056 -5.505757
v -3.127635 5.147284 -5.991142
v 33.180443 6.050361 -3.860739
v -19.319937 5.657726 -5.281850
v -13.638193 6.204670 -4.825039
v -3.328897 6.051608 -5.568200
v 3.541792 6.979078 -5.896036
v 6.060539 5.955983 -6.424665
v 14.330116 6.435680 -5.816892
v 26.857811 6.267833 -3.929912
v 10.765537 7.146686 -5.994862
v -8.243785 6.232285 -4.978817
v 14.303256 8.106613 -5.198232
v 20.345535 7.478345 -4.330458
v -4.203932 8.112478 -4.249898
v 3.118798 8.549548 -4.968032
v 6.949963 7.748670 -5.753777
v 20.449352 8.509637 -3.909442
v 33.180069 9.825586 -3.068623
v -5.381542 10.488953 -2.606564
v -1.911945 10.516060 -2.925384
v 12.000832 9.105134 -4.904507
v 25.258703 9.615405 -3.003395
v 27.052172 8.933753 -3.212514
v -14.697914 9.355715 -3.220951
v 6.550857 9.781173 -4.413564
v 18.386726 10.036545 -3.438243
v 21.302498 10.123882 -3.008036
v 31.086191 9.565438 -3.045283
v -19.319307 9.819819 -3.407885
v -10.158548 9.521767 -2.987078
v 10.598567 9.884442 -4.400804
v 1.501430 13.098297 -1.518145
v 8.272792 12.726821 -2.098448
v 16.938601 12.140816 -2.204175
v -5.008283 12.043829 -1.741687
v 4.510197 12.146844 -2.366584
v 12.970762 12.830904 -1.984781
v 20.096909 13.205150 -1.361563
v 28.759348 13.633177 -1.403436
v 33.182571 14.997454 -1.472656
v -8.198895 12.697092 -1.414295
v 6.392099 14.343555 -1.045098
v 24.972137 13.424273 -1.271716
v -14.784897 14.083599 -1.335236
v -10.685183 13.729215 -1.109921
v -1.992617 14.563191 -0.658930
v 11.705811 14.336351 -1.117310
v 25.525137 14.987280 -0.811553
v -19.319792 14.636316 -1.785682
v 10.326843 15.544668 -0.621947
v 19.774220 14.624224 -0.809702
v -16.541512 15.628686 -1.162624
v -10.890226 15.861513 -0.528553
v -3.811444 15.841104 -0.256767
v 29.250761 15.799402 -0.886224
v 0.277009 17.328896 -0.014320
v 12.205958 16.777649 -0.293210
v 21.184504 16.547085 -0.381785
v 33.180862 18.518749 -1.152819
v -19.323618 17.562021 -1.350512
v -11.977362 17.482897 -0.392612
v -6.227196 17.411953 -0.037671
v 16.314602 18.372242 -0.081409
v 28.604187 18.752724 -0.612640
v -9.268478 19.373997 -0.126340
v -3.588787 18.616741 0.109093
v -14.689611 19.242031 -0.656740
v 10.383873 20.070110 0.067527
v 22.375423 18.405733 -0.218385
v -19.324430 20.327921 -1.544394
v -12.885859 20.722239 -0.599775
v 33.182465 22.044151 -1.565093
v -9.683680 21.945011 -0.469928
v -3.780297 20.912712 0.021367
v 14.054597 21.915428 -0.103858
v 19.909161 20.813515 -0.133277
v 28.153828 20.438599 -0.640231
v -19.323418 22.061581 -1.953763
v -13.380600 21.977434 -0.924643
v -5.233957 21.916630 -0.177267
v 2.016866 21.910162 -0.094622
v 20.432476 21.925657 -0.287882
v 25.317692 21.952230 -0.616188
v 29.607380 21.991089 -1.051590
vn 0.0064 -0.0853 0.9963
vn 0.0021 -0.1724 0.9850
vn -0.0192 -0.0865 0.9961
vn -0.0128 -0.2651 0.9641
vn 0.0129 -0.1706 0.9853
vn 0.0342 -0.1471 0.9885
vn -0.1463 -0.1402 0.9793
vn 0.0309 -0.2416 0.9699
vn -0.0467 -0.2336 0.9712
vn 0.0039 -0.2921 0.9564
vn 0.0477 -0.1863 0.9813
vn -0.1867 -0.1704 0.9675
vn -0.1453 -0.1822 0.9725
vn 0.0184 -0.3617 0.9321
vn 0.0811 -0.3020 0.9498
vn -0.0047 -0.1580 0.9874
vn -0.0163 -0.3269 0.9449
vn -0.1684 -0.1980 0.9656
vn -0.0865 -0.1760 0.9806
vn 0.0331 -0.4213 0.9063
vn 0.0831 -0.3347 0.9387
vn -0.0083 -0.2016 0.9794
vn -0.0262 -0.1396 0.9899
vn -0.0328 -0.4174 0.9081
vn 0.0635 -0.4112 0.9093
vn 0.0663 -0.3244 0.9436
vn -0.0287 -0.2372 0.9710
vn -0.0978 -0.2489 0.9636
vn -0.1867 -0.2119 0.9593
vn -0.1328 -0.2575 0.9571
vn -0.0288 -0.4612 0.8868
vn 0.0272 -0.5061 0.8620
vn 0.1068 -0.4843 0.8683
vn -0.1685 -0.3446 0.9235
vn 0.0035 -0.2240 0.9746
vn -0.0779 -0.4093 0.9091
vn 0.0966 -0.5333 0.8404
vn 0.0750 -0.4923 0.8672
vn -0.0797 -0.4460 0.8915
vn 0.0007 -0.2599 0.9656
vn 0.0332 -0.5035 0.8634
vn 0.1139 -0.5606 0.8202
vn -0.1181 -0.5210 0.8453
vn -0.1186 -0.4356 0.8923
vn 0.0859 -0.6085 0.7889
vn 0.0302 -0.4914 0.8704
vn -0.0640 -0.4897 0.8696
vn 0.0030 -0.4137 0.9104
vn 0.0536 -0.3472 0.9362
vn -0.1319 -0.3164 0.9394
vn -0.0459 -0.5327 0.8450
vn 0.0018 -0.4138 0.9104
vn 0.1053 -0.2933 0.9502
vn 0.0394 -0.4340 0.9001
vn 0.0459 -0.5073 0.8606
vn -0.0465 -0.5277 0.8481
vn -0.0181 -0.3227 0.9463
vn -0.0224 -0.3668 0.9300
vn 0.0185 -0.2884 0.9573
vn 0.0496 -0.2982 0.9532
vn 0.0925 -0.2510 0.9635
vn -0.0997 -0.2217 0.9700
vn -0.0377 -0.2662 0.9632
vn 0.0121 -0.3674 0.9300
vn -0.0207 -0.3994 0.9166
vn -0.1668 -0.1453 0.9752
vn 0.0199 -0.2858 0.9581
vn 0.0040 -0.2200 0.9755
vn 0.0147 -0.2274 0.9737
vn -0.1297 -0.0907 0.9874
vn -0.0627 -0.1250 0.9902
vn -0.0054 -0.1463 0.9892
vn 0.0138 -0.1976 0.9802
vn 0.0509 -0.1198 0.9915
vn 0.0060 -0.1468 0.9891
vn 0.1136 -0.0670 0.9913
vn -0.0974 -0.0007 0.9952
vn -0.0446 -0.0240 0.9987
vn 0.0087 -0.0695 0.9975
vn -0.1721 0.0688 0.9827
vn 0.0089 -0.0566 0.9984
vn 0.1195 0.0482 0.9917
vn -0.1524 0.1481 0.9771
vn -0.0990 0.0825 0.9917
vn -0.0610 0.1225 0.9906
vn 0.1391 0.1299 0.9817
vn -0.0111 0.1787 0.9838
vn 0.0007 0.1114 0.9938
vn 0.0659 0.1069 0.9921
vn -0.1043 -0.1884 0.9765
vn 0.0006 -0.1703 0.9854
vn -0.0510 -0.2863 0.9568
vn 0.0300 -0.1433 0.9892
vn -0.0229 -0.0907 0.9956
vn -0.0792 -0.1090 0.9909
vn -0.1257 -0.2294 0.9652
vn -0.0804 -0.2350 0.9687
vn -0.0126 -0.2646 0.9643
vn -0.0792 -0.2311 0.9697
vn 0.0040 -0.2573 0.9663
vn -0.0015 -0.2824 0.9593
vn 0.0346 -0.2623 0.9644
vn 0.0506 -0.2850 0.9572
vn -0.1106 -0.2962 0.9487
vn -0.0987 -0.1281 0.9868
vn -0.1007 -0.2002 0.9746
vn 0.0035 -0.1698 0.9855
vn 0.0279 -0.4350 0.9000
vn 0.1007 -0.3823 0.9185
vn 0.0454 -0.2387 0.9700
vn 0.0942 -0.4045 0.9097
vn 0.0927 -0.3582 0.9290
vn -0.0763 -0.2144 0.9738
vn 0.0447 -0.3695 0.9281
vn 0.0036 -0.3521 0.9360
vn -0.1931 -0.2416 0.9510
vn -0.0923 -0.2525 0.9632
vn -0.0698 -0.1740 0.9823
vn -0.0270 -0.4607 0.8872
vn 0.0838 -0.5115 0.8552
vn 0.1140 -0.5005 0.8582
vn -0.1156 -0.3465 0.9309
vn -0.0197 -0.4768 0.8788
vn -0.1691 -0.3579 0.9183
vn 0.0114 -0.5489 0.8358
vn -0.0286 -0.3612 0.9320
vn 0.0364 -0.2052 0.9780
vn 0.0812 -0.5393 0.8382
vn 0.0588 -0.5415 0.8387
vn 0.0578 -0.5356 0.8425
vn -0.1511 -0.4722 0.8684
vn 0.0875 -0.6013 0.7942
vn -0.0604 -0.4621 0.8848
vn -0.0309 -0.4283 0.9031
vn 0.0045 -0.2825 0.9593
vn -0.0752 -0.3767 0.9233
vn -0.0518 -0.3952 0.9171
vn 0.0010 -0.4443 0.8959
vn -0.0560 -0.6112 0.7895
vn 0.0648 -0.5422 0.8378
vn 0.0424 -0.6326 0.7733
vn 0.0134 -0.6227 0.7823
vn -0.0048 -0.6318 0.7751
vn 0.0627 0.0289 0.9976
vn -0.1078 -0.5571 0.8234
vn -0.1050 -0.5559 0.8246
vn 0.0518 -0.3482 0.9360
vn -0.0824 -0.3634 0.9280
vn -0.0666 -0.4904 0.8690
vn 0.0356 -0.6001 0.7991
vn 0.0107 -0.4056 0.9140
vn 0.0292 -0.4530 0.8910
vn 0.0107 -0.5371 0.8435
vn -0.0097 -0.5053 0.8629
vn -0.0009 -0.3626 0.9319
vn -0.1259 -0.2503 0.9599
vn 0.0462 -0.1543 0.9869
vn 0.0733 -0.2473 0.9662
vn -0.0760 -0.2691 0.9601
vn -0.0181 -0.3234 0.9461
vn 0.0308 -0.4203 0.9069
vn 0.0183 -0.2763 0.9609
vn -0.0051 -0.2503 0.9682
vn 0.0493 -0.1354 0.9896
vn -0.1040 -0.1521 0.9829
vn -0.0382 -0.1954 0.9800
vn 0.1290 -0.0896 0.9876
vn 0.0152 -0.1700 0.9853
vn 0.0230 -0.1022 0.9945
vn 0.0673 -0.0774 0.9947
vn -0.1297 -0.0512 0.9902
vn -0.0622 -0.0513 0.9967
vn -0.0050 -0.1102 0.9939
vn 0.0226 -0.0086 0.9997
vn -0.0367 0.0351 0.9987
vn -0.0010 0.0381 0.9993
vn 0.0221 -0.0127 0.9997
vn -0.1539 0.1903 0.9696
vn 0.1441 0.1149 0.9829
vn -0.0853 0.1184 0.9893
vn 0.0020 0.0885 0.9961
vn 0.0163 0.0602 0.9981
vn -0.1177 0.2051 0.9716
vn -0.0646 0.1028 0.9926
vn 0.0284 0.1245 0.9918
vn 0.0661 0.1080 0.9919
vn 0.0980 0.1681 0.9809
vn -0.1670 -0.3582 0.9186
vn 0.0031 -0.5389 0.8424
vn 0.0831 -0.4996 0.8623
vn -0.0609 -0.6031 0.7953
vn 0.0613 0.0327 0.9976
vn 0.0396 -0.1763 0.9835
vn -0.1631 0.2268 0.9602
s off
f 2//1 9//1 6//1
f 1//2 12//2 5//2
f 2//3 3//3 9//3
f 8//4 4//4 11//4
f 6//5 12//5 1//5
f 9//6 14//6 6//6
f 10//7 17//7 21//7
f 14//8 20//8 12//8
f 11//9 18//9 25//9
f 16//10 23//10 32//10
f 14//11 24//11 20//11
f 17//12 22//12 21//12
f 17//13 15//13 22//13
f 20//14 29//14 23//14
f 24//15 26//15 20//15
f 9//16 13//16 27//16
f 23//17 29//17 32//17
f 22//18 15//18 28//18
f 25//19 38//19 28//19
f 26//20 33//20 29//20
f 24//21 30//21 26//21
f 27//22 13//22 36//22
f 18//23 31//23 25//23
f 29//24 33//24 32//24
f 24//25 34//25 30//25
f 36//26 35//26 24//26
f 13//27 39//27 36//27
f 21//28 37//28 39//28
f 21//29 22//29 37//29
f 22//30 28//30 42//30
f 33//31 59//31 53//31
f 40//32 59//32 33//32
f 35//33 44//33 34//33
f 37//34 42//34 41//34
f 31//35 57//35 25//35
f 32//36 53//36 58//36
f 43//37 48//37 40//37
f 45//38 44//38 35//38
f 39//39 41//39 50//39
f 38//40 57//40 52//40
f 48//41 59//41 40//41
f 44//42 49//42 43//42
f 41//43 55//43 50//43
f 46//44 56//44 55//44
f 54//45 65//45 49//45
f 48//46 64//46 59//46
f 56//47 51//47 67//47
f 57//48 72//48 51//48
f 47//49 68//49 57//49
f 58//50 73//50 78//50
f 63//51 67//51 66//51
f 51//52 72//52 67//52
f 47//53 69//53 68//53
f 61//54 75//54 64//54
f 62//55 71//55 61//55
f 66//56 67//56 76//56
f 70//57 75//57 74//57
f 67//58 80//58 76//58
f 72//59 77//59 80//59
f 68//60 77//60 72//60
f 69//61 84//61 68//61
f 73//62 82//62 81//62
f 74//63 83//63 82//63
f 76//64 79//64 71//64
f 76//65 80//65 79//65
f 78//66 81//66 89//66
f 79//67 86//67 75//67
f 80//68 87//68 86//68
f 77//69 87//69 80//69
f 81//70 90//70 89//70
f 82//71 91//71 90//71
f 83//72 85//72 91//72
f 86//73 85//73 83//73
f 84//74 98//74 87//74
f 87//75 92//75 86//75
f 88//76 93//76 84//76
f 90//77 94//77 96//77
f 91//78 95//78 94//78
f 92//79 95//79 85//79
f 89//80 96//80 99//80
f 92//81 97//81 95//81
f 88//82 106//82 93//82
f 96//83 100//83 99//83
f 96//84 94//84 100//84
f 94//85 103//85 102//85
f 101//86 113//86 106//86
f 103//87 110//87 109//87
f 104//88 110//88 103//88
f 106//89 111//89 105//89
f 10//90 7//90 17//90
f 16//91 5//91 12//91
f 7//92 8//92 11//92
f 6//93 14//93 12//93
f 9//94 3//94 13//94
f 13//95 3//95 10//95
f 17//96 7//96 15//96
f 7//97 11//97 15//97
f 11//98 4//98 18//98
f 15//99 11//99 25//99
f 4//100 19//100 18//100
f 16//101 12//101 23//101
f 12//102 20//102 23//102
f 20//103 26//103 29//103
f 46//104 28//104 51//104
f 13//105 10//105 21//105
f 15//106 25//106 28//106
f 19//107 31//107 18//107
f 26//108 40//108 33//108
f 26//109 30//109 40//109
f 27//110 36//110 24//110
f 30//111 34//111 40//111
f 24//112 35//112 34//112
f 13//113 21//113 39//113
f 36//114 45//114 35//114
f 36//115 39//115 45//115
f 37//116 22//116 42//116
f 28//117 38//117 52//117
f 38//118 25//118 57//118
f 32//119 33//119 53//119
f 34//120 43//120 40//120
f 34//121 44//121 43//121
f 39//122 37//122 41//122
f 45//123 39//123 50//123
f 41//124 42//124 46//124
f 45//125 60//125 54//125
f 28//126 52//126 51//126
f 31//127 47//127 57//127
f 43//128 49//128 48//128
f 45//129 54//129 44//129
f 64//130 49//130 61//130
f 41//131 46//131 55//131
f 44//132 54//132 49//132
f 46//133 51//133 56//133
f 53//134 59//134 70//134
f 52//135 57//135 51//135
f 58//136 53//136 74//136
f 53//137 70//137 74//137
f 59//138 64//138 70//138
f 63//139 60//139 50//139
f 49//140 65//140 61//140
f 65//141 54//141 62//141
f 54//142 60//142 62//142
f 60//143 66//143 62//143
f 98//144 106//144 105//144
f 50//145 55//145 63//145
f 55//146 56//146 63//146
f 57//147 68//147 72//147
f 58//148 74//148 73//148
f 63//149 56//149 67//149
f 65//150 62//150 61//150
f 64//151 75//151 70//151
f 61//152 71//152 75//152
f 62//153 76//153 71//153
f 62//154 66//154 76//154
f 67//155 72//155 80//155
f 78//156 73//156 81//156
f 24//157 9//157 27//157
f 68//158 84//158 77//158
f 73//159 74//159 82//159
f 74//160 75//160 83//160
f 71//161 79//161 75//161
f 75//162 86//162 83//162
f 79//163 80//163 86//163
f 77//164 84//164 87//164
f 81//165 82//165 90//165
f 82//166 83//166 91//166
f 69//167 88//167 84//167
f 86//168 92//168 85//168
f 87//169 98//169 92//169
f 84//170 93//170 98//170
f 89//171 90//171 96//171
f 90//172 91//172 94//172
f 91//173 85//173 95//173
f 92//174 98//174 97//174
f 94//175 95//175 103//175
f 95//176 97//176 103//176
f 98//177 105//177 97//177
f 108//178 99//178 100//178
f 88//179 101//179 106//179
f 100//180 94//180 102//180
f 97//181 104//181 103//181
f 97//182 105//182 104//182
f 100//183 102//183 108//183
f 102//184 103//184 109//184
f 105//185 111//185 104//185
f 106//186 112//186 111//186
f 106//187 113//187 112//187
f 46//188 42//188 28//188
f 45//189 50//189 60//189
f 64//190 48//190 49//190
f 63//191 66//191 60//191
f 98//192 93//192 106//192
f 24//193 14//193 9//193
f 108//194 107//194 99//194
