# Blender v2.80 (sub 75) OBJ File: ''
# www.blender.org
v 0.000000 2.500000 -0.000000
v 0.487726 2.451963 -0.000000
v 0.956709 2.309699 -0.000000
v 1.388926 2.078674 -0.000000
v 1.767767 1.767767 -0.000000
v 2.078674 1.388925 -0.000000
v 2.309699 0.956709 -0.000000
v 2.451963 0.487726 -0.000000
v 2.500000 0.000000 -0.000000
v 2.451963 -0.487725 -0.000000
v 2.309699 -0.956708 -0.000000
v 2.078674 -1.388925 -0.000000
v 1.767767 -1.767767 -0.000000
v 1.388925 -2.078674 -0.000000
v 0.956708 -2.309699 -0.000000
v 0.487725 -2.451963 -0.000000
v -0.000001 -2.500000 -0.000000
v -0.487727 -2.451963 -0.000000
v -0.956710 -2.309698 -0.000000
v -1.388927 -2.078673 -0.000000
v -1.767768 -1.767766 -0.000000
v -2.078675 -1.388924 -0.000000
v -2.309700 -0.956707 -0.000000
v -2.451964 -0.487724 -0.000000
v -2.500000 0.000002 -0.000000
v -2.451963 0.487728 -0.000000
v -2.309698 0.956711 -0.000000
v -2.078672 1.388928 -0.000000
v -1.767765 1.767769 -0.000000
v -1.388923 2.078676 -0.000000
v -0.956705 2.309700 -0.000000
v -0.487722 2.451964 -0.000000
vn 0.0000 0.0000 1.0000
s off
f 27//1 19//1 11//1
f 3//1 2//1 1//1
f 1//1 32//1 3//1
f 32//1 31//1 3//1
f 31//1 30//1 29//1
f 29//1 28//1 27//1
f 27//1 26//1 25//1
f 25//1 24//1 27//1
f 24//1 23//1 27//1
f 23//1 22//1 19//1
f 22//1 21//1 19//1
f 21//1 20//1 19//1
f 19//1 18//1 17//1
f 17//1 16//1 15//1
f 15//1 14//1 13//1
f 13//1 12//1 11//1
f 11//1 10//1 9//1
f 9//1 8//1 11//1
f 8//1 7//1 11//1
f 7//1 6//1 5//1
f 5//1 4//1 3//1
f 31//1 29//1 3//1
f 29//1 27//1 3//1
f 19//1 17//1 11//1
f 17//1 15//1 11//1
f 15//1 13//1 11//1
f 7//1 5//1 11//1
f 5//1 3//1 11//1
f 27//1 23//1 19//1
f 3//1 27//1 11//1
