# Blender v2.80 (sub 75) OBJ File: 'pond.blend'
# www.blender.org
v 3.166004 -5.575119 0.101082
v 2.075738 -5.276565 0.018225
v 2.590055 -5.487393 0.045213
v 3.702220 -5.570858 0.228324
v 1.628634 -5.319367 0.152192
v 3.753408 -4.800900 0.068387
v 2.193445 -4.382115 -0.207752
v 2.884142 -4.526082 -0.174662
v 3.357783 -4.631220 -0.075447
v 1.278176 -3.174209 -0.331025
v -0.420276 -3.579870 0.202021
v 1.772202 -2.339328 -0.658409
v 2.243199 -2.269960 -0.698743
v 4.216771 -2.884423 0.047121
v 2.798440 -2.424435 -0.619081
v 3.338136 -2.306843 -0.478983
v -0.936774 -2.260320 -0.051517
v -0.170626 -2.384847 -0.281406
v 3.497223 -1.473845 -0.482356
v 4.466382 -1.658703 0.181732
v -1.191145 -1.593740 -0.093120
v 0.028094 -1.771882 -0.466326
v -0.087599 -0.847258 -0.614336
v 0.795354 -1.195348 -0.666447
v 1.981019 -1.285685 -0.794239
v 2.774348 -1.420570 -0.726270
v 3.176029 -0.899476 -0.579277
v 4.115298 -0.111505 0.079029
v -1.542613 -0.961889 -0.040004
v -1.303111 -0.156554 -0.465057
v -0.860021 -0.327337 -0.573779
v 1.032541 -0.448555 -0.726098
v 2.079148 -0.442334 -0.760375
v -0.606505 0.095270 -0.687101
v 1.128887 0.062707 -0.710962
v 2.238398 0.271212 -0.632959
v 2.730170 -0.109703 -0.599307
v -2.298134 0.756803 -0.200600
v -2.179500 1.101936 -0.394914
v -0.430964 0.714070 -0.720155
v -1.583585 1.569582 -0.591299
v 3.816523 0.681833 0.033851
v 0.000291 1.150241 -0.678440
v 1.283033 0.752353 -0.626004
v 3.156170 1.308612 -0.122128
v -2.580663 0.705133 0.066301
v 2.482672 1.910510 -0.186177
v 3.821664 1.686706 0.141272
v -1.978591 1.391173 -0.519358
v 1.430715 1.905431 -0.393163
v 3.186476 2.317418 0.062454
v -3.471575 1.748881 0.080015
v -1.386880 2.377943 -0.498332
v 0.348487 2.208494 -0.367323
v 1.387760 2.704305 -0.185497
v -1.646280 2.119381 -0.558614
v -3.956821 2.652296 -0.195848
v -3.395833 2.772299 -0.426611
v -0.139081 2.684930 -0.217389
v 0.880395 3.836350 0.218292
v 2.961476 3.239202 0.210999
v -4.625765 2.825888 0.111475
v -1.066654 3.038205 -0.248617
v -5.361171 3.541089 0.130678
v -4.899620 3.656635 -0.125273
v -3.215895 3.425138 -0.438031
v -4.641887 4.079619 -0.219619
v -2.969215 3.841317 -0.360117
v -4.658651 4.529526 -0.186283
v -4.204462 4.882303 -0.156578
v -6.416121 4.960553 0.205731
v -2.781315 4.336670 -0.172913
v -6.353445 5.476135 0.180663
v -4.134479 5.269534 -0.012560
v 4.178022 1.977044 0.230003
v 4.225781 1.514910 0.230003
v 4.060371 2.305140 0.230003
v 3.779908 2.734335 0.230003
v 4.265296 0.987910 0.230003
v 4.417039 -0.050198 0.230003
v 4.576658 -1.413032 0.230003
v 4.351808 0.660595 0.230003
v 4.611608 -1.797755 0.230003
v 4.589417 -2.464073 0.230003
v 4.604352 -3.018689 0.230003
v 4.377769 -4.050674 0.230003
v 4.069752 -4.963071 0.230003
v 4.320327 -4.262870 0.230003
v 3.707705 -5.568867 0.230003
v 3.702533 -5.575491 0.230003
v 4.325852 0.777210 0.230003
v 2.566878 -5.968601 0.230003
v 3.165748 -5.937243 0.230003
v 0.519795 -4.361903 0.230003
v 0.634655 -4.490328 0.230003
v 1.366597 -5.253848 0.230003
v 1.674386 -5.536690 0.230003
v 2.001988 -5.743117 0.230003
v 2.288333 -5.892980 0.230003
v 0.261279 -4.170826 0.230003
v -0.427487 -3.663542 0.230003
v -1.105792 -2.897085 0.230003
v -0.841500 -3.191952 0.230003
v -0.510888 -3.578726 0.230003
v -1.556504 -2.065457 0.230003
v -1.412596 -2.354716 0.230003
v 3.028215 3.283303 0.230003
v 2.857511 3.328583 0.230003
v 1.675651 3.748526 0.230003
v 3.145344 3.200809 0.230003
v 0.933816 3.859033 0.230003
v 0.870348 3.873280 0.230003
v 0.763797 3.859981 0.230003
v -0.324561 3.804659 0.230003
v -3.105655 5.234552 0.230003
v -1.100486 4.063800 0.230003
v -4.048387 5.708742 0.230003
v -4.631492 5.866811 0.230003
v -5.009875 5.964135 0.230003
v -5.242624 5.974072 0.230003
v -6.009269 5.955650 0.230003
v -6.107493 5.897091 0.230003
v -6.633297 5.689443 0.230003
v -6.649650 5.578791 0.230003
v -1.033878 4.019523 0.230003
v -4.748763 2.826741 0.230003
v -6.519621 4.999114 0.230003
v -6.430107 4.876046 0.230003
v -6.159454 4.374590 0.230003
v -5.946011 4.071806 0.230003
v -5.590980 3.641570 0.230003
v -2.409185 0.173906 0.230003
v -2.748462 0.742484 0.230003
v -2.270305 -0.027319 0.230003
v -2.014320 -0.517292 0.230003
v -2.880438 0.907069 0.230003
v -3.589575 1.748099 0.230003
v -4.551142 2.665167 0.230003
v -1.869944 -1.063221 0.230003
v -1.764431 -1.302782 0.230003
v -1.729183 -1.615441 0.230003
vn -0.3559 0.2127 0.9100
vn -0.0002 0.2230 0.9748
vn -0.1551 0.2120 0.9649
vn 0.3435 0.3293 0.8795
vn 0.2555 0.2520 0.9334
vn 0.2888 0.2468 0.9250
vn 0.0502 0.2250 0.9731
vn 0.0005 0.2264 0.9740
vn 0.4615 0.2296 0.8569
vn 0.1802 0.2301 0.9563
vn -0.4660 0.0926 0.8799
vn 0.3143 0.2360 0.9195
vn -0.5620 0.0237 0.8268
vn 0.5123 0.0578 0.8569
vn 0.1255 0.1721 0.9770
vn 0.1145 0.1047 0.9879
vn -0.0721 0.0773 0.9944
vn -0.3210 -0.0197 0.9469
vn -0.5734 -0.0760 0.8157
vn 0.3236 0.2606 0.9096
vn 0.0330 -0.0439 0.9985
vn -0.0903 -0.0295 0.9955
vn 0.4844 0.2913 0.8249
vn -0.2232 -0.1014 0.9695
vn 0.4916 0.2927 0.8201
vn 0.0329 -0.0358 0.9988
vn -0.1720 -0.1358 0.9757
vn -0.0169 -0.0264 0.9995
vn -0.4899 -0.1355 0.8612
vn 0.5875 0.4055 0.7004
vn 0.1241 0.0178 0.9921
vn -0.3899 -0.1863 0.9018
vn -0.0733 -0.1058 0.9917
vn -0.0868 -0.1865 0.9786
vn -0.2370 -0.2224 0.9457
vn -0.2902 -0.2257 0.9300
vn 0.0104 -0.1053 0.9944
vn -0.0742 -0.2263 0.9712
vn -0.1867 -0.2323 0.9545
vn -0.2807 -0.1646 0.9456
vn 0.2712 0.2153 0.9381
vn -0.0398 -0.1889 0.9812
vn -0.1123 -0.4754 0.8726
vn 0.6056 0.6349 0.4797
vn -0.1076 -0.3969 0.9115
vn 0.0302 -0.0559 0.9980
vn -0.1533 -0.2563 0.9544
vn -0.0037 -0.3374 0.9413
vn 0.3248 0.2406 0.9147
vn -0.0547 -0.1523 0.9868
vn 0.0187 -0.3683 0.9295
vn 0.4658 0.3811 0.7986
vn -0.1769 -0.2885 0.9410
vn -0.1202 -0.3382 0.9334
vn 0.2365 0.0720 0.9690
vn 0.5085 0.4196 0.7520
vn 0.1201 -0.0689 0.9904
vn 0.3696 0.1995 0.9075
vn 0.0547 -0.1535 0.9866
vn 0.0046 -0.1866 0.9824
vn -0.1150 -0.3280 0.9377
vn 0.1565 -0.0231 0.9874
vn -0.0356 0.3598 0.9324
vn -0.2212 0.3190 0.9216
vn -0.2272 0.2125 0.9504
vn 0.0470 0.2389 0.9699
vn -0.0576 0.2393 0.9692
vn 0.2848 0.2547 0.9241
vn -0.3924 0.1404 0.9090
vn 0.1628 0.2215 0.9615
vn 0.2034 0.2507 0.9464
vn -0.1664 0.1673 0.9718
vn 0.2105 0.3285 0.9207
vn -0.0835 0.2029 0.9756
vn -0.3565 0.0965 0.9293
vn -0.2750 0.1622 0.9477
vn 0.3389 0.3037 0.8905
vn 0.3184 0.2976 0.9000
vn 0.1776 0.2664 0.9474
vn -0.3148 0.0640 0.9470
vn 0.4315 0.2193 0.8750
vn 0.2299 0.2120 0.9498
vn -0.1132 0.1028 0.9882
vn 0.5687 0.2505 0.7835
vn 0.1524 0.1370 0.9788
vn 0.0680 0.1143 0.9911
vn 0.0801 0.0541 0.9953
vn 0.5644 0.2478 0.7874
vn 0.1697 0.1764 0.9696
vn -0.4405 -0.0404 0.8968
vn 0.2529 0.1439 0.9567
vn 0.1104 0.0442 0.9929
vn -0.1900 -0.1010 0.9766
vn -0.4932 -0.1307 0.8601
vn 0.6969 0.3641 0.6179
vn 0.1615 0.1641 0.9731
vn 0.0379 0.0426 0.9984
vn -0.3845 -0.1942 0.9025
vn 0.3248 0.1744 0.9296
vn -0.0324 -0.0634 0.9975
vn -0.0120 -0.1196 0.9927
vn -0.0731 -0.1595 0.9845
vn 0.1605 0.0423 0.9861
vn -0.0974 -0.1850 0.9779
vn -0.3170 -0.0992 0.9432
vn 0.6542 0.5516 0.5175
vn 0.5598 0.4688 0.6833
vn 0.0736 -0.0508 0.9960
vn 0.5807 0.5065 0.6374
vn 0.3952 0.3437 0.8518
vn -0.2408 -0.1677 0.9560
vn 0.3217 0.2516 0.9128
vn 0.4661 0.4777 0.7447
vn 0.1432 0.0807 0.9864
vn -0.1420 -0.2892 0.9467
vn -0.0480 -0.2537 0.9661
vn -0.1874 -0.2187 0.9576
vn -0.2174 -0.2068 0.9539
vn -0.1888 -0.0677 0.9797
vn 0.0863 -0.0064 0.9962
vn -0.1403 -0.1908 0.9716
vn -0.0628 -0.1664 0.9841
vn -0.0315 -0.3292 0.9437
vn -0.1714 -0.2747 0.9461
vn 0.3792 0.3671 0.8494
vn 0.1416 -0.0217 0.9897
vn -0.0531 -0.3565 0.9328
vn 0.4083 0.2878 0.8663
vn -0.0777 -0.2930 0.9529
vn 0.2594 0.0570 0.9641
vn -0.1098 -0.3147 0.9428
vn -0.2752 -0.4140 0.8677
vn 0.0366 -0.2930 0.9554
vn -0.0716 -0.3192 0.9450
vn 0.2224 0.0204 0.9747
vn 0.0960 -0.2056 0.9739
vn 0.1050 -0.1760 0.9788
vn 0.0079 -0.3271 0.9449
vn -0.0148 -0.3462 0.9380
vn -0.1173 -0.4559 0.8823
vn -0.1249 -0.4608 0.8787
vn -0.4300 -0.0116 0.9028
vn 0.2338 0.3710 0.8987
vn -0.3457 -0.0770 0.9352
vn 0.2864 0.2816 0.9158
vn -0.2773 -0.4749 0.8352
vn -0.3416 -0.0982 0.9347
vn -0.3066 0.0102 0.9518
vn 0.6520 0.5229 0.5491
vn 0.6826 0.4073 0.6068
vn 0.5304 0.6487 0.5457
vn -0.1424 -0.2021 0.9690
vn -0.2238 -0.0231 0.9744
vn 0.1776 0.0398 0.9833
vn 0.2157 0.2929 0.9315
vn 0.4996 0.1917 0.8448
vn 0.1983 0.3790 0.9039
vn 0.0594 -0.1504 0.9868
vn 0.0958 0.3528 0.9308
vn 0.4539 0.2568 0.8533
vn -0.4000 0.0878 0.9123
vn 0.5987 0.1583 0.7852
vn -0.1791 -0.3905 0.9030
vn -0.1885 -0.1232 0.9743
vn -0.3757 0.2933 0.8791
vn 0.2203 0.2981 0.9288
vn -0.2211 -0.0166 0.9751
vn -0.3277 -0.0384 0.9440
vn 0.2989 0.2174 0.9292
vn 0.3494 0.3802 0.8564
vn -0.3419 -0.0311 0.9392
vn -0.2182 -0.4641 0.8585
vn 0.5215 0.5391 0.6614
vn 0.5875 0.4054 0.7004
vn -0.0176 0.3354 0.9419
vn -0.2206 0.3273 0.9188
vn -0.2457 0.2262 0.9426
vn -0.2848 0.1872 0.9401
vn -0.4514 0.1189 0.8844
vn -0.2696 0.0958 0.9582
vn 0.0600 0.1096 0.9922
vn 0.2713 0.0941 0.9579
vn 0.2021 -0.0649 0.9772
vn 0.2349 0.0187 0.9718
vn -0.1306 -0.4311 0.8928
vn -0.2204 -0.4381 0.8715
vn 0.5714 0.5717 0.5888
s off
f 89//1 6//1 4//1
f 3//2 8//2 7//2
f 1//3 9//3 8//3
f 5//4 95//4 96//4
f 2//5 10//5 5//5
f 11//6 103//6 104//6
f 7//7 13//7 12//7
f 7//8 8//8 13//8
f 17//9 105//9 106//9
f 12//10 22//10 18//10
f 16//11 14//11 19//11
f 18//12 31//12 17//12
f 20//13 19//13 14//13
f 21//14 140//14 141//14
f 22//15 24//15 23//15
f 12//16 25//16 24//16
f 13//17 26//17 25//17
f 19//18 27//18 26//18
f 20//19 28//19 19//19
f 31//20 30//20 21//20
f 25//21 33//21 32//21
f 25//22 26//22 33//22
f 30//23 39//23 29//23
f 27//24 37//24 26//24
f 39//25 38//25 29//25
f 32//26 33//26 35//26
f 37//27 36//27 33//27
f 32//28 35//28 40//28
f 28//29 42//29 27//29
f 38//30 132//30 134//30
f 34//31 40//31 41//31
f 42//32 45//32 37//32
f 35//33 44//33 43//33
f 36//34 50//34 44//34
f 37//35 47//35 36//35
f 45//36 47//36 37//36
f 43//37 56//37 40//37
f 50//38 53//38 43//38
f 47//39 50//39 36//39
f 48//40 51//40 45//40
f 49//41 58//41 39//41
f 43//42 53//42 56//42
f 50//43 54//43 53//43
f 52//44 138//44 137//44
f 54//45 59//45 53//45
f 56//46 66//46 41//46
f 61//47 55//47 50//47
f 55//48 60//48 54//48
f 58//49 65//49 57//49
f 53//50 68//50 66//50
f 113//51 59//51 60//51
f 57//52 65//52 62//52
f 63//53 72//53 68//53
f 108//54 55//54 61//54
f 58//55 67//55 65//55
f 64//56 130//56 131//56
f 66//57 69//57 67//57
f 71//58 129//58 65//58
f 66//59 70//59 69//59
f 68//60 70//60 66//60
f 72//61 74//61 70//61
f 73//62 123//62 124//62
f 92//63 1//63 3//63
f 1//64 90//64 4//64
f 6//65 1//65 4//65
f 3//66 7//66 2//66
f 3//67 1//67 8//67
f 10//68 95//68 5//68
f 6//69 87//69 88//69
f 2//70 7//70 10//70
f 7//71 12//71 10//71
f 16//72 8//72 9//72
f 11//73 10//73 18//73
f 13//74 8//74 15//74
f 6//75 88//75 86//75
f 9//76 6//76 16//76
f 17//77 103//77 11//77
f 11//78 18//78 17//78
f 10//79 12//79 18//79
f 26//80 16//80 19//80
f 17//81 31//81 21//81
f 18//82 22//82 31//82
f 13//83 15//83 26//83
f 29//84 140//84 21//84
f 22//85 12//85 24//85
f 12//86 13//86 25//86
f 32//87 23//87 24//87
f 21//88 30//88 29//88
f 22//89 23//89 31//89
f 80//90 28//90 20//90
f 30//91 34//91 49//91
f 24//92 25//92 32//92
f 26//93 37//93 33//93
f 19//94 28//94 27//94
f 29//95 134//95 135//95
f 31//96 23//96 34//96
f 34//97 32//97 40//97
f 27//98 42//98 37//98
f 30//99 49//99 39//99
f 40//100 35//100 43//100
f 35//101 33//101 44//101
f 33//102 36//102 44//102
f 34//103 41//103 49//103
f 44//104 50//104 43//104
f 42//105 48//105 45//105
f 52//106 136//106 46//106
f 46//107 38//107 52//107
f 41//108 40//108 56//108
f 38//109 57//109 52//109
f 38//110 39//110 57//110
f 45//111 51//111 47//111
f 39//112 58//112 57//112
f 52//113 57//113 62//113
f 49//114 41//114 58//114
f 53//115 59//115 63//115
f 50//116 55//116 54//116
f 47//117 61//117 50//117
f 47//118 51//118 61//118
f 48//119 77//119 51//119
f 41//120 66//120 58//120
f 51//121 110//121 61//121
f 56//122 53//122 66//122
f 54//123 60//123 59//123
f 53//124 63//124 68//124
f 62//125 65//125 64//125
f 58//126 66//126 67//126
f 109//127 60//127 55//127
f 65//128 130//128 64//128
f 61//129 107//129 108//129
f 65//130 67//130 71//130
f 68//131 72//131 70//131
f 63//132 116//132 72//132
f 60//133 112//133 113//133
f 60//134 111//134 112//134
f 71//135 69//135 73//135
f 69//136 70//136 73//136
f 73//137 121//137 122//137
f 70//138 120//138 121//138
f 70//139 119//139 120//139
f 74//140 118//140 119//140
f 74//141 117//141 118//141
f 84//142 14//142 85//142
f 97//143 2//143 5//143
f 82//144 42//144 28//144
f 104//145 101//145 11//145
f 116//146 115//146 72//146
f 79//147 42//147 91//147
f 84//148 83//148 20//148
f 136//149 133//149 46//149
f 133//150 132//150 46//150
f 126//151 138//151 62//151
f 110//152 107//152 61//152
f 76//153 75//153 48//153
f 127//154 73//154 124//154
f 101//155 100//155 11//155
f 141//156 105//156 21//156
f 98//157 99//157 2//157
f 122//158 123//158 73//158
f 99//159 3//159 2//159
f 106//160 102//160 17//160
f 86//161 85//161 14//161
f 135//162 139//162 29//162
f 114//163 63//163 59//163
f 77//164 78//164 51//164
f 90//165 89//165 4//165
f 100//166 10//166 11//166
f 79//167 76//167 48//167
f 81//168 80//168 20//168
f 127//169 128//169 71//169
f 96//170 97//170 5//170
f 83//171 81//171 20//171
f 115//172 74//172 72//172
f 126//173 64//173 131//173
f 89//1 87//1 6//1
f 17//9 21//9 105//9
f 38//174 46//174 132//174
f 52//44 62//44 138//44
f 113//51 114//51 59//51
f 108//54 109//54 55//54
f 71//58 128//58 129//58
f 92//175 93//175 1//175
f 1//176 93//176 90//176
f 6//177 9//177 1//177
f 10//68 94//68 95//68
f 16//178 15//178 8//178
f 86//75 14//75 6//75
f 14//179 16//179 6//179
f 17//77 102//77 103//77
f 26//180 15//180 16//180
f 29//84 139//84 140//84
f 32//181 34//181 23//181
f 80//90 82//90 28//90
f 30//182 31//182 34//182
f 29//95 38//95 134//95
f 52//106 137//106 136//106
f 48//119 75//119 77//119
f 51//121 78//121 110//121
f 109//127 111//127 60//127
f 65//128 129//128 130//128
f 63//132 125//132 116//132
f 71//183 67//183 69//183
f 73//137 70//137 121//137
f 70//139 74//139 119//139
f 84//142 20//142 14//142
f 97//143 98//143 2//143
f 82//144 91//144 42//144
f 79//147 48//147 42//147
f 127//184 71//184 73//184
f 99//159 92//159 3//159
f 114//185 125//185 63//185
f 100//166 94//166 10//166
f 115//186 117//186 74//186
f 126//187 62//187 64//187
