# Blender v2.80 (sub 75) OBJ File: 'space.blend'
# www.blender.org
v 2.255150 -8.732490 7.241638
v 2.228442 -8.721462 7.236567
v 2.246355 -8.737600 7.222519
v 2.275425 -8.654440 7.231909
v 2.297633 -8.669635 7.225326
v 2.283203 -8.656573 7.224875
v 2.262865 -8.694432 7.264111
v 2.258713 -8.709180 7.261378
v 2.287569 -8.702513 7.256038
v 2.245815 -8.689556 7.260676
v 2.233738 -8.698439 7.254507
v 2.226789 -8.671452 7.241194
v 2.222863 -8.699847 7.243394
v 2.252223 -8.650101 7.223801
v 2.276850 -8.660200 7.242322
v 2.238079 -8.715213 7.250792
v 2.300580 -8.670542 7.207747
v 2.291239 -8.662969 7.211038
v 2.285783 -8.662541 7.197434
v 2.299021 -8.674664 7.205374
v 2.295683 -8.692560 7.187310
v 2.265225 -8.672840 7.258339
v 2.278462 -8.652298 7.220905
v 2.266027 -8.650393 7.213582
v 2.295483 -8.681713 7.246510
v 2.301481 -8.678743 7.244768
v 2.300944 -8.682045 7.236171
v 2.294471 -8.722472 7.203496
v 2.270367 -8.738000 7.204457
v 2.289294 -8.719208 7.190297
v 2.292508 -8.666682 7.201493
v 2.253111 -8.658524 7.243384
v 2.241072 -8.655744 7.232025
v 2.305847 -8.692801 7.225496
v 2.300919 -8.691487 7.240803
v 2.276645 -8.733028 7.235976
v 2.274546 -8.719152 7.254225
v 2.302823 -8.687639 7.247241
v 2.290863 -8.727861 7.223965
v 2.295605 -8.714481 7.241222
v 2.278051 -8.678064 7.257870
v 2.303478 -8.710636 7.222217
v 2.306244 -8.683930 7.239056
v 2.239394 -8.673826 7.253119
v 2.302844 -8.698721 7.201493
vn -0.4136 -0.8140 0.4078
vn 0.5912 0.6688 0.4508
vn 0.2299 -0.2395 0.9433
vn -0.2277 -0.1150 0.9669
vn -0.7160 0.1518 0.6814
vn -0.0057 0.8747 0.4847
vn -0.3681 -0.2909 0.8831
vn 0.6427 0.7630 0.0683
vn 0.7185 0.4231 -0.5520
vn -0.1158 0.2683 0.9563
vn 0.4547 -0.2807 -0.8452
vn 0.4228 0.8930 -0.1544
vn -0.4905 0.8234 -0.2854
vn 0.4888 -0.7827 -0.3853
vn 0.6539 0.1761 -0.7358
vn -0.1651 0.9033 0.3960
vn 0.5611 0.7940 -0.2340
vn 0.9459 0.1409 0.2923
vn 0.1410 -0.7802 0.6095
vn -0.5605 -0.6274 0.5406
vn 0.0822 0.9169 0.3906
vn 0.5868 -0.7100 0.3892
vn 0.5337 -0.4925 0.6874
vn -0.0571 -0.6401 0.7661
vn 0.5336 -0.8362 -0.1262
vn 0.5270 0.5778 0.6232
vn -0.3344 -0.1868 0.9237
vn 0.7980 -0.5624 0.2168
vn 0.8238 -0.5595 0.0908
vn 0.3145 -0.4187 -0.8520
vn 0.7434 0.0232 0.6684
vn -0.5453 0.1716 0.8205
vn -0.2117 -0.6126 0.7616
vn 0.9694 0.1808 -0.1659
vn 0.2867 0.6399 0.7130
vn 0.4441 0.8833 -0.1503
vn 0.6696 0.7413 0.0462
vn 0.4743 0.8115 -0.3412
vn 0.2381 -0.2874 0.9277
vn -0.4022 -0.7062 0.5827
vn -0.6830 -0.3744 0.6272
vn 0.1338 0.2422 0.9610
vn -0.4007 0.7198 0.5669
vn 0.7997 -0.1743 0.5746
vn 0.9380 0.3333 0.0951
vn 0.7543 0.5344 0.3812
vn -0.6552 0.1918 0.7307
vn 0.0938 0.9907 0.0982
vn 0.9257 -0.2082 0.3160
vn 0.9205 -0.1855 0.3438
vn 0.6037 0.7668 -0.2181
vn 0.1349 0.2842 0.9492
vn 0.1053 0.9703 0.2179
vn 0.9889 -0.1138 -0.0957
vn 0.9067 0.2036 -0.3693
vn 0.3268 0.0565 0.9434
vn 0.5978 0.7333 0.3239
vn 0.9131 -0.3407 -0.2239
vn 0.5621 0.1580 0.8118
vn 0.8147 -0.2538 -0.5214
vn 0.4917 0.8193 0.2950
vn -0.1981 0.3576 0.9126
vn 0.3904 -0.9182 0.0672
vn 0.8851 -0.4330 0.1708
vn -0.3948 0.7037 0.5907
vn -0.6562 -0.3211 0.6829
vn -0.1762 0.6359 0.7514
vn 0.6400 0.6377 0.4286
vn 0.8467 -0.3334 -0.4146
vn 0.0875 -0.9865 0.1382
vn 0.5217 0.0109 -0.8531
vn 0.4940 -0.6638 0.5615
vn 0.8444 0.2578 0.4697
vn 0.0392 -0.9697 0.2412
vn 0.0824 0.7524 0.6535
vn 0.8060 -0.5917 -0.0137
vn 0.9424 0.3340 -0.0186
s 1
f 1//1 2//1 3//1
f 4//2 5//2 6//2
f 7//3 8//3 9//3
f 8//4 7//4 10//4
f 11//5 12//5 13//5
f 14//6 15//6 4//6
f 11//7 16//7 8//7
f 17//8 18//8 5//8
f 19//9 20//9 21//9
f 10//10 7//10 22//10
f 23//11 6//11 24//11
f 6//12 19//12 24//12
f 25//13 26//13 27//13
f 28//14 29//14 30//14
f 17//15 20//15 31//15
f 32//16 14//16 33//16
f 31//17 18//17 17//17
f 34//18 27//18 35//18
f 36//19 37//19 1//19
f 25//20 35//20 38//20
f 14//21 32//21 15//21
f 36//22 39//22 40//22
f 37//23 40//23 9//23
f 8//24 1//24 37//24
f 39//25 29//25 28//25
f 25//26 15//26 41//26
f 11//27 8//27 10//27
f 39//28 42//28 40//28
f 43//29 38//29 35//29
f 43//30 35//30 27//30
f 9//31 35//31 25//31
f 11//32 10//32 44//32
f 8//33 16//33 1//33
f 20//34 34//34 45//34
f 41//35 15//35 22//35
f 19//36 6//36 18//36
f 5//37 18//37 6//37
f 26//38 43//38 27//38
f 9//39 8//39 37//39
f 1//40 16//40 2//40
f 2//41 16//41 13//41
f 22//42 7//42 41//42
f 44//43 32//43 12//43
f 40//44 35//44 9//44
f 34//45 5//45 27//45
f 5//46 25//46 27//46
f 12//47 11//47 44//47
f 14//48 23//48 24//48
f 40//49 34//49 35//49
f 42//50 34//50 40//50
f 19//51 18//51 31//51
f 26//52 25//52 38//52
f 14//53 4//53 23//53
f 45//54 34//54 42//54
f 21//55 20//55 45//55
f 7//56 9//56 41//56
f 4//57 15//57 5//57
f 28//58 45//58 42//58
f 25//59 41//59 9//59
f 21//60 45//60 30//60
f 4//61 6//61 23//61
f 10//62 22//62 44//62
f 36//63 29//63 39//63
f 20//64 17//64 5//64
f 12//65 32//65 33//65
f 13//66 16//66 11//66
f 22//67 32//67 44//67
f 5//68 15//68 25//68
f 45//69 28//69 30//69
f 29//70 36//70 3//70
f 19//71 31//71 20//71
f 37//72 36//72 40//72
f 43//73 26//73 38//73
f 36//74 1//74 3//74
f 32//75 22//75 15//75
f 42//76 39//76 28//76
f 20//77 5//77 34//77
