# Blender v2.80 (sub 75) OBJ File: 'space.blend'
# www.blender.org
v 2.418890 0.086388 7.334182
v 2.420999 0.041849 7.330892
v 2.449899 0.050917 7.304421
v 2.163029 0.262773 7.423652
v 2.141267 0.160208 7.444071
v 2.179365 0.214171 7.429713
v 2.149595 0.144768 7.445019
v 2.184527 0.083496 7.447404
v 2.220232 0.159017 7.431897
v 2.080992 0.179466 7.443258
v 2.123628 0.135831 7.448946
v 2.274014 0.250281 7.403199
v 2.237142 0.162054 7.426545
v 2.290218 0.241147 7.399244
v 2.411906 0.185916 7.337081
v 2.464535 0.058259 7.291027
v 2.459577 0.088973 7.296660
v 2.324051 0.201032 7.390984
v 2.301537 0.107406 7.408814
v 2.355382 0.153049 7.377565
v 2.408443 0.229627 7.337587
v 2.209703 0.257473 7.417297
v 2.205730 0.307140 7.408084
v 2.425173 0.232757 7.324232
v 2.445591 0.173496 7.311541
v 2.208783 0.232057 7.422048
v 2.432832 0.235377 7.317961
v 2.365728 0.124864 7.373764
v 2.357727 0.028730 7.378575
v 2.379917 0.031320 7.362629
v 2.212900 0.299832 7.408473
v 2.239464 0.277849 7.408647
v 2.252372 0.266724 7.407732
v 2.408817 0.038125 7.341611
v 2.282567 0.032160 7.420912
v 2.303661 0.028521 7.410160
v 2.406605 0.085559 7.343308
v 2.369263 0.184742 7.367598
v 2.404258 0.132511 7.344676
v 2.371212 0.223007 7.362970
v 2.115606 0.214553 7.435330
v 2.281398 0.136047 7.415196
v 2.304536 0.233859 7.395627
v 2.390792 0.226177 7.351686
v 2.398532 0.227580 7.345510
v 2.135697 0.124424 7.449984
v 2.264320 0.256783 7.405387
v 2.343596 0.028378 7.388768
v 2.346199 0.051747 7.387545
v 2.208522 0.095245 7.442170
v 2.329763 0.225882 7.385599
v 2.344168 0.224093 7.377820
v 2.360835 0.222846 7.368747
v 2.229653 0.286139 7.408582
v 2.199097 0.074044 7.446125
v 2.236260 0.049828 7.436930
v 2.257344 0.040142 7.430952
vn 0.6904 0.0111 0.7233
vn 0.6790 -0.0221 0.7338
vn 0.6800 -0.0205 0.7329
vn 0.1321 0.1792 0.9749
vn 0.0560 0.1739 0.9832
vn 0.1383 0.1682 0.9760
vn 0.1562 0.1348 0.9785
vn 0.1574 0.1278 0.9792
vn 0.1637 0.1464 0.9756
vn 0.0428 0.1754 0.9836
vn 0.0403 0.1678 0.9850
vn 0.3009 0.1244 0.9455
vn 0.3045 0.1066 0.9465
vn 0.3019 0.1210 0.9456
vn 0.6970 0.0422 0.7158
vn 0.6712 -0.0073 0.7412
vn 0.5771 -0.0515 0.8150
vn 0.4818 0.0704 0.8734
vn 0.4673 0.0394 0.8832
vn 0.4716 0.0573 0.8799
vn 0.6417 0.0101 0.7669
vn 0.1520 0.1853 0.9709
vn 0.1486 0.1918 0.9701
vn 0.6134 0.0168 0.7896
vn 0.2289 -0.1278 0.9650
vn 0.1768 0.1587 0.9714
vn 0.6230 0.0475 0.7807
vn 0.6131 0.0279 0.7895
vn 0.5842 -0.0080 0.8116
vn 0.5868 -0.0074 0.8097
vn 0.1447 0.1913 0.9708
vn 0.1979 0.1573 0.9675
vn 0.2369 0.1448 0.9607
vn 0.5915 -0.0051 0.8063
vn 0.4577 0.0275 0.8887
vn 0.4654 0.0276 0.8847
vn 0.5960 0.0066 0.8029
vn 0.6093 0.0558 0.7910
vn 0.5555 0.0099 0.8315
vn 0.5312 0.0227 0.8470
vn 0.0506 0.1819 0.9820
vn 0.3054 0.1000 0.9470
vn 0.2995 0.1186 0.9467
vn 0.5601 0.0185 0.8282
vn 0.6200 0.0305 0.7840
vn 0.1601 0.1294 0.9786
vn 0.2910 0.1260 0.9484
vn 0.4557 0.0168 0.8900
vn 0.4415 0.0114 0.8972
vn 0.2949 0.0749 0.9526
vn 0.4837 0.0740 0.8721
vn 0.4810 0.0728 0.8737
vn 0.4811 0.0728 0.8736
vn 0.1496 0.1908 0.9702
vn 0.2746 0.0570 0.9599
vn 0.2998 0.0733 0.9512
vn 0.3061 0.0781 0.9488
s 1
f 1//1 2//2 3//3
f 4//4 5//5 6//6
f 7//7 8//8 9//9
f 5//5 10//10 11//11
f 12//12 13//13 14//14
f 15//15 1//1 16//16
f 15//15 16//16 17//17
f 18//18 19//19 20//20
f 21//21 15//15 17//17
f 4//4 22//22 23//23
f 21//21 17//17 24//24
f 24//24 17//17 25//25
f 26//26 7//7 9//9
f 1//1 3//3 16//16
f 27//27 24//24 25//25
f 28//28 29//29 30//30
f 23//23 22//22 31//31
f 32//32 9//9 33//33
f 28//28 30//30 34//34
f 19//19 35//35 36//36
f 28//28 34//34 37//37
f 38//38 28//28 37//37
f 38//38 37//37 39//39
f 40//40 38//38 39//39
f 4//4 41//41 5//5
f 14//14 42//42 43//43
f 44//44 40//40 39//39
f 44//44 39//39 45//45
f 7//7 46//46 8//8
f 33//33 9//9 47//47
f 48//48 19//19 36//36
f 14//14 13//13 42//42
f 19//19 48//48 49//49
f 20//20 19//19 49//49
f 13//13 50//50 42//42
f 22//22 4//4 6//6
f 18//18 20//20 51//51
f 26//26 9//9 32//32
f 52//52 51//51 20//20
f 52//52 20//20 53//53
f 31//31 22//22 54//54
f 41//41 10//10 5//5
f 50//50 55//55 56//56
f 50//50 56//56 57//57
f 50//50 57//57 42//42
